<svg width="262" height="48" viewBox="0 0 262 48" fill="none" xmlns="http://www.w3.org/2000/svg">
<path d="M44.3739 11.8022C42.198 8.37363 39.1651 5.67033 35.275 3.75825C31.3189 1.91209 26.8354 0.92308 21.8244 0.92308H0.000244141V11.3407H21.2969C25.253 11.3407 28.4178 12.4615 30.7914 14.7033C33.1651 17.011 34.4178 20.1099 34.4178 24C34.4178 27.956 33.1651 31.0549 30.7914 33.2967C28.4178 35.5385 25.253 36.6593 21.2969 36.6593H13.0552V24.3956H0.000244141V47.0769H21.8244C26.8354 47.0769 31.3189 46.1539 35.275 44.2418C39.1651 42.3956 42.198 39.6923 44.3739 36.1978C46.4838 32.7692 47.6046 28.6813 47.6046 24C47.6046 19.3846 46.4838 15.2967 44.3739 11.8022Z" fill="#C7C5B6"/>
<path d="M68.224 44.9011C72.1141 47.011 76.5317 48 81.4108 48C86.2899 48 90.6416 47.011 94.5317 44.9011C98.4218 42.8571 101.455 40.022 103.697 36.3297C105.938 32.7033 107.059 28.6154 107.059 24C107.059 19.4505 105.938 15.3626 103.697 11.6703C101.455 8.04396 98.4218 5.20879 94.5317 3.0989C90.6416 1.05495 86.2899 0 81.4108 0C76.5317 0 72.1141 1.05495 68.224 3.0989C64.3339 5.20879 61.3009 8.04396 59.0592 11.6703C56.8174 15.3626 55.7625 19.4505 55.7625 24C55.7625 28.6154 56.8174 32.7033 59.0592 36.3297C61.3009 40.022 64.3339 42.8571 68.224 44.9011ZM87.7405 35.5385C85.8284 36.6593 83.7185 37.1868 81.4108 37.1868C79.0372 37.1868 76.9273 36.6593 75.0811 35.5385C73.1691 34.4835 71.6526 32.9011 70.5976 30.9231C69.4767 28.9451 68.9493 26.6374 68.9493 24C68.9493 21.4286 69.4767 19.1209 70.5976 17.1429C71.6526 15.1648 73.1691 13.5824 75.0811 12.4615C76.9273 11.4066 79.0372 10.8132 81.4108 10.8132C83.7185 10.8132 85.8284 11.4066 87.7405 12.4615C89.5866 13.5824 91.1031 15.1648 92.224 17.1429C93.2789 19.1209 93.8723 21.4286 93.8723 24C93.8723 26.6374 93.2789 28.9451 92.224 30.9231C91.1031 32.9011 89.5866 34.4835 87.7405 35.5385Z" fill="#B1AFA2"/>
<path d="M156.659 8.96704C154.944 6.39561 152.571 4.41759 149.538 3.03297C146.439 1.64836 142.813 0.92308 138.659 0.92308H117.56V11.2088H137.868C140.505 11.2088 142.549 11.8022 143.933 12.989C145.252 14.1758 145.977 15.8901 145.977 18C145.977 20.1758 145.252 21.8242 143.933 23.011C142.549 24.1978 140.505 24.7253 137.868 24.7253H117.56V47.0769H130.615V35.011H138.659C142.813 35.011 146.439 34.3517 149.538 32.967C152.571 31.5824 154.944 29.6044 156.659 27.033C158.307 24.5275 159.164 21.4945 159.164 18C159.164 14.5714 158.307 11.5385 156.659 8.96704Z" fill="#9B9A8E"/>
<path d="M169.128 0.92308V47.0769H204.205V36.7253H182.183V0.92308H169.128Z" fill="#858479"/>
<path d="M222.284 44.9011C226.174 47.011 230.592 48 235.471 48C240.35 48 244.702 47.011 248.592 44.9011C252.482 42.8571 255.515 40.022 257.757 36.3297C259.999 32.7033 261.119 28.6154 261.119 24C261.119 19.4505 259.999 15.3626 257.757 11.6703C255.515 8.04396 252.482 5.20879 248.592 3.0989C244.702 1.05495 240.35 0 235.471 0C230.592 0 226.174 1.05495 222.284 3.0989C218.394 5.20879 215.361 8.04396 213.119 11.6703C210.878 15.3626 209.823 19.4505 209.823 24C209.823 28.6154 210.878 32.7033 213.119 36.3297C215.361 40.022 218.394 42.8571 222.284 44.9011ZM241.801 35.5385C239.889 36.6593 237.779 37.1868 235.471 37.1868C233.097 37.1868 230.988 36.6593 229.141 35.5385C227.229 34.4835 225.713 32.9011 224.658 30.9231C223.537 28.9451 223.01 26.6374 223.01 24C223.01 21.4286 223.537 19.1209 224.658 17.1429C225.713 15.1648 227.229 13.5824 229.141 12.4615C230.988 11.4066 233.097 10.8132 235.471 10.8132C237.779 10.8132 239.889 11.4066 241.801 12.4615C243.647 13.5824 245.163 15.1648 246.284 17.1429C247.339 19.1209 247.933 21.4286 247.933 24C247.933 26.6374 247.339 28.9451 246.284 30.9231C245.163 32.9011 243.647 34.4835 241.801 35.5385Z" fill="#6F6E65"/>
</svg>
