<svg width="520" height="570" viewBox="0 0 520 570" fill="none" xmlns="http://www.w3.org/2000/svg">
<rect width="520" height="570" rx="16" fill="white"/>
<path d="M38.9432 54.125C38.8371 53.1326 38.3902 52.3598 37.6023 51.8068C36.822 51.2538 35.8068 50.9773 34.5568 50.9773C33.678 50.9773 32.9242 51.1098 32.2955 51.375C31.6667 51.6402 31.1856 52 30.8523 52.4545C30.5189 52.9091 30.3485 53.428 30.3409 54.0114C30.3409 54.4962 30.4508 54.9167 30.6705 55.2727C30.8977 55.6288 31.2045 55.9318 31.5909 56.1818C31.9773 56.4242 32.4053 56.6288 32.875 56.7955C33.3447 56.9621 33.8182 57.1023 34.2955 57.2159L36.4773 57.7614C37.3561 57.9659 38.2008 58.2424 39.0114 58.5909C39.8295 58.9394 40.5606 59.3788 41.2045 59.9091C41.8561 60.4394 42.3712 61.0795 42.75 61.8295C43.1288 62.5795 43.3182 63.4583 43.3182 64.4659C43.3182 65.8295 42.9697 67.0303 42.2727 68.0682C41.5758 69.0985 40.5682 69.9053 39.25 70.4886C37.9394 71.0644 36.3523 71.3523 34.4886 71.3523C32.678 71.3523 31.1061 71.072 29.7727 70.5114C28.447 69.9508 27.4091 69.1326 26.6591 68.0568C25.9167 66.9811 25.5152 65.6705 25.4545 64.125H29.6023C29.6629 64.9356 29.9129 65.6098 30.3523 66.1477C30.7917 66.6856 31.3636 67.0871 32.0682 67.3523C32.7803 67.6174 33.5758 67.75 34.4545 67.75C35.3712 67.75 36.1742 67.6136 36.8636 67.3409C37.5606 67.0606 38.1061 66.6742 38.5 66.1818C38.8939 65.6818 39.0947 65.0985 39.1023 64.4318C39.0947 63.8258 38.9167 63.3258 38.5682 62.9318C38.2197 62.5303 37.7311 62.197 37.1023 61.9318C36.4811 61.6591 35.7538 61.4167 34.9205 61.2045L32.2727 60.5227C30.3561 60.0303 28.8409 59.2841 27.7273 58.2841C26.6212 57.2765 26.0682 55.9394 26.0682 54.2727C26.0682 52.9015 26.4394 51.7008 27.1818 50.6705C27.9318 49.6402 28.9508 48.8409 30.2386 48.2727C31.5265 47.697 32.9848 47.4091 34.6136 47.4091C36.2652 47.4091 37.7121 47.697 38.9545 48.2727C40.2045 48.8409 41.1856 49.6326 41.8977 50.6477C42.6098 51.6553 42.9773 52.8144 43 54.125H38.9432ZM46.8949 71V53.5455H51.0085V71H46.8949ZM48.9631 51.0682C48.3116 51.0682 47.7509 50.8523 47.2812 50.4205C46.8116 49.9811 46.5767 49.4545 46.5767 48.8409C46.5767 48.2197 46.8116 47.6932 47.2812 47.2614C47.7509 46.822 48.3116 46.6023 48.9631 46.6023C49.6222 46.6023 50.1828 46.822 50.6449 47.2614C51.1146 47.6932 51.3494 48.2197 51.3494 48.8409C51.3494 49.4545 51.1146 49.9811 50.6449 50.4205C50.1828 50.8523 49.6222 51.0682 48.9631 51.0682ZM62.8295 77.9091C61.3523 77.9091 60.0833 77.7083 59.0227 77.3068C57.9621 76.9129 57.1098 76.3826 56.4659 75.7159C55.822 75.0492 55.375 74.3106 55.125 73.5L58.8295 72.6023C58.9962 72.9432 59.2386 73.2803 59.5568 73.6136C59.875 73.9545 60.303 74.2348 60.8409 74.4545C61.3864 74.6818 62.072 74.7955 62.8977 74.7955C64.0644 74.7955 65.0303 74.5114 65.7955 73.9432C66.5606 73.3826 66.9432 72.4583 66.9432 71.1705V67.8636H66.7386C66.5265 68.2879 66.2159 68.7235 65.8068 69.1705C65.4053 69.6174 64.8712 69.9924 64.2045 70.2955C63.5455 70.5985 62.7159 70.75 61.7159 70.75C60.375 70.75 59.1591 70.4356 58.0682 69.8068C56.9848 69.1705 56.1212 68.2235 55.4773 66.9659C54.8409 65.7008 54.5227 64.1174 54.5227 62.2159C54.5227 60.2992 54.8409 58.6818 55.4773 57.3636C56.1212 56.0379 56.9886 55.0341 58.0795 54.3523C59.1705 53.6629 60.3864 53.3182 61.7273 53.3182C62.75 53.3182 63.5909 53.4924 64.25 53.8409C64.9167 54.1818 65.447 54.5947 65.8409 55.0795C66.2348 55.5568 66.5341 56.0076 66.7386 56.4318H66.9659V53.5455H71.0227V71.2841C71.0227 72.7765 70.6667 74.0114 69.9545 74.9886C69.2424 75.9659 68.2689 76.697 67.0341 77.1818C65.7992 77.6667 64.3977 77.9091 62.8295 77.9091ZM62.8636 67.5227C63.7348 67.5227 64.4773 67.3106 65.0909 66.8864C65.7045 66.4621 66.1705 65.8523 66.4886 65.0568C66.8068 64.2614 66.9659 63.3068 66.9659 62.1932C66.9659 61.0947 66.8068 60.1326 66.4886 59.3068C66.178 58.4811 65.7159 57.8409 65.1023 57.3864C64.4962 56.9242 63.75 56.6932 62.8636 56.6932C61.947 56.6932 61.1818 56.9318 60.5682 57.4091C59.9545 57.8864 59.4924 58.5417 59.1818 59.375C58.8712 60.2008 58.7159 61.1402 58.7159 62.1932C58.7159 63.2614 58.8712 64.197 59.1818 65C59.5 65.7955 59.9659 66.4167 60.5795 66.8636C61.2008 67.303 61.9621 67.5227 62.8636 67.5227ZM79.3523 60.7727V71H75.2386V53.5455H79.1705V56.5114H79.375C79.7765 55.5341 80.4167 54.7576 81.2955 54.1818C82.1818 53.6061 83.2765 53.3182 84.5795 53.3182C85.7841 53.3182 86.8333 53.5758 87.7273 54.0909C88.6288 54.6061 89.3258 55.3523 89.8182 56.3295C90.3182 57.3068 90.5644 58.4924 90.5568 59.8864V71H86.4432V60.5227C86.4432 59.3561 86.1402 58.4432 85.5341 57.7841C84.9356 57.125 84.1061 56.7955 83.0455 56.7955C82.3258 56.7955 81.6856 56.9545 81.125 57.2727C80.572 57.5833 80.1364 58.0341 79.8182 58.625C79.5076 59.2159 79.3523 59.9318 79.3523 60.7727ZM107.074 47.7273V71H102.858V47.7273H107.074ZM115.571 60.7727V71H111.457V53.5455H115.389V56.5114H115.594C115.995 55.5341 116.635 54.7576 117.514 54.1818C118.401 53.6061 119.495 53.3182 120.798 53.3182C122.003 53.3182 123.052 53.5758 123.946 54.0909C124.848 54.6061 125.545 55.3523 126.037 56.3295C126.537 57.3068 126.783 58.4924 126.776 59.8864V71H122.662V60.5227C122.662 59.3561 122.359 58.4432 121.753 57.7841C121.154 57.125 120.325 56.7955 119.264 56.7955C118.545 56.7955 117.904 56.9545 117.344 57.2727C116.791 57.5833 116.355 58.0341 116.037 58.625C115.726 59.2159 115.571 59.9318 115.571 60.7727Z" fill="black"/>
<path d="M28.0014 105L24.3707 91.9091H26.4482L28.9986 102.047H29.12L31.7727 91.9091H33.831L36.4837 102.053H36.6051L39.1491 91.9091H41.233L37.5959 105H35.608L32.853 95.1946H32.7507L29.9957 105H28.0014ZM46.1452 105.198C45.1779 105.198 44.3448 104.991 43.646 104.578C42.9513 104.161 42.4144 103.575 42.0352 102.82C41.6602 102.062 41.4727 101.173 41.4727 100.155C41.4727 99.1491 41.6602 98.2628 42.0352 97.4957C42.4144 96.7287 42.9428 96.13 43.6204 95.6996C44.3022 95.2692 45.0991 95.054 46.011 95.054C46.565 95.054 47.1019 95.1456 47.6218 95.3288C48.1417 95.5121 48.6083 95.7997 49.0217 96.1918C49.435 96.5838 49.761 97.093 49.9996 97.7195C50.2383 98.3416 50.3576 99.098 50.3576 99.9886V100.666H42.5529V99.2344H48.4847C48.4847 98.7315 48.3825 98.2862 48.1779 97.8984C47.9734 97.5064 47.6857 97.1974 47.315 96.9716C46.9485 96.7457 46.5181 96.6328 46.0238 96.6328C45.4869 96.6328 45.0181 96.7649 44.6175 97.0291C44.2212 97.2891 43.9144 97.63 43.6971 98.0518C43.484 98.4695 43.3775 98.9233 43.3775 99.4134V100.532C43.3775 101.188 43.4925 101.746 43.7227 102.207C43.957 102.667 44.283 103.018 44.7006 103.261C45.1183 103.5 45.6062 103.619 46.1644 103.619C46.5266 103.619 46.8569 103.568 47.1552 103.466C47.4535 103.359 47.7113 103.202 47.9286 102.993C48.146 102.784 48.3121 102.526 48.4272 102.219L50.2362 102.545C50.0913 103.078 49.8313 103.545 49.4563 103.945C49.0856 104.342 48.619 104.651 48.0565 104.872C47.4982 105.089 46.8612 105.198 46.1452 105.198ZM54.3894 91.9091V105H52.4782V91.9091H54.3894ZM61.0962 105.198C60.146 105.198 59.3278 104.983 58.6417 104.553C57.9599 104.118 57.4357 103.519 57.0692 102.756C56.7028 101.994 56.5195 101.12 56.5195 100.136C56.5195 99.1385 56.707 98.2585 57.082 97.4957C57.457 96.7287 57.9854 96.13 58.6673 95.6996C59.3491 95.2692 60.1523 95.054 61.0771 95.054C61.8228 95.054 62.4876 95.1925 63.0714 95.4695C63.6552 95.7422 64.1261 96.1257 64.484 96.62C64.8462 97.1143 65.0614 97.6918 65.1296 98.3523H63.2695C63.1673 97.892 62.9329 97.4957 62.5664 97.1634C62.2042 96.831 61.7184 96.6648 61.109 96.6648C60.5763 96.6648 60.1097 96.8054 59.7092 97.0866C59.3129 97.3636 59.0039 97.7599 58.7823 98.2756C58.5607 98.7869 58.4499 99.392 58.4499 100.091C58.4499 100.807 58.5586 101.425 58.7759 101.945C58.9933 102.464 59.3001 102.867 59.6964 103.153C60.0969 103.438 60.5678 103.581 61.109 103.581C61.4712 103.581 61.7994 103.515 62.0934 103.383C62.3917 103.246 62.641 103.053 62.8413 102.801C63.0458 102.55 63.1886 102.247 63.2695 101.893H65.1296C65.0614 102.528 64.8548 103.095 64.5096 103.594C64.1644 104.092 63.7021 104.484 63.1225 104.77C62.5472 105.055 61.8718 105.198 61.0962 105.198ZM71.3091 105.198C70.3887 105.198 69.5854 104.987 68.8993 104.565C68.2132 104.143 67.6806 103.553 67.3013 102.795C66.9221 102.036 66.7324 101.15 66.7324 100.136C66.7324 99.1172 66.9221 98.2266 67.3013 97.4638C67.6806 96.701 68.2132 96.1087 68.8993 95.6868C69.5854 95.2649 70.3887 95.054 71.3091 95.054C72.2296 95.054 73.0328 95.2649 73.7189 95.6868C74.405 96.1087 74.9377 96.701 75.3169 97.4638C75.6962 98.2266 75.8858 99.1172 75.8858 100.136C75.8858 101.15 75.6962 102.036 75.3169 102.795C74.9377 103.553 74.405 104.143 73.7189 104.565C73.0328 104.987 72.2296 105.198 71.3091 105.198ZM71.3155 103.594C71.9121 103.594 72.4064 103.436 72.7985 103.121C73.1905 102.805 73.4803 102.386 73.6678 101.862C73.8596 101.337 73.9554 100.76 73.9554 100.129C73.9554 99.5028 73.8596 98.9276 73.6678 98.4034C73.4803 97.875 73.1905 97.451 72.7985 97.1314C72.4064 96.8118 71.9121 96.652 71.3155 96.652C70.7147 96.652 70.2161 96.8118 69.8198 97.1314C69.4277 97.451 69.1358 97.875 68.9441 98.4034C68.7566 98.9276 68.6628 99.5028 68.6628 100.129C68.6628 100.76 68.7566 101.337 68.9441 101.862C69.1358 102.386 69.4277 102.805 69.8198 103.121C70.2161 103.436 70.7147 103.594 71.3155 103.594ZM78.0192 105V95.1818H79.8537V96.7798H79.9751C80.1797 96.2386 80.5142 95.8168 80.9787 95.5142C81.4432 95.2074 81.9993 95.054 82.647 95.054C83.3033 95.054 83.853 95.2074 84.2962 95.5142C84.7436 95.821 85.0739 96.2429 85.2869 96.7798H85.3892C85.6236 96.2557 85.9964 95.8381 86.5078 95.527C87.0192 95.2116 87.6286 95.054 88.3359 95.054C89.2266 95.054 89.9531 95.3331 90.5156 95.8913C91.0824 96.4496 91.3658 97.2912 91.3658 98.4162V105H89.4545V98.5952C89.4545 97.9304 89.2734 97.4489 88.9112 97.1506C88.549 96.8523 88.1165 96.7031 87.6136 96.7031C86.9915 96.7031 86.5078 96.8949 86.1626 97.2784C85.8175 97.6577 85.6449 98.1456 85.6449 98.7422V105H83.7401V98.4737C83.7401 97.9411 83.5739 97.5128 83.2415 97.1889C82.9091 96.8651 82.4766 96.7031 81.9439 96.7031C81.5817 96.7031 81.2472 96.799 80.9403 96.9908C80.6378 97.1783 80.3928 97.4403 80.2053 97.777C80.022 98.1136 79.9304 98.5036 79.9304 98.9467V105H78.0192ZM98.1589 105.198C97.1916 105.198 96.3585 104.991 95.6596 104.578C94.965 104.161 94.4281 103.575 94.0488 102.82C93.6738 102.062 93.4863 101.173 93.4863 100.155C93.4863 99.1491 93.6738 98.2628 94.0488 97.4957C94.4281 96.7287 94.9565 96.13 95.6341 95.6996C96.3159 95.2692 97.1127 95.054 98.0247 95.054C98.5787 95.054 99.1156 95.1456 99.6355 95.3288C100.155 95.5121 100.622 95.7997 101.035 96.1918C101.449 96.5838 101.775 97.093 102.013 97.7195C102.252 98.3416 102.371 99.098 102.371 99.9886V100.666H94.5666V99.2344H100.498C100.498 98.7315 100.396 98.2862 100.192 97.8984C99.987 97.5064 99.6994 97.1974 99.3287 96.9716C98.9622 96.7457 98.5318 96.6328 98.0375 96.6328C97.5005 96.6328 97.0318 96.7649 96.6312 97.0291C96.2349 97.2891 95.9281 97.63 95.7108 98.0518C95.4977 98.4695 95.3912 98.9233 95.3912 99.4134V100.532C95.3912 101.188 95.5062 101.746 95.7363 102.207C95.9707 102.667 96.2967 103.018 96.7143 103.261C97.1319 103.5 97.6199 103.619 98.1781 103.619C98.5403 103.619 98.8706 103.568 99.1689 103.466C99.4672 103.359 99.725 103.202 99.9423 102.993C100.16 102.784 100.326 102.526 100.441 102.219L102.25 102.545C102.105 103.078 101.845 103.545 101.47 103.945C101.099 104.342 100.633 104.651 100.07 104.872C99.5119 105.089 98.8748 105.198 98.1589 105.198ZM113.839 95.1818V96.7159H108.476V95.1818H113.839ZM109.914 92.8295H111.825V102.117C111.825 102.488 111.881 102.767 111.991 102.955C112.102 103.138 112.245 103.263 112.42 103.332C112.599 103.396 112.792 103.428 113.001 103.428C113.155 103.428 113.289 103.417 113.404 103.396C113.519 103.374 113.608 103.357 113.672 103.344L114.018 104.923C113.907 104.966 113.749 105.009 113.545 105.051C113.34 105.098 113.084 105.124 112.778 105.128C112.275 105.136 111.806 105.047 111.371 104.859C110.937 104.672 110.585 104.382 110.317 103.99C110.048 103.598 109.914 103.106 109.914 102.513V92.8295ZM119.983 105.198C119.063 105.198 118.259 104.987 117.573 104.565C116.887 104.143 116.354 103.553 115.975 102.795C115.596 102.036 115.406 101.15 115.406 100.136C115.406 99.1172 115.596 98.2266 115.975 97.4638C116.354 96.701 116.887 96.1087 117.573 95.6868C118.259 95.2649 119.063 95.054 119.983 95.054C120.903 95.054 121.707 95.2649 122.393 95.6868C123.079 96.1087 123.612 96.701 123.991 97.4638C124.37 98.2266 124.56 99.1172 124.56 100.136C124.56 101.15 124.37 102.036 123.991 102.795C123.612 103.553 123.079 104.143 122.393 104.565C121.707 104.987 120.903 105.198 119.983 105.198ZM119.989 103.594C120.586 103.594 121.08 103.436 121.472 103.121C121.864 102.805 122.154 102.386 122.342 101.862C122.533 101.337 122.629 100.76 122.629 100.129C122.629 99.5028 122.533 98.9276 122.342 98.4034C122.154 97.875 121.864 97.451 121.472 97.1314C121.08 96.8118 120.586 96.652 119.989 96.652C119.388 96.652 118.89 96.8118 118.494 97.1314C118.102 97.451 117.81 97.875 117.618 98.4034C117.43 98.9276 117.337 99.5028 117.337 100.129C117.337 100.76 117.43 101.337 117.618 101.862C117.81 102.386 118.102 102.805 118.494 103.121C118.89 103.436 119.388 103.594 119.989 103.594ZM135.848 105H131.61V91.9091H135.982C137.265 91.9091 138.366 92.1712 139.287 92.6953C140.207 93.2152 140.913 93.9631 141.403 94.9389C141.897 95.9105 142.144 97.076 142.144 98.4354C142.144 99.799 141.895 100.971 141.396 101.951C140.902 102.931 140.186 103.685 139.249 104.214C138.311 104.738 137.178 105 135.848 105ZM133.585 103.274H135.739C136.737 103.274 137.565 103.087 138.226 102.712C138.886 102.332 139.381 101.785 139.709 101.069C140.037 100.349 140.201 99.4709 140.201 98.4354C140.201 97.4084 140.037 96.5369 139.709 95.821C139.385 95.1051 138.901 94.5618 138.258 94.1911C137.614 93.8203 136.815 93.6349 135.861 93.6349H133.585V103.274ZM148.583 105.198C147.662 105.198 146.859 104.987 146.173 104.565C145.487 104.143 144.954 103.553 144.575 102.795C144.195 102.036 144.006 101.15 144.006 100.136C144.006 99.1172 144.195 98.2266 144.575 97.4638C144.954 96.701 145.487 96.1087 146.173 95.6868C146.859 95.2649 147.662 95.054 148.583 95.054C149.503 95.054 150.306 95.2649 150.992 95.6868C151.678 96.1087 152.211 96.701 152.59 97.4638C152.97 98.2266 153.159 99.1172 153.159 100.136C153.159 101.15 152.97 102.036 152.59 102.795C152.211 103.553 151.678 104.143 150.992 104.565C150.306 104.987 149.503 105.198 148.583 105.198ZM148.589 103.594C149.186 103.594 149.68 103.436 150.072 103.121C150.464 102.805 150.754 102.386 150.941 101.862C151.133 101.337 151.229 100.76 151.229 100.129C151.229 99.5028 151.133 98.9276 150.941 98.4034C150.754 97.875 150.464 97.451 150.072 97.1314C149.68 96.8118 149.186 96.652 148.589 96.652C147.988 96.652 147.49 96.8118 147.093 97.1314C146.701 97.451 146.409 97.875 146.218 98.4034C146.03 98.9276 145.936 99.5028 145.936 100.129C145.936 100.76 146.03 101.337 146.218 101.862C146.409 102.386 146.701 102.805 147.093 103.121C147.49 103.436 147.988 103.594 148.589 103.594ZM155.293 108.682V95.1818H157.159V96.7734H157.319C157.43 96.5689 157.589 96.3324 157.798 96.0639C158.007 95.7955 158.297 95.5611 158.668 95.3608C159.038 95.1562 159.528 95.054 160.138 95.054C160.93 95.054 161.638 95.2543 162.26 95.6548C162.882 96.0554 163.37 96.6328 163.724 97.3871C164.082 98.1413 164.261 99.049 164.261 100.11C164.261 101.171 164.084 102.081 163.73 102.839C163.376 103.594 162.891 104.175 162.273 104.585C161.655 104.989 160.95 105.192 160.157 105.192C159.56 105.192 159.072 105.092 158.693 104.891C158.318 104.691 158.024 104.457 157.811 104.188C157.598 103.92 157.434 103.681 157.319 103.472H157.204V108.682H155.293ZM157.165 100.091C157.165 100.781 157.266 101.386 157.466 101.906C157.666 102.426 157.956 102.833 158.335 103.127C158.714 103.417 159.179 103.562 159.729 103.562C160.3 103.562 160.777 103.411 161.161 103.108C161.544 102.801 161.834 102.386 162.03 101.862C162.23 101.337 162.33 100.747 162.33 100.091C162.33 99.4432 162.232 98.8615 162.036 98.3459C161.844 97.8303 161.555 97.4233 161.167 97.125C160.783 96.8267 160.304 96.6776 159.729 96.6776C159.175 96.6776 158.706 96.8203 158.322 97.1058C157.943 97.3913 157.656 97.7898 157.46 98.3011C157.263 98.8125 157.165 99.4091 157.165 100.091ZM168.313 91.9091V105H166.402V91.9091H168.313ZM175.02 105.198C174.1 105.198 173.296 104.987 172.61 104.565C171.924 104.143 171.392 103.553 171.012 102.795C170.633 102.036 170.443 101.15 170.443 100.136C170.443 99.1172 170.633 98.2266 171.012 97.4638C171.392 96.701 171.924 96.1087 172.61 95.6868C173.296 95.2649 174.1 95.054 175.02 95.054C175.941 95.054 176.744 95.2649 177.43 95.6868C178.116 96.1087 178.649 96.701 179.028 97.4638C179.407 98.2266 179.597 99.1172 179.597 100.136C179.597 101.15 179.407 102.036 179.028 102.795C178.649 103.553 178.116 104.143 177.43 104.565C176.744 104.987 175.941 105.198 175.02 105.198ZM175.026 103.594C175.623 103.594 176.117 103.436 176.509 103.121C176.901 102.805 177.191 102.386 177.379 101.862C177.57 101.337 177.666 100.76 177.666 100.129C177.666 99.5028 177.57 98.9276 177.379 98.4034C177.191 97.875 176.901 97.451 176.509 97.1314C176.117 96.8118 175.623 96.652 175.026 96.652C174.426 96.652 173.927 96.8118 173.531 97.1314C173.139 97.451 172.847 97.875 172.655 98.4034C172.468 98.9276 172.374 99.5028 172.374 100.129C172.374 100.76 172.468 101.337 172.655 101.862C172.847 102.386 173.139 102.805 173.531 103.121C173.927 103.436 174.426 103.594 175.026 103.594Z" fill="#525252"/>
<path d="M33.2784 172V160.364H40.5739V161.875H35.0341V165.42H40.1932V166.926H35.0341V170.489H40.642V172H33.2784ZM42.7827 172V163.273H44.4134V164.693H44.5213C44.7031 164.212 45.0005 163.837 45.4134 163.568C45.8262 163.295 46.3205 163.159 46.8963 163.159C47.4796 163.159 47.9683 163.295 48.3622 163.568C48.7599 163.841 49.0535 164.216 49.2429 164.693H49.3338C49.5421 164.227 49.8736 163.856 50.3281 163.58C50.7827 163.299 51.3243 163.159 51.9531 163.159C52.7448 163.159 53.3906 163.407 53.8906 163.903C54.3944 164.4 54.6463 165.148 54.6463 166.148V172H52.9474V166.307C52.9474 165.716 52.7865 165.288 52.4645 165.023C52.1425 164.758 51.758 164.625 51.3111 164.625C50.758 164.625 50.3281 164.795 50.0213 165.136C49.7145 165.473 49.5611 165.907 49.5611 166.438V172H47.8679V166.199C47.8679 165.725 47.7202 165.345 47.4247 165.057C47.1293 164.769 46.7448 164.625 46.2713 164.625C45.9493 164.625 45.652 164.71 45.3793 164.881C45.1103 165.047 44.8925 165.28 44.7259 165.58C44.563 165.879 44.4815 166.225 44.4815 166.619V172H42.7827ZM59.4631 172.193C58.91 172.193 58.41 172.091 57.9631 171.886C57.5161 171.678 57.1619 171.377 56.9006 170.983C56.643 170.589 56.5142 170.106 56.5142 169.534C56.5142 169.042 56.6089 168.636 56.7983 168.318C56.9877 168 57.2434 167.748 57.5653 167.562C57.8873 167.377 58.2472 167.237 58.6449 167.142C59.0426 167.047 59.4479 166.975 59.8608 166.926C60.3835 166.866 60.8078 166.816 61.1335 166.778C61.4593 166.737 61.696 166.67 61.8438 166.58C61.9915 166.489 62.0653 166.341 62.0653 166.136V166.097C62.0653 165.6 61.9252 165.216 61.6449 164.943C61.3684 164.67 60.9555 164.534 60.4062 164.534C59.8343 164.534 59.3835 164.661 59.054 164.915C58.7282 165.165 58.5028 165.443 58.3778 165.75L56.7812 165.386C56.9706 164.856 57.2472 164.428 57.6108 164.102C57.9782 163.773 58.4006 163.534 58.8778 163.386C59.3551 163.235 59.857 163.159 60.3835 163.159C60.732 163.159 61.1013 163.201 61.4915 163.284C61.8854 163.364 62.2528 163.511 62.5938 163.727C62.9384 163.943 63.2206 164.252 63.4403 164.653C63.66 165.051 63.7699 165.568 63.7699 166.205V172H62.1108V170.807H62.0426C61.9328 171.027 61.768 171.242 61.5483 171.455C61.3286 171.667 61.0464 171.843 60.7017 171.983C60.357 172.123 59.9441 172.193 59.4631 172.193ZM59.8324 170.83C60.3021 170.83 60.7036 170.737 61.0369 170.551C61.3741 170.366 61.6297 170.123 61.804 169.824C61.982 169.521 62.071 169.197 62.071 168.852V167.727C62.0104 167.788 61.893 167.845 61.7188 167.898C61.5483 167.947 61.3532 167.991 61.1335 168.028C60.9138 168.062 60.6998 168.095 60.4915 168.125C60.2831 168.152 60.1089 168.174 59.9688 168.193C59.6392 168.235 59.3381 168.305 59.0653 168.403C58.7964 168.502 58.5805 168.644 58.4176 168.83C58.2585 169.011 58.179 169.254 58.179 169.557C58.179 169.977 58.3343 170.295 58.6449 170.511C58.9555 170.723 59.3513 170.83 59.8324 170.83ZM66.0327 172V163.273H67.7315V172H66.0327ZM66.8906 161.926C66.5952 161.926 66.3414 161.828 66.1293 161.631C65.9209 161.43 65.8168 161.191 65.8168 160.915C65.8168 160.634 65.9209 160.396 66.1293 160.199C66.3414 159.998 66.5952 159.898 66.8906 159.898C67.1861 159.898 67.438 159.998 67.6463 160.199C67.8584 160.396 67.9645 160.634 67.9645 160.915C67.9645 161.191 67.8584 161.43 67.6463 161.631C67.438 161.828 67.1861 161.926 66.8906 161.926ZM71.7159 160.364V172H70.017V160.364H71.7159Z" fill="#525252"/>
<rect x="24" y="184" width="472" height="48" rx="8" fill="#E5E5E5"/>
<path d="M41.598 215V200.455H50.7173V202.344H43.7926V206.776H50.2415V208.658H43.7926V213.111H50.8026V215H41.598ZM53.4783 215V204.091H55.5167V205.866H55.6516C55.8789 205.265 56.2506 204.796 56.7667 204.46C57.2828 204.119 57.9007 203.949 58.6204 203.949C59.3496 203.949 59.9603 204.119 60.4528 204.46C60.9499 204.801 61.3169 205.27 61.5536 205.866H61.6673C61.9277 205.284 62.342 204.82 62.9102 204.474C63.4783 204.124 64.1554 203.949 64.9414 203.949C65.931 203.949 66.7383 204.259 67.3633 204.879C67.993 205.5 68.3079 206.435 68.3079 207.685V215H66.1843V207.884C66.1843 207.145 65.9831 206.61 65.5806 206.278C65.1781 205.947 64.6976 205.781 64.1388 205.781C63.4476 205.781 62.9102 205.994 62.5266 206.42C62.1431 206.842 61.9513 207.384 61.9513 208.047V215H59.8349V207.749C59.8349 207.157 59.6502 206.681 59.2809 206.321C58.9116 205.961 58.431 205.781 57.8391 205.781C57.4367 205.781 57.065 205.888 56.7241 206.101C56.3879 206.309 56.1156 206.6 55.9073 206.974C55.7037 207.348 55.6019 207.782 55.6019 208.274V215H53.4783ZM74.3288 215.241C73.6375 215.241 73.0125 215.114 72.4538 214.858C71.8951 214.598 71.4524 214.221 71.1257 213.729C70.8037 213.236 70.6428 212.633 70.6428 211.918C70.6428 211.302 70.7611 210.795 70.9979 210.398C71.2346 210 71.5542 209.685 71.9567 209.453C72.3591 209.221 72.8089 209.046 73.3061 208.928C73.8033 208.809 74.3099 208.719 74.826 208.658C75.4794 208.582 76.0097 208.52 76.4169 208.473C76.8241 208.421 77.12 208.338 77.3047 208.224C77.4893 208.111 77.5817 207.926 77.5817 207.67V207.621C77.5817 207 77.4065 206.52 77.0561 206.179C76.7105 205.838 76.1944 205.668 75.5078 205.668C74.7929 205.668 74.2294 205.826 73.8175 206.143C73.4103 206.456 73.1286 206.804 72.9723 207.188L70.9766 206.733C71.2133 206.07 71.5589 205.535 72.0135 205.128C72.4728 204.716 73.0007 204.418 73.5973 204.233C74.1939 204.044 74.8213 203.949 75.4794 203.949C75.915 203.949 76.3767 204.001 76.8643 204.105C77.3568 204.205 77.8161 204.389 78.2422 204.659C78.6731 204.929 79.0258 205.315 79.3004 205.817C79.575 206.314 79.7124 206.96 79.7124 207.756V215H77.6385V213.509H77.5533C77.416 213.783 77.21 214.053 76.9354 214.318C76.6607 214.583 76.308 214.804 75.8771 214.979C75.4463 215.154 74.9302 215.241 74.3288 215.241ZM74.7905 213.537C75.3776 213.537 75.8795 213.421 76.2962 213.189C76.7176 212.957 77.0372 212.654 77.255 212.28C77.4775 211.901 77.5888 211.496 77.5888 211.065V209.659C77.513 209.735 77.3662 209.806 77.1484 209.872C76.9354 209.934 76.6915 209.988 76.4169 210.036C76.1423 210.078 75.8748 210.118 75.6143 210.156C75.3539 210.189 75.1361 210.218 74.9609 210.241C74.549 210.294 74.1726 210.381 73.8317 210.504C73.4955 210.627 73.2256 210.805 73.022 211.037C72.8232 211.264 72.7237 211.567 72.7237 211.946C72.7237 212.472 72.9179 212.869 73.3061 213.139C73.6944 213.404 74.1892 213.537 74.7905 213.537ZM82.5408 215V204.091H84.6644V215H82.5408ZM83.6133 202.408C83.244 202.408 82.9267 202.285 82.6616 202.038C82.4012 201.787 82.271 201.489 82.271 201.143C82.271 200.793 82.4012 200.495 82.6616 200.249C82.9267 199.998 83.244 199.872 83.6133 199.872C83.9826 199.872 84.2975 199.998 84.5579 200.249C84.823 200.495 84.9556 200.793 84.9556 201.143C84.9556 201.489 84.823 201.787 84.5579 202.038C84.2975 202.285 83.9826 202.408 83.6133 202.408ZM89.6449 200.455V215H87.5213V200.455H89.6449ZM100.969 215.241C100.278 215.241 99.6532 215.114 99.0945 214.858C98.5357 214.598 98.093 214.221 97.7663 213.729C97.4444 213.236 97.2834 212.633 97.2834 211.918C97.2834 211.302 97.4018 210.795 97.6385 210.398C97.8752 210 98.1948 209.685 98.5973 209.453C98.9998 209.221 99.4496 209.046 99.9467 208.928C100.444 208.809 100.951 208.719 101.467 208.658C102.12 208.582 102.65 208.52 103.058 208.473C103.465 208.421 103.761 208.338 103.945 208.224C104.13 208.111 104.222 207.926 104.222 207.67V207.621C104.222 207 104.047 206.52 103.697 206.179C103.351 205.838 102.835 205.668 102.148 205.668C101.433 205.668 100.87 205.826 100.458 206.143C100.051 206.456 99.7692 206.804 99.6129 207.188L97.6172 206.733C97.8539 206.07 98.1996 205.535 98.6541 205.128C99.1134 204.716 99.6413 204.418 100.238 204.233C100.835 204.044 101.462 203.949 102.12 203.949C102.556 203.949 103.017 204.001 103.505 204.105C103.997 204.205 104.457 204.389 104.883 204.659C105.314 204.929 105.666 205.315 105.941 205.817C106.216 206.314 106.353 206.96 106.353 207.756V215H104.279V213.509H104.194C104.057 213.783 103.851 214.053 103.576 214.318C103.301 214.583 102.949 214.804 102.518 214.979C102.087 215.154 101.571 215.241 100.969 215.241ZM101.431 213.537C102.018 213.537 102.52 213.421 102.937 213.189C103.358 212.957 103.678 212.654 103.896 212.28C104.118 211.901 104.229 211.496 104.229 211.065V209.659C104.154 209.735 104.007 209.806 103.789 209.872C103.576 209.934 103.332 209.988 103.058 210.036C102.783 210.078 102.515 210.118 102.255 210.156C101.995 210.189 101.777 210.218 101.602 210.241C101.19 210.294 100.813 210.381 100.472 210.504C100.136 210.627 99.8662 210.805 99.6626 211.037C99.4638 211.264 99.3643 211.567 99.3643 211.946C99.3643 212.472 99.5585 212.869 99.9467 213.139C100.335 213.404 100.83 213.537 101.431 213.537ZM113.265 215.213C112.385 215.213 111.599 214.988 110.907 214.538C110.221 214.084 109.681 213.437 109.288 212.599C108.9 211.757 108.706 210.746 108.706 209.567C108.706 208.388 108.902 207.379 109.295 206.541C109.693 205.703 110.237 205.062 110.929 204.616C111.62 204.171 112.404 203.949 113.279 203.949C113.957 203.949 114.501 204.062 114.913 204.29C115.33 204.512 115.652 204.773 115.879 205.071C116.111 205.369 116.291 205.632 116.419 205.859H116.547V200.455H118.67V215H116.596V213.303H116.419C116.291 213.535 116.106 213.8 115.865 214.098C115.628 214.396 115.301 214.657 114.885 214.879C114.468 215.102 113.928 215.213 113.265 215.213ZM113.734 213.402C114.345 213.402 114.861 213.241 115.282 212.919C115.708 212.592 116.03 212.14 116.248 211.562C116.471 210.985 116.582 210.312 116.582 209.545C116.582 208.788 116.473 208.125 116.255 207.557C116.038 206.989 115.718 206.546 115.297 206.229C114.875 205.911 114.354 205.753 113.734 205.753C113.095 205.753 112.562 205.919 112.136 206.25C111.71 206.581 111.388 207.034 111.17 207.607C110.957 208.179 110.85 208.826 110.85 209.545C110.85 210.275 110.959 210.93 111.177 211.513C111.395 212.095 111.717 212.557 112.143 212.898C112.574 213.234 113.104 213.402 113.734 213.402ZM125.785 215.213C124.904 215.213 124.118 214.988 123.427 214.538C122.74 214.084 122.201 213.437 121.808 212.599C121.419 211.757 121.225 210.746 121.225 209.567C121.225 208.388 121.422 207.379 121.815 206.541C122.212 205.703 122.757 205.062 123.448 204.616C124.139 204.171 124.923 203.949 125.799 203.949C126.476 203.949 127.021 204.062 127.433 204.29C127.849 204.512 128.171 204.773 128.398 205.071C128.63 205.369 128.81 205.632 128.938 205.859H129.066V200.455H131.19V215H129.116V213.303H128.938C128.81 213.535 128.626 213.8 128.384 214.098C128.147 214.396 127.821 214.657 127.404 214.879C126.987 215.102 126.448 215.213 125.785 215.213ZM126.254 213.402C126.864 213.402 127.38 213.241 127.802 212.919C128.228 212.592 128.55 212.14 128.768 211.562C128.99 210.985 129.102 210.312 129.102 209.545C129.102 208.788 128.993 208.125 128.775 207.557C128.557 206.989 128.237 206.546 127.816 206.229C127.395 205.911 126.874 205.753 126.254 205.753C125.614 205.753 125.082 205.919 124.656 206.25C124.229 206.581 123.907 207.034 123.69 207.607C123.477 208.179 123.37 208.826 123.37 209.545C123.37 210.275 123.479 210.93 123.697 211.513C123.915 212.095 124.237 212.557 124.663 212.898C125.094 213.234 125.624 213.402 126.254 213.402ZM134.221 215V204.091H136.273V205.824H136.387C136.586 205.237 136.936 204.775 137.438 204.439C137.944 204.098 138.517 203.928 139.157 203.928C139.289 203.928 139.445 203.932 139.625 203.942C139.81 203.951 139.954 203.963 140.059 203.977V206.009C139.973 205.985 139.822 205.959 139.604 205.93C139.386 205.897 139.168 205.881 138.951 205.881C138.449 205.881 138.001 205.987 137.608 206.2C137.22 206.409 136.912 206.7 136.685 207.074C136.458 207.443 136.344 207.865 136.344 208.338V215H134.221ZM146.207 215.22C145.133 215.22 144.207 214.991 143.43 214.531C142.659 214.067 142.062 213.416 141.641 212.578C141.224 211.735 141.016 210.748 141.016 209.616C141.016 208.499 141.224 207.514 141.641 206.662C142.062 205.81 142.649 205.144 143.402 204.666C144.16 204.188 145.045 203.949 146.058 203.949C146.674 203.949 147.27 204.051 147.848 204.254C148.426 204.458 148.944 204.777 149.403 205.213C149.863 205.649 150.225 206.214 150.49 206.911C150.755 207.602 150.888 208.442 150.888 209.432V210.185H142.216V208.594H148.807C148.807 208.035 148.693 207.54 148.466 207.109C148.239 206.674 147.919 206.33 147.507 206.08C147.1 205.829 146.622 205.703 146.072 205.703C145.476 205.703 144.955 205.85 144.51 206.143C144.07 206.432 143.729 206.811 143.487 207.28C143.25 207.744 143.132 208.248 143.132 208.793V210.036C143.132 210.765 143.26 211.385 143.516 211.896C143.776 212.408 144.138 212.798 144.602 213.068C145.066 213.333 145.608 213.466 146.229 213.466C146.631 213.466 146.998 213.409 147.33 213.295C147.661 213.177 147.947 213.002 148.189 212.77C148.43 212.538 148.615 212.251 148.743 211.911L150.753 212.273C150.592 212.865 150.303 213.383 149.886 213.828C149.474 214.268 148.956 214.612 148.331 214.858C147.711 215.099 147.003 215.22 146.207 215.22ZM161.419 206.754L159.494 207.095C159.413 206.849 159.286 206.615 159.11 206.392C158.94 206.17 158.708 205.987 158.414 205.845C158.121 205.703 157.754 205.632 157.314 205.632C156.712 205.632 156.21 205.767 155.808 206.037C155.405 206.302 155.204 206.645 155.204 207.067C155.204 207.431 155.339 207.725 155.609 207.947C155.879 208.17 156.315 208.352 156.916 208.494L158.649 208.892C159.653 209.124 160.401 209.482 160.893 209.964C161.386 210.447 161.632 211.075 161.632 211.847C161.632 212.5 161.442 213.082 161.064 213.594C160.69 214.1 160.166 214.498 159.494 214.787C158.826 215.076 158.052 215.22 157.172 215.22C155.95 215.22 154.953 214.96 154.181 214.439C153.41 213.913 152.936 213.168 152.761 212.202L154.814 211.889C154.941 212.424 155.204 212.829 155.602 213.104C156 213.374 156.518 213.509 157.157 213.509C157.853 213.509 158.41 213.364 158.826 213.075C159.243 212.782 159.451 212.424 159.451 212.003C159.451 211.662 159.324 211.375 159.068 211.143C158.817 210.911 158.431 210.736 157.91 210.618L156.064 210.213C155.046 209.981 154.293 209.612 153.805 209.105C153.322 208.598 153.081 207.957 153.081 207.18C153.081 206.536 153.261 205.973 153.62 205.49C153.98 205.007 154.477 204.631 155.112 204.361C155.746 204.086 156.473 203.949 157.292 203.949C158.471 203.949 159.399 204.205 160.076 204.716C160.753 205.223 161.201 205.902 161.419 206.754ZM172.141 206.754L170.217 207.095C170.136 206.849 170.008 206.615 169.833 206.392C169.663 206.17 169.431 205.987 169.137 205.845C168.844 205.703 168.477 205.632 168.036 205.632C167.435 205.632 166.933 205.767 166.531 206.037C166.128 206.302 165.927 206.645 165.927 207.067C165.927 207.431 166.062 207.725 166.332 207.947C166.602 208.17 167.037 208.352 167.638 208.494L169.371 208.892C170.375 209.124 171.123 209.482 171.616 209.964C172.108 210.447 172.354 211.075 172.354 211.847C172.354 212.5 172.165 213.082 171.786 213.594C171.412 214.1 170.889 214.498 170.217 214.787C169.549 215.076 168.775 215.22 167.894 215.22C166.673 215.22 165.676 214.96 164.904 214.439C164.132 213.913 163.659 213.168 163.484 212.202L165.536 211.889C165.664 212.424 165.927 212.829 166.325 213.104C166.722 213.374 167.241 213.509 167.88 213.509C168.576 213.509 169.132 213.364 169.549 213.075C169.966 212.782 170.174 212.424 170.174 212.003C170.174 211.662 170.046 211.375 169.79 211.143C169.54 210.911 169.154 210.736 168.633 210.618L166.786 210.213C165.768 209.981 165.015 209.612 164.528 209.105C164.045 208.598 163.803 207.957 163.803 207.18C163.803 206.536 163.983 205.973 164.343 205.49C164.703 205.007 165.2 204.631 165.835 204.361C166.469 204.086 167.196 203.949 168.015 203.949C169.194 203.949 170.122 204.205 170.799 204.716C171.476 205.223 171.924 205.902 172.141 206.754Z" fill="#525252"/>
<path d="M33.2784 271V259.364H37.4261C38.3314 259.364 39.0814 259.528 39.6761 259.858C40.2708 260.187 40.7159 260.638 41.0114 261.21C41.3068 261.778 41.4545 262.419 41.4545 263.131C41.4545 263.847 41.3049 264.491 41.0057 265.062C40.7102 265.631 40.2633 266.081 39.6648 266.415C39.0701 266.744 38.322 266.909 37.4205 266.909H34.5682V265.42H37.2614C37.8333 265.42 38.2973 265.322 38.6534 265.125C39.0095 264.924 39.2708 264.652 39.4375 264.307C39.6042 263.962 39.6875 263.57 39.6875 263.131C39.6875 262.691 39.6042 262.301 39.4375 261.96C39.2708 261.619 39.0076 261.352 38.6477 261.159C38.2917 260.966 37.822 260.869 37.2386 260.869H35.0341V271H33.2784ZM45.8381 271.193C45.285 271.193 44.785 271.091 44.3381 270.886C43.8911 270.678 43.5369 270.377 43.2756 269.983C43.018 269.589 42.8892 269.106 42.8892 268.534C42.8892 268.042 42.9839 267.636 43.1733 267.318C43.3627 267 43.6184 266.748 43.9403 266.562C44.2623 266.377 44.6222 266.237 45.0199 266.142C45.4176 266.047 45.8229 265.975 46.2358 265.926C46.7585 265.866 47.1828 265.816 47.5085 265.778C47.8343 265.737 48.071 265.67 48.2188 265.58C48.3665 265.489 48.4403 265.341 48.4403 265.136V265.097C48.4403 264.6 48.3002 264.216 48.0199 263.943C47.7434 263.67 47.3305 263.534 46.7812 263.534C46.2093 263.534 45.7585 263.661 45.429 263.915C45.1032 264.165 44.8778 264.443 44.7528 264.75L43.1562 264.386C43.3456 263.856 43.6222 263.428 43.9858 263.102C44.3532 262.773 44.7756 262.534 45.2528 262.386C45.7301 262.235 46.232 262.159 46.7585 262.159C47.107 262.159 47.4763 262.201 47.8665 262.284C48.2604 262.364 48.6278 262.511 48.9688 262.727C49.3134 262.943 49.5956 263.252 49.8153 263.653C50.035 264.051 50.1449 264.568 50.1449 265.205V271H48.4858V269.807H48.4176C48.3078 270.027 48.143 270.242 47.9233 270.455C47.7036 270.667 47.4214 270.843 47.0767 270.983C46.732 271.123 46.3191 271.193 45.8381 271.193ZM46.2074 269.83C46.6771 269.83 47.0786 269.737 47.4119 269.551C47.7491 269.366 48.0047 269.123 48.179 268.824C48.357 268.521 48.446 268.197 48.446 267.852V266.727C48.3854 266.788 48.268 266.845 48.0938 266.898C47.9233 266.947 47.7282 266.991 47.5085 267.028C47.2888 267.062 47.0748 267.095 46.8665 267.125C46.6581 267.152 46.4839 267.174 46.3438 267.193C46.0142 267.235 45.7131 267.305 45.4403 267.403C45.1714 267.502 44.9555 267.644 44.7926 267.83C44.6335 268.011 44.554 268.254 44.554 268.557C44.554 268.977 44.7093 269.295 45.0199 269.511C45.3305 269.723 45.7263 269.83 46.2074 269.83ZM58.9474 264.403L57.4077 264.676C57.3433 264.479 57.241 264.292 57.1009 264.114C56.9645 263.936 56.7789 263.79 56.544 263.676C56.3092 263.562 56.0156 263.506 55.6634 263.506C55.1823 263.506 54.7808 263.614 54.4588 263.83C54.1368 264.042 53.9759 264.316 53.9759 264.653C53.9759 264.945 54.0838 265.18 54.2997 265.358C54.5156 265.536 54.8641 265.682 55.3452 265.795L56.7315 266.114C57.5346 266.299 58.133 266.585 58.527 266.972C58.9209 267.358 59.1179 267.86 59.1179 268.477C59.1179 269 58.9664 269.466 58.6634 269.875C58.3641 270.28 57.9455 270.598 57.4077 270.83C56.8736 271.061 56.2543 271.176 55.5497 271.176C54.5724 271.176 53.7751 270.968 53.1577 270.551C52.5402 270.131 52.1615 269.534 52.0213 268.761L53.6634 268.511C53.7656 268.939 53.9759 269.263 54.294 269.483C54.6122 269.699 55.027 269.807 55.5384 269.807C56.0952 269.807 56.5402 269.691 56.8736 269.46C57.2069 269.225 57.3736 268.939 57.3736 268.602C57.3736 268.33 57.2713 268.1 57.0668 267.915C56.866 267.729 56.5573 267.589 56.1406 267.494L54.6634 267.17C53.849 266.985 53.2467 266.689 52.8565 266.284C52.4702 265.879 52.277 265.366 52.277 264.744C52.277 264.229 52.4209 263.778 52.7088 263.392C52.9967 263.006 53.3944 262.705 53.902 262.489C54.4096 262.269 54.991 262.159 55.6463 262.159C56.5895 262.159 57.3319 262.364 57.8736 262.773C58.4152 263.178 58.7732 263.722 58.9474 264.403ZM67.5256 264.403L65.9858 264.676C65.9214 264.479 65.8191 264.292 65.679 264.114C65.5426 263.936 65.357 263.79 65.1222 263.676C64.8873 263.562 64.5938 263.506 64.2415 263.506C63.7604 263.506 63.3589 263.614 63.0369 263.83C62.715 264.042 62.554 264.316 62.554 264.653C62.554 264.945 62.6619 265.18 62.8778 265.358C63.0938 265.536 63.4422 265.682 63.9233 265.795L65.3097 266.114C66.1127 266.299 66.7112 266.585 67.1051 266.972C67.4991 267.358 67.696 267.86 67.696 268.477C67.696 269 67.5445 269.466 67.2415 269.875C66.9422 270.28 66.5237 270.598 65.9858 270.83C65.4517 271.061 64.8324 271.176 64.1278 271.176C63.1506 271.176 62.3532 270.968 61.7358 270.551C61.1184 270.131 60.7396 269.534 60.5994 268.761L62.2415 268.511C62.3438 268.939 62.554 269.263 62.8722 269.483C63.1903 269.699 63.6051 269.807 64.1165 269.807C64.6733 269.807 65.1184 269.691 65.4517 269.46C65.785 269.225 65.9517 268.939 65.9517 268.602C65.9517 268.33 65.8494 268.1 65.6449 267.915C65.4441 267.729 65.1354 267.589 64.7188 267.494L63.2415 267.17C62.4271 266.985 61.8248 266.689 61.4347 266.284C61.0483 265.879 60.8551 265.366 60.8551 264.744C60.8551 264.229 60.9991 263.778 61.2869 263.392C61.5748 263.006 61.9725 262.705 62.4801 262.489C62.9877 262.269 63.5691 262.159 64.2244 262.159C65.1676 262.159 65.91 262.364 66.4517 262.773C66.9934 263.178 67.3513 263.722 67.5256 264.403ZM71.456 271L68.8878 262.273H70.6435L72.3537 268.682H72.4389L74.1548 262.273H75.9105L77.6151 268.653H77.7003L79.3991 262.273H81.1548L78.5923 271H76.8594L75.0866 264.699H74.956L73.1832 271H71.456ZM86.1776 271.176C85.3594 271.176 84.6454 270.989 84.0355 270.614C83.4257 270.239 82.9522 269.714 82.6151 269.04C82.2779 268.366 82.1094 267.578 82.1094 266.676C82.1094 265.771 82.2779 264.979 82.6151 264.301C82.9522 263.623 83.4257 263.097 84.0355 262.722C84.6454 262.347 85.3594 262.159 86.1776 262.159C86.9957 262.159 87.7098 262.347 88.3196 262.722C88.9295 263.097 89.4029 263.623 89.7401 264.301C90.0772 264.979 90.2457 265.771 90.2457 266.676C90.2457 267.578 90.0772 268.366 89.7401 269.04C89.4029 269.714 88.9295 270.239 88.3196 270.614C87.7098 270.989 86.9957 271.176 86.1776 271.176ZM86.1832 269.75C86.7135 269.75 87.1529 269.61 87.5014 269.33C87.8499 269.049 88.1075 268.676 88.2741 268.21C88.4446 267.744 88.5298 267.231 88.5298 266.67C88.5298 266.114 88.4446 265.602 88.2741 265.136C88.1075 264.667 87.8499 264.29 87.5014 264.006C87.1529 263.722 86.7135 263.58 86.1832 263.58C85.6491 263.58 85.206 263.722 84.8537 264.006C84.5052 264.29 84.2457 264.667 84.0753 265.136C83.9086 265.602 83.8253 266.114 83.8253 266.67C83.8253 267.231 83.9086 267.744 84.0753 268.21C84.2457 268.676 84.5052 269.049 84.8537 269.33C85.206 269.61 85.6491 269.75 86.1832 269.75ZM92.142 271V262.273H93.7841V263.659H93.875C94.0341 263.189 94.3144 262.82 94.7159 262.551C95.1212 262.278 95.5795 262.142 96.0909 262.142C96.197 262.142 96.322 262.146 96.4659 262.153C96.6136 262.161 96.7292 262.17 96.8125 262.182V263.807C96.7443 263.788 96.6231 263.767 96.4489 263.744C96.2746 263.718 96.1004 263.705 95.9261 263.705C95.5246 263.705 95.1667 263.79 94.8523 263.96C94.5417 264.127 94.2955 264.36 94.1136 264.659C93.9318 264.955 93.8409 265.292 93.8409 265.67V271H92.142ZM101.237 271.17C100.533 271.17 99.9039 270.991 99.3509 270.631C98.8016 270.267 98.3698 269.75 98.0554 269.08C97.7448 268.405 97.5895 267.597 97.5895 266.653C97.5895 265.71 97.7467 264.903 98.0611 264.233C98.3793 263.562 98.8149 263.049 99.3679 262.693C99.9209 262.337 100.548 262.159 101.249 262.159C101.79 262.159 102.226 262.25 102.555 262.432C102.889 262.61 103.146 262.818 103.328 263.057C103.514 263.295 103.658 263.506 103.76 263.688H103.862V259.364H105.561V271H103.902V269.642H103.76C103.658 269.828 103.51 270.04 103.317 270.278C103.127 270.517 102.866 270.725 102.533 270.903C102.199 271.081 101.768 271.17 101.237 271.17ZM101.612 269.722C102.101 269.722 102.514 269.593 102.851 269.335C103.192 269.074 103.449 268.712 103.624 268.25C103.802 267.788 103.891 267.25 103.891 266.636C103.891 266.03 103.804 265.5 103.629 265.045C103.455 264.591 103.199 264.237 102.862 263.983C102.525 263.729 102.108 263.602 101.612 263.602C101.101 263.602 100.675 263.735 100.334 264C99.9929 264.265 99.7353 264.627 99.5611 265.085C99.3906 265.544 99.3054 266.061 99.3054 266.636C99.3054 267.22 99.3925 267.744 99.5668 268.21C99.741 268.676 99.9986 269.045 100.339 269.318C100.684 269.587 101.108 269.722 101.612 269.722Z" fill="#525252"/>
<rect x="24" y="283" width="472" height="48" rx="8" fill="#E5E5E5"/>
<path d="M41.598 314V299.455H46.7827C47.9143 299.455 48.8518 299.661 49.5952 300.072C50.3385 300.484 50.8949 301.048 51.2642 301.763C51.6335 302.473 51.8182 303.273 51.8182 304.163C51.8182 305.058 51.6312 305.863 51.2571 306.578C50.8878 307.288 50.3291 307.852 49.581 308.268C48.8376 308.68 47.9025 308.886 46.7756 308.886H43.2102V307.026H46.5767C47.2917 307.026 47.8717 306.902 48.3168 306.656C48.7618 306.405 49.0885 306.064 49.2969 305.634C49.5052 305.203 49.6094 304.713 49.6094 304.163C49.6094 303.614 49.5052 303.126 49.2969 302.7C49.0885 302.274 48.7595 301.94 48.3097 301.699C47.8646 301.457 47.2775 301.337 46.5483 301.337H43.7926V314H41.598ZM57.2976 314.241C56.6063 314.241 55.9813 314.114 55.4226 313.858C54.8639 313.598 54.4212 313.221 54.0945 312.729C53.7725 312.236 53.6115 311.633 53.6115 310.918C53.6115 310.302 53.7299 309.795 53.9666 309.398C54.2034 309 54.523 308.685 54.9254 308.453C55.3279 308.221 55.7777 308.046 56.2749 307.928C56.772 307.809 57.2786 307.719 57.7947 307.658C58.4482 307.582 58.9785 307.52 59.3857 307.473C59.7929 307.421 60.0888 307.338 60.2734 307.224C60.4581 307.111 60.5504 306.926 60.5504 306.67V306.621C60.5504 306 60.3752 305.52 60.0249 305.179C59.6792 304.838 59.1631 304.668 58.4766 304.668C57.7616 304.668 57.1982 304.826 56.7862 305.143C56.379 305.456 56.0973 305.804 55.9411 306.188L53.9453 305.733C54.1821 305.07 54.5277 304.535 54.9822 304.128C55.4415 303.716 55.9695 303.418 56.5661 303.233C57.1626 303.044 57.79 302.949 58.4482 302.949C58.8838 302.949 59.3454 303.001 59.8331 303.105C60.3255 303.205 60.7848 303.389 61.2109 303.659C61.6418 303.929 61.9946 304.315 62.2692 304.817C62.5438 305.314 62.6811 305.96 62.6811 306.756V314H60.6072V312.509H60.522C60.3847 312.783 60.1787 313.053 59.9041 313.318C59.6295 313.583 59.2768 313.804 58.8459 313.979C58.415 314.154 57.8989 314.241 57.2976 314.241ZM57.7592 312.537C58.3464 312.537 58.8482 312.421 59.2649 312.189C59.6863 311.957 60.0059 311.654 60.2237 311.28C60.4463 310.901 60.5575 310.496 60.5575 310.065V308.659C60.4818 308.735 60.335 308.806 60.1172 308.872C59.9041 308.934 59.6603 308.988 59.3857 309.036C59.111 309.078 58.8435 309.118 58.5831 309.156C58.3227 309.189 58.1049 309.218 57.9297 309.241C57.5178 309.294 57.1413 309.381 56.8004 309.504C56.4643 309.627 56.1944 309.805 55.9908 310.037C55.7919 310.264 55.6925 310.567 55.6925 310.946C55.6925 311.472 55.8866 311.869 56.2749 312.139C56.6631 312.404 57.1579 312.537 57.7592 312.537ZM73.6843 305.754L71.7596 306.095C71.6791 305.849 71.5513 305.615 71.3761 305.392C71.2056 305.17 70.9736 304.987 70.68 304.845C70.3865 304.703 70.0195 304.632 69.5792 304.632C68.9779 304.632 68.476 304.767 68.0735 305.037C67.671 305.302 67.4698 305.645 67.4698 306.067C67.4698 306.431 67.6048 306.725 67.8746 306.947C68.1445 307.17 68.5801 307.352 69.1815 307.494L70.9144 307.892C71.9182 308.124 72.6663 308.482 73.1587 308.964C73.6512 309.447 73.8974 310.075 73.8974 310.847C73.8974 311.5 73.708 312.082 73.3292 312.594C72.9551 313.1 72.4319 313.498 71.7596 313.787C71.092 314.076 70.3178 314.22 69.4371 314.22C68.2156 314.22 67.2189 313.96 66.4471 313.439C65.6753 312.913 65.2018 312.168 65.0266 311.202L67.0792 310.889C67.207 311.424 67.4698 311.829 67.8675 312.104C68.2653 312.374 68.7837 312.509 69.4229 312.509C70.119 312.509 70.6753 312.364 71.092 312.075C71.5086 311.782 71.717 311.424 71.717 311.003C71.717 310.662 71.5891 310.375 71.3335 310.143C71.0825 309.911 70.6966 309.736 70.1758 309.618L68.3292 309.213C67.3112 308.981 66.5584 308.612 66.0707 308.105C65.5877 307.598 65.3462 306.957 65.3462 306.18C65.3462 305.536 65.5262 304.973 65.886 304.49C66.2459 304.007 66.743 303.631 67.3775 303.361C68.012 303.086 68.7388 302.949 69.5579 302.949C70.7369 302.949 71.6649 303.205 72.342 303.716C73.0191 304.223 73.4665 304.902 73.6843 305.754ZM84.407 305.754L82.4822 306.095C82.4018 305.849 82.2739 305.615 82.0987 305.392C81.9283 305.17 81.6963 304.987 81.4027 304.845C81.1091 304.703 80.7422 304.632 80.3018 304.632C79.7005 304.632 79.1986 304.767 78.7962 305.037C78.3937 305.302 78.1925 305.645 78.1925 306.067C78.1925 306.431 78.3274 306.725 78.5973 306.947C78.8672 307.17 79.3028 307.352 79.9041 307.494L81.6371 307.892C82.6409 308.124 83.389 308.482 83.8814 308.964C84.3738 309.447 84.62 310.075 84.62 310.847C84.62 311.5 84.4306 312.082 84.0518 312.594C83.6778 313.1 83.1546 313.498 82.4822 313.787C81.8146 314.076 81.0405 314.22 80.1598 314.22C78.9382 314.22 77.9415 313.96 77.1697 313.439C76.398 312.913 75.9245 312.168 75.7493 311.202L77.8018 310.889C77.9297 311.424 78.1925 311.829 78.5902 312.104C78.9879 312.374 79.5064 312.509 80.1456 312.509C80.8416 312.509 81.398 312.364 81.8146 312.075C82.2313 311.782 82.4396 311.424 82.4396 311.003C82.4396 310.662 82.3118 310.375 82.0561 310.143C81.8052 309.911 81.4193 309.736 80.8984 309.618L79.0518 309.213C78.0339 308.981 77.281 308.612 76.7933 308.105C76.3104 307.598 76.0689 306.957 76.0689 306.18C76.0689 305.536 76.2488 304.973 76.6087 304.49C76.9685 304.007 77.4657 303.631 78.1001 303.361C78.7346 303.086 79.4614 302.949 80.2805 302.949C81.4595 302.949 82.3875 303.205 83.0646 303.716C83.7417 304.223 84.1892 304.902 84.407 305.754ZM89.32 314L86.1097 303.091H88.3043L90.4421 311.102H90.5487L92.6935 303.091H94.8881L97.0188 311.067H97.1254L99.2489 303.091H101.444L98.2404 314H96.0742L93.8583 306.124H93.695L91.479 314H89.32ZM107.722 314.22C106.699 314.22 105.807 313.986 105.044 313.517C104.282 313.048 103.69 312.393 103.269 311.55C102.847 310.707 102.637 309.722 102.637 308.595C102.637 307.464 102.847 306.474 103.269 305.626C103.69 304.779 104.282 304.121 105.044 303.652C105.807 303.183 106.699 302.949 107.722 302.949C108.745 302.949 109.637 303.183 110.4 303.652C111.162 304.121 111.754 304.779 112.175 305.626C112.596 306.474 112.807 307.464 112.807 308.595C112.807 309.722 112.596 310.707 112.175 311.55C111.754 312.393 111.162 313.048 110.4 313.517C109.637 313.986 108.745 314.22 107.722 314.22ZM107.729 312.438C108.392 312.438 108.941 312.262 109.377 311.912C109.812 311.562 110.134 311.095 110.343 310.513C110.556 309.93 110.662 309.289 110.662 308.588C110.662 307.892 110.556 307.253 110.343 306.67C110.134 306.083 109.812 305.612 109.377 305.257C108.941 304.902 108.392 304.724 107.729 304.724C107.061 304.724 106.507 304.902 106.067 305.257C105.632 305.612 105.307 306.083 105.094 306.67C104.886 307.253 104.782 307.892 104.782 308.588C104.782 309.289 104.886 309.93 105.094 310.513C105.307 311.095 105.632 311.562 106.067 311.912C106.507 312.262 107.061 312.438 107.729 312.438ZM115.178 314V303.091H117.23V304.824H117.344C117.543 304.237 117.893 303.775 118.395 303.439C118.902 303.098 119.474 302.928 120.114 302.928C120.246 302.928 120.402 302.932 120.582 302.942C120.767 302.951 120.911 302.963 121.016 302.977V305.009C120.93 304.985 120.779 304.959 120.561 304.93C120.343 304.897 120.125 304.881 119.908 304.881C119.406 304.881 118.958 304.987 118.565 305.2C118.177 305.409 117.869 305.7 117.642 306.074C117.415 306.443 117.301 306.865 117.301 307.338V314H115.178ZM126.547 314.213C125.666 314.213 124.88 313.988 124.189 313.538C123.502 313.084 122.962 312.437 122.569 311.599C122.181 310.757 121.987 309.746 121.987 308.567C121.987 307.388 122.183 306.379 122.576 305.541C122.974 304.703 123.519 304.062 124.21 303.616C124.901 303.171 125.685 302.949 126.561 302.949C127.238 302.949 127.782 303.062 128.194 303.29C128.611 303.512 128.933 303.773 129.16 304.071C129.392 304.369 129.572 304.632 129.7 304.859H129.828V299.455H131.951V314H129.877V312.303H129.7C129.572 312.535 129.387 312.8 129.146 313.098C128.909 313.396 128.583 313.657 128.166 313.879C127.749 314.102 127.209 314.213 126.547 314.213ZM127.015 312.402C127.626 312.402 128.142 312.241 128.564 311.919C128.99 311.592 129.312 311.14 129.529 310.562C129.752 309.985 129.863 309.312 129.863 308.545C129.863 307.788 129.754 307.125 129.537 306.557C129.319 305.989 128.999 305.546 128.578 305.229C128.156 304.911 127.636 304.753 127.015 304.753C126.376 304.753 125.843 304.919 125.417 305.25C124.991 305.581 124.669 306.034 124.451 306.607C124.238 307.179 124.132 307.826 124.132 308.545C124.132 309.275 124.241 309.93 124.458 310.513C124.676 311.095 124.998 311.557 125.424 311.898C125.855 312.234 126.386 312.402 127.015 312.402Z" fill="#525252"/>
<rect x="24" y="355" width="472" height="48" rx="8" fill="#171717"/>
<path d="M185.233 376.362H182.576C182.501 375.927 182.361 375.541 182.157 375.205C181.954 374.864 181.7 374.575 181.397 374.338C181.094 374.101 180.749 373.924 180.36 373.805C179.977 373.682 179.563 373.621 179.118 373.621C178.327 373.621 177.626 373.82 177.015 374.217C176.404 374.61 175.926 375.188 175.581 375.95C175.235 376.708 175.062 377.634 175.062 378.727C175.062 379.84 175.235 380.777 175.581 381.54C175.931 382.297 176.409 382.87 177.015 383.259C177.626 383.642 178.324 383.834 179.11 383.834C179.546 383.834 179.953 383.777 180.332 383.663C180.716 383.545 181.059 383.372 181.362 383.145C181.67 382.918 181.928 382.638 182.136 382.307C182.349 381.975 182.496 381.597 182.576 381.17L185.233 381.185C185.133 381.876 184.918 382.525 184.586 383.131C184.26 383.737 183.831 384.272 183.301 384.736C182.77 385.195 182.15 385.555 181.44 385.815C180.73 386.071 179.941 386.199 179.075 386.199C177.797 386.199 176.655 385.903 175.652 385.311C174.648 384.719 173.857 383.865 173.279 382.747C172.702 381.63 172.413 380.29 172.413 378.727C172.413 377.16 172.704 375.82 173.287 374.707C173.869 373.59 174.662 372.735 175.666 372.143C176.67 371.552 177.806 371.256 179.075 371.256C179.885 371.256 180.637 371.369 181.333 371.597C182.029 371.824 182.65 372.158 183.194 372.598C183.739 373.034 184.186 373.569 184.537 374.203C184.892 374.833 185.124 375.553 185.233 376.362ZM187.532 386V375.091H190.025V376.909H190.138C190.337 376.279 190.678 375.794 191.161 375.453C191.649 375.107 192.205 374.935 192.83 374.935C192.972 374.935 193.131 374.942 193.306 374.956C193.486 374.965 193.635 374.982 193.754 375.006V377.371C193.645 377.333 193.472 377.3 193.235 377.271C193.003 377.238 192.778 377.222 192.56 377.222C192.092 377.222 191.67 377.323 191.296 377.527C190.927 377.726 190.636 378.003 190.423 378.358C190.21 378.713 190.103 379.123 190.103 379.587V386H187.532ZM199.842 386.213C198.748 386.213 197.804 385.986 197.008 385.531C196.217 385.072 195.609 384.423 195.183 383.585C194.757 382.742 194.544 381.75 194.544 380.609C194.544 379.487 194.757 378.502 195.183 377.655C195.614 376.803 196.215 376.14 196.987 375.666C197.759 375.188 198.665 374.949 199.707 374.949C200.379 374.949 201.014 375.058 201.61 375.276C202.212 375.489 202.742 375.82 203.201 376.27C203.665 376.72 204.03 377.293 204.295 377.989C204.56 378.68 204.693 379.504 204.693 380.46V381.249H195.751V379.516H202.228C202.224 379.023 202.117 378.585 201.909 378.202C201.7 377.813 201.409 377.508 201.035 377.286C200.666 377.063 200.235 376.952 199.743 376.952C199.217 376.952 198.755 377.08 198.358 377.335C197.96 377.586 197.65 377.918 197.427 378.33C197.209 378.737 197.098 379.184 197.093 379.672V381.185C197.093 381.819 197.209 382.364 197.441 382.818C197.673 383.268 197.998 383.614 198.414 383.855C198.831 384.092 199.319 384.21 199.877 384.21C200.252 384.21 200.59 384.158 200.893 384.054C201.196 383.945 201.459 383.786 201.681 383.578C201.904 383.37 202.072 383.112 202.186 382.804L204.586 383.074C204.435 383.708 204.146 384.262 203.72 384.736C203.298 385.205 202.759 385.569 202.1 385.83C201.442 386.085 200.69 386.213 199.842 386.213ZM210.007 386.22C209.316 386.22 208.693 386.097 208.139 385.851C207.59 385.6 207.154 385.231 206.832 384.743C206.515 384.255 206.357 383.654 206.357 382.939C206.357 382.323 206.47 381.814 206.697 381.412C206.925 381.009 207.235 380.688 207.628 380.446C208.021 380.205 208.464 380.022 208.956 379.899C209.453 379.771 209.967 379.679 210.497 379.622C211.136 379.556 211.655 379.497 212.053 379.445C212.45 379.388 212.739 379.303 212.919 379.189C213.104 379.071 213.196 378.888 213.196 378.642V378.599C213.196 378.064 213.037 377.65 212.72 377.357C212.403 377.063 211.946 376.916 211.349 376.916C210.72 376.916 210.22 377.054 209.851 377.328C209.486 377.603 209.24 377.927 209.112 378.301L206.712 377.96C206.901 377.297 207.214 376.743 207.649 376.298C208.085 375.848 208.617 375.512 209.247 375.29C209.877 375.062 210.573 374.949 211.335 374.949C211.861 374.949 212.384 375.01 212.905 375.134C213.426 375.257 213.902 375.46 214.332 375.744C214.763 376.024 215.109 376.405 215.369 376.888C215.634 377.371 215.767 377.974 215.767 378.699V386H213.295V384.501H213.21C213.054 384.804 212.834 385.089 212.55 385.354C212.27 385.614 211.918 385.825 211.491 385.986C211.07 386.142 210.575 386.22 210.007 386.22ZM210.675 384.331C211.191 384.331 211.638 384.229 212.017 384.026C212.396 383.817 212.687 383.543 212.891 383.202C213.099 382.861 213.203 382.489 213.203 382.087V380.801C213.123 380.867 212.985 380.929 212.791 380.986C212.602 381.043 212.389 381.092 212.152 381.135C211.915 381.178 211.681 381.215 211.449 381.249C211.217 381.282 211.016 381.31 210.845 381.334C210.462 381.386 210.118 381.471 209.815 381.589C209.512 381.708 209.273 381.874 209.098 382.087C208.923 382.295 208.835 382.565 208.835 382.896C208.835 383.37 209.008 383.727 209.354 383.969C209.699 384.21 210.14 384.331 210.675 384.331ZM223.8 375.091V377.08H217.528V375.091H223.8ZM219.077 372.477H221.648V382.719C221.648 383.064 221.7 383.33 221.804 383.514C221.913 383.694 222.055 383.817 222.23 383.884C222.405 383.95 222.599 383.983 222.812 383.983C222.973 383.983 223.12 383.971 223.253 383.947C223.39 383.924 223.494 383.902 223.565 383.884L223.999 385.893C223.861 385.941 223.665 385.993 223.409 386.05C223.158 386.107 222.85 386.14 222.486 386.149C221.842 386.168 221.262 386.071 220.746 385.858C220.23 385.64 219.82 385.304 219.517 384.849C219.219 384.395 219.072 383.827 219.077 383.145V372.477ZM230.662 386.213C229.569 386.213 228.624 385.986 227.828 385.531C227.038 385.072 226.429 384.423 226.003 383.585C225.577 382.742 225.364 381.75 225.364 380.609C225.364 379.487 225.577 378.502 226.003 377.655C226.434 376.803 227.035 376.14 227.807 375.666C228.579 375.188 229.486 374.949 230.527 374.949C231.2 374.949 231.834 375.058 232.431 375.276C233.032 375.489 233.562 375.82 234.022 376.27C234.486 376.72 234.85 377.293 235.115 377.989C235.381 378.68 235.513 379.504 235.513 380.46V381.249H226.571V379.516H233.049C233.044 379.023 232.937 378.585 232.729 378.202C232.521 377.813 232.23 377.508 231.855 377.286C231.486 377.063 231.055 376.952 230.563 376.952C230.037 376.952 229.576 377.08 229.178 377.335C228.78 377.586 228.47 377.918 228.248 378.33C228.03 378.737 227.918 379.184 227.914 379.672V381.185C227.914 381.819 228.03 382.364 228.262 382.818C228.494 383.268 228.818 383.614 229.235 383.855C229.651 384.092 230.139 384.21 230.698 384.21C231.072 384.21 231.41 384.158 231.713 384.054C232.016 383.945 232.279 383.786 232.502 383.578C232.724 383.37 232.892 383.112 233.006 382.804L235.407 383.074C235.255 383.708 234.966 384.262 234.54 384.736C234.119 385.205 233.579 385.569 232.921 385.83C232.263 386.085 231.51 386.213 230.662 386.213ZM245.788 386.22C245.097 386.22 244.474 386.097 243.92 385.851C243.371 385.6 242.936 385.231 242.614 384.743C242.296 384.255 242.138 383.654 242.138 382.939C242.138 382.323 242.251 381.814 242.479 381.412C242.706 381.009 243.016 380.688 243.409 380.446C243.802 380.205 244.245 380.022 244.737 379.899C245.234 379.771 245.748 379.679 246.278 379.622C246.918 379.556 247.436 379.497 247.834 379.445C248.232 379.388 248.52 379.303 248.7 379.189C248.885 379.071 248.977 378.888 248.977 378.642V378.599C248.977 378.064 248.819 377.65 248.501 377.357C248.184 377.063 247.727 376.916 247.131 376.916C246.501 376.916 246.001 377.054 245.632 377.328C245.268 377.603 245.021 377.927 244.893 378.301L242.493 377.96C242.682 377.297 242.995 376.743 243.43 376.298C243.866 375.848 244.399 375.512 245.028 375.29C245.658 375.062 246.354 374.949 247.116 374.949C247.642 374.949 248.165 375.01 248.686 375.134C249.207 375.257 249.683 375.46 250.114 375.744C250.545 376.024 250.89 376.405 251.151 376.888C251.416 377.371 251.548 377.974 251.548 378.699V386H249.077V384.501H248.991C248.835 384.804 248.615 385.089 248.331 385.354C248.052 385.614 247.699 385.825 247.273 385.986C246.851 386.142 246.357 386.22 245.788 386.22ZM246.456 384.331C246.972 384.331 247.42 384.229 247.798 384.026C248.177 383.817 248.468 383.543 248.672 383.202C248.88 382.861 248.984 382.489 248.984 382.087V380.801C248.904 380.867 248.767 380.929 248.572 380.986C248.383 381.043 248.17 381.092 247.933 381.135C247.696 381.178 247.462 381.215 247.23 381.249C246.998 381.282 246.797 381.31 246.626 381.334C246.243 381.386 245.9 381.471 245.597 381.589C245.294 381.708 245.054 381.874 244.879 382.087C244.704 382.295 244.616 382.565 244.616 382.896C244.616 383.37 244.789 383.727 245.135 383.969C245.481 384.21 245.921 384.331 246.456 384.331ZM256.705 379.608V386H254.134V375.091H256.591V376.945H256.719C256.97 376.334 257.37 375.848 257.919 375.489C258.473 375.129 259.157 374.949 259.972 374.949C260.724 374.949 261.38 375.11 261.939 375.432C262.502 375.754 262.938 376.22 263.246 376.831C263.558 377.442 263.712 378.183 263.707 379.054V386H261.136V379.452C261.136 378.723 260.947 378.152 260.568 377.74C260.194 377.328 259.676 377.122 259.013 377.122C258.563 377.122 258.163 377.222 257.812 377.42C257.467 377.615 257.195 377.896 256.996 378.266C256.802 378.635 256.705 379.082 256.705 379.608ZM274.421 386.22C273.73 386.22 273.107 386.097 272.553 385.851C272.004 385.6 271.568 385.231 271.246 384.743C270.929 384.255 270.771 383.654 270.771 382.939C270.771 382.323 270.884 381.814 271.112 381.412C271.339 381.009 271.649 380.688 272.042 380.446C272.435 380.205 272.878 380.022 273.37 379.899C273.867 379.771 274.381 379.679 274.911 379.622C275.55 379.556 276.069 379.497 276.467 379.445C276.864 379.388 277.153 379.303 277.333 379.189C277.518 379.071 277.61 378.888 277.61 378.642V378.599C277.61 378.064 277.451 377.65 277.134 377.357C276.817 377.063 276.36 376.916 275.763 376.916C275.134 376.916 274.634 377.054 274.265 377.328C273.9 377.603 273.654 377.927 273.526 378.301L271.126 377.96C271.315 377.297 271.628 376.743 272.063 376.298C272.499 375.848 273.031 375.512 273.661 375.29C274.291 375.062 274.987 374.949 275.749 374.949C276.275 374.949 276.798 375.01 277.319 375.134C277.84 375.257 278.316 375.46 278.746 375.744C279.177 376.024 279.523 376.405 279.783 376.888C280.049 377.371 280.181 377.974 280.181 378.699V386H277.71V384.501H277.624C277.468 384.804 277.248 385.089 276.964 385.354C276.684 385.614 276.332 385.825 275.906 385.986C275.484 386.142 274.989 386.22 274.421 386.22ZM275.089 384.331C275.605 384.331 276.052 384.229 276.431 384.026C276.81 383.817 277.101 383.543 277.305 383.202C277.513 382.861 277.617 382.489 277.617 382.087V380.801C277.537 380.867 277.399 380.929 277.205 380.986C277.016 381.043 276.803 381.092 276.566 381.135C276.329 381.178 276.095 381.215 275.863 381.249C275.631 381.282 275.43 381.31 275.259 381.334C274.876 381.386 274.532 381.471 274.229 381.589C273.926 381.708 273.687 381.874 273.512 382.087C273.337 382.295 273.249 382.565 273.249 382.896C273.249 383.37 273.422 383.727 273.768 383.969C274.113 384.21 274.554 384.331 275.089 384.331ZM287.525 386.213C286.436 386.213 285.501 385.974 284.719 385.496C283.943 385.018 283.344 384.357 282.923 383.514C282.506 382.667 282.298 381.691 282.298 380.588C282.298 379.48 282.511 378.502 282.937 377.655C283.363 376.803 283.964 376.14 284.741 375.666C285.522 375.188 286.445 374.949 287.511 374.949C288.396 374.949 289.18 375.112 289.862 375.439C290.548 375.761 291.095 376.218 291.502 376.81C291.909 377.397 292.141 378.083 292.198 378.869H289.741C289.641 378.344 289.405 377.906 289.031 377.555C288.661 377.2 288.166 377.023 287.546 377.023C287.021 377.023 286.559 377.165 286.161 377.449C285.763 377.728 285.453 378.131 285.231 378.656C285.013 379.182 284.904 379.812 284.904 380.545C284.904 381.289 285.013 381.928 285.231 382.463C285.449 382.993 285.754 383.403 286.147 383.692C286.545 383.976 287.011 384.118 287.546 384.118C287.925 384.118 288.263 384.047 288.562 383.905C288.865 383.758 289.118 383.547 289.322 383.273C289.525 382.998 289.665 382.664 289.741 382.271H292.198C292.137 383.043 291.909 383.727 291.516 384.324C291.123 384.916 290.588 385.38 289.911 385.716C289.234 386.047 288.439 386.213 287.525 386.213ZM299.068 386.213C297.979 386.213 297.044 385.974 296.262 385.496C295.486 385.018 294.887 384.357 294.466 383.514C294.049 382.667 293.841 381.691 293.841 380.588C293.841 379.48 294.054 378.502 294.48 377.655C294.906 376.803 295.507 376.14 296.284 375.666C297.065 375.188 297.988 374.949 299.054 374.949C299.939 374.949 300.723 375.112 301.404 375.439C302.091 375.761 302.638 376.218 303.045 376.81C303.452 377.397 303.684 378.083 303.741 378.869H301.284C301.184 378.344 300.948 377.906 300.574 377.555C300.204 377.2 299.709 377.023 299.089 377.023C298.564 377.023 298.102 377.165 297.704 377.449C297.306 377.728 296.996 378.131 296.774 378.656C296.556 379.182 296.447 379.812 296.447 380.545C296.447 381.289 296.556 381.928 296.774 382.463C296.992 382.993 297.297 383.403 297.69 383.692C298.088 383.976 298.554 384.118 299.089 384.118C299.468 384.118 299.806 384.047 300.105 383.905C300.408 383.758 300.661 383.547 300.865 383.273C301.068 382.998 301.208 382.664 301.284 382.271H303.741C303.68 383.043 303.452 383.727 303.059 384.324C302.666 384.916 302.131 385.38 301.454 385.716C300.777 386.047 299.982 386.213 299.068 386.213ZM310.611 386.213C309.545 386.213 308.622 385.979 307.841 385.51C307.06 385.041 306.454 384.385 306.023 383.543C305.597 382.7 305.384 381.715 305.384 380.588C305.384 379.461 305.597 378.474 306.023 377.626C306.454 376.779 307.06 376.121 307.841 375.652C308.622 375.183 309.545 374.949 310.611 374.949C311.676 374.949 312.599 375.183 313.381 375.652C314.162 376.121 314.766 376.779 315.192 377.626C315.623 378.474 315.838 379.461 315.838 380.588C315.838 381.715 315.623 382.7 315.192 383.543C314.766 384.385 314.162 385.041 313.381 385.51C312.599 385.979 311.676 386.213 310.611 386.213ZM310.625 384.153C311.203 384.153 311.686 383.995 312.074 383.678C312.462 383.356 312.751 382.925 312.94 382.385C313.134 381.845 313.232 381.244 313.232 380.581C313.232 379.913 313.134 379.31 312.94 378.77C312.751 378.225 312.462 377.792 312.074 377.47C311.686 377.148 311.203 376.987 310.625 376.987C310.033 376.987 309.541 377.148 309.148 377.47C308.759 377.792 308.468 378.225 308.274 378.77C308.085 379.31 307.99 379.913 307.99 380.581C307.99 381.244 308.085 381.845 308.274 382.385C308.468 382.925 308.759 383.356 309.148 383.678C309.541 383.995 310.033 384.153 310.625 384.153ZM324.973 381.412V375.091H327.544V386H325.051V384.061H324.938C324.692 384.672 324.287 385.171 323.723 385.56C323.165 385.948 322.476 386.142 321.657 386.142C320.942 386.142 320.31 385.983 319.76 385.666C319.216 385.344 318.79 384.878 318.482 384.267C318.174 383.652 318.02 382.908 318.02 382.037V375.091H320.591V381.639C320.591 382.33 320.781 382.88 321.159 383.287C321.538 383.694 322.035 383.898 322.651 383.898C323.03 383.898 323.397 383.805 323.752 383.621C324.107 383.436 324.398 383.161 324.625 382.797C324.857 382.428 324.973 381.966 324.973 381.412ZM332.759 379.608V386H330.188V375.091H332.646V376.945H332.773C333.024 376.334 333.424 375.848 333.974 375.489C334.528 375.129 335.212 374.949 336.026 374.949C336.779 374.949 337.435 375.11 337.994 375.432C338.557 375.754 338.993 376.22 339.3 376.831C339.613 377.442 339.767 378.183 339.762 379.054V386H337.191V379.452C337.191 378.723 337.002 378.152 336.623 377.74C336.249 377.328 335.73 377.122 335.067 377.122C334.618 377.122 334.218 377.222 333.867 377.42C333.522 377.615 333.249 377.896 333.05 378.266C332.856 378.635 332.759 379.082 332.759 379.608ZM347.823 375.091V377.08H341.552V375.091H347.823ZM343.1 372.477H345.671V382.719C345.671 383.064 345.723 383.33 345.827 383.514C345.936 383.694 346.078 383.817 346.254 383.884C346.429 383.95 346.623 383.983 346.836 383.983C346.997 383.983 347.144 383.971 347.276 383.947C347.414 383.924 347.518 383.902 347.589 383.884L348.022 385.893C347.885 385.941 347.688 385.993 347.433 386.05C347.182 386.107 346.874 386.14 346.509 386.149C345.865 386.168 345.285 386.071 344.769 385.858C344.253 385.64 343.844 385.304 343.54 384.849C343.242 384.395 343.095 383.827 343.1 383.145V372.477Z" fill="white"/>
<mask id="path-12-inside-1_27_2" fill="white">
<path d="M24 451H496V530H24V451Z"/>
</mask>
<path d="M24 452H496V450H24V452Z" fill="#E5E5E5" mask="url(#path-12-inside-1_27_2)"/>
<path d="M26.8443 513H24.9977L30.3386 498.455H32.1568L37.4977 513H35.6511L31.3045 500.756H31.1909L26.8443 513ZM27.5261 507.318H34.9693V508.881H27.5261V507.318ZM41.2122 498.455V513H39.536V498.455H41.2122ZM44.2821 513V502.091H45.9015V503.739H46.0151C46.214 503.199 46.5738 502.761 47.0946 502.425C47.6155 502.089 48.2026 501.92 48.856 501.92C48.9791 501.92 49.133 501.923 49.3176 501.928C49.5023 501.932 49.642 501.939 49.7367 501.949V503.653C49.6799 503.639 49.5497 503.618 49.3461 503.589C49.1472 503.556 48.9365 503.54 48.714 503.54C48.1837 503.54 47.7102 503.651 47.2935 503.874C46.8816 504.091 46.5549 504.394 46.3134 504.783C46.0766 505.166 45.9583 505.604 45.9583 506.097V513H44.2821ZM55.9654 513.227C54.9142 513.227 54.0075 512.995 53.2452 512.531C52.4876 512.062 51.9029 511.409 51.4909 510.571C51.0837 509.728 50.8801 508.748 50.8801 507.631C50.8801 506.513 51.0837 505.528 51.4909 504.676C51.9029 503.819 52.4758 503.152 53.2097 502.673C53.9483 502.19 54.8101 501.949 55.7949 501.949C56.3631 501.949 56.9242 502.044 57.4782 502.233C58.0321 502.422 58.5364 502.73 58.9909 503.156C59.4455 503.578 59.8077 504.136 60.0776 504.832C60.3475 505.528 60.4824 506.385 60.4824 507.403V508.114H52.0733V506.665H58.7779C58.7779 506.049 58.6548 505.5 58.4086 505.017C58.1671 504.534 57.8214 504.153 57.3716 503.874C56.9266 503.594 56.401 503.455 55.7949 503.455C55.1273 503.455 54.5497 503.62 54.062 503.952C53.579 504.278 53.2073 504.705 52.9469 505.23C52.6865 505.756 52.5563 506.319 52.5563 506.92V507.886C52.5563 508.71 52.6983 509.409 52.9824 509.982C53.2712 510.55 53.6713 510.983 54.1827 511.281C54.6941 511.575 55.2883 511.722 55.9654 511.722C56.4057 511.722 56.8034 511.66 57.1586 511.537C57.5184 511.409 57.8285 511.22 58.089 510.969C58.3494 510.713 58.5506 510.396 58.6926 510.017L60.312 510.472C60.1415 511.021 59.8551 511.504 59.4526 511.92C59.0501 512.332 58.553 512.654 57.9611 512.886C57.3693 513.114 56.704 513.227 55.9654 513.227ZM66.2424 513.256C65.5511 513.256 64.9237 513.125 64.3603 512.865C63.7968 512.6 63.3494 512.219 63.0179 511.722C62.6865 511.22 62.5208 510.614 62.5208 509.903C62.5208 509.278 62.6439 508.772 62.8901 508.384C63.1363 507.991 63.4654 507.683 63.8773 507.46C64.2892 507.238 64.7438 507.072 65.2409 506.963C65.7428 506.849 66.2471 506.759 66.7537 506.693C67.4166 506.608 67.954 506.544 68.3659 506.501C68.7826 506.454 69.0856 506.376 69.275 506.267C69.4692 506.158 69.5662 505.969 69.5662 505.699V505.642C69.5662 504.941 69.3745 504.397 68.9909 504.009C68.6122 503.62 68.0369 503.426 67.2651 503.426C66.4649 503.426 65.8375 503.601 65.383 503.952C64.9284 504.302 64.6088 504.676 64.4242 505.074L62.8333 504.506C63.1174 503.843 63.4962 503.327 63.9696 502.957C64.4479 502.583 64.9687 502.323 65.5321 502.176C66.1003 502.025 66.659 501.949 67.2083 501.949C67.5587 501.949 67.9611 501.991 68.4157 502.077C68.8749 502.157 69.3176 502.325 69.7438 502.581C70.1747 502.837 70.5321 503.223 70.8162 503.739C71.1003 504.255 71.2424 504.946 71.2424 505.812V513H69.5662V511.523H69.481C69.3674 511.759 69.178 512.013 68.9128 512.283C68.6477 512.553 68.2949 512.782 67.8546 512.972C67.4142 513.161 66.8768 513.256 66.2424 513.256ZM66.498 511.75C67.1609 511.75 67.7196 511.62 68.1742 511.359C68.6335 511.099 68.9791 510.763 69.2111 510.351C69.4479 509.939 69.5662 509.506 69.5662 509.051V507.517C69.4952 507.602 69.339 507.68 69.0975 507.751C68.8607 507.818 68.5861 507.877 68.2736 507.929C67.9658 507.976 67.6652 508.019 67.3716 508.057C67.0828 508.09 66.8484 508.118 66.6685 508.142C66.2329 508.199 65.8257 508.291 65.4469 508.419C65.0729 508.542 64.7698 508.729 64.5378 508.98C64.3105 509.226 64.1969 509.562 64.1969 509.989C64.1969 510.571 64.4123 511.011 64.8432 511.31C65.2788 511.603 65.8304 511.75 66.498 511.75ZM78.421 513.227C77.5119 513.227 76.7093 512.998 76.0133 512.538C75.3173 512.074 74.7728 511.421 74.3798 510.578C73.9868 509.731 73.7903 508.729 73.7903 507.574C73.7903 506.428 73.9868 505.434 74.3798 504.591C74.7728 503.748 75.3197 503.097 76.0204 502.638C76.7212 502.179 77.5308 501.949 78.4494 501.949C79.1596 501.949 79.7207 502.067 80.1326 502.304C80.5493 502.536 80.8665 502.801 81.0843 503.099C81.3069 503.393 81.4797 503.634 81.6028 503.824H81.7449V498.455H83.421V513H81.8017V511.324H81.6028C81.4797 511.523 81.3045 511.774 81.0772 512.077C80.85 512.375 80.5256 512.643 80.1042 512.879C79.6828 513.111 79.1217 513.227 78.421 513.227ZM78.6483 511.722C79.3206 511.722 79.8888 511.546 80.3528 511.196C80.8168 510.841 81.1696 510.351 81.411 509.726C81.6525 509.096 81.7733 508.369 81.7733 507.545C81.7733 506.731 81.6549 506.018 81.4181 505.408C81.1814 504.792 80.831 504.314 80.367 503.973C79.903 503.627 79.3301 503.455 78.6483 503.455C77.938 503.455 77.3462 503.637 76.8727 504.001C76.4039 504.361 76.0512 504.851 75.8145 505.472C75.5824 506.087 75.4664 506.778 75.4664 507.545C75.4664 508.322 75.5848 509.027 75.8216 509.662C76.063 510.292 76.4181 510.794 76.8869 511.168C77.3604 511.537 77.9475 511.722 78.6483 511.722ZM87.8031 517.091C87.519 517.091 87.2657 517.067 87.0431 517.02C86.8206 516.977 86.6667 516.935 86.5815 516.892L87.0076 515.415C87.4148 515.519 87.7747 515.557 88.0872 515.528C88.3997 515.5 88.6767 515.36 88.9181 515.109C89.1644 514.863 89.3893 514.463 89.5929 513.909L89.9054 513.057L85.8713 502.091H87.6895L90.7008 510.784H90.8145L93.8258 502.091H95.644L91.0133 514.591C90.805 515.154 90.5469 515.621 90.2392 515.99C89.9314 516.364 89.5739 516.641 89.1667 516.821C88.7643 517.001 88.3097 517.091 87.8031 517.091ZM105.157 506.438V513H103.481V498.455H105.157V503.795H105.3C105.555 503.232 105.939 502.785 106.45 502.453C106.966 502.117 107.653 501.949 108.51 501.949C109.253 501.949 109.904 502.098 110.463 502.396C111.022 502.69 111.455 503.142 111.763 503.753C112.075 504.359 112.231 505.131 112.231 506.068V513H110.555V506.182C110.555 505.315 110.33 504.645 109.881 504.172C109.435 503.694 108.818 503.455 108.027 503.455C107.478 503.455 106.985 503.571 106.55 503.803C106.119 504.035 105.778 504.373 105.527 504.818C105.281 505.263 105.157 505.803 105.157 506.438ZM118.508 513.256C117.817 513.256 117.189 513.125 116.626 512.865C116.062 512.6 115.615 512.219 115.284 511.722C114.952 511.22 114.786 510.614 114.786 509.903C114.786 509.278 114.91 508.772 115.156 508.384C115.402 507.991 115.731 507.683 116.143 507.46C116.555 507.238 117.009 507.072 117.507 506.963C118.008 506.849 118.513 506.759 119.019 506.693C119.682 506.608 120.22 506.544 120.632 506.501C121.048 506.454 121.351 506.376 121.541 506.267C121.735 506.158 121.832 505.969 121.832 505.699V505.642C121.832 504.941 121.64 504.397 121.257 504.009C120.878 503.62 120.302 503.426 119.531 503.426C118.731 503.426 118.103 503.601 117.649 503.952C117.194 504.302 116.874 504.676 116.69 505.074L115.099 504.506C115.383 503.843 115.762 503.327 116.235 502.957C116.713 502.583 117.234 502.323 117.798 502.176C118.366 502.025 118.925 501.949 119.474 501.949C119.824 501.949 120.227 501.991 120.681 502.077C121.141 502.157 121.583 502.325 122.009 502.581C122.44 502.837 122.798 503.223 123.082 503.739C123.366 504.255 123.508 504.946 123.508 505.812V513H121.832V511.523H121.747C121.633 511.759 121.444 512.013 121.178 512.283C120.913 512.553 120.561 512.782 120.12 512.972C119.68 513.161 119.142 513.256 118.508 513.256ZM118.764 511.75C119.427 511.75 119.985 511.62 120.44 511.359C120.899 511.099 121.245 510.763 121.477 510.351C121.713 509.939 121.832 509.506 121.832 509.051V507.517C121.761 507.602 121.605 507.68 121.363 507.751C121.126 507.818 120.852 507.877 120.539 507.929C120.231 507.976 119.931 508.019 119.637 508.057C119.348 508.09 119.114 508.118 118.934 508.142C118.499 508.199 118.091 508.291 117.713 508.419C117.338 508.542 117.035 508.729 116.803 508.98C116.576 509.226 116.463 509.562 116.463 509.989C116.463 510.571 116.678 511.011 117.109 511.31C117.544 511.603 118.096 511.75 118.764 511.75ZM135.097 502.091L131.063 513H129.358L125.324 502.091H127.143L130.154 510.784H130.268L133.279 502.091H135.097ZM141.493 513.227C140.442 513.227 139.535 512.995 138.773 512.531C138.015 512.062 137.43 511.409 137.018 510.571C136.611 509.728 136.407 508.748 136.407 507.631C136.407 506.513 136.611 505.528 137.018 504.676C137.43 503.819 138.003 503.152 138.737 502.673C139.476 502.19 140.337 501.949 141.322 501.949C141.89 501.949 142.452 502.044 143.006 502.233C143.559 502.422 144.064 502.73 144.518 503.156C144.973 503.578 145.335 504.136 145.605 504.832C145.875 505.528 146.01 506.385 146.01 507.403V508.114H137.601V506.665H144.305C144.305 506.049 144.182 505.5 143.936 505.017C143.694 504.534 143.349 504.153 142.899 503.874C142.454 503.594 141.928 503.455 141.322 503.455C140.655 503.455 140.077 503.62 139.589 503.952C139.106 504.278 138.735 504.705 138.474 505.23C138.214 505.756 138.084 506.319 138.084 506.92V507.886C138.084 508.71 138.226 509.409 138.51 509.982C138.799 510.55 139.199 510.983 139.71 511.281C140.221 511.575 140.816 511.722 141.493 511.722C141.933 511.722 142.331 511.66 142.686 511.537C143.046 511.409 143.356 511.22 143.616 510.969C143.877 510.713 144.078 510.396 144.22 510.017L145.839 510.472C145.669 511.021 145.382 511.504 144.98 511.92C144.577 512.332 144.08 512.654 143.488 512.886C142.897 513.114 142.231 513.227 141.493 513.227ZM157.395 513.256C156.703 513.256 156.076 513.125 155.513 512.865C154.949 512.6 154.502 512.219 154.17 511.722C153.839 511.22 153.673 510.614 153.673 509.903C153.673 509.278 153.796 508.772 154.042 508.384C154.289 507.991 154.618 507.683 155.03 507.46C155.442 507.238 155.896 507.072 156.393 506.963C156.895 506.849 157.399 506.759 157.906 506.693C158.569 506.608 159.106 506.544 159.518 506.501C159.935 506.454 160.238 506.376 160.427 506.267C160.622 506.158 160.719 505.969 160.719 505.699V505.642C160.719 504.941 160.527 504.397 160.143 504.009C159.765 503.62 159.189 503.426 158.417 503.426C157.617 503.426 156.99 503.601 156.535 503.952C156.081 504.302 155.761 504.676 155.577 505.074L153.986 504.506C154.27 503.843 154.648 503.327 155.122 502.957C155.6 502.583 156.121 502.323 156.684 502.176C157.253 502.025 157.811 501.949 158.361 501.949C158.711 501.949 159.113 501.991 159.568 502.077C160.027 502.157 160.47 502.325 160.896 502.581C161.327 502.837 161.684 503.223 161.969 503.739C162.253 504.255 162.395 504.946 162.395 505.812V513H160.719V511.523H160.633C160.52 511.759 160.33 512.013 160.065 512.283C159.8 512.553 159.447 512.782 159.007 512.972C158.567 513.161 158.029 513.256 157.395 513.256ZM157.65 511.75C158.313 511.75 158.872 511.62 159.327 511.359C159.786 511.099 160.131 510.763 160.363 510.351C160.6 509.939 160.719 509.506 160.719 509.051V507.517C160.648 507.602 160.491 507.68 160.25 507.751C160.013 507.818 159.738 507.877 159.426 507.929C159.118 507.976 158.818 508.019 158.524 508.057C158.235 508.09 158.001 508.118 157.821 508.142C157.385 508.199 156.978 508.291 156.599 508.419C156.225 508.542 155.922 508.729 155.69 508.98C155.463 509.226 155.349 509.562 155.349 509.989C155.349 510.571 155.565 511.011 155.996 511.31C156.431 511.603 156.983 511.75 157.65 511.75ZM167.13 506.438V513H165.454V502.091H167.073V503.795H167.215C167.471 503.241 167.859 502.796 168.38 502.46C168.901 502.119 169.573 501.949 170.397 501.949C171.136 501.949 171.782 502.1 172.336 502.403C172.89 502.702 173.321 503.156 173.629 503.767C173.936 504.373 174.09 505.14 174.09 506.068V513H172.414V506.182C172.414 505.325 172.192 504.657 171.747 504.179C171.302 503.696 170.691 503.455 169.914 503.455C169.379 503.455 168.901 503.571 168.48 503.803C168.063 504.035 167.734 504.373 167.492 504.818C167.251 505.263 167.13 505.803 167.13 506.438ZM185.988 513.256C185.297 513.256 184.67 513.125 184.106 512.865C183.543 512.6 183.095 512.219 182.764 511.722C182.433 511.22 182.267 510.614 182.267 509.903C182.267 509.278 182.39 508.772 182.636 508.384C182.882 507.991 183.211 507.683 183.623 507.46C184.035 507.238 184.49 507.072 184.987 506.963C185.489 506.849 185.993 506.759 186.5 506.693C187.163 506.608 187.7 506.544 188.112 506.501C188.529 506.454 188.832 506.376 189.021 506.267C189.215 506.158 189.312 505.969 189.312 505.699V505.642C189.312 504.941 189.121 504.397 188.737 504.009C188.358 503.62 187.783 503.426 187.011 503.426C186.211 503.426 185.584 503.601 185.129 503.952C184.675 504.302 184.355 504.676 184.17 505.074L182.579 504.506C182.863 503.843 183.242 503.327 183.716 502.957C184.194 502.583 184.715 502.323 185.278 502.176C185.846 502.025 186.405 501.949 186.954 501.949C187.305 501.949 187.707 501.991 188.162 502.077C188.621 502.157 189.064 502.325 189.49 502.581C189.921 502.837 190.278 503.223 190.562 503.739C190.846 504.255 190.988 504.946 190.988 505.812V513H189.312V511.523H189.227C189.113 511.759 188.924 512.013 188.659 512.283C188.394 512.553 188.041 512.782 187.601 512.972C187.16 513.161 186.623 513.256 185.988 513.256ZM186.244 511.75C186.907 511.75 187.466 511.62 187.92 511.359C188.38 511.099 188.725 510.763 188.957 510.351C189.194 509.939 189.312 509.506 189.312 509.051V507.517C189.241 507.602 189.085 507.68 188.844 507.751C188.607 507.818 188.332 507.877 188.02 507.929C187.712 507.976 187.411 508.019 187.118 508.057C186.829 508.09 186.595 508.118 186.415 508.142C185.979 508.199 185.572 508.291 185.193 508.419C184.819 508.542 184.516 508.729 184.284 508.98C184.057 509.226 183.943 509.562 183.943 509.989C183.943 510.571 184.158 511.011 184.589 511.31C185.025 511.603 185.577 511.75 186.244 511.75ZM198.48 513.227C197.457 513.227 196.576 512.986 195.838 512.503C195.099 512.02 194.531 511.355 194.133 510.507C193.735 509.66 193.536 508.691 193.536 507.602C193.536 506.494 193.74 505.517 194.147 504.669C194.559 503.817 195.132 503.152 195.866 502.673C196.605 502.19 197.466 501.949 198.451 501.949C199.218 501.949 199.91 502.091 200.525 502.375C201.141 502.659 201.645 503.057 202.038 503.568C202.431 504.08 202.675 504.676 202.769 505.358H201.093C200.965 504.861 200.681 504.42 200.241 504.037C199.805 503.649 199.218 503.455 198.48 503.455C197.826 503.455 197.253 503.625 196.761 503.966C196.273 504.302 195.892 504.778 195.617 505.393C195.347 506.004 195.213 506.722 195.213 507.545C195.213 508.388 195.345 509.122 195.61 509.747C195.88 510.372 196.259 510.857 196.747 511.203C197.239 511.549 197.817 511.722 198.48 511.722C198.915 511.722 199.311 511.646 199.666 511.494C200.021 511.343 200.321 511.125 200.568 510.841C200.814 510.557 200.989 510.216 201.093 509.818H202.769C202.675 510.462 202.44 511.042 202.066 511.558C201.697 512.07 201.207 512.477 200.596 512.78C199.99 513.078 199.285 513.227 198.48 513.227ZM209.651 513.227C208.629 513.227 207.748 512.986 207.009 512.503C206.271 512.02 205.703 511.355 205.305 510.507C204.907 509.66 204.708 508.691 204.708 507.602C204.708 506.494 204.912 505.517 205.319 504.669C205.731 503.817 206.304 503.152 207.038 502.673C207.776 502.19 208.638 501.949 209.623 501.949C210.39 501.949 211.081 502.091 211.697 502.375C212.312 502.659 212.817 503.057 213.21 503.568C213.603 504.08 213.847 504.676 213.941 505.358H212.265C212.137 504.861 211.853 504.42 211.413 504.037C210.977 503.649 210.39 503.455 209.651 503.455C208.998 503.455 208.425 503.625 207.933 503.966C207.445 504.302 207.064 504.778 206.789 505.393C206.519 506.004 206.384 506.722 206.384 507.545C206.384 508.388 206.517 509.122 206.782 509.747C207.052 510.372 207.431 510.857 207.919 511.203C208.411 511.549 208.989 511.722 209.651 511.722C210.087 511.722 210.482 511.646 210.838 511.494C211.193 511.343 211.493 511.125 211.74 510.841C211.986 510.557 212.161 510.216 212.265 509.818H213.941C213.847 510.462 213.612 511.042 213.238 511.558C212.869 512.07 212.379 512.477 211.768 512.78C211.162 513.078 210.456 513.227 209.651 513.227ZM220.823 513.227C219.838 513.227 218.974 512.993 218.231 512.524C217.492 512.055 216.915 511.4 216.498 510.557C216.086 509.714 215.88 508.729 215.88 507.602C215.88 506.466 216.086 505.474 216.498 504.626C216.915 503.779 217.492 503.121 218.231 502.652C218.974 502.183 219.838 501.949 220.823 501.949C221.808 501.949 222.67 502.183 223.409 502.652C224.152 503.121 224.73 503.779 225.142 504.626C225.558 505.474 225.767 506.466 225.767 507.602C225.767 508.729 225.558 509.714 225.142 510.557C224.73 511.4 224.152 512.055 223.409 512.524C222.67 512.993 221.808 513.227 220.823 513.227ZM220.823 511.722C221.571 511.722 222.187 511.53 222.67 511.146C223.153 510.763 223.51 510.259 223.742 509.634C223.974 509.009 224.09 508.331 224.09 507.602C224.09 506.873 223.974 506.194 223.742 505.564C223.51 504.934 223.153 504.425 222.67 504.037C222.187 503.649 221.571 503.455 220.823 503.455C220.075 503.455 219.46 503.649 218.977 504.037C218.494 504.425 218.136 504.934 217.904 505.564C217.672 506.194 217.556 506.873 217.556 507.602C217.556 508.331 217.672 509.009 217.904 509.634C218.136 510.259 218.494 510.763 218.977 511.146C219.46 511.53 220.075 511.722 220.823 511.722ZM235.2 508.54V502.091H236.876V513H235.2V511.153H235.086C234.831 511.707 234.433 512.179 233.893 512.567C233.354 512.95 232.672 513.142 231.848 513.142C231.166 513.142 230.56 512.993 230.03 512.695C229.499 512.392 229.083 511.937 228.78 511.331C228.477 510.72 228.325 509.951 228.325 509.023V502.091H230.001V508.909C230.001 509.705 230.224 510.339 230.669 510.812C231.119 511.286 231.692 511.523 232.388 511.523C232.804 511.523 233.228 511.416 233.659 511.203C234.095 510.99 234.459 510.663 234.753 510.223C235.051 509.783 235.2 509.222 235.2 508.54ZM241.622 506.438V513H239.946V502.091H241.566V503.795H241.708C241.963 503.241 242.352 502.796 242.872 502.46C243.393 502.119 244.066 501.949 244.889 501.949C245.628 501.949 246.274 502.1 246.828 502.403C247.382 502.702 247.813 503.156 248.121 503.767C248.429 504.373 248.583 505.14 248.583 506.068V513H246.906V506.182C246.906 505.325 246.684 504.657 246.239 504.179C245.794 503.696 245.183 503.455 244.406 503.455C243.871 503.455 243.393 503.571 242.972 503.803C242.555 504.035 242.226 504.373 241.985 504.818C241.743 505.263 241.622 505.803 241.622 506.438ZM256.39 502.091V503.511H250.736V502.091H256.39ZM252.384 499.477H254.06V509.875C254.06 510.348 254.129 510.704 254.266 510.94C254.408 511.172 254.588 511.329 254.806 511.409C255.028 511.485 255.263 511.523 255.509 511.523C255.694 511.523 255.845 511.513 255.964 511.494C256.082 511.471 256.177 511.452 256.248 511.438L256.589 512.943C256.475 512.986 256.316 513.028 256.113 513.071C255.909 513.118 255.651 513.142 255.339 513.142C254.865 513.142 254.401 513.04 253.947 512.837C253.497 512.633 253.123 512.323 252.824 511.906C252.531 511.49 252.384 510.964 252.384 510.33V499.477ZM261.099 508.909V508.824C261.108 507.92 261.203 507.2 261.383 506.665C261.563 506.13 261.818 505.696 262.15 505.365C262.481 505.034 262.879 504.728 263.343 504.449C263.622 504.278 263.873 504.077 264.096 503.845C264.318 503.608 264.493 503.336 264.621 503.028C264.754 502.721 264.82 502.38 264.82 502.006C264.82 501.542 264.711 501.139 264.493 500.798C264.276 500.457 263.984 500.195 263.62 500.01C263.255 499.825 262.85 499.733 262.405 499.733C262.017 499.733 261.643 499.813 261.283 499.974C260.923 500.135 260.623 500.389 260.381 500.734C260.14 501.08 260 501.532 259.962 502.091H258.172C258.21 501.286 258.419 500.597 258.797 500.024C259.181 499.451 259.685 499.013 260.31 498.71C260.94 498.407 261.638 498.256 262.405 498.256C263.239 498.256 263.963 498.421 264.579 498.753C265.199 499.084 265.677 499.539 266.013 500.116C266.354 500.694 266.525 501.352 266.525 502.091C266.525 502.612 266.444 503.083 266.283 503.504C266.127 503.926 265.9 504.302 265.601 504.634C265.308 504.965 264.953 505.259 264.536 505.514C264.119 505.775 263.786 506.049 263.535 506.338C263.284 506.622 263.101 506.961 262.988 507.354C262.874 507.747 262.813 508.237 262.803 508.824V508.909H261.099ZM262.008 513.114C261.657 513.114 261.357 512.988 261.106 512.737C260.855 512.486 260.729 512.186 260.729 511.835C260.729 511.485 260.855 511.184 261.106 510.933C261.357 510.682 261.657 510.557 262.008 510.557C262.358 510.557 262.659 510.682 262.91 510.933C263.161 511.184 263.286 511.485 263.286 511.835C263.286 512.067 263.227 512.28 263.108 512.474C262.995 512.669 262.841 512.825 262.647 512.943C262.457 513.057 262.244 513.114 262.008 513.114Z" fill="#525252"/>
<rect x="389.5" y="482.5" width="106" height="47" rx="7.5" stroke="#525252"/>
<path d="M414.755 513V498.455H417.39V510.791H423.796V513H414.755ZM430.728 513.213C429.663 513.213 428.739 512.979 427.958 512.51C427.177 512.041 426.571 511.385 426.14 510.543C425.714 509.7 425.501 508.715 425.501 507.588C425.501 506.461 425.714 505.474 426.14 504.626C426.571 503.779 427.177 503.121 427.958 502.652C428.739 502.183 429.663 501.949 430.728 501.949C431.793 501.949 432.717 502.183 433.498 502.652C434.279 503.121 434.883 503.779 435.309 504.626C435.74 505.474 435.955 506.461 435.955 507.588C435.955 508.715 435.74 509.7 435.309 510.543C434.883 511.385 434.279 512.041 433.498 512.51C432.717 512.979 431.793 513.213 430.728 513.213ZM430.742 511.153C431.32 511.153 431.803 510.995 432.191 510.678C432.579 510.356 432.868 509.925 433.058 509.385C433.252 508.845 433.349 508.244 433.349 507.581C433.349 506.913 433.252 506.31 433.058 505.77C432.868 505.225 432.579 504.792 432.191 504.47C431.803 504.148 431.32 503.987 430.742 503.987C430.15 503.987 429.658 504.148 429.265 504.47C428.877 504.792 428.585 505.225 428.391 505.77C428.202 506.31 428.107 506.913 428.107 507.581C428.107 508.244 428.202 508.845 428.391 509.385C428.585 509.925 428.877 510.356 429.265 510.678C429.658 510.995 430.15 511.153 430.742 511.153ZM442.882 517.318C441.958 517.318 441.165 517.193 440.502 516.942C439.84 516.696 439.307 516.364 438.904 515.947C438.502 515.531 438.223 515.069 438.066 514.562L440.382 514.001C440.486 514.214 440.637 514.425 440.836 514.634C441.035 514.847 441.303 515.022 441.639 515.159C441.98 515.301 442.408 515.372 442.924 515.372C443.654 515.372 444.257 515.195 444.735 514.839C445.214 514.489 445.453 513.911 445.453 513.107V511.04H445.325C445.192 511.305 444.998 511.577 444.743 511.857C444.492 512.136 444.158 512.37 443.741 512.56C443.329 512.749 442.811 512.844 442.186 512.844C441.348 512.844 440.588 512.647 439.906 512.254C439.229 511.857 438.689 511.265 438.287 510.479C437.889 509.688 437.69 508.698 437.69 507.51C437.69 506.312 437.889 505.301 438.287 504.477C438.689 503.649 439.231 503.021 439.913 502.595C440.595 502.164 441.355 501.949 442.193 501.949C442.832 501.949 443.358 502.058 443.77 502.276C444.186 502.489 444.518 502.747 444.764 503.05C445.01 503.348 445.197 503.63 445.325 503.895H445.467V502.091H448.002V513.178C448.002 514.11 447.78 514.882 447.335 515.493C446.89 516.104 446.281 516.561 445.51 516.864C444.738 517.167 443.862 517.318 442.882 517.318ZM442.903 510.827C443.448 510.827 443.912 510.694 444.295 510.429C444.679 510.164 444.97 509.783 445.169 509.286C445.368 508.788 445.467 508.192 445.467 507.496C445.467 506.809 445.368 506.208 445.169 505.692C444.975 505.176 444.686 504.776 444.302 504.491C443.923 504.203 443.457 504.058 442.903 504.058C442.33 504.058 441.852 504.207 441.468 504.506C441.085 504.804 440.796 505.214 440.602 505.734C440.408 506.25 440.311 506.838 440.311 507.496C440.311 508.163 440.408 508.748 440.602 509.25C440.801 509.747 441.092 510.135 441.475 510.415C441.864 510.689 442.34 510.827 442.903 510.827ZM455.598 513V502.091H458.169V513H455.598ZM456.891 500.543C456.484 500.543 456.133 500.408 455.84 500.138C455.546 499.863 455.4 499.534 455.4 499.151C455.4 498.762 455.546 498.433 455.84 498.163C456.133 497.889 456.484 497.751 456.891 497.751C457.303 497.751 457.653 497.889 457.942 498.163C458.236 498.433 458.382 498.762 458.382 499.151C458.382 499.534 458.236 499.863 457.942 500.138C457.653 500.408 457.303 500.543 456.891 500.543ZM463.384 506.608V513H460.813V502.091H463.271V503.945H463.398C463.649 503.334 464.049 502.848 464.599 502.489C465.153 502.129 465.837 501.949 466.651 501.949C467.404 501.949 468.06 502.11 468.619 502.432C469.182 502.754 469.618 503.22 469.925 503.831C470.238 504.442 470.392 505.183 470.387 506.054V513H467.816V506.452C467.816 505.723 467.627 505.152 467.248 504.74C466.874 504.328 466.355 504.122 465.692 504.122C465.243 504.122 464.843 504.222 464.492 504.42C464.147 504.615 463.874 504.896 463.675 505.266C463.481 505.635 463.384 506.082 463.384 506.608Z" fill="#161616"/>
</svg>
