<svg width="520" height="485" viewBox="0 0 520 485" fill="none" xmlns="http://www.w3.org/2000/svg">
<rect width="520" height="485" rx="16" fill="white"/>
<path d="M46.2159 55.5795H41.9659C41.8447 54.8826 41.6212 54.2652 41.2955 53.7273C40.9697 53.1818 40.5644 52.7197 40.0795 52.3409C39.5947 51.9621 39.0417 51.678 38.4205 51.4886C37.8068 51.2917 37.1439 51.1932 36.4318 51.1932C35.1667 51.1932 34.0455 51.5114 33.0682 52.1477C32.0909 52.7765 31.3258 53.7008 30.7727 54.9205C30.2197 56.1326 29.9432 57.6136 29.9432 59.3636C29.9432 61.1439 30.2197 62.6439 30.7727 63.8636C31.3333 65.0758 32.0985 65.9924 33.0682 66.6136C34.0455 67.2273 35.1629 67.5341 36.4205 67.5341C37.1174 67.5341 37.7689 67.4432 38.375 67.2614C38.9886 67.072 39.5379 66.7955 40.0227 66.4318C40.5152 66.0682 40.928 65.6212 41.2614 65.0909C41.6023 64.5606 41.8371 63.9545 41.9659 63.2727L46.2159 63.2955C46.0568 64.4015 45.7121 65.4394 45.1818 66.4091C44.6591 67.3788 43.9735 68.2348 43.125 68.9773C42.2765 69.7121 41.2841 70.2879 40.1477 70.7045C39.0114 71.1136 37.75 71.3182 36.3636 71.3182C34.3182 71.3182 32.4924 70.8447 30.8864 69.8977C29.2803 68.9508 28.0152 67.5833 27.0909 65.7955C26.1667 64.0076 25.7045 61.8636 25.7045 59.3636C25.7045 56.8561 26.1705 54.7121 27.1023 52.9318C28.0341 51.1439 29.303 49.7765 30.9091 48.8295C32.5152 47.8826 34.3333 47.4091 36.3636 47.4091C37.6591 47.4091 38.8636 47.5909 39.9773 47.9545C41.0909 48.3182 42.0833 48.8523 42.9545 49.5568C43.8258 50.2538 44.5417 51.1098 45.1023 52.125C45.6705 53.1326 46.0417 54.2841 46.2159 55.5795ZM54.9176 71.3523C53.8116 71.3523 52.8153 71.1553 51.929 70.7614C51.0502 70.3598 50.3532 69.7689 49.8381 68.9886C49.3305 68.2083 49.0767 67.2462 49.0767 66.1023C49.0767 65.1174 49.2585 64.303 49.6222 63.6591C49.9858 63.0152 50.482 62.5 51.1108 62.1136C51.7396 61.7273 52.4479 61.4356 53.2358 61.2386C54.0313 61.0341 54.8532 60.8864 55.7017 60.7955C56.7244 60.6894 57.554 60.5947 58.1903 60.5114C58.8267 60.4205 59.2888 60.2841 59.5767 60.1023C59.8722 59.9129 60.0199 59.6212 60.0199 59.2273V59.1591C60.0199 58.303 59.7661 57.6402 59.2585 57.1705C58.7509 56.7008 58.0199 56.4659 57.0653 56.4659C56.0578 56.4659 55.2585 56.6856 54.6676 57.125C54.0843 57.5644 53.6903 58.0833 53.4858 58.6818L49.6449 58.1364C49.9479 57.0758 50.4479 56.1894 51.1449 55.4773C51.8419 54.7576 52.6941 54.2197 53.7017 53.8636C54.7093 53.5 55.8229 53.3182 57.0426 53.3182C57.8835 53.3182 58.7206 53.4167 59.554 53.6136C60.3873 53.8106 61.1487 54.1364 61.8381 54.5909C62.5275 55.0379 63.0805 55.6477 63.4972 56.4205C63.9214 57.1932 64.1335 58.1591 64.1335 59.3182V71H60.179V68.6023H60.0426C59.7926 69.0871 59.4403 69.5417 58.9858 69.9659C58.5388 70.3826 57.9744 70.7197 57.2926 70.9773C56.6184 71.2273 55.8267 71.3523 54.9176 71.3523ZM55.9858 68.3295C56.8116 68.3295 57.5275 68.1667 58.1335 67.8409C58.7396 67.5076 59.2055 67.0682 59.5312 66.5227C59.8646 65.9773 60.0312 65.3826 60.0312 64.7386V62.6818C59.9025 62.7879 59.6828 62.8864 59.3722 62.9773C59.0691 63.0682 58.7282 63.1477 58.3494 63.2159C57.9706 63.2841 57.5956 63.3447 57.2244 63.3977C56.8532 63.4508 56.5313 63.4962 56.2585 63.5341C55.6449 63.6174 55.0956 63.7538 54.6108 63.9432C54.1259 64.1326 53.7434 64.3977 53.4631 64.7386C53.1828 65.072 53.0426 65.5038 53.0426 66.0341C53.0426 66.7917 53.3191 67.3636 53.8722 67.75C54.4252 68.1364 55.1297 68.3295 55.9858 68.3295ZM68.2699 71V53.5455H72.2585V56.4545H72.4403C72.7585 55.447 73.304 54.6705 74.0767 54.125C74.857 53.572 75.7472 53.2955 76.7472 53.2955C76.9744 53.2955 77.2282 53.3068 77.5085 53.3295C77.7964 53.3447 78.035 53.3712 78.2244 53.4091V57.1932C78.0502 57.1326 77.7737 57.0795 77.3949 57.0341C77.0237 56.9811 76.6638 56.9545 76.3153 56.9545C75.5653 56.9545 74.8911 57.1174 74.2926 57.4432C73.7017 57.7614 73.2358 58.2045 72.8949 58.7727C72.554 59.3409 72.3835 59.9962 72.3835 60.7386V71H68.2699ZM86.7159 71.3068C85.3447 71.3068 84.1174 70.9545 83.0341 70.25C81.9508 69.5455 81.0947 68.5227 80.4659 67.1818C79.8371 65.8409 79.5227 64.2121 79.5227 62.2955C79.5227 60.3561 79.8409 58.7197 80.4773 57.3864C81.1212 56.0455 81.9886 55.0341 83.0795 54.3523C84.1705 53.6629 85.3864 53.3182 86.7273 53.3182C87.75 53.3182 88.5909 53.4924 89.25 53.8409C89.9091 54.1818 90.4318 54.5947 90.8182 55.0795C91.2045 55.5568 91.5038 56.0076 91.7159 56.4318H91.8864V47.7273H96.0114V71H91.9659V68.25H91.7159C91.5038 68.6742 91.197 69.125 90.7955 69.6023C90.3939 70.072 89.8636 70.4735 89.2045 70.8068C88.5455 71.1402 87.7159 71.3068 86.7159 71.3068ZM87.8636 67.9318C88.7348 67.9318 89.4773 67.697 90.0909 67.2273C90.7045 66.75 91.1705 66.0871 91.4886 65.2386C91.8068 64.3902 91.9659 63.4015 91.9659 62.2727C91.9659 61.1439 91.8068 60.1629 91.4886 59.3295C91.178 58.4962 90.7159 57.8485 90.1023 57.3864C89.4962 56.9242 88.75 56.6932 87.8636 56.6932C86.947 56.6932 86.1818 56.9318 85.5682 57.4091C84.9545 57.8864 84.4924 58.5455 84.1818 59.3864C83.8712 60.2273 83.7159 61.1894 83.7159 62.2727C83.7159 63.3636 83.8712 64.3371 84.1818 65.1932C84.5 66.0417 84.9659 66.7121 85.5795 67.2045C86.2008 67.6894 86.9621 67.9318 87.8636 67.9318ZM107.491 51.2614V47.7273H126.06V51.2614H118.866V71H114.685V51.2614H107.491ZM129.457 71V53.5455H133.571V71H129.457ZM131.526 51.0682C130.874 51.0682 130.313 50.8523 129.844 50.4205C129.374 49.9811 129.139 49.4545 129.139 48.8409C129.139 48.2197 129.374 47.6932 129.844 47.2614C130.313 46.822 130.874 46.6023 131.526 46.6023C132.185 46.6023 132.745 46.822 133.207 47.2614C133.677 47.6932 133.912 48.2197 133.912 48.8409C133.912 49.4545 133.677 49.9811 133.207 50.4205C132.745 50.8523 132.185 51.0682 131.526 51.0682ZM146.517 53.5455V56.7273H136.483V53.5455H146.517ZM138.96 49.3636H143.074V65.75C143.074 66.303 143.157 66.7273 143.324 67.0227C143.498 67.3106 143.725 67.5076 144.006 67.6136C144.286 67.7197 144.597 67.7727 144.938 67.7727C145.195 67.7727 145.43 67.7538 145.642 67.7159C145.862 67.678 146.028 67.6439 146.142 67.6136L146.835 70.8295C146.616 70.9053 146.301 70.9886 145.892 71.0795C145.491 71.1705 144.998 71.2235 144.415 71.2386C143.384 71.2689 142.456 71.1136 141.631 70.7727C140.805 70.4242 140.15 69.8864 139.665 69.1591C139.188 68.4318 138.953 67.5227 138.96 66.4318V49.3636ZM154.446 47.7273V71H150.332V47.7273H154.446ZM166.403 71.3409C164.653 71.3409 163.142 70.9773 161.869 70.25C160.604 69.5152 159.631 68.4773 158.949 67.1364C158.267 65.7879 157.926 64.2008 157.926 62.375C157.926 60.5795 158.267 59.0038 158.949 57.6477C159.638 56.2841 160.6 55.2235 161.835 54.4659C163.07 53.7008 164.521 53.3182 166.188 53.3182C167.263 53.3182 168.278 53.4924 169.233 53.8409C170.195 54.1818 171.044 54.7121 171.778 55.4318C172.521 56.1515 173.104 57.0682 173.528 58.1818C173.953 59.2879 174.165 60.6061 174.165 62.1364V63.3977H159.858V60.625H170.222C170.214 59.8371 170.044 59.1364 169.71 58.5227C169.377 57.9015 168.911 57.4129 168.312 57.0568C167.722 56.7008 167.032 56.5227 166.244 56.5227C165.403 56.5227 164.665 56.7273 164.028 57.1364C163.392 57.5379 162.896 58.0682 162.54 58.7273C162.191 59.3788 162.013 60.0947 162.006 60.875V63.2955C162.006 64.3106 162.191 65.1818 162.562 65.9091C162.934 66.6288 163.453 67.1818 164.119 67.5682C164.786 67.947 165.566 68.1364 166.46 68.1364C167.059 68.1364 167.6 68.053 168.085 67.8864C168.57 67.7121 168.991 67.4583 169.347 67.125C169.703 66.7917 169.972 66.3788 170.153 65.8864L173.994 66.3182C173.752 67.3333 173.29 68.2197 172.608 68.9773C171.934 69.7273 171.07 70.3106 170.017 70.7273C168.964 71.1364 167.759 71.3409 166.403 71.3409Z" fill="black"/>
<path d="M36.3111 96.1662H34.3168C34.2401 95.7401 34.0973 95.3651 33.8885 95.0412C33.6797 94.7173 33.424 94.4425 33.1214 94.2166C32.8189 93.9908 32.4801 93.8203 32.1051 93.7053C31.7344 93.5902 31.3402 93.5327 30.9226 93.5327C30.1683 93.5327 29.4929 93.7223 28.8963 94.1016C28.304 94.4808 27.8352 95.0369 27.4901 95.7699C27.1491 96.5028 26.9787 97.3977 26.9787 98.4545C26.9787 99.5199 27.1491 100.419 27.4901 101.152C27.8352 101.885 28.3061 102.439 28.9027 102.814C29.4993 103.189 30.1705 103.376 30.9162 103.376C31.3295 103.376 31.7216 103.321 32.0923 103.21C32.4673 103.095 32.8061 102.927 33.1087 102.705C33.4112 102.484 33.6669 102.213 33.8757 101.893C34.0888 101.57 34.2358 101.199 34.3168 100.781L36.3111 100.788C36.2045 101.431 35.9979 102.023 35.6911 102.565C35.3885 103.102 34.9986 103.566 34.5213 103.958C34.0483 104.346 33.5071 104.646 32.8977 104.859C32.2884 105.072 31.6236 105.179 30.9034 105.179C29.7699 105.179 28.7599 104.911 27.8736 104.374C26.9872 103.832 26.2884 103.059 25.777 102.053C25.2699 101.048 25.0163 99.848 25.0163 98.4545C25.0163 97.0568 25.272 95.8572 25.7834 94.8558C26.2947 93.8501 26.9936 93.0788 27.88 92.5419C28.7663 92.0007 29.7741 91.7301 30.9034 91.7301C31.598 91.7301 32.2457 91.8303 32.8466 92.0305C33.4517 92.2266 33.995 92.5163 34.4766 92.8999C34.9581 93.2791 35.3565 93.7436 35.6719 94.2933C35.9872 94.8388 36.2003 95.4631 36.3111 96.1662ZM41.3784 105.217C40.7562 105.217 40.1937 105.102 39.6909 104.872C39.188 104.638 38.7896 104.299 38.4956 103.856C38.2058 103.413 38.0609 102.869 38.0609 102.226C38.0609 101.672 38.1674 101.216 38.3805 100.858C38.5936 100.5 38.8812 100.217 39.2434 100.008C39.6056 99.799 40.0105 99.6413 40.4579 99.5348C40.9054 99.4283 41.3613 99.3473 41.8258 99.2919C42.4139 99.2237 42.8912 99.1683 43.2576 99.1257C43.6241 99.0788 43.8904 99.0043 44.0566 98.902C44.2228 98.7997 44.3059 98.6335 44.3059 98.4034V98.3587C44.3059 97.8004 44.1483 97.3679 43.8329 97.0611C43.5218 96.7543 43.0574 96.6009 42.4395 96.6009C41.796 96.6009 41.2889 96.7436 40.9181 97.0291C40.5517 97.3104 40.2981 97.6236 40.1575 97.9688L38.3613 97.5597C38.5744 96.9631 38.8855 96.4815 39.2946 96.1151C39.7079 95.7443 40.1831 95.4759 40.72 95.3097C41.2569 95.1392 41.8216 95.054 42.4139 95.054C42.8059 95.054 43.2214 95.1009 43.6603 95.1946C44.1035 95.2841 44.5169 95.4503 44.9004 95.6932C45.2882 95.9361 45.6056 96.2834 45.8528 96.7351C46.1 97.1825 46.2235 97.7642 46.2235 98.4801V105H44.3571V103.658H44.2804C44.1568 103.905 43.9714 104.148 43.7243 104.386C43.4771 104.625 43.1596 104.823 42.7718 104.981C42.3841 105.138 41.9196 105.217 41.3784 105.217ZM41.7939 103.683C42.3223 103.683 42.774 103.579 43.149 103.37C43.5282 103.161 43.8159 102.888 44.0119 102.552C44.2122 102.211 44.3123 101.847 44.3123 101.459V100.193C44.2441 100.261 44.112 100.325 43.916 100.385C43.7243 100.44 43.5048 100.489 43.2576 100.532C43.0105 100.57 42.7697 100.607 42.5353 100.641C42.301 100.67 42.1049 100.696 41.9473 100.717C41.5765 100.764 41.2377 100.843 40.9309 100.954C40.6284 101.065 40.3855 101.224 40.2022 101.433C40.0233 101.638 39.9338 101.911 39.9338 102.251C39.9338 102.724 40.1085 103.082 40.4579 103.325C40.8074 103.564 41.2527 103.683 41.7939 103.683ZM48.7692 105V95.1818H50.6165V96.7415H50.7188C50.8977 96.2131 51.2131 95.7976 51.6648 95.495C52.1207 95.1882 52.6364 95.0348 53.2116 95.0348C53.331 95.0348 53.4716 95.0391 53.6335 95.0476C53.7997 95.0561 53.9297 95.0668 54.0234 95.0795V96.9077C53.9467 96.8864 53.8104 96.8629 53.6143 96.8374C53.4183 96.8075 53.2223 96.7926 53.0263 96.7926C52.5746 96.7926 52.1719 96.8885 51.8182 97.0803C51.4688 97.2678 51.1918 97.5298 50.9872 97.8665C50.7827 98.1989 50.6804 98.5781 50.6804 99.0043V105H48.7692ZM59.0012 105.192C58.2086 105.192 57.5012 104.989 56.8791 104.585C56.2612 104.175 55.7754 103.594 55.4217 102.839C55.0723 102.081 54.8975 101.171 54.8975 100.11C54.8975 99.049 55.0744 98.1413 55.4281 97.3871C55.786 96.6328 56.2761 96.0554 56.8983 95.6548C57.5204 95.2543 58.2257 95.054 59.014 95.054C59.6234 95.054 60.1135 95.1562 60.4842 95.3608C60.8592 95.5611 61.149 95.7955 61.3535 96.0639C61.5623 96.3324 61.7243 96.5689 61.8393 96.7734H61.9544V91.9091H63.8656V105H61.9991V103.472H61.8393C61.7243 103.681 61.5581 103.92 61.3407 104.188C61.1277 104.457 60.8336 104.691 60.4586 104.891C60.0836 105.092 59.5978 105.192 59.0012 105.192ZM59.4231 103.562C59.9728 103.562 60.4373 103.417 60.8166 103.127C61.2001 102.833 61.4899 102.426 61.6859 101.906C61.8862 101.386 61.9863 100.781 61.9863 100.091C61.9863 99.4091 61.8883 98.8125 61.6923 98.3011C61.4963 97.7898 61.2086 97.3913 60.8294 97.1058C60.4501 96.8203 59.9814 96.6776 59.4231 96.6776C58.8478 96.6776 58.3684 96.8267 57.9849 97.125C57.6014 97.4233 57.3116 97.8303 57.1156 98.3459C56.9238 98.8615 56.8279 99.4432 56.8279 100.091C56.8279 100.747 56.926 101.337 57.122 101.862C57.318 102.386 57.6078 102.801 57.9913 103.108C58.3791 103.411 58.8564 103.562 59.4231 103.562ZM75.0325 105.192C74.2399 105.192 73.5325 104.989 72.9103 104.585C72.2924 104.175 71.8066 103.594 71.4529 102.839C71.1035 102.081 70.9288 101.171 70.9288 100.11C70.9288 99.049 71.1056 98.1413 71.4593 97.3871C71.8173 96.6328 72.3074 96.0554 72.9295 95.6548C73.5517 95.2543 74.2569 95.054 75.0453 95.054C75.6547 95.054 76.1447 95.1562 76.5154 95.3608C76.8904 95.5611 77.1802 95.7955 77.3848 96.0639C77.5936 96.3324 77.7555 96.5689 77.8706 96.7734H77.9856V91.9091H79.8968V105H78.0304V103.472H77.8706C77.7555 103.681 77.5893 103.92 77.372 104.188C77.1589 104.457 76.8649 104.691 76.4899 104.891C76.1149 105.092 75.6291 105.192 75.0325 105.192ZM75.4544 103.562C76.0041 103.562 76.4686 103.417 76.8478 103.127C77.2314 102.833 77.5211 102.426 77.7172 101.906C77.9174 101.386 78.0176 100.781 78.0176 100.091C78.0176 99.4091 77.9196 98.8125 77.7235 98.3011C77.5275 97.7898 77.2399 97.3913 76.8606 97.1058C76.4814 96.8203 76.0126 96.6776 75.4544 96.6776C74.8791 96.6776 74.3997 96.8267 74.0162 97.125C73.6326 97.4233 73.3429 97.8303 73.1468 98.3459C72.9551 98.8615 72.8592 99.4432 72.8592 100.091C72.8592 100.747 72.9572 101.337 73.1532 101.862C73.3493 102.386 73.639 102.801 74.0225 103.108C74.4103 103.411 74.8876 103.562 75.4544 103.562ZM86.8562 105.198C85.8888 105.198 85.0558 104.991 84.3569 104.578C83.6623 104.161 83.1254 103.575 82.7461 102.82C82.3711 102.062 82.1836 101.173 82.1836 100.155C82.1836 99.1491 82.3711 98.2628 82.7461 97.4957C83.1254 96.7287 83.6538 96.13 84.3313 95.6996C85.0131 95.2692 85.81 95.054 86.7219 95.054C87.2759 95.054 87.8129 95.1456 88.3327 95.3288C88.8526 95.5121 89.3192 95.7997 89.7326 96.1918C90.146 96.5838 90.4719 97.093 90.7106 97.7195C90.9492 98.3416 91.0685 99.098 91.0685 99.9886V100.666H83.2638V99.2344H89.1957C89.1957 98.7315 89.0934 98.2862 88.8888 97.8984C88.6843 97.5064 88.3967 97.1974 88.0259 96.9716C87.6594 96.7457 87.229 96.6328 86.7347 96.6328C86.1978 96.6328 85.729 96.7649 85.3285 97.0291C84.9322 97.2891 84.6254 97.63 84.408 98.0518C84.195 98.4695 84.0884 98.9233 84.0884 99.4134V100.532C84.0884 101.188 84.2035 101.746 84.4336 102.207C84.668 102.667 84.994 103.018 85.4116 103.261C85.8292 103.5 86.3171 103.619 86.8754 103.619C87.2376 103.619 87.5678 103.568 87.8661 103.466C88.1644 103.359 88.4222 103.202 88.6396 102.993C88.8569 102.784 89.0231 102.526 89.1381 102.219L90.9471 102.545C90.8022 103.078 90.5423 103.545 90.1673 103.945C89.7965 104.342 89.3299 104.651 88.7674 104.872C88.2092 105.089 87.5721 105.198 86.8562 105.198ZM100.546 97.5788L98.8141 97.8857C98.7417 97.6641 98.6266 97.4531 98.4689 97.2528C98.3155 97.0526 98.1067 96.8885 97.8425 96.7607C97.5783 96.6328 97.248 96.5689 96.8517 96.5689C96.3105 96.5689 95.8588 96.6903 95.4966 96.9332C95.1344 97.1719 94.9533 97.4808 94.9533 97.8601C94.9533 98.1882 95.0748 98.4524 95.3176 98.6527C95.5605 98.853 95.9526 99.017 96.4938 99.1449L98.0534 99.5028C98.9569 99.7116 99.6301 100.033 100.073 100.468C100.517 100.903 100.738 101.467 100.738 102.162C100.738 102.75 100.568 103.274 100.227 103.734C99.8901 104.19 99.4192 104.548 98.8141 104.808C98.2132 105.068 97.5165 105.198 96.7239 105.198C95.6245 105.198 94.7275 104.964 94.0328 104.495C93.3382 104.022 92.9121 103.351 92.7544 102.482L94.6017 102.2C94.7168 102.682 94.9533 103.046 95.3113 103.293C95.6692 103.536 96.1358 103.658 96.7111 103.658C97.3375 103.658 97.8382 103.528 98.2132 103.268C98.5882 103.004 98.7757 102.682 98.7757 102.303C98.7757 101.996 98.6607 101.738 98.4306 101.529C98.2047 101.32 97.8574 101.163 97.3887 101.056L95.7267 100.692C94.8105 100.483 94.133 100.151 93.6941 99.6946C93.2594 99.2386 93.0421 98.6612 93.0421 97.9624C93.0421 97.3828 93.204 96.8757 93.5279 96.4411C93.8517 96.0064 94.2992 95.6676 94.8702 95.4247C95.4412 95.1776 96.0953 95.054 96.8326 95.054C97.8936 95.054 98.7289 95.2841 99.3382 95.7443C99.9476 96.2003 100.35 96.8118 100.546 97.5788ZM106.975 105.198C106.025 105.198 105.207 104.983 104.521 104.553C103.839 104.118 103.315 103.519 102.948 102.756C102.582 101.994 102.398 101.12 102.398 100.136C102.398 99.1385 102.586 98.2585 102.961 97.4957C103.336 96.7287 103.864 96.13 104.546 95.6996C105.228 95.2692 106.031 95.054 106.956 95.054C107.702 95.054 108.366 95.1925 108.95 95.4695C109.534 95.7422 110.005 96.1257 110.363 96.62C110.725 97.1143 110.94 97.6918 111.009 98.3523H109.148C109.046 97.892 108.812 97.4957 108.445 97.1634C108.083 96.831 107.597 96.6648 106.988 96.6648C106.455 96.6648 105.989 96.8054 105.588 97.0866C105.192 97.3636 104.883 97.7599 104.661 98.2756C104.44 98.7869 104.329 99.392 104.329 100.091C104.329 100.807 104.438 101.425 104.655 101.945C104.872 102.464 105.179 102.867 105.575 103.153C105.976 103.438 106.447 103.581 106.988 103.581C107.35 103.581 107.678 103.515 107.972 103.383C108.271 103.246 108.52 103.053 108.72 102.801C108.925 102.55 109.067 102.247 109.148 101.893H111.009C110.94 102.528 110.734 103.095 110.388 103.594C110.043 104.092 109.581 104.484 109.001 104.77C108.426 105.055 107.751 105.198 106.975 105.198ZM113.052 105V95.1818H114.9V96.7415H115.002C115.181 96.2131 115.496 95.7976 115.948 95.495C116.404 95.1882 116.92 95.0348 117.495 95.0348C117.614 95.0348 117.755 95.0391 117.917 95.0476C118.083 95.0561 118.213 95.0668 118.307 95.0795V96.9077C118.23 96.8864 118.094 96.8629 117.898 96.8374C117.702 96.8075 117.506 96.7926 117.309 96.7926C116.858 96.7926 116.455 96.8885 116.101 97.0803C115.752 97.2678 115.475 97.5298 115.27 97.8665C115.066 98.1989 114.964 98.5781 114.964 99.0043V105H113.052ZM119.961 105V95.1818H121.872V105H119.961ZM120.926 93.6669C120.593 93.6669 120.308 93.5561 120.069 93.3345C119.835 93.1087 119.718 92.8402 119.718 92.5291C119.718 92.2138 119.835 91.9453 120.069 91.7237C120.308 91.4979 120.593 91.3849 120.926 91.3849C121.258 91.3849 121.542 91.4979 121.776 91.7237C122.015 91.9453 122.134 92.2138 122.134 92.5291C122.134 92.8402 122.015 93.1087 121.776 93.3345C121.542 93.5561 121.258 93.6669 120.926 93.6669ZM124.443 108.682V95.1818H126.309V96.7734H126.469C126.58 96.5689 126.74 96.3324 126.949 96.0639C127.157 95.7955 127.447 95.5611 127.818 95.3608C128.189 95.1562 128.679 95.054 129.288 95.054C130.081 95.054 130.788 95.2543 131.41 95.6548C132.032 96.0554 132.52 96.6328 132.874 97.3871C133.232 98.1413 133.411 99.049 133.411 100.11C133.411 101.171 133.234 102.081 132.881 102.839C132.527 103.594 132.041 104.175 131.423 104.585C130.805 104.989 130.1 105.192 129.307 105.192C128.711 105.192 128.223 105.092 127.844 104.891C127.469 104.691 127.175 104.457 126.961 104.188C126.748 103.92 126.584 103.681 126.469 103.472H126.354V108.682H124.443ZM126.316 100.091C126.316 100.781 126.416 101.386 126.616 101.906C126.817 102.426 127.106 102.833 127.486 103.127C127.865 103.417 128.329 103.562 128.879 103.562C129.45 103.562 129.927 103.411 130.311 103.108C130.694 102.801 130.984 102.386 131.18 101.862C131.381 101.337 131.481 100.747 131.481 100.091C131.481 99.4432 131.383 98.8615 131.187 98.3459C130.995 97.8303 130.705 97.4233 130.317 97.125C129.934 96.8267 129.454 96.6776 128.879 96.6776C128.325 96.6776 127.856 96.8203 127.473 97.1058C127.094 97.3913 126.806 97.7898 126.61 98.3011C126.414 98.8125 126.316 99.4091 126.316 100.091ZM140.135 95.1818V96.7159H134.773V95.1818H140.135ZM136.211 92.8295H138.122V102.117C138.122 102.488 138.177 102.767 138.288 102.955C138.399 103.138 138.542 103.263 138.716 103.332C138.895 103.396 139.089 103.428 139.298 103.428C139.452 103.428 139.586 103.417 139.701 103.396C139.816 103.374 139.905 103.357 139.969 103.344L140.314 104.923C140.204 104.966 140.046 105.009 139.841 105.051C139.637 105.098 139.381 105.124 139.074 105.128C138.572 105.136 138.103 105.047 137.668 104.859C137.233 104.672 136.882 104.382 136.613 103.99C136.345 103.598 136.211 103.106 136.211 102.513V92.8295ZM142.25 105V95.1818H144.161V105H142.25ZM143.215 93.6669C142.882 93.6669 142.597 93.5561 142.358 93.3345C142.124 93.1087 142.007 92.8402 142.007 92.5291C142.007 92.2138 142.124 91.9453 142.358 91.7237C142.597 91.4979 142.882 91.3849 143.215 91.3849C143.547 91.3849 143.831 91.4979 144.065 91.7237C144.304 91.9453 144.423 92.2138 144.423 92.5291C144.423 92.8402 144.304 93.1087 144.065 93.3345C143.831 93.5561 143.547 93.6669 143.215 93.6669ZM150.868 105.198C149.947 105.198 149.144 104.987 148.458 104.565C147.772 104.143 147.239 103.553 146.86 102.795C146.481 102.036 146.291 101.15 146.291 100.136C146.291 99.1172 146.481 98.2266 146.86 97.4638C147.239 96.701 147.772 96.1087 148.458 95.6868C149.144 95.2649 149.947 95.054 150.868 95.054C151.788 95.054 152.591 95.2649 153.278 95.6868C153.964 96.1087 154.496 96.701 154.876 97.4638C155.255 98.2266 155.444 99.1172 155.444 100.136C155.444 101.15 155.255 102.036 154.876 102.795C154.496 103.553 153.964 104.143 153.278 104.565C152.591 104.987 151.788 105.198 150.868 105.198ZM150.874 103.594C151.471 103.594 151.965 103.436 152.357 103.121C152.749 102.805 153.039 102.386 153.226 101.862C153.418 101.337 153.514 100.76 153.514 100.129C153.514 99.5028 153.418 98.9276 153.226 98.4034C153.039 97.875 152.749 97.451 152.357 97.1314C151.965 96.8118 151.471 96.652 150.874 96.652C150.273 96.652 149.775 96.8118 149.378 97.1314C148.986 97.451 148.694 97.875 148.503 98.4034C148.315 98.9276 148.221 99.5028 148.221 100.129C148.221 100.76 148.315 101.337 148.503 101.862C148.694 102.386 148.986 102.805 149.378 103.121C149.775 103.436 150.273 103.594 150.874 103.594ZM159.489 99.1705V105H157.578V95.1818H159.412V96.7798H159.534C159.76 96.2599 160.113 95.8423 160.595 95.527C161.081 95.2116 161.692 95.054 162.429 95.054C163.098 95.054 163.684 95.1946 164.187 95.4759C164.69 95.7528 165.08 96.1662 165.357 96.7159C165.634 97.2656 165.772 97.9453 165.772 98.755V105H163.861V98.9851C163.861 98.2734 163.676 97.7173 163.305 97.3168C162.934 96.9119 162.425 96.7095 161.777 96.7095C161.334 96.7095 160.94 96.8054 160.595 96.9972C160.254 97.1889 159.983 97.4702 159.783 97.8409C159.587 98.2074 159.489 98.6506 159.489 99.1705Z" fill="#525252"/>
<rect x="24" y="157" width="472" height="48" rx="8" fill="#E5E5E5"/>
<path d="M43.7926 173.455V188H41.598V173.455H43.7926ZM48.9418 181.523V188H46.8182V177.091H48.8565V178.866H48.9915C49.2424 178.289 49.6354 177.825 50.1705 177.474C50.7102 177.124 51.3897 176.949 52.2088 176.949C52.9522 176.949 53.6032 177.105 54.1619 177.418C54.7206 177.725 55.1539 178.185 55.4616 178.795C55.7694 179.406 55.9233 180.161 55.9233 181.061V188H53.7997V181.317C53.7997 180.526 53.5938 179.908 53.1818 179.463C52.7699 179.013 52.2041 178.788 51.4844 178.788C50.992 178.788 50.554 178.895 50.1705 179.108C49.7917 179.321 49.491 179.634 49.2685 180.045C49.0507 180.453 48.9418 180.945 48.9418 181.523ZM58.7713 192.091V177.091H60.8452V178.859H61.0227C61.1458 178.632 61.3234 178.369 61.5554 178.071C61.7874 177.773 62.1094 177.512 62.5213 177.29C62.9332 177.062 63.4777 176.949 64.1548 176.949C65.0355 176.949 65.8215 177.171 66.5128 177.616C67.2041 178.062 67.7462 178.703 68.1392 179.541C68.5369 180.379 68.7358 181.388 68.7358 182.567C68.7358 183.746 68.5393 184.757 68.1463 185.599C67.7533 186.437 67.2135 187.084 66.527 187.538C65.8404 187.988 65.0568 188.213 64.1761 188.213C63.5133 188.213 62.9711 188.102 62.5497 187.879C62.133 187.657 61.8063 187.396 61.5696 187.098C61.3329 186.8 61.1506 186.535 61.0227 186.303H60.8949V192.091H58.7713ZM60.8523 182.545C60.8523 183.312 60.9635 183.985 61.1861 184.562C61.4086 185.14 61.7306 185.592 62.152 185.919C62.5734 186.241 63.0895 186.402 63.7003 186.402C64.3348 186.402 64.8651 186.234 65.2912 185.898C65.7173 185.557 66.0393 185.095 66.2571 184.513C66.4796 183.93 66.5909 183.275 66.5909 182.545C66.5909 181.826 66.482 181.179 66.2642 180.607C66.0511 180.034 65.7292 179.581 65.2983 179.25C64.8722 178.919 64.3395 178.753 63.7003 178.753C63.0848 178.753 62.5639 178.911 62.1378 179.229C61.7164 179.546 61.3968 179.989 61.179 180.557C60.9612 181.125 60.8523 181.788 60.8523 182.545ZM78.0256 183.476V177.091H80.1562V188H78.0682V186.111H77.9545C77.7036 186.693 77.3011 187.179 76.7472 187.567C76.1979 187.95 75.5137 188.142 74.6946 188.142C73.9938 188.142 73.3736 187.988 72.8338 187.68C72.2988 187.368 71.8774 186.906 71.5696 186.295C71.2666 185.685 71.1151 184.929 71.1151 184.03V177.091H73.2386V183.774C73.2386 184.518 73.4446 185.109 73.8565 185.55C74.2685 185.99 74.8035 186.21 75.4616 186.21C75.8594 186.21 76.2547 186.111 76.6477 185.912C77.0455 185.713 77.3745 185.412 77.6349 185.01C77.9001 184.607 78.0303 184.096 78.0256 183.476ZM88.1019 177.091V178.795H82.1431V177.091H88.1019ZM83.7411 174.477H85.8647V184.797C85.8647 185.209 85.9263 185.519 86.0494 185.727C86.1725 185.931 86.3311 186.071 86.5252 186.146C86.7241 186.217 86.9395 186.253 87.1715 186.253C87.342 186.253 87.4911 186.241 87.619 186.217C87.7468 186.194 87.8462 186.175 87.9173 186.161L88.3008 187.915C88.1777 187.962 88.0025 188.009 87.7752 188.057C87.5479 188.109 87.2638 188.137 86.9229 188.142C86.3642 188.152 85.8434 188.052 85.3604 187.844C84.8775 187.635 84.4869 187.313 84.1886 186.878C83.8903 186.442 83.7411 185.895 83.7411 185.237V174.477Z" fill="#525252"/>
<rect x="24" y="229" width="472" height="48" rx="8" fill="#E5E5E5"/>
<path d="M43.7926 245.455V260H41.598V245.455H43.7926ZM48.9418 253.523V260H46.8182V249.091H48.8565V250.866H48.9915C49.2424 250.289 49.6354 249.825 50.1705 249.474C50.7102 249.124 51.3897 248.949 52.2088 248.949C52.9522 248.949 53.6032 249.105 54.1619 249.418C54.7206 249.725 55.1539 250.185 55.4616 250.795C55.7694 251.406 55.9233 252.161 55.9233 253.061V260H53.7997V253.317C53.7997 252.526 53.5938 251.908 53.1818 251.463C52.7699 251.013 52.2041 250.788 51.4844 250.788C50.992 250.788 50.554 250.895 50.1705 251.108C49.7917 251.321 49.491 251.634 49.2685 252.045C49.0507 252.453 48.9418 252.945 48.9418 253.523ZM58.7713 264.091V249.091H60.8452V250.859H61.0227C61.1458 250.632 61.3234 250.369 61.5554 250.071C61.7874 249.773 62.1094 249.512 62.5213 249.29C62.9332 249.062 63.4777 248.949 64.1548 248.949C65.0355 248.949 65.8215 249.171 66.5128 249.616C67.2041 250.062 67.7462 250.703 68.1392 251.541C68.5369 252.379 68.7358 253.388 68.7358 254.567C68.7358 255.746 68.5393 256.757 68.1463 257.599C67.7533 258.437 67.2135 259.084 66.527 259.538C65.8404 259.988 65.0568 260.213 64.1761 260.213C63.5133 260.213 62.9711 260.102 62.5497 259.879C62.133 259.657 61.8063 259.396 61.5696 259.098C61.3329 258.8 61.1506 258.535 61.0227 258.303H60.8949V264.091H58.7713ZM60.8523 254.545C60.8523 255.312 60.9635 255.985 61.1861 256.562C61.4086 257.14 61.7306 257.592 62.152 257.919C62.5734 258.241 63.0895 258.402 63.7003 258.402C64.3348 258.402 64.8651 258.234 65.2912 257.898C65.7173 257.557 66.0393 257.095 66.2571 256.513C66.4796 255.93 66.5909 255.275 66.5909 254.545C66.5909 253.826 66.482 253.179 66.2642 252.607C66.0511 252.034 65.7292 251.581 65.2983 251.25C64.8722 250.919 64.3395 250.753 63.7003 250.753C63.0848 250.753 62.5639 250.911 62.1378 251.229C61.7164 251.546 61.3968 251.989 61.179 252.557C60.9612 253.125 60.8523 253.788 60.8523 254.545ZM78.0256 255.476V249.091H80.1562V260H78.0682V258.111H77.9545C77.7036 258.693 77.3011 259.179 76.7472 259.567C76.1979 259.95 75.5137 260.142 74.6946 260.142C73.9938 260.142 73.3736 259.988 72.8338 259.68C72.2988 259.368 71.8774 258.906 71.5696 258.295C71.2666 257.685 71.1151 256.929 71.1151 256.03V249.091H73.2386V255.774C73.2386 256.518 73.4446 257.109 73.8565 257.55C74.2685 257.99 74.8035 258.21 75.4616 258.21C75.8594 258.21 76.2547 258.111 76.6477 257.912C77.0455 257.713 77.3745 257.412 77.6349 257.01C77.9001 256.607 78.0303 256.096 78.0256 255.476ZM88.1019 249.091V250.795H82.1431V249.091H88.1019ZM83.7411 246.477H85.8647V256.797C85.8647 257.209 85.9263 257.519 86.0494 257.727C86.1725 257.931 86.3311 258.071 86.5252 258.146C86.7241 258.217 86.9395 258.253 87.1715 258.253C87.342 258.253 87.4911 258.241 87.619 258.217C87.7468 258.194 87.8462 258.175 87.9173 258.161L88.3008 259.915C88.1777 259.962 88.0025 260.009 87.7752 260.057C87.5479 260.109 87.2638 260.137 86.9229 260.142C86.3642 260.152 85.8434 260.052 85.3604 259.844C84.8775 259.635 84.4869 259.313 84.1886 258.878C83.8903 258.442 83.7411 257.895 83.7411 257.237V246.477Z" fill="#525252"/>
<rect x="24" y="301" width="472" height="48" rx="8" fill="#171717"/>
<path d="M229.062 332V317.455H234.63C235.681 317.455 236.555 317.62 237.251 317.952C237.951 318.278 238.474 318.726 238.82 319.294C239.171 319.862 239.346 320.506 239.346 321.226C239.346 321.818 239.232 322.324 239.005 322.746C238.778 323.162 238.472 323.501 238.089 323.761C237.705 324.022 237.277 324.209 236.803 324.322V324.464C237.319 324.493 237.814 324.652 238.287 324.94C238.766 325.224 239.156 325.627 239.459 326.148C239.762 326.669 239.914 327.298 239.914 328.037C239.914 328.79 239.732 329.467 239.367 330.068C239.002 330.665 238.453 331.136 237.719 331.482C236.985 331.827 236.062 332 234.949 332H229.062ZM231.697 329.798H234.53C235.487 329.798 236.176 329.616 236.597 329.251C237.023 328.882 237.236 328.409 237.236 327.831C237.236 327.4 237.13 327.012 236.917 326.666C236.704 326.316 236.401 326.041 236.008 325.842C235.615 325.639 235.146 325.537 234.601 325.537H231.697V329.798ZM231.697 323.641H234.303C234.758 323.641 235.167 323.558 235.532 323.392C235.896 323.222 236.183 322.982 236.391 322.675C236.604 322.362 236.711 321.993 236.711 321.567C236.711 321.003 236.512 320.539 236.114 320.175C235.721 319.81 235.136 319.628 234.36 319.628H231.697V323.641ZM249.046 327.412V321.091H251.617V332H249.124V330.061H249.01C248.764 330.672 248.359 331.171 247.796 331.56C247.237 331.948 246.548 332.142 245.729 332.142C245.014 332.142 244.382 331.983 243.833 331.666C243.288 331.344 242.862 330.878 242.554 330.267C242.246 329.652 242.093 328.908 242.093 328.037V321.091H244.664V327.639C244.664 328.33 244.853 328.88 245.232 329.287C245.61 329.694 246.108 329.898 246.723 329.898C247.102 329.898 247.469 329.805 247.824 329.621C248.179 329.436 248.47 329.161 248.698 328.797C248.93 328.428 249.046 327.966 249.046 327.412ZM259.708 321.091V323.08H253.437V321.091H259.708ZM254.985 318.477H257.556V328.719C257.556 329.064 257.608 329.33 257.712 329.514C257.821 329.694 257.963 329.817 258.138 329.884C258.314 329.95 258.508 329.983 258.721 329.983C258.882 329.983 259.028 329.971 259.161 329.947C259.298 329.924 259.403 329.902 259.474 329.884L259.907 331.893C259.769 331.941 259.573 331.993 259.317 332.05C259.066 332.107 258.759 332.14 258.394 332.149C257.75 332.168 257.17 332.071 256.654 331.858C256.138 331.64 255.728 331.304 255.425 330.849C255.127 330.395 254.98 329.827 254.985 329.145V318.477ZM267.306 321.091V323.08H261.034V321.091H267.306ZM262.583 318.477H265.154V328.719C265.154 329.064 265.206 329.33 265.31 329.514C265.419 329.694 265.561 329.817 265.736 329.884C265.911 329.95 266.105 329.983 266.318 329.983C266.479 329.983 266.626 329.971 266.759 329.947C266.896 329.924 267 329.902 267.071 329.884L267.504 331.893C267.367 331.941 267.171 331.993 266.915 332.05C266.664 332.107 266.356 332.14 265.992 332.149C265.348 332.168 264.768 332.071 264.252 331.858C263.735 331.64 263.326 331.304 263.023 330.849C262.725 330.395 262.578 329.827 262.583 329.145V318.477ZM274.097 332.213C273.032 332.213 272.108 331.979 271.327 331.51C270.546 331.041 269.94 330.385 269.509 329.543C269.083 328.7 268.87 327.715 268.87 326.588C268.87 325.461 269.083 324.474 269.509 323.626C269.94 322.779 270.546 322.121 271.327 321.652C272.108 321.183 273.032 320.949 274.097 320.949C275.162 320.949 276.086 321.183 276.867 321.652C277.648 322.121 278.252 322.779 278.678 323.626C279.109 324.474 279.324 325.461 279.324 326.588C279.324 327.715 279.109 328.7 278.678 329.543C278.252 330.385 277.648 331.041 276.867 331.51C276.086 331.979 275.162 332.213 274.097 332.213ZM274.111 330.153C274.689 330.153 275.172 329.995 275.56 329.678C275.948 329.356 276.237 328.925 276.427 328.385C276.621 327.845 276.718 327.244 276.718 326.581C276.718 325.913 276.621 325.31 276.427 324.77C276.237 324.225 275.948 323.792 275.56 323.47C275.172 323.148 274.689 322.987 274.111 322.987C273.519 322.987 273.027 323.148 272.634 323.47C272.246 323.792 271.955 324.225 271.76 324.77C271.571 325.31 271.476 325.913 271.476 326.581C271.476 327.244 271.571 327.845 271.76 328.385C271.955 328.925 272.246 329.356 272.634 329.678C273.027 329.995 273.519 330.153 274.111 330.153ZM284.078 325.608V332H281.507V321.091H283.964V322.945H284.092C284.343 322.334 284.743 321.848 285.292 321.489C285.846 321.129 286.53 320.949 287.345 320.949C288.097 320.949 288.753 321.11 289.312 321.432C289.875 321.754 290.311 322.22 290.619 322.831C290.931 323.442 291.085 324.183 291.08 325.054V332H288.509V325.452C288.509 324.723 288.32 324.152 287.941 323.74C287.567 323.328 287.049 323.122 286.386 323.122C285.936 323.122 285.536 323.222 285.186 323.42C284.84 323.615 284.568 323.896 284.369 324.266C284.175 324.635 284.078 325.082 284.078 325.608Z" fill="white"/>
<rect x="383.5" y="397.5" width="112" height="47" rx="7.5" stroke="#525252"/>
<path d="M408.562 428V413.455H414.13C415.181 413.455 416.055 413.62 416.751 413.952C417.451 414.278 417.974 414.726 418.32 415.294C418.671 415.862 418.846 416.506 418.846 417.226C418.846 417.818 418.732 418.324 418.505 418.746C418.278 419.162 417.972 419.501 417.589 419.761C417.205 420.022 416.777 420.209 416.303 420.322V420.464C416.819 420.493 417.314 420.652 417.787 420.94C418.266 421.224 418.656 421.627 418.959 422.148C419.262 422.669 419.414 423.298 419.414 424.037C419.414 424.79 419.232 425.467 418.867 426.068C418.502 426.665 417.953 427.136 417.219 427.482C416.485 427.827 415.562 428 414.449 428H408.562ZM411.197 425.798H414.03C414.987 425.798 415.676 425.616 416.097 425.251C416.523 424.882 416.736 424.409 416.736 423.831C416.736 423.4 416.63 423.012 416.417 422.666C416.204 422.316 415.901 422.041 415.508 421.842C415.115 421.639 414.646 421.537 414.101 421.537H411.197V425.798ZM411.197 419.641H413.803C414.258 419.641 414.667 419.558 415.032 419.392C415.396 419.222 415.683 418.982 415.891 418.675C416.104 418.362 416.211 417.993 416.211 417.567C416.211 417.003 416.012 416.539 415.614 416.175C415.221 415.81 414.636 415.628 413.86 415.628H411.197V419.641ZM428.546 423.412V417.091H431.117V428H428.624V426.061H428.51C428.264 426.672 427.859 427.171 427.296 427.56C426.737 427.948 426.048 428.142 425.229 428.142C424.514 428.142 423.882 427.983 423.333 427.666C422.788 427.344 422.362 426.878 422.054 426.267C421.746 425.652 421.593 424.908 421.593 424.037V417.091H424.164V423.639C424.164 424.33 424.353 424.88 424.732 425.287C425.11 425.694 425.608 425.898 426.223 425.898C426.602 425.898 426.969 425.805 427.324 425.621C427.679 425.436 427.97 425.161 428.198 424.797C428.43 424.428 428.546 423.966 428.546 423.412ZM439.208 417.091V419.08H432.937V417.091H439.208ZM434.485 414.477H437.056V424.719C437.056 425.064 437.108 425.33 437.212 425.514C437.321 425.694 437.463 425.817 437.638 425.884C437.814 425.95 438.008 425.983 438.221 425.983C438.382 425.983 438.528 425.971 438.661 425.947C438.798 425.924 438.903 425.902 438.974 425.884L439.407 427.893C439.269 427.941 439.073 427.993 438.817 428.05C438.566 428.107 438.259 428.14 437.894 428.149C437.25 428.168 436.67 428.071 436.154 427.858C435.638 427.64 435.228 427.304 434.925 426.849C434.627 426.395 434.48 425.827 434.485 425.145V414.477ZM446.806 417.091V419.08H440.534V417.091H446.806ZM442.083 414.477H444.654V424.719C444.654 425.064 444.706 425.33 444.81 425.514C444.919 425.694 445.061 425.817 445.236 425.884C445.411 425.95 445.605 425.983 445.818 425.983C445.979 425.983 446.126 425.971 446.259 425.947C446.396 425.924 446.5 425.902 446.571 425.884L447.004 427.893C446.867 427.941 446.671 427.993 446.415 428.05C446.164 428.107 445.856 428.14 445.492 428.149C444.848 428.168 444.268 428.071 443.752 427.858C443.235 427.64 442.826 427.304 442.523 426.849C442.225 426.395 442.078 425.827 442.083 425.145V414.477ZM453.597 428.213C452.532 428.213 451.608 427.979 450.827 427.51C450.046 427.041 449.44 426.385 449.009 425.543C448.583 424.7 448.37 423.715 448.37 422.588C448.37 421.461 448.583 420.474 449.009 419.626C449.44 418.779 450.046 418.121 450.827 417.652C451.608 417.183 452.532 416.949 453.597 416.949C454.662 416.949 455.586 417.183 456.367 417.652C457.148 418.121 457.752 418.779 458.178 419.626C458.609 420.474 458.824 421.461 458.824 422.588C458.824 423.715 458.609 424.7 458.178 425.543C457.752 426.385 457.148 427.041 456.367 427.51C455.586 427.979 454.662 428.213 453.597 428.213ZM453.611 426.153C454.189 426.153 454.672 425.995 455.06 425.678C455.448 425.356 455.737 424.925 455.927 424.385C456.121 423.845 456.218 423.244 456.218 422.581C456.218 421.913 456.121 421.31 455.927 420.77C455.737 420.225 455.448 419.792 455.06 419.47C454.672 419.148 454.189 418.987 453.611 418.987C453.019 418.987 452.527 419.148 452.134 419.47C451.746 419.792 451.455 420.225 451.26 420.77C451.071 421.31 450.976 421.913 450.976 422.581C450.976 423.244 451.071 423.845 451.26 424.385C451.455 424.925 451.746 425.356 452.134 425.678C452.527 425.995 453.019 426.153 453.611 426.153ZM463.578 421.608V428H461.007V417.091H463.464V418.945H463.592C463.843 418.334 464.243 417.848 464.792 417.489C465.346 417.129 466.03 416.949 466.845 416.949C467.597 416.949 468.253 417.11 468.812 417.432C469.375 417.754 469.811 418.22 470.119 418.831C470.431 419.442 470.585 420.183 470.58 421.054V428H468.009V421.452C468.009 420.723 467.82 420.152 467.441 419.74C467.067 419.328 466.549 419.122 465.886 419.122C465.436 419.122 465.036 419.222 464.686 419.42C464.34 419.615 464.068 419.896 463.869 420.266C463.675 420.635 463.578 421.082 463.578 421.608Z" fill="#161616"/>
</svg>
