<svg width="432" height="352" viewBox="0 0 432 352" fill="none" xmlns="http://www.w3.org/2000/svg">
<path d="M8 0.5H424C428.142 0.5 431.5 3.85786 431.5 8V344C431.5 348.142 428.142 351.5 424 351.5H8C3.85786 351.5 0.5 348.142 0.5 344V7.99999C0.5 3.85786 3.85786 0.5 8 0.5Z" fill="#FAFAFA"/>
<path d="M8 0.5H424C428.142 0.5 431.5 3.85786 431.5 8V344C431.5 348.142 428.142 351.5 424 351.5H8C3.85786 351.5 0.5 348.142 0.5 344V7.99999C0.5 3.85786 3.85786 0.5 8 0.5Z" stroke="#D4D4D4"/>
<path d="M17.598 37V22.4545H26.6179V24.3438H19.7926V28.7756H25.9716V30.6577H19.7926V37H17.598ZM33.0472 37.2202C31.9724 37.2202 31.0468 36.9905 30.2702 36.5312C29.4985 36.0672 28.9019 35.4162 28.4805 34.5781C28.0638 33.7353 27.8555 32.7481 27.8555 31.6165C27.8555 30.4991 28.0638 29.5142 28.4805 28.6619C28.9019 27.8097 29.489 27.1444 30.2418 26.6662C30.9994 26.188 31.8848 25.9489 32.8981 25.9489C33.5136 25.9489 34.1102 26.0507 34.6879 26.2543C35.2655 26.4579 35.784 26.7775 36.2433 27.2131C36.7025 27.6487 37.0647 28.2145 37.3299 28.9105C37.5951 29.6018 37.7276 30.4422 37.7276 31.4318V32.1847H29.0558V30.5938H35.6467C35.6467 30.035 35.533 29.5402 35.3058 29.1094C35.0785 28.6738 34.7589 28.3305 34.3469 28.0795C33.9397 27.8286 33.4615 27.7031 32.9123 27.7031C32.3157 27.7031 31.7949 27.8499 31.3498 28.1435C30.9094 28.4323 30.5685 28.8111 30.3271 29.2798C30.0903 29.7438 29.9719 30.2481 29.9719 30.7926V32.0355C29.9719 32.7647 30.0998 33.3849 30.3555 33.8963C30.6159 34.4077 30.9781 34.7983 31.4421 35.0682C31.9061 35.3333 32.4483 35.4659 33.0685 35.4659C33.471 35.4659 33.838 35.4091 34.1694 35.2955C34.5008 35.1771 34.7873 35.0019 35.0288 34.7699C35.2702 34.5379 35.4549 34.2514 35.5827 33.9105L37.5927 34.2727C37.4317 34.8646 37.1429 35.383 36.7262 35.8281C36.3143 36.2685 35.7958 36.6117 35.1708 36.858C34.5505 37.0994 33.8427 37.2202 33.0472 37.2202ZM44.7855 37.2202C43.7107 37.2202 42.785 36.9905 42.0085 36.5312C41.2367 36.0672 40.6402 35.4162 40.2188 34.5781C39.8021 33.7353 39.5938 32.7481 39.5938 31.6165C39.5938 30.4991 39.8021 29.5142 40.2188 28.6619C40.6402 27.8097 41.2273 27.1444 41.9801 26.6662C42.7377 26.188 43.6231 25.9489 44.6364 25.9489C45.2519 25.9489 45.8485 26.0507 46.4261 26.2543C47.0038 26.4579 47.5223 26.7775 47.9815 27.2131C48.4408 27.6487 48.803 28.2145 49.0682 28.9105C49.3333 29.6018 49.4659 30.4422 49.4659 31.4318V32.1847H40.794V30.5938H47.3849C47.3849 30.035 47.2713 29.5402 47.044 29.1094C46.8168 28.6738 46.4972 28.3305 46.0852 28.0795C45.678 27.8286 45.1998 27.7031 44.6506 27.7031C44.054 27.7031 43.5331 27.8499 43.0881 28.1435C42.6477 28.4323 42.3068 28.8111 42.0653 29.2798C41.8286 29.7438 41.7102 30.2481 41.7102 30.7926V32.0355C41.7102 32.7647 41.8381 33.3849 42.0938 33.8963C42.3542 34.4077 42.7164 34.7983 43.1804 35.0682C43.6444 35.3333 44.1866 35.4659 44.8068 35.4659C45.2093 35.4659 45.5762 35.4091 45.9077 35.2955C46.2391 35.1771 46.5256 35.0019 46.767 34.7699C47.0085 34.5379 47.1932 34.2514 47.321 33.9105L49.331 34.2727C49.17 34.8646 48.8812 35.383 48.4645 35.8281C48.0526 36.2685 47.5341 36.6117 46.9091 36.858C46.2888 37.0994 45.581 37.2202 44.7855 37.2202ZM55.9059 37.2131C55.0252 37.2131 54.2392 36.9882 53.5479 36.5384C52.8614 36.0838 52.3216 35.4375 51.9286 34.5994C51.5404 33.7566 51.3462 32.7457 51.3462 31.5668C51.3462 30.3878 51.5427 29.3793 51.9357 28.5412C52.3335 27.7031 52.878 27.0616 53.5692 26.6165C54.2605 26.1714 55.0442 25.9489 55.9201 25.9489C56.5972 25.9489 57.1417 26.0625 57.5536 26.2898C57.9703 26.5123 58.2923 26.7727 58.5195 27.071C58.7515 27.3693 58.9315 27.6321 59.0593 27.8594H59.1871V22.4545H61.3107V37H59.2369V35.3026H59.0593C58.9315 35.5346 58.7468 35.7997 58.5053 36.098C58.2686 36.3963 57.9419 36.6567 57.5252 36.8793C57.1085 37.1018 56.5688 37.2131 55.9059 37.2131ZM56.3746 35.402C56.9854 35.402 57.5015 35.241 57.9229 34.919C58.3491 34.5923 58.671 34.1402 58.8888 33.5625C59.1114 32.9848 59.2227 32.3125 59.2227 31.5455C59.2227 30.7879 59.1138 30.125 58.896 29.5568C58.6781 28.9886 58.3585 28.5459 57.9371 28.2287C57.5157 27.9115 56.9949 27.7528 56.3746 27.7528C55.7354 27.7528 55.2028 27.9186 54.7766 28.25C54.3505 28.5814 54.0285 29.0336 53.8107 29.6065C53.5977 30.1795 53.4911 30.8258 53.4911 31.5455C53.4911 32.2746 53.6 32.9304 53.8178 33.5128C54.0356 34.0952 54.3576 34.5568 54.7837 34.8977C55.2146 35.2339 55.7449 35.402 56.3746 35.402ZM64.5121 37V22.4545H66.6357V27.8594H66.7635C66.8866 27.6321 67.0642 27.3693 67.2962 27.071C67.5282 26.7727 67.8501 26.5123 68.2621 26.2898C68.674 26.0625 69.2185 25.9489 69.8956 25.9489C70.7763 25.9489 71.5623 26.1714 72.2536 26.6165C72.9448 27.0616 73.487 27.7031 73.88 28.5412C74.2777 29.3793 74.4766 30.3878 74.4766 31.5668C74.4766 32.7457 74.2801 33.7566 73.8871 34.5994C73.4941 35.4375 72.9543 36.0838 72.2678 36.5384C71.5812 36.9882 70.7976 37.2131 69.9169 37.2131C69.254 37.2131 68.7119 37.1018 68.2905 36.8793C67.8738 36.6567 67.5471 36.3963 67.3104 36.098C67.0736 35.7997 66.8913 35.5346 66.7635 35.3026H66.5859V37H64.5121ZM66.593 31.5455C66.593 32.3125 66.7043 32.9848 66.9268 33.5625C67.1494 34.1402 67.4714 34.5923 67.8928 34.919C68.3142 35.241 68.8303 35.402 69.4411 35.402C70.0755 35.402 70.6058 35.2339 71.032 34.8977C71.4581 34.5568 71.7801 34.0952 71.9979 33.5128C72.2204 32.9304 72.3317 32.2746 72.3317 31.5455C72.3317 30.8258 72.2228 30.1795 72.005 29.6065C71.7919 29.0336 71.4699 28.5814 71.0391 28.25C70.6129 27.9186 70.0803 27.7528 69.4411 27.7528C68.8255 27.7528 68.3047 27.9115 67.8786 28.2287C67.4571 28.5459 67.1375 28.9886 66.9197 29.5568C66.7019 30.125 66.593 30.7879 66.593 31.5455ZM80.0359 37.2415C79.3446 37.2415 78.7196 37.1136 78.1609 36.858C77.6022 36.5975 77.1594 36.2211 76.8327 35.7287C76.5108 35.2363 76.3498 34.6326 76.3498 33.9176C76.3498 33.3021 76.4682 32.7955 76.7049 32.3977C76.9416 32 77.2612 31.6851 77.6637 31.4531C78.0662 31.2211 78.516 31.0459 79.0131 30.9276C79.5103 30.8092 80.0169 30.7192 80.533 30.6577C81.1864 30.5819 81.7167 30.5204 82.1239 30.473C82.5311 30.4209 82.8271 30.3381 83.0117 30.2244C83.1964 30.1108 83.2887 29.9261 83.2887 29.6705V29.6207C83.2887 29.0005 83.1135 28.5199 82.7631 28.179C82.4175 27.8381 81.9014 27.6676 81.2148 27.6676C80.4999 27.6676 79.9364 27.8262 79.5245 28.1435C79.1173 28.456 78.8356 28.804 78.6793 29.1875L76.6836 28.733C76.9203 28.0701 77.266 27.535 77.7205 27.1278C78.1798 26.7159 78.7077 26.4176 79.3043 26.233C79.9009 26.0436 80.5283 25.9489 81.1864 25.9489C81.622 25.9489 82.0837 26.0009 82.5714 26.1051C83.0638 26.2045 83.5231 26.3892 83.9492 26.6591C84.3801 26.929 84.7328 27.3149 85.0075 27.8168C85.2821 28.3139 85.4194 28.9602 85.4194 29.7557V37H83.3455V35.5085H83.2603C83.123 35.7831 82.917 36.053 82.6424 36.3182C82.3678 36.5833 82.015 36.8035 81.5842 36.9787C81.1533 37.1539 80.6372 37.2415 80.0359 37.2415ZM80.4975 35.5369C81.0846 35.5369 81.5865 35.4209 82.0032 35.1889C82.4246 34.9569 82.7442 34.6539 82.962 34.2798C83.1845 33.901 83.2958 33.4962 83.2958 33.0653V31.6591C83.2201 31.7348 83.0733 31.8059 82.8555 31.8722C82.6424 31.9337 82.3986 31.9882 82.1239 32.0355C81.8493 32.0781 81.5818 32.1184 81.3214 32.1562C81.061 32.1894 80.8432 32.2178 80.668 32.2415C80.256 32.2936 79.8796 32.3812 79.5387 32.5043C79.2025 32.6274 78.9326 32.8049 78.729 33.0369C78.5302 33.2642 78.4308 33.5672 78.4308 33.946C78.4308 34.4716 78.6249 34.8693 79.0131 35.1392C79.4014 35.4044 79.8962 35.5369 80.4975 35.5369ZM92.843 37.2202C91.7872 37.2202 90.8781 36.9811 90.1158 36.5028C89.3582 36.0199 88.7758 35.3546 88.3686 34.5071C87.9614 33.6596 87.7578 32.6889 87.7578 31.5952C87.7578 30.4872 87.9661 29.5095 88.3828 28.6619C88.7995 27.8097 89.3866 27.1444 90.1442 26.6662C90.9018 26.188 91.7943 25.9489 92.8217 25.9489C93.6503 25.9489 94.389 26.1027 95.0376 26.4105C95.6863 26.7135 96.2095 27.1397 96.6072 27.6889C97.0097 28.2382 97.2488 28.8797 97.3246 29.6136H95.2578C95.1442 29.1023 94.8838 28.6619 94.4766 28.2926C94.0741 27.9233 93.5343 27.7386 92.8572 27.7386C92.2654 27.7386 91.7469 27.8949 91.3018 28.2074C90.8615 28.5152 90.5182 28.9555 90.272 29.5284C90.0258 30.0966 89.9027 30.7689 89.9027 31.5455C89.9027 32.3409 90.0234 33.0275 90.2649 33.6051C90.5064 34.1828 90.8473 34.6302 91.2876 34.9474C91.7327 35.2647 92.2559 35.4233 92.8572 35.4233C93.2597 35.4233 93.6243 35.3499 93.951 35.2031C94.2824 35.0516 94.5594 34.8362 94.782 34.5568C95.0092 34.2775 95.1679 33.9413 95.2578 33.5483H97.3246C97.2488 34.2538 97.0192 34.8835 96.6357 35.4375C96.2521 35.9915 95.7384 36.4271 95.0945 36.7443C94.4553 37.0616 93.7048 37.2202 92.843 37.2202ZM101.549 33.2997L101.534 30.7074H101.904L106.25 26.0909H108.793L103.836 31.3466H103.502L101.549 33.2997ZM99.5955 37V22.4545H101.719V37H99.5955ZM106.485 37L102.578 31.8153L104.042 30.331L109.091 37H106.485Z" fill="#171717"/>
<path d="M19.1122 61L16.2884 50.8182H17.9041L19.8878 58.7031H19.9822L22.0455 50.8182H23.6463L25.7095 58.7081H25.804L27.7827 50.8182H29.4034L26.5746 61H25.0284L22.8857 53.3736H22.8061L20.6634 61H19.1122ZM33.2241 61.1541C32.4717 61.1541 31.8237 60.9934 31.2802 60.6719C30.7399 60.3471 30.3223 59.8913 30.0273 59.3047C29.7357 58.7147 29.5898 58.0237 29.5898 57.2315C29.5898 56.4493 29.7357 55.7599 30.0273 55.1634C30.3223 54.5668 30.7333 54.1011 31.2603 53.7663C31.7906 53.4316 32.4104 53.2642 33.1197 53.2642C33.5505 53.2642 33.9682 53.3355 34.3725 53.478C34.7769 53.6205 35.1398 53.8442 35.4613 54.1491C35.7828 54.4541 36.0363 54.8501 36.2219 55.3374C36.4076 55.8213 36.5004 56.4096 36.5004 57.1023V57.6293H30.43V56.5156H35.0437C35.0437 56.1245 34.9641 55.7782 34.805 55.4766C34.646 55.1716 34.4222 54.9313 34.1339 54.7557C33.8488 54.58 33.5141 54.4922 33.1296 54.4922C32.712 54.4922 32.3474 54.5949 32.0359 54.8004C31.7276 55.0026 31.489 55.2678 31.32 55.5959C31.1542 55.9207 31.0714 56.2737 31.0714 56.6548V57.5249C31.0714 58.0353 31.1609 58.4695 31.3398 58.8274C31.5221 59.1854 31.7757 59.4588 32.1005 59.6477C32.4253 59.8333 32.8048 59.9261 33.239 59.9261C33.5207 59.9261 33.7776 59.8864 34.0096 59.8068C34.2416 59.724 34.4421 59.6013 34.6112 59.4389C34.7802 59.2765 34.9094 59.076 34.9989 58.8374L36.4059 59.0909C36.2932 59.5052 36.091 59.8681 35.7994 60.1797C35.511 60.4879 35.1481 60.7282 34.7106 60.9006C34.2764 61.0696 33.7809 61.1541 33.2241 61.1541ZM43.5103 61L41.2631 53.3636H42.7994L44.2958 58.9716H44.3704L45.8718 53.3636H47.408L48.8995 58.9467H48.9741L50.4606 53.3636H51.9968L49.7546 61H48.2383L46.6871 55.4865H46.5728L45.0217 61H43.5103ZM56.3917 61.1541C55.6758 61.1541 55.051 60.9901 54.5174 60.6619C53.9838 60.3338 53.5695 59.8748 53.2745 59.2848C52.9795 58.6948 52.832 58.0054 52.832 57.2166C52.832 56.4245 52.9795 55.7318 53.2745 55.1385C53.5695 54.5452 53.9838 54.0845 54.5174 53.7564C55.051 53.4283 55.6758 53.2642 56.3917 53.2642C57.1076 53.2642 57.7324 53.4283 58.266 53.7564C58.7996 54.0845 59.2139 54.5452 59.5089 55.1385C59.8039 55.7318 59.9513 56.4245 59.9513 57.2166C59.9513 58.0054 59.8039 58.6948 59.5089 59.2848C59.2139 59.8748 58.7996 60.3338 58.266 60.6619C57.7324 60.9901 57.1076 61.1541 56.3917 61.1541ZM56.3967 59.9062C56.8607 59.9062 57.2451 59.7836 57.5501 59.5384C57.855 59.2931 58.0804 58.9666 58.2262 58.5589C58.3754 58.1513 58.4499 57.7022 58.4499 57.2116C58.4499 56.7244 58.3754 56.277 58.2262 55.8693C58.0804 55.4583 57.855 55.1286 57.5501 54.88C57.2451 54.6314 56.8607 54.5071 56.3967 54.5071C55.9293 54.5071 55.5415 54.6314 55.2333 54.88C54.9284 55.1286 54.7013 55.4583 54.5522 55.8693C54.4064 56.277 54.3335 56.7244 54.3335 57.2116C54.3335 57.7022 54.4064 58.1513 54.5522 58.5589C54.7013 58.9666 54.9284 59.2931 55.2333 59.5384C55.5415 59.7836 55.9293 59.9062 56.3967 59.9062ZM66.448 57.8331V53.3636H67.9395V61H66.4778V59.6776H66.3983C66.2226 60.0852 65.9409 60.425 65.5531 60.6967C65.1686 60.9652 64.6897 61.0994 64.1163 61.0994C63.6258 61.0994 63.1916 60.9917 62.8137 60.7763C62.4392 60.5575 62.1442 60.2344 61.9288 59.8068C61.7167 59.3793 61.6106 58.8506 61.6106 58.2209V53.3636H63.0971V58.0419C63.0971 58.5623 63.2413 58.9766 63.5297 59.2848C63.818 59.593 64.1925 59.7472 64.6532 59.7472C64.9316 59.7472 65.2084 59.6776 65.4835 59.5384C65.7619 59.3991 65.9922 59.1887 66.1745 58.907C66.3601 58.6252 66.4513 58.2673 66.448 57.8331ZM71.4233 50.8182V61H69.9368V50.8182H71.4233ZM76.2818 61.1491C75.6653 61.1491 75.1151 60.9917 74.6312 60.6768C74.1506 60.3587 73.7728 59.9062 73.4977 59.3196C73.2259 58.7296 73.09 58.022 73.09 57.1967C73.09 56.3714 73.2276 55.6655 73.5027 55.0788C73.7811 54.4922 74.1622 54.0431 74.6461 53.7315C75.13 53.42 75.6786 53.2642 76.2917 53.2642C76.7657 53.2642 77.1468 53.3438 77.4352 53.5028C77.7269 53.6586 77.9522 53.8409 78.1113 54.0497C78.2737 54.2585 78.3997 54.4425 78.4892 54.6016H78.5787V50.8182H80.0652V61H78.6135V59.8118H78.4892C78.3997 59.9742 78.2704 60.1598 78.1014 60.3686C77.9357 60.5774 77.707 60.7597 77.4153 60.9155C77.1236 61.0713 76.7458 61.1491 76.2818 61.1491ZM76.6099 59.8814C77.0375 59.8814 77.3987 59.7687 77.6937 59.5433C77.992 59.3146 78.2174 58.9981 78.3699 58.5938C78.5256 58.1894 78.6035 57.7187 78.6035 57.1818C78.6035 56.6515 78.5273 56.1875 78.3748 55.7898C78.2224 55.392 77.9986 55.0821 77.7037 54.8601C77.4087 54.638 77.0441 54.527 76.6099 54.527C76.1625 54.527 75.7896 54.643 75.4913 54.875C75.193 55.107 74.9676 55.4235 74.8152 55.8246C74.666 56.2256 74.5914 56.678 74.5914 57.1818C74.5914 57.6922 74.6677 58.1513 74.8201 58.5589C74.9726 58.9666 75.198 59.2898 75.4963 59.5284C75.7979 59.7637 76.1691 59.8814 76.6099 59.8814ZM87.3784 50.8182V61H85.8919V50.8182H87.3784ZM89.3782 61V53.3636H90.8647V61H89.3782ZM90.1289 52.1854C89.8704 52.1854 89.6483 52.0992 89.4627 51.9268C89.2804 51.7512 89.1893 51.5424 89.1893 51.3004C89.1893 51.0552 89.2804 50.8464 89.4627 50.674C89.6483 50.4983 89.8704 50.4105 90.1289 50.4105C90.3874 50.4105 90.6078 50.4983 90.7901 50.674C90.9757 50.8464 91.0685 51.0552 91.0685 51.3004C91.0685 51.5424 90.9757 51.7512 90.7901 51.9268C90.6078 52.0992 90.3874 52.1854 90.1289 52.1854ZM94.2317 58.4098L94.2218 56.5952H94.4803L97.5229 53.3636H99.3027L95.8326 57.0426H95.5989L94.2317 58.4098ZM92.8645 61V50.8182H94.351V61H92.8645ZM97.687 61L94.9526 57.3707L95.9767 56.3317L99.5115 61H97.687ZM103.634 61.1541C102.882 61.1541 102.234 60.9934 101.69 60.6719C101.15 60.3471 100.732 59.8913 100.438 59.3047C100.146 58.7147 100 58.0237 100 57.2315C100 56.4493 100.146 55.7599 100.438 55.1634C100.732 54.5668 101.143 54.1011 101.67 53.7663C102.201 53.4316 102.821 53.2642 103.53 53.2642C103.961 53.2642 104.378 53.3355 104.783 53.478C105.187 53.6205 105.55 53.8442 105.871 54.1491C106.193 54.4541 106.446 54.8501 106.632 55.3374C106.818 55.8213 106.911 56.4096 106.911 57.1023V57.6293H100.84V56.5156H105.454C105.454 56.1245 105.374 55.7782 105.215 55.4766C105.056 55.1716 104.832 54.9313 104.544 54.7557C104.259 54.58 103.924 54.4922 103.54 54.4922C103.122 54.4922 102.758 54.5949 102.446 54.8004C102.138 55.0026 101.899 55.2678 101.73 55.5959C101.564 55.9207 101.482 56.2737 101.482 56.6548V57.5249C101.482 58.0353 101.571 58.4695 101.75 58.8274C101.932 59.1854 102.186 59.4588 102.511 59.6477C102.835 59.8333 103.215 59.9261 103.649 59.9261C103.931 59.9261 104.188 59.8864 104.42 59.8068C104.652 59.724 104.852 59.6013 105.021 59.4389C105.19 59.2765 105.32 59.076 105.409 58.8374L106.816 59.0909C106.703 59.5052 106.501 59.8681 106.21 60.1797C105.921 60.4879 105.558 60.7282 105.121 60.9006C104.687 61.0696 104.191 61.1541 103.634 61.1541ZM115.83 53.3636V54.5568H111.658V53.3636H115.83ZM112.777 51.5341H114.263V58.7578C114.263 59.0462 114.307 59.2633 114.393 59.4091C114.479 59.5516 114.59 59.6494 114.726 59.7024C114.865 59.7521 115.016 59.777 115.178 59.777C115.298 59.777 115.402 59.7687 115.491 59.7521C115.581 59.7356 115.651 59.7223 115.7 59.7124L115.969 60.9403C115.883 60.9735 115.76 61.0066 115.601 61.0398C115.442 61.0762 115.243 61.0961 115.004 61.0994C114.613 61.1061 114.249 61.0365 113.911 60.8906C113.572 60.7448 113.299 60.5194 113.09 60.2145C112.881 59.9096 112.777 59.5268 112.777 59.0661V51.5341ZM120.608 61.1541C119.893 61.1541 119.268 60.9901 118.734 60.6619C118.201 60.3338 117.786 59.8748 117.491 59.2848C117.196 58.6948 117.049 58.0054 117.049 57.2166C117.049 56.4245 117.196 55.7318 117.491 55.1385C117.786 54.5452 118.201 54.0845 118.734 53.7564C119.268 53.4283 119.893 53.2642 120.608 53.2642C121.324 53.2642 121.949 53.4283 122.483 53.7564C123.016 54.0845 123.431 54.5452 123.726 55.1385C124.021 55.7318 124.168 56.4245 124.168 57.2166C124.168 58.0054 124.021 58.6948 123.726 59.2848C123.431 59.8748 123.016 60.3338 122.483 60.6619C121.949 60.9901 121.324 61.1541 120.608 61.1541ZM120.613 59.9062C121.077 59.9062 121.462 59.7836 121.767 59.5384C122.072 59.2931 122.297 58.9666 122.443 58.5589C122.592 58.1513 122.667 57.7022 122.667 57.2116C122.667 56.7244 122.592 56.277 122.443 55.8693C122.297 55.4583 122.072 55.1286 121.767 54.88C121.462 54.6314 121.077 54.5071 120.613 54.5071C120.146 54.5071 119.758 54.6314 119.45 54.88C119.145 55.1286 118.918 55.4583 118.769 55.8693C118.623 56.277 118.55 56.7244 118.55 57.2116C118.55 57.7022 118.623 58.1513 118.769 58.5589C118.918 58.9666 119.145 59.2931 119.45 59.5384C119.758 59.7836 120.146 59.9062 120.613 59.9062ZM130.9 58.4098L130.89 56.5952H131.148L134.191 53.3636H135.971L132.501 57.0426H132.267L130.9 58.4098ZM129.532 61V50.8182H131.019V61H129.532ZM134.355 61L131.621 57.3707L132.645 56.3317L136.18 61H134.355ZM138.812 56.4659V61H137.325V53.3636H138.752V54.6065H138.847C139.022 54.2022 139.298 53.8774 139.672 53.6321C140.05 53.3868 140.526 53.2642 141.099 53.2642C141.619 53.2642 142.075 53.3736 142.466 53.5923C142.857 53.8078 143.16 54.1293 143.376 54.5568C143.591 54.9844 143.699 55.513 143.699 56.1428V61H142.213V56.3217C142.213 55.7682 142.068 55.3357 141.78 55.0241C141.492 54.7093 141.096 54.5518 140.592 54.5518C140.247 54.5518 139.941 54.6264 139.672 54.7756C139.407 54.9247 139.196 55.1435 139.041 55.4318C138.888 55.7169 138.812 56.0616 138.812 56.4659ZM148.909 61.1541C148.193 61.1541 147.569 60.9901 147.035 60.6619C146.501 60.3338 146.087 59.8748 145.792 59.2848C145.497 58.6948 145.35 58.0054 145.35 57.2166C145.35 56.4245 145.497 55.7318 145.792 55.1385C146.087 54.5452 146.501 54.0845 147.035 53.7564C147.569 53.4283 148.193 53.2642 148.909 53.2642C149.625 53.2642 150.25 53.4283 150.784 53.7564C151.317 54.0845 151.731 54.5452 152.026 55.1385C152.321 55.7318 152.469 56.4245 152.469 57.2166C152.469 58.0054 152.321 58.6948 152.026 59.2848C151.731 59.8748 151.317 60.3338 150.784 60.6619C150.25 60.9901 149.625 61.1541 148.909 61.1541ZM148.914 59.9062C149.378 59.9062 149.763 59.7836 150.068 59.5384C150.373 59.2931 150.598 58.9666 150.744 58.5589C150.893 58.1513 150.968 57.7022 150.968 57.2116C150.968 56.7244 150.893 56.277 150.744 55.8693C150.598 55.4583 150.373 55.1286 150.068 54.88C149.763 54.6314 149.378 54.5071 148.914 54.5071C148.447 54.5071 148.059 54.6314 147.751 54.88C147.446 55.1286 147.219 55.4583 147.07 55.8693C146.924 56.277 146.851 56.7244 146.851 57.2116C146.851 57.7022 146.924 58.1513 147.07 58.5589C147.219 58.9666 147.446 59.2931 147.751 59.5384C148.059 59.7836 148.447 59.9062 148.914 59.9062ZM155.551 61L153.304 53.3636H154.84L156.337 58.9716H156.411L157.913 53.3636H159.449L160.941 58.9467H161.015L162.502 53.3636H164.038L161.796 61H160.279L158.728 55.4865H158.614L157.063 61H155.551ZM170.64 56.4659V61H169.154V50.8182H170.62V54.6065H170.715C170.894 54.1955 171.167 53.8691 171.535 53.6271C171.903 53.3852 172.383 53.2642 172.977 53.2642C173.5 53.2642 173.958 53.3719 174.349 53.5874C174.743 53.8028 175.048 54.1243 175.264 54.5518C175.482 54.9761 175.592 55.5064 175.592 56.1428V61H174.105V56.3217C174.105 55.7616 173.961 55.3274 173.673 55.0192C173.384 54.7076 172.983 54.5518 172.47 54.5518C172.118 54.5518 171.803 54.6264 171.525 54.7756C171.25 54.9247 171.033 55.1435 170.874 55.4318C170.718 55.7169 170.64 56.0616 170.64 56.4659ZM180.792 61.1541C180.076 61.1541 179.451 60.9901 178.918 60.6619C178.384 60.3338 177.97 59.8748 177.675 59.2848C177.38 58.6948 177.232 58.0054 177.232 57.2166C177.232 56.4245 177.38 55.7318 177.675 55.1385C177.97 54.5452 178.384 54.0845 178.918 53.7564C179.451 53.4283 180.076 53.2642 180.792 53.2642C181.508 53.2642 182.133 53.4283 182.666 53.7564C183.2 54.0845 183.614 54.5452 183.909 55.1385C184.204 55.7318 184.352 56.4245 184.352 57.2166C184.352 58.0054 184.204 58.6948 183.909 59.2848C183.614 59.8748 183.2 60.3338 182.666 60.6619C182.133 60.9901 181.508 61.1541 180.792 61.1541ZM180.797 59.9062C181.261 59.9062 181.646 59.7836 181.95 59.5384C182.255 59.2931 182.481 58.9666 182.627 58.5589C182.776 58.1513 182.85 57.7022 182.85 57.2116C182.85 56.7244 182.776 56.277 182.627 55.8693C182.481 55.4583 182.255 55.1286 181.95 54.88C181.646 54.6314 181.261 54.5071 180.797 54.5071C180.33 54.5071 179.942 54.6314 179.634 54.88C179.329 55.1286 179.102 55.4583 178.953 55.8693C178.807 56.277 178.734 56.7244 178.734 57.2116C178.734 57.7022 178.807 58.1513 178.953 58.5589C179.102 58.9666 179.329 59.2931 179.634 59.5384C179.942 59.7836 180.33 59.9062 180.797 59.9062ZM187.434 61L185.187 53.3636H186.723L188.22 58.9716H188.294L189.796 53.3636H191.332L192.823 58.9467H192.898L194.384 53.3636H195.921L193.678 61H192.162L190.611 55.4865H190.497L188.945 61H187.434ZM204.601 53.3636V54.5568H200.43V53.3636H204.601ZM201.548 51.5341H203.035V58.7578C203.035 59.0462 203.078 59.2633 203.164 59.4091C203.25 59.5516 203.361 59.6494 203.497 59.7024C203.637 59.7521 203.787 59.777 203.95 59.777C204.069 59.777 204.173 59.7687 204.263 59.7521C204.352 59.7356 204.422 59.7223 204.472 59.7124L204.74 60.9403C204.654 60.9735 204.531 61.0066 204.372 61.0398C204.213 61.0762 204.014 61.0961 203.776 61.0994C203.385 61.1061 203.02 61.0365 202.682 60.8906C202.344 60.7448 202.07 60.5194 201.862 60.2145C201.653 59.9096 201.548 59.5268 201.548 59.0661V51.5341ZM209.38 61.1541C208.664 61.1541 208.039 60.9901 207.506 60.6619C206.972 60.3338 206.558 59.8748 206.263 59.2848C205.968 58.6948 205.82 58.0054 205.82 57.2166C205.82 56.4245 205.968 55.7318 206.263 55.1385C206.558 54.5452 206.972 54.0845 207.506 53.7564C208.039 53.4283 208.664 53.2642 209.38 53.2642C210.096 53.2642 210.721 53.4283 211.254 53.7564C211.788 54.0845 212.202 54.5452 212.497 55.1385C212.792 55.7318 212.94 56.4245 212.94 57.2166C212.94 58.0054 212.792 58.6948 212.497 59.2848C212.202 59.8748 211.788 60.3338 211.254 60.6619C210.721 60.9901 210.096 61.1541 209.38 61.1541ZM209.385 59.9062C209.849 59.9062 210.233 59.7836 210.538 59.5384C210.843 59.2931 211.069 58.9666 211.214 58.5589C211.364 58.1513 211.438 57.7022 211.438 57.2116C211.438 56.7244 211.364 56.277 211.214 55.8693C211.069 55.4583 210.843 55.1286 210.538 54.88C210.233 54.6314 209.849 54.5071 209.385 54.5071C208.918 54.5071 208.53 54.6314 208.222 54.88C207.917 55.1286 207.69 55.4583 207.54 55.8693C207.395 56.277 207.322 56.7244 207.322 57.2116C207.322 57.7022 207.395 58.1513 207.54 58.5589C207.69 58.9666 207.917 59.2931 208.222 59.5384C208.53 59.7836 208.918 59.9062 209.385 59.9062ZM218.304 61V53.3636H219.79V61H218.304ZM219.055 52.1854C218.796 52.1854 218.574 52.0992 218.388 51.9268C218.206 51.7512 218.115 51.5424 218.115 51.3004C218.115 51.0552 218.206 50.8464 218.388 50.674C218.574 50.4983 218.796 50.4105 219.055 50.4105C219.313 50.4105 219.534 50.4983 219.716 50.674C219.902 50.8464 219.994 51.0552 219.994 51.3004C219.994 51.5424 219.902 51.7512 219.716 51.9268C219.534 52.0992 219.313 52.1854 219.055 52.1854ZM221.79 61V53.3636H223.217V54.6065H223.312C223.471 54.1856 223.731 53.8575 224.092 53.6222C224.453 53.3835 224.886 53.2642 225.39 53.2642C225.9 53.2642 226.328 53.3835 226.672 53.6222C227.02 53.8608 227.277 54.1889 227.443 54.6065H227.523C227.705 54.1989 227.995 53.8741 228.393 53.6321C228.79 53.3868 229.264 53.2642 229.814 53.2642C230.507 53.2642 231.072 53.4813 231.51 53.9155C231.951 54.3497 232.171 55.0043 232.171 55.8793V61H230.684V56.0185C230.684 55.5014 230.544 55.1269 230.262 54.8949C229.98 54.6629 229.644 54.5469 229.253 54.5469C228.769 54.5469 228.393 54.696 228.124 54.9943C227.856 55.2893 227.721 55.6688 227.721 56.1328V61H226.24V55.924C226.24 55.5097 226.111 55.1766 225.852 54.9247C225.594 54.6728 225.257 54.5469 224.843 54.5469C224.561 54.5469 224.301 54.6214 224.062 54.7706C223.827 54.9164 223.636 55.1203 223.491 55.3821C223.348 55.6439 223.277 55.9472 223.277 56.2919V61H221.79ZM234.163 63.8636V53.3636H235.615V54.6016H235.739C235.826 54.4425 235.95 54.2585 236.112 54.0497C236.275 53.8409 236.5 53.6586 236.788 53.5028C237.077 53.3438 237.458 53.2642 237.932 53.2642C238.548 53.2642 239.098 53.42 239.582 53.7315C240.066 54.0431 240.446 54.4922 240.721 55.0788C240.999 55.6655 241.138 56.3714 241.138 57.1967C241.138 58.022 241.001 58.7296 240.726 59.3196C240.451 59.9062 240.073 60.3587 239.592 60.6768C239.112 60.9917 238.563 61.1491 237.947 61.1491C237.483 61.1491 237.103 61.0713 236.808 60.9155C236.517 60.7597 236.288 60.5774 236.122 60.3686C235.956 60.1598 235.829 59.9742 235.739 59.8118H235.65V63.8636H234.163ZM235.62 57.1818C235.62 57.7187 235.698 58.1894 235.854 58.5938C236.009 58.9981 236.235 59.3146 236.53 59.5433C236.825 59.7687 237.186 59.8814 237.614 59.8814C238.058 59.8814 238.429 59.7637 238.727 59.5284C239.026 59.2898 239.251 58.9666 239.403 58.5589C239.559 58.1513 239.637 57.6922 239.637 57.1818C239.637 56.678 239.561 56.2256 239.408 55.8246C239.259 55.4235 239.034 55.107 238.732 54.875C238.434 54.643 238.061 54.527 237.614 54.527C237.183 54.527 236.818 54.638 236.52 54.8601C236.225 55.0821 236.001 55.392 235.849 55.7898C235.696 56.1875 235.62 56.6515 235.62 57.1818ZM242.804 61V53.3636H244.241V54.5767H244.32C244.46 54.1657 244.705 53.8426 245.056 53.6072C245.411 53.3686 245.812 53.2493 246.259 53.2493C246.352 53.2493 246.461 53.2526 246.587 53.2592C246.717 53.2659 246.818 53.2741 246.891 53.2841V54.706C246.831 54.6894 246.725 54.6712 246.572 54.6513C246.42 54.6281 246.268 54.6165 246.115 54.6165C245.764 54.6165 245.451 54.6911 245.175 54.8402C244.904 54.986 244.688 55.1899 244.529 55.4517C244.37 55.7102 244.29 56.0052 244.29 56.3366V61H242.804ZM251.12 61.1541C250.404 61.1541 249.78 60.9901 249.246 60.6619C248.712 60.3338 248.298 59.8748 248.003 59.2848C247.708 58.6948 247.561 58.0054 247.561 57.2166C247.561 56.4245 247.708 55.7318 248.003 55.1385C248.298 54.5452 248.712 54.0845 249.246 53.7564C249.78 53.4283 250.404 53.2642 251.12 53.2642C251.836 53.2642 252.461 53.4283 252.994 53.7564C253.528 54.0845 253.942 54.5452 254.237 55.1385C254.532 55.7318 254.68 56.4245 254.68 57.2166C254.68 58.0054 254.532 58.6948 254.237 59.2848C253.942 59.8748 253.528 60.3338 252.994 60.6619C252.461 60.9901 251.836 61.1541 251.12 61.1541ZM251.125 59.9062C251.589 59.9062 251.974 59.7836 252.279 59.5384C252.584 59.2931 252.809 58.9666 252.955 58.5589C253.104 58.1513 253.178 57.7022 253.178 57.2116C253.178 56.7244 253.104 56.277 252.955 55.8693C252.809 55.4583 252.584 55.1286 252.279 54.88C251.974 54.6314 251.589 54.5071 251.125 54.5071C250.658 54.5071 250.27 54.6314 249.962 54.88C249.657 55.1286 249.43 55.4583 249.281 55.8693C249.135 56.277 249.062 56.7244 249.062 57.2116C249.062 57.7022 249.135 58.1513 249.281 58.5589C249.43 58.9666 249.657 59.2931 249.962 59.5384C250.27 59.7836 250.658 59.9062 251.125 59.9062ZM262.612 53.3636L259.843 61H258.252L255.478 53.3636H257.074L259.008 59.2401H259.087L261.016 53.3636H262.612ZM267.04 61.1541C266.288 61.1541 265.64 60.9934 265.097 60.6719C264.556 60.3471 264.139 59.8913 263.844 59.3047C263.552 58.7147 263.406 58.0237 263.406 57.2315C263.406 56.4493 263.552 55.7599 263.844 55.1634C264.139 54.5668 264.55 54.1011 265.077 53.7663C265.607 53.4316 266.227 53.2642 266.936 53.2642C267.367 53.2642 267.785 53.3355 268.189 53.478C268.593 53.6205 268.956 53.8442 269.278 54.1491C269.599 54.4541 269.853 54.8501 270.038 55.3374C270.224 55.8213 270.317 56.4096 270.317 57.1023V57.6293H264.246V56.5156H268.86C268.86 56.1245 268.781 55.7782 268.621 55.4766C268.462 55.1716 268.239 54.9313 267.95 54.7557C267.665 54.58 267.33 54.4922 266.946 54.4922C266.528 54.4922 266.164 54.5949 265.852 54.8004C265.544 55.0026 265.305 55.2678 265.136 55.5959C264.971 55.9207 264.888 56.2737 264.888 56.6548V57.5249C264.888 58.0353 264.977 58.4695 265.156 58.8274C265.339 59.1854 265.592 59.4588 265.917 59.6477C266.242 59.8333 266.621 59.9261 267.055 59.9261C267.337 59.9261 267.594 59.8864 267.826 59.8068C268.058 59.724 268.259 59.6013 268.428 59.4389C268.597 59.2765 268.726 59.076 268.815 58.8374L270.222 59.0909C270.11 59.5052 269.907 59.8681 269.616 60.1797C269.327 60.4879 268.964 60.7282 268.527 60.9006C268.093 61.0696 267.597 61.1541 267.04 61.1541ZM278.888 61.1541C278.172 61.1541 277.547 60.9901 277.013 60.6619C276.48 60.3338 276.066 59.8748 275.771 59.2848C275.476 58.6948 275.328 58.0054 275.328 57.2166C275.328 56.4245 275.476 55.7318 275.771 55.1385C276.066 54.5452 276.48 54.0845 277.013 53.7564C277.547 53.4283 278.172 53.2642 278.888 53.2642C279.604 53.2642 280.228 53.4283 280.762 53.7564C281.296 54.0845 281.71 54.5452 282.005 55.1385C282.3 55.7318 282.447 56.4245 282.447 57.2166C282.447 58.0054 282.3 58.6948 282.005 59.2848C281.71 59.8748 281.296 60.3338 280.762 60.6619C280.228 60.9901 279.604 61.1541 278.888 61.1541ZM278.893 59.9062C279.357 59.9062 279.741 59.7836 280.046 59.5384C280.351 59.2931 280.576 58.9666 280.722 58.5589C280.871 58.1513 280.946 57.7022 280.946 57.2116C280.946 56.7244 280.871 56.277 280.722 55.8693C280.576 55.4583 280.351 55.1286 280.046 54.88C279.741 54.6314 279.357 54.5071 278.893 54.5071C278.425 54.5071 278.038 54.6314 277.729 54.88C277.424 55.1286 277.197 55.4583 277.048 55.8693C276.902 56.277 276.83 56.7244 276.83 57.2116C276.83 57.7022 276.902 58.1513 277.048 58.5589C277.197 58.9666 277.424 59.2931 277.729 59.5384C278.038 59.7836 278.425 59.9062 278.893 59.9062ZM288.944 57.8331V53.3636H290.436V61H288.974V59.6776H288.894C288.719 60.0852 288.437 60.425 288.049 60.6967C287.665 60.9652 287.186 61.0994 286.612 61.0994C286.122 61.0994 285.688 60.9917 285.31 60.7763C284.935 60.5575 284.64 60.2344 284.425 59.8068C284.213 59.3793 284.107 58.8506 284.107 58.2209V53.3636H285.593V58.0419C285.593 58.5623 285.737 58.9766 286.026 59.2848C286.314 59.593 286.689 59.7472 287.149 59.7472C287.428 59.7472 287.704 59.6776 287.98 59.5384C288.258 59.3991 288.488 59.1887 288.671 58.907C288.856 58.6252 288.947 58.2673 288.944 57.8331ZM292.433 61V53.3636H293.87V54.5767H293.949C294.088 54.1657 294.334 53.8426 294.685 53.6072C295.04 53.3686 295.441 53.2493 295.888 53.2493C295.981 53.2493 296.09 53.2526 296.216 53.2592C296.346 53.2659 296.447 53.2741 296.52 53.2841V54.706C296.46 54.6894 296.354 54.6712 296.201 54.6513C296.049 54.6281 295.896 54.6165 295.744 54.6165C295.393 54.6165 295.079 54.6911 294.804 54.8402C294.533 54.986 294.317 55.1899 294.158 55.4517C293.999 55.7102 293.919 56.0052 293.919 56.3366V61H292.433ZM301.511 63.8636V53.3636H302.963V54.6016H303.087C303.173 54.4425 303.297 54.2585 303.46 54.0497C303.622 53.8409 303.848 53.6586 304.136 53.5028C304.424 53.3438 304.806 53.2642 305.279 53.2642C305.896 53.2642 306.446 53.42 306.93 53.7315C307.414 54.0431 307.793 54.4922 308.069 55.0788C308.347 55.6655 308.486 56.3714 308.486 57.1967C308.486 58.022 308.349 58.7296 308.074 59.3196C307.798 59.9062 307.421 60.3587 306.94 60.6768C306.459 60.9917 305.911 61.1491 305.294 61.1491C304.83 61.1491 304.451 61.0713 304.156 60.9155C303.864 60.7597 303.636 60.5774 303.47 60.3686C303.304 60.1598 303.176 59.9742 303.087 59.8118H302.998V63.8636H301.511ZM302.968 57.1818C302.968 57.7187 303.046 58.1894 303.201 58.5938C303.357 58.9981 303.583 59.3146 303.877 59.5433C304.172 59.7687 304.534 59.8814 304.961 59.8814C305.405 59.8814 305.777 59.7637 306.075 59.5284C306.373 59.2898 306.599 58.9666 306.751 58.5589C306.907 58.1513 306.985 57.6922 306.985 57.1818C306.985 56.678 306.908 56.2256 306.756 55.8246C306.607 55.4235 306.382 55.107 306.08 54.875C305.782 54.643 305.409 54.527 304.961 54.527C304.53 54.527 304.166 54.638 303.868 54.8601C303.573 55.0821 303.349 55.392 303.196 55.7898C303.044 56.1875 302.968 56.6515 302.968 57.1818ZM310.152 61V53.3636H311.588V54.5767H311.668C311.807 54.1657 312.052 53.8426 312.404 53.6072C312.758 53.3686 313.159 53.2493 313.607 53.2493C313.7 53.2493 313.809 53.2526 313.935 53.2592C314.064 53.2659 314.165 53.2741 314.238 53.2841V54.706C314.179 54.6894 314.073 54.6712 313.92 54.6513C313.768 54.6281 313.615 54.6165 313.463 54.6165C313.111 54.6165 312.798 54.6911 312.523 54.8402C312.251 54.986 312.036 55.1899 311.877 55.4517C311.718 55.7102 311.638 56.0052 311.638 56.3366V61H310.152ZM318.468 61.1541C317.752 61.1541 317.127 60.9901 316.594 60.6619C316.06 60.3338 315.646 59.8748 315.351 59.2848C315.056 58.6948 314.908 58.0054 314.908 57.2166C314.908 56.4245 315.056 55.7318 315.351 55.1385C315.646 54.5452 316.06 54.0845 316.594 53.7564C317.127 53.4283 317.752 53.2642 318.468 53.2642C319.184 53.2642 319.809 53.4283 320.342 53.7564C320.876 54.0845 321.29 54.5452 321.585 55.1385C321.88 55.7318 322.028 56.4245 322.028 57.2166C322.028 58.0054 321.88 58.6948 321.585 59.2848C321.29 59.8748 320.876 60.3338 320.342 60.6619C319.809 60.9901 319.184 61.1541 318.468 61.1541ZM318.473 59.9062C318.937 59.9062 319.321 59.7836 319.626 59.5384C319.931 59.2931 320.157 58.9666 320.302 58.5589C320.452 58.1513 320.526 57.7022 320.526 57.2116C320.526 56.7244 320.452 56.277 320.302 55.8693C320.157 55.4583 319.931 55.1286 319.626 54.88C319.321 54.6314 318.937 54.5071 318.473 54.5071C318.006 54.5071 317.618 54.6314 317.309 54.88C317.005 55.1286 316.778 55.4583 316.628 55.8693C316.483 56.277 316.41 56.7244 316.41 57.2116C316.41 57.7022 316.483 58.1513 316.628 58.5589C316.778 58.9666 317.005 59.2931 317.309 59.5384C317.618 59.7836 318.006 59.9062 318.473 59.9062ZM326.545 61.1491C325.929 61.1491 325.379 60.9917 324.895 60.6768C324.414 60.3587 324.036 59.9062 323.761 59.3196C323.49 58.7296 323.354 58.022 323.354 57.1967C323.354 56.3714 323.491 55.6655 323.766 55.0788C324.045 54.4922 324.426 54.0431 324.91 53.7315C325.394 53.42 325.942 53.2642 326.555 53.2642C327.029 53.2642 327.411 53.3438 327.699 53.5028C327.991 53.6586 328.216 53.8409 328.375 54.0497C328.537 54.2585 328.663 54.4425 328.753 54.6016H328.842V50.8182H330.329V61H328.877V59.8118H328.753C328.663 59.9742 328.534 60.1598 328.365 60.3686C328.199 60.5774 327.971 60.7597 327.679 60.9155C327.387 61.0713 327.009 61.1491 326.545 61.1491ZM326.874 59.8814C327.301 59.8814 327.662 59.7687 327.957 59.5433C328.256 59.3146 328.481 58.9981 328.634 58.5938C328.789 58.1894 328.867 57.7187 328.867 57.1818C328.867 56.6515 328.791 56.1875 328.638 55.7898C328.486 55.392 328.262 55.0821 327.967 54.8601C327.672 54.638 327.308 54.527 326.874 54.527C326.426 54.527 326.053 54.643 325.755 54.875C325.457 55.107 325.231 55.4235 325.079 55.8246C324.93 56.2256 324.855 56.678 324.855 57.1818C324.855 57.6922 324.931 58.1513 325.084 58.5589C325.236 58.9666 325.462 59.2898 325.76 59.5284C326.062 59.7637 326.433 59.8814 326.874 59.8814ZM337.288 57.8331V53.3636H338.779V61H337.318V59.6776H337.238C337.062 60.0852 336.781 60.425 336.393 60.6967C336.008 60.9652 335.53 61.0994 334.956 61.0994C334.466 61.0994 334.031 60.9917 333.654 60.7763C333.279 60.5575 332.984 60.2344 332.769 59.8068C332.557 59.3793 332.45 58.8506 332.45 58.2209V53.3636H333.937V58.0419C333.937 58.5623 334.081 58.9766 334.369 59.2848C334.658 59.593 335.032 59.7472 335.493 59.7472C335.771 59.7472 336.048 59.6776 336.323 59.5384C336.602 59.3991 336.832 59.1887 337.014 58.907C337.2 58.6252 337.291 58.2673 337.288 57.8331ZM343.993 61.1541C343.254 61.1541 342.618 60.9867 342.084 60.652C341.554 60.3139 341.146 59.8482 340.861 59.255C340.576 58.6617 340.434 57.9822 340.434 57.2166C340.434 56.4411 340.579 55.7566 340.871 55.1634C341.163 54.5668 341.574 54.1011 342.104 53.7663C342.634 53.4316 343.259 53.2642 343.978 53.2642C344.558 53.2642 345.075 53.3719 345.529 53.5874C345.984 53.7995 346.35 54.0978 346.628 54.4822C346.91 54.8667 347.077 55.3158 347.13 55.8295H345.684C345.604 55.4716 345.422 55.1634 345.137 54.9048C344.855 54.6463 344.477 54.517 344.003 54.517C343.589 54.517 343.226 54.6264 342.914 54.8452C342.606 55.0606 342.366 55.3688 342.194 55.7699C342.021 56.1676 341.935 56.6383 341.935 57.1818C341.935 57.7386 342.02 58.2192 342.189 58.6236C342.358 59.0279 342.596 59.3411 342.904 59.5632C343.216 59.7853 343.582 59.8963 344.003 59.8963C344.285 59.8963 344.54 59.8449 344.769 59.7422C345.001 59.6361 345.195 59.4853 345.35 59.2898C345.51 59.0942 345.621 58.8589 345.684 58.5838H347.13C347.077 59.0777 346.917 59.5185 346.648 59.9062C346.38 60.294 346.02 60.599 345.569 60.821C345.122 61.0431 344.596 61.1541 343.993 61.1541ZM352.285 53.3636V54.5568H348.113V53.3636H352.285ZM349.232 51.5341H350.719V58.7578C350.719 59.0462 350.762 59.2633 350.848 59.4091C350.934 59.5516 351.045 59.6494 351.181 59.7024C351.32 59.7521 351.471 59.777 351.633 59.777C351.753 59.777 351.857 59.7687 351.947 59.7521C352.036 59.7356 352.106 59.7223 352.155 59.7124L352.424 60.9403C352.338 60.9735 352.215 61.0066 352.056 61.0398C351.897 61.0762 351.698 61.0961 351.459 61.0994C351.068 61.1061 350.704 61.0365 350.366 60.8906C350.028 60.7448 349.754 60.5194 349.545 60.2145C349.336 59.9096 349.232 59.5268 349.232 59.0661V51.5341ZM354.908 61.0945C354.637 61.0945 354.403 60.9983 354.207 60.8061C354.012 60.6106 353.914 60.3752 353.914 60.1001C353.914 59.8284 354.012 59.5964 354.207 59.4041C354.403 59.2086 354.637 59.1108 354.908 59.1108C355.18 59.1108 355.414 59.2086 355.609 59.4041C355.805 59.5964 355.903 59.8284 355.903 60.1001C355.903 60.2824 355.856 60.4498 355.763 60.6023C355.674 60.7514 355.555 60.8707 355.406 60.9602C355.256 61.0497 355.091 61.0945 354.908 61.0945Z" fill="#A3A3A3"/>
<path d="M20 80.5H412C413.933 80.5 415.5 82.067 415.5 84V116C415.5 117.933 413.933 119.5 412 119.5H20C18.067 119.5 16.5 117.933 16.5 116V84C16.5 82.067 18.067 80.5 20 80.5Z" fill="white"/>
<path d="M20 80.5H412C413.933 80.5 415.5 82.067 415.5 84V116C415.5 117.933 413.933 119.5 412 119.5H20C18.067 119.5 16.5 117.933 16.5 116V84C16.5 82.067 18.067 80.5 20 80.5Z" stroke="#E5E5E5"/>
<path d="M29.2784 106V94.3636H36.5739V95.875H31.0341V99.4205H36.1932V100.926H31.0341V104.489H36.642V106H29.2784ZM38.7827 106V97.2727H40.4134V98.6932H40.5213C40.7031 98.2121 41.0005 97.8371 41.4134 97.5682C41.8262 97.2955 42.3205 97.1591 42.8963 97.1591C43.4796 97.1591 43.9683 97.2955 44.3622 97.5682C44.7599 97.8409 45.0535 98.2159 45.2429 98.6932H45.3338C45.5421 98.2273 45.8736 97.8561 46.3281 97.5795C46.7827 97.2992 47.3243 97.1591 47.9531 97.1591C48.7448 97.1591 49.3906 97.4072 49.8906 97.9034C50.3944 98.3996 50.6463 99.1477 50.6463 100.148V106H48.9474V100.307C48.9474 99.7159 48.7865 99.2879 48.4645 99.0227C48.1425 98.7576 47.758 98.625 47.3111 98.625C46.758 98.625 46.3281 98.7955 46.0213 99.1364C45.7145 99.4735 45.5611 99.9072 45.5611 100.438V106H43.8679V100.199C43.8679 99.7254 43.7202 99.3447 43.4247 99.0568C43.1293 98.7689 42.7448 98.625 42.2713 98.625C41.9493 98.625 41.652 98.7102 41.3793 98.8807C41.1103 99.0473 40.8925 99.2803 40.7259 99.5795C40.563 99.8788 40.4815 100.225 40.4815 100.619V106H38.7827ZM55.4631 106.193C54.91 106.193 54.41 106.091 53.9631 105.886C53.5161 105.678 53.1619 105.377 52.9006 104.983C52.643 104.589 52.5142 104.106 52.5142 103.534C52.5142 103.042 52.6089 102.636 52.7983 102.318C52.9877 102 53.2434 101.748 53.5653 101.562C53.8873 101.377 54.2472 101.237 54.6449 101.142C55.0426 101.047 55.4479 100.975 55.8608 100.926C56.3835 100.866 56.8078 100.816 57.1335 100.778C57.4593 100.737 57.696 100.67 57.8438 100.58C57.9915 100.489 58.0653 100.341 58.0653 100.136V100.097C58.0653 99.6004 57.9252 99.2159 57.6449 98.9432C57.3684 98.6705 56.9555 98.5341 56.4062 98.5341C55.8343 98.5341 55.3835 98.661 55.054 98.9148C54.7282 99.1648 54.5028 99.4432 54.3778 99.75L52.7812 99.3864C52.9706 98.8561 53.2472 98.428 53.6108 98.1023C53.9782 97.7727 54.4006 97.5341 54.8778 97.3864C55.3551 97.2348 55.857 97.1591 56.3835 97.1591C56.732 97.1591 57.1013 97.2008 57.4915 97.2841C57.8854 97.3636 58.2528 97.5114 58.5938 97.7273C58.9384 97.9432 59.2206 98.2519 59.4403 98.6534C59.66 99.0511 59.7699 99.5682 59.7699 100.205V106H58.1108V104.807H58.0426C57.9328 105.027 57.768 105.242 57.5483 105.455C57.3286 105.667 57.0464 105.843 56.7017 105.983C56.357 106.123 55.9441 106.193 55.4631 106.193ZM55.8324 104.83C56.3021 104.83 56.7036 104.737 57.0369 104.551C57.3741 104.366 57.6297 104.123 57.804 103.824C57.982 103.521 58.071 103.197 58.071 102.852V101.727C58.0104 101.788 57.893 101.845 57.7188 101.898C57.5483 101.947 57.3532 101.991 57.1335 102.028C56.9138 102.062 56.6998 102.095 56.4915 102.125C56.2831 102.152 56.1089 102.174 55.9688 102.193C55.6392 102.235 55.3381 102.305 55.0653 102.403C54.7964 102.502 54.5805 102.644 54.4176 102.83C54.2585 103.011 54.179 103.254 54.179 103.557C54.179 103.977 54.3343 104.295 54.6449 104.511C54.9555 104.723 55.3513 104.83 55.8324 104.83ZM62.0327 106V97.2727H63.7315V106H62.0327ZM62.8906 95.9261C62.5952 95.9261 62.3414 95.8277 62.1293 95.6307C61.9209 95.4299 61.8168 95.1913 61.8168 94.9148C61.8168 94.6345 61.9209 94.3958 62.1293 94.1989C62.3414 93.9981 62.5952 93.8977 62.8906 93.8977C63.1861 93.8977 63.438 93.9981 63.6463 94.1989C63.8584 94.3958 63.9645 94.6345 63.9645 94.9148C63.9645 95.1913 63.8584 95.4299 63.6463 95.6307C63.438 95.8277 63.1861 95.9261 62.8906 95.9261ZM67.7159 94.3636V106H66.017V94.3636H67.7159Z" fill="#A3A3A3"/>
<path d="M24 128.5H408C412.142 128.5 415.5 131.858 415.5 136V280C415.5 284.142 412.142 287.5 408 287.5H24C19.8579 287.5 16.5 284.142 16.5 280V136C16.5 131.858 19.8579 128.5 24 128.5Z" fill="white"/>
<path d="M24 128.5H408C412.142 128.5 415.5 131.858 415.5 136V280C415.5 284.142 412.142 287.5 408 287.5H24C19.8579 287.5 16.5 284.142 16.5 280V136C16.5 131.858 19.8579 128.5 24 128.5Z" stroke="#E5E5E5"/>
<path d="M31.5568 154L28.3295 142.364H30.1761L32.4432 151.375H32.5511L34.9091 142.364H36.7386L39.0966 151.381H39.2045L41.4659 142.364H43.3182L40.0852 154H38.3182L35.8693 145.284H35.7784L33.3295 154H31.5568ZM44.2358 154V145.273H45.8778V146.659H45.9688C46.1278 146.189 46.4081 145.82 46.8097 145.551C47.215 145.278 47.6733 145.142 48.1847 145.142C48.2907 145.142 48.4157 145.146 48.5597 145.153C48.7074 145.161 48.8229 145.17 48.9062 145.182V146.807C48.8381 146.788 48.7169 146.767 48.5426 146.744C48.3684 146.718 48.1941 146.705 48.0199 146.705C47.6184 146.705 47.2604 146.79 46.946 146.96C46.6354 147.127 46.3892 147.36 46.2074 147.659C46.0256 147.955 45.9347 148.292 45.9347 148.67V154H44.2358ZM50.3764 154V145.273H52.0753V154H50.3764ZM51.2344 143.926C50.9389 143.926 50.6851 143.828 50.473 143.631C50.2647 143.43 50.1605 143.191 50.1605 142.915C50.1605 142.634 50.2647 142.396 50.473 142.199C50.6851 141.998 50.9389 141.898 51.2344 141.898C51.5298 141.898 51.7817 141.998 51.9901 142.199C52.2022 142.396 52.3082 142.634 52.3082 142.915C52.3082 143.191 52.2022 143.43 51.9901 143.631C51.7817 143.828 51.5298 143.926 51.2344 143.926ZM58.4347 145.273V146.636H53.6676V145.273H58.4347ZM54.946 143.182H56.6449V151.438C56.6449 151.767 56.6941 152.015 56.7926 152.182C56.8911 152.345 57.018 152.456 57.1733 152.517C57.3324 152.574 57.5047 152.602 57.6903 152.602C57.8267 152.602 57.946 152.593 58.0483 152.574C58.1506 152.555 58.2301 152.54 58.2869 152.528L58.5938 153.932C58.4953 153.97 58.3551 154.008 58.1733 154.045C57.9915 154.087 57.7642 154.11 57.4915 154.114C57.0445 154.121 56.6278 154.042 56.2415 153.875C55.8551 153.708 55.5426 153.451 55.304 153.102C55.0653 152.754 54.946 152.316 54.946 151.79V143.182ZM63.9815 154.176C63.1217 154.176 62.3812 153.992 61.7599 153.625C61.1425 153.254 60.6652 152.733 60.3281 152.062C59.9948 151.388 59.8281 150.598 59.8281 149.693C59.8281 148.799 59.9948 148.011 60.3281 147.33C60.6652 146.648 61.1349 146.116 61.7372 145.733C62.3433 145.35 63.0516 145.159 63.8622 145.159C64.3546 145.159 64.8319 145.241 65.294 145.403C65.7562 145.566 66.1709 145.822 66.5384 146.17C66.9058 146.519 67.1955 146.972 67.4077 147.528C67.6198 148.081 67.7259 148.754 67.7259 149.545V150.148H60.7884V148.875H66.0611C66.0611 148.428 65.9702 148.032 65.7884 147.688C65.6065 147.339 65.3509 147.064 65.0213 146.864C64.6955 146.663 64.313 146.562 63.8736 146.562C63.3963 146.562 62.9796 146.68 62.6236 146.915C62.2713 147.146 61.9986 147.449 61.8054 147.824C61.616 148.195 61.5213 148.598 61.5213 149.034V150.028C61.5213 150.612 61.6236 151.108 61.8281 151.517C62.0365 151.926 62.3262 152.239 62.6974 152.455C63.0687 152.667 63.5024 152.773 63.9986 152.773C64.3205 152.773 64.6141 152.727 64.8793 152.636C65.1444 152.542 65.3736 152.402 65.5668 152.216C65.7599 152.03 65.9077 151.801 66.0099 151.528L67.6179 151.818C67.4891 152.292 67.258 152.706 66.9247 153.062C66.5952 153.415 66.1804 153.689 65.6804 153.886C65.1842 154.08 64.6179 154.176 63.9815 154.176ZM74.919 157.273C74.6652 157.273 74.4342 157.252 74.2259 157.21C74.0175 157.172 73.8622 157.131 73.7599 157.085L74.169 155.693C74.4796 155.777 74.7562 155.813 74.9986 155.801C75.241 155.79 75.455 155.699 75.6406 155.528C75.83 155.358 75.9967 155.08 76.1406 154.693L76.3509 154.114L73.1577 145.273H74.9759L77.1861 152.045H77.277L79.4872 145.273H81.3111L77.7145 155.165C77.5478 155.619 77.3357 156.004 77.0781 156.318C76.8205 156.636 76.5137 156.875 76.1577 157.034C75.8016 157.193 75.3887 157.273 74.919 157.273ZM86.2869 154.176C85.4688 154.176 84.7547 153.989 84.1449 153.614C83.535 153.239 83.0616 152.714 82.7244 152.04C82.3873 151.366 82.2188 150.578 82.2188 149.676C82.2188 148.771 82.3873 147.979 82.7244 147.301C83.0616 146.623 83.535 146.097 84.1449 145.722C84.7547 145.347 85.4688 145.159 86.2869 145.159C87.1051 145.159 87.8191 145.347 88.429 145.722C89.0388 146.097 89.5123 146.623 89.8494 147.301C90.1866 147.979 90.3551 148.771 90.3551 149.676C90.3551 150.578 90.1866 151.366 89.8494 152.04C89.5123 152.714 89.0388 153.239 88.429 153.614C87.8191 153.989 87.1051 154.176 86.2869 154.176ZM86.2926 152.75C86.8229 152.75 87.2623 152.61 87.6108 152.33C87.9593 152.049 88.2169 151.676 88.3835 151.21C88.554 150.744 88.6392 150.231 88.6392 149.67C88.6392 149.114 88.554 148.602 88.3835 148.136C88.2169 147.667 87.9593 147.29 87.6108 147.006C87.2623 146.722 86.8229 146.58 86.2926 146.58C85.7585 146.58 85.3153 146.722 84.9631 147.006C84.6146 147.29 84.3551 147.667 84.1847 148.136C84.018 148.602 83.9347 149.114 83.9347 149.67C83.9347 150.231 84.018 150.744 84.1847 151.21C84.3551 151.676 84.6146 152.049 84.9631 152.33C85.3153 152.61 85.7585 152.75 86.2926 152.75ZM97.7798 150.381V145.273H99.4844V154H97.8139V152.489H97.723C97.5223 152.955 97.2003 153.343 96.7571 153.653C96.3177 153.96 95.7704 154.114 95.1151 154.114C94.5545 154.114 94.0582 153.991 93.6264 153.744C93.1984 153.494 92.8613 153.125 92.6151 152.636C92.3726 152.148 92.2514 151.544 92.2514 150.824V145.273H93.9503V150.619C93.9503 151.214 94.1151 151.687 94.4446 152.04C94.7741 152.392 95.2022 152.568 95.7287 152.568C96.0469 152.568 96.3632 152.489 96.6776 152.33C96.9957 152.17 97.259 151.93 97.4673 151.608C97.6795 151.286 97.7836 150.877 97.7798 150.381ZM101.767 154V145.273H103.409V146.659H103.5C103.659 146.189 103.939 145.82 104.341 145.551C104.746 145.278 105.205 145.142 105.716 145.142C105.822 145.142 105.947 145.146 106.091 145.153C106.239 145.161 106.354 145.17 106.438 145.182V146.807C106.369 146.788 106.248 146.767 106.074 146.744C105.9 146.718 105.725 146.705 105.551 146.705C105.15 146.705 104.792 146.79 104.477 146.96C104.167 147.127 103.92 147.36 103.739 147.659C103.557 147.955 103.466 148.292 103.466 148.67V154H101.767ZM116.295 145.273V146.636H111.364V145.273H116.295ZM112.716 154V144.261C112.716 143.716 112.835 143.263 113.074 142.903C113.313 142.54 113.629 142.269 114.023 142.091C114.417 141.909 114.845 141.818 115.307 141.818C115.648 141.818 115.939 141.847 116.182 141.903C116.424 141.956 116.604 142.006 116.722 142.051L116.324 143.426C116.244 143.403 116.142 143.377 116.017 143.347C115.892 143.312 115.741 143.295 115.562 143.295C115.15 143.295 114.854 143.398 114.676 143.602C114.502 143.807 114.415 144.102 114.415 144.489V154H112.716ZM121.466 154.176C120.606 154.176 119.866 153.992 119.244 153.625C118.627 153.254 118.15 152.733 117.812 152.062C117.479 151.388 117.312 150.598 117.312 149.693C117.312 148.799 117.479 148.011 117.812 147.33C118.15 146.648 118.619 146.116 119.222 145.733C119.828 145.35 120.536 145.159 121.347 145.159C121.839 145.159 122.316 145.241 122.778 145.403C123.241 145.566 123.655 145.822 124.023 146.17C124.39 146.519 124.68 146.972 124.892 147.528C125.104 148.081 125.21 148.754 125.21 149.545V150.148H118.273V148.875H123.545C123.545 148.428 123.455 148.032 123.273 147.688C123.091 147.339 122.835 147.064 122.506 146.864C122.18 146.663 121.797 146.562 121.358 146.562C120.881 146.562 120.464 146.68 120.108 146.915C119.756 147.146 119.483 147.449 119.29 147.824C119.1 148.195 119.006 148.598 119.006 149.034V150.028C119.006 150.612 119.108 151.108 119.312 151.517C119.521 151.926 119.811 152.239 120.182 152.455C120.553 152.667 120.987 152.773 121.483 152.773C121.805 152.773 122.098 152.727 122.364 152.636C122.629 152.542 122.858 152.402 123.051 152.216C123.244 152.03 123.392 151.801 123.494 151.528L125.102 151.818C124.973 152.292 124.742 152.706 124.409 153.062C124.08 153.415 123.665 153.689 123.165 153.886C122.669 154.08 122.102 154.176 121.466 154.176ZM130.857 154.176C129.997 154.176 129.256 153.992 128.635 153.625C128.018 153.254 127.54 152.733 127.203 152.062C126.87 151.388 126.703 150.598 126.703 149.693C126.703 148.799 126.87 148.011 127.203 147.33C127.54 146.648 128.01 146.116 128.612 145.733C129.218 145.35 129.927 145.159 130.737 145.159C131.23 145.159 131.707 145.241 132.169 145.403C132.631 145.566 133.046 145.822 133.413 146.17C133.781 146.519 134.071 146.972 134.283 147.528C134.495 148.081 134.601 148.754 134.601 149.545V150.148H127.663V148.875H132.936C132.936 148.428 132.845 148.032 132.663 147.688C132.482 147.339 132.226 147.064 131.896 146.864C131.571 146.663 131.188 146.562 130.749 146.562C130.271 146.562 129.855 146.68 129.499 146.915C129.146 147.146 128.874 147.449 128.68 147.824C128.491 148.195 128.396 148.598 128.396 149.034V150.028C128.396 150.612 128.499 151.108 128.703 151.517C128.911 151.926 129.201 152.239 129.572 152.455C129.944 152.667 130.377 152.773 130.874 152.773C131.196 152.773 131.489 152.727 131.754 152.636C132.019 152.542 132.249 152.402 132.442 152.216C132.635 152.03 132.783 151.801 132.885 151.528L134.493 151.818C134.364 152.292 134.133 152.706 133.8 153.062C133.47 153.415 133.055 153.689 132.555 153.886C132.059 154.08 131.493 154.176 130.857 154.176ZM139.753 154.17C139.048 154.17 138.42 153.991 137.866 153.631C137.317 153.267 136.885 152.75 136.571 152.08C136.26 151.405 136.105 150.597 136.105 149.653C136.105 148.71 136.262 147.903 136.577 147.233C136.895 146.562 137.33 146.049 137.884 145.693C138.437 145.337 139.063 145.159 139.764 145.159C140.306 145.159 140.741 145.25 141.071 145.432C141.404 145.61 141.662 145.818 141.844 146.057C142.029 146.295 142.173 146.506 142.276 146.688H142.378V142.364H144.077V154H142.418V152.642H142.276C142.173 152.828 142.026 153.04 141.832 153.278C141.643 153.517 141.382 153.725 141.048 153.903C140.715 154.081 140.283 154.17 139.753 154.17ZM140.128 152.722C140.616 152.722 141.029 152.593 141.366 152.335C141.707 152.074 141.965 151.712 142.139 151.25C142.317 150.788 142.406 150.25 142.406 149.636C142.406 149.03 142.319 148.5 142.145 148.045C141.971 147.591 141.715 147.237 141.378 146.983C141.041 146.729 140.624 146.602 140.128 146.602C139.616 146.602 139.19 146.735 138.849 147C138.509 147.265 138.251 147.627 138.077 148.085C137.906 148.544 137.821 149.061 137.821 149.636C137.821 150.22 137.908 150.744 138.082 151.21C138.257 151.676 138.514 152.045 138.855 152.318C139.2 152.587 139.624 152.722 140.128 152.722ZM146.638 154V142.364H148.337V146.688H148.439C148.537 146.506 148.679 146.295 148.865 146.057C149.051 145.818 149.308 145.61 149.638 145.432C149.967 145.25 150.403 145.159 150.945 145.159C151.649 145.159 152.278 145.337 152.831 145.693C153.384 146.049 153.818 146.562 154.132 147.233C154.45 147.903 154.609 148.71 154.609 149.653C154.609 150.597 154.452 151.405 154.138 152.08C153.823 152.75 153.392 153.267 152.842 153.631C152.293 153.991 151.666 154.17 150.962 154.17C150.431 154.17 149.998 154.081 149.661 153.903C149.327 153.725 149.066 153.517 148.876 153.278C148.687 153.04 148.541 152.828 148.439 152.642H148.297V154H146.638ZM148.303 149.636C148.303 150.25 148.392 150.788 148.57 151.25C148.748 151.712 149.005 152.074 149.342 152.335C149.679 152.593 150.092 152.722 150.581 152.722C151.089 152.722 151.513 152.587 151.854 152.318C152.195 152.045 152.452 151.676 152.626 151.21C152.804 150.744 152.893 150.22 152.893 149.636C152.893 149.061 152.806 148.544 152.632 148.085C152.462 147.627 152.204 147.265 151.859 147C151.518 146.735 151.092 146.602 150.581 146.602C150.089 146.602 149.672 146.729 149.331 146.983C148.994 147.237 148.738 147.591 148.564 148.045C148.39 148.5 148.303 149.03 148.303 149.636ZM159.057 154.193C158.504 154.193 158.004 154.091 157.557 153.886C157.11 153.678 156.756 153.377 156.494 152.983C156.237 152.589 156.108 152.106 156.108 151.534C156.108 151.042 156.203 150.636 156.392 150.318C156.581 150 156.837 149.748 157.159 149.562C157.481 149.377 157.841 149.237 158.239 149.142C158.636 149.047 159.042 148.975 159.455 148.926C159.977 148.866 160.402 148.816 160.727 148.778C161.053 148.737 161.29 148.67 161.438 148.58C161.585 148.489 161.659 148.341 161.659 148.136V148.097C161.659 147.6 161.519 147.216 161.239 146.943C160.962 146.67 160.549 146.534 160 146.534C159.428 146.534 158.977 146.661 158.648 146.915C158.322 147.165 158.097 147.443 157.972 147.75L156.375 147.386C156.564 146.856 156.841 146.428 157.205 146.102C157.572 145.773 157.994 145.534 158.472 145.386C158.949 145.235 159.451 145.159 159.977 145.159C160.326 145.159 160.695 145.201 161.085 145.284C161.479 145.364 161.847 145.511 162.188 145.727C162.532 145.943 162.814 146.252 163.034 146.653C163.254 147.051 163.364 147.568 163.364 148.205V154H161.705V152.807H161.636C161.527 153.027 161.362 153.242 161.142 153.455C160.922 153.667 160.64 153.843 160.295 153.983C159.951 154.123 159.538 154.193 159.057 154.193ZM159.426 152.83C159.896 152.83 160.297 152.737 160.631 152.551C160.968 152.366 161.223 152.123 161.398 151.824C161.576 151.521 161.665 151.197 161.665 150.852V149.727C161.604 149.788 161.487 149.845 161.312 149.898C161.142 149.947 160.947 149.991 160.727 150.028C160.508 150.062 160.294 150.095 160.085 150.125C159.877 150.152 159.703 150.174 159.562 150.193C159.233 150.235 158.932 150.305 158.659 150.403C158.39 150.502 158.174 150.644 158.011 150.83C157.852 151.011 157.773 151.254 157.773 151.557C157.773 151.977 157.928 152.295 158.239 152.511C158.549 152.723 158.945 152.83 159.426 152.83ZM169.303 154.176C168.458 154.176 167.731 153.985 167.121 153.602C166.515 153.216 166.049 152.684 165.723 152.006C165.397 151.328 165.234 150.551 165.234 149.676C165.234 148.79 165.401 148.008 165.734 147.33C166.068 146.648 166.537 146.116 167.143 145.733C167.75 145.35 168.464 145.159 169.286 145.159C169.948 145.159 170.539 145.282 171.058 145.528C171.577 145.771 171.996 146.112 172.314 146.551C172.636 146.991 172.827 147.504 172.888 148.091H171.234C171.143 147.682 170.935 147.33 170.609 147.034C170.287 146.739 169.856 146.591 169.314 146.591C168.84 146.591 168.426 146.716 168.07 146.966C167.717 147.212 167.443 147.564 167.246 148.023C167.049 148.477 166.95 149.015 166.95 149.636C166.95 150.273 167.047 150.822 167.24 151.284C167.433 151.746 167.706 152.104 168.058 152.358C168.414 152.612 168.833 152.739 169.314 152.739C169.636 152.739 169.928 152.68 170.189 152.562C170.454 152.441 170.676 152.269 170.854 152.045C171.036 151.822 171.162 151.553 171.234 151.239H172.888C172.827 151.803 172.643 152.307 172.337 152.75C172.03 153.193 171.619 153.542 171.104 153.795C170.592 154.049 169.992 154.176 169.303 154.176ZM176.267 151.04L176.256 148.966H176.551L180.028 145.273H182.062L178.097 149.477H177.83L176.267 151.04ZM174.705 154V142.364H176.403V154H174.705ZM180.216 154L177.091 149.852L178.261 148.665L182.301 154H180.216Z" fill="#A3A3A3"/>
<path d="M233 304.5H310C311.933 304.5 313.5 306.067 313.5 308V332C313.5 333.933 311.933 335.5 310 335.5H233C231.067 335.5 229.5 333.933 229.5 332V308C229.5 306.067 231.067 304.5 233 304.5Z" stroke="#737373"/>
<path d="M255.943 318.148H254.17C254.102 317.769 253.975 317.436 253.79 317.148C253.604 316.86 253.377 316.616 253.108 316.415C252.839 316.214 252.538 316.062 252.205 315.96C251.875 315.858 251.525 315.807 251.153 315.807C250.483 315.807 249.883 315.975 249.352 316.312C248.826 316.65 248.409 317.144 248.102 317.795C247.799 318.447 247.648 319.242 247.648 320.182C247.648 321.129 247.799 321.928 248.102 322.58C248.409 323.231 248.828 323.723 249.358 324.057C249.888 324.39 250.485 324.557 251.148 324.557C251.515 324.557 251.864 324.508 252.193 324.409C252.527 324.307 252.828 324.157 253.097 323.96C253.366 323.763 253.593 323.523 253.778 323.239C253.968 322.951 254.098 322.621 254.17 322.25L255.943 322.256C255.848 322.828 255.665 323.354 255.392 323.835C255.123 324.312 254.777 324.725 254.352 325.074C253.932 325.419 253.451 325.686 252.909 325.875C252.367 326.064 251.777 326.159 251.136 326.159C250.129 326.159 249.231 325.92 248.443 325.443C247.655 324.962 247.034 324.275 246.58 323.381C246.129 322.487 245.903 321.42 245.903 320.182C245.903 318.939 246.131 317.873 246.585 316.983C247.04 316.089 247.661 315.403 248.449 314.926C249.237 314.445 250.133 314.205 251.136 314.205C251.754 314.205 252.33 314.294 252.864 314.472C253.402 314.646 253.884 314.903 254.312 315.244C254.741 315.581 255.095 315.994 255.375 316.483C255.655 316.968 255.845 317.523 255.943 318.148ZM260.447 326.193C259.894 326.193 259.394 326.091 258.947 325.886C258.5 325.678 258.146 325.377 257.885 324.983C257.627 324.589 257.499 324.106 257.499 323.534C257.499 323.042 257.593 322.636 257.783 322.318C257.972 322 258.228 321.748 258.55 321.562C258.872 321.377 259.232 321.237 259.629 321.142C260.027 321.047 260.432 320.975 260.845 320.926C261.368 320.866 261.792 320.816 262.118 320.778C262.444 320.737 262.68 320.67 262.828 320.58C262.976 320.489 263.05 320.341 263.05 320.136V320.097C263.05 319.6 262.91 319.216 262.629 318.943C262.353 318.67 261.94 318.534 261.391 318.534C260.819 318.534 260.368 318.661 260.038 318.915C259.713 319.165 259.487 319.443 259.362 319.75L257.766 319.386C257.955 318.856 258.232 318.428 258.595 318.102C258.963 317.773 259.385 317.534 259.862 317.386C260.339 317.235 260.841 317.159 261.368 317.159C261.716 317.159 262.086 317.201 262.476 317.284C262.87 317.364 263.237 317.511 263.578 317.727C263.923 317.943 264.205 318.252 264.425 318.653C264.644 319.051 264.754 319.568 264.754 320.205V326H263.095V324.807H263.027C262.917 325.027 262.752 325.242 262.533 325.455C262.313 325.667 262.031 325.843 261.686 325.983C261.341 326.123 260.929 326.193 260.447 326.193ZM260.817 324.83C261.286 324.83 261.688 324.737 262.021 324.551C262.358 324.366 262.614 324.123 262.788 323.824C262.966 323.521 263.055 323.197 263.055 322.852V321.727C262.995 321.788 262.877 321.845 262.703 321.898C262.533 321.947 262.338 321.991 262.118 322.028C261.898 322.062 261.684 322.095 261.476 322.125C261.268 322.152 261.093 322.174 260.953 322.193C260.624 322.235 260.322 322.305 260.05 322.403C259.781 322.502 259.565 322.644 259.402 322.83C259.243 323.011 259.163 323.254 259.163 323.557C259.163 323.977 259.319 324.295 259.629 324.511C259.94 324.723 260.336 324.83 260.817 324.83ZM268.716 320.818V326H267.017V317.273H268.648V318.693H268.756C268.956 318.231 269.271 317.86 269.699 317.58C270.131 317.299 270.674 317.159 271.33 317.159C271.924 317.159 272.445 317.284 272.892 317.534C273.339 317.78 273.686 318.148 273.932 318.636C274.178 319.125 274.301 319.729 274.301 320.449V326H272.602V320.653C272.602 320.021 272.438 319.527 272.108 319.17C271.778 318.811 271.326 318.631 270.75 318.631C270.356 318.631 270.006 318.716 269.699 318.886C269.396 319.057 269.155 319.307 268.977 319.636C268.803 319.962 268.716 320.356 268.716 320.818ZM280.256 326.176C279.411 326.176 278.684 325.985 278.074 325.602C277.468 325.216 277.002 324.684 276.676 324.006C276.35 323.328 276.188 322.551 276.188 321.676C276.188 320.79 276.354 320.008 276.688 319.33C277.021 318.648 277.491 318.116 278.097 317.733C278.703 317.35 279.417 317.159 280.239 317.159C280.902 317.159 281.492 317.282 282.011 317.528C282.53 317.771 282.949 318.112 283.267 318.551C283.589 318.991 283.78 319.504 283.841 320.091H282.188C282.097 319.682 281.888 319.33 281.562 319.034C281.241 318.739 280.809 318.591 280.267 318.591C279.794 318.591 279.379 318.716 279.023 318.966C278.67 319.212 278.396 319.564 278.199 320.023C278.002 320.477 277.903 321.015 277.903 321.636C277.903 322.273 278 322.822 278.193 323.284C278.386 323.746 278.659 324.104 279.011 324.358C279.367 324.612 279.786 324.739 280.267 324.739C280.589 324.739 280.881 324.68 281.142 324.562C281.407 324.441 281.629 324.269 281.807 324.045C281.989 323.822 282.116 323.553 282.188 323.239H283.841C283.78 323.803 283.597 324.307 283.29 324.75C282.983 325.193 282.572 325.542 282.057 325.795C281.545 326.049 280.945 326.176 280.256 326.176ZM289.419 326.176C288.559 326.176 287.819 325.992 287.197 325.625C286.58 325.254 286.103 324.733 285.766 324.062C285.432 323.388 285.266 322.598 285.266 321.693C285.266 320.799 285.432 320.011 285.766 319.33C286.103 318.648 286.572 318.116 287.175 317.733C287.781 317.35 288.489 317.159 289.3 317.159C289.792 317.159 290.269 317.241 290.732 317.403C291.194 317.566 291.608 317.822 291.976 318.17C292.343 318.519 292.633 318.972 292.845 319.528C293.057 320.081 293.163 320.754 293.163 321.545V322.148H286.226V320.875H291.499C291.499 320.428 291.408 320.032 291.226 319.688C291.044 319.339 290.788 319.064 290.459 318.864C290.133 318.663 289.75 318.562 289.311 318.562C288.834 318.562 288.417 318.68 288.061 318.915C287.709 319.146 287.436 319.449 287.243 319.824C287.054 320.195 286.959 320.598 286.959 321.034V322.028C286.959 322.612 287.061 323.108 287.266 323.517C287.474 323.926 287.764 324.239 288.135 324.455C288.506 324.667 288.94 324.773 289.436 324.773C289.758 324.773 290.052 324.727 290.317 324.636C290.582 324.542 290.811 324.402 291.004 324.216C291.197 324.03 291.345 323.801 291.447 323.528L293.055 323.818C292.927 324.292 292.696 324.706 292.362 325.062C292.033 325.415 291.618 325.689 291.118 325.886C290.622 326.08 290.055 326.176 289.419 326.176ZM296.747 314.364V326H295.048V314.364H296.747Z" fill="#737373"/>
<path d="M330 308C330 305.791 331.791 304 334 304H412C414.209 304 416 305.791 416 308V332C416 334.209 414.209 336 412 336H334C331.791 336 330 334.209 330 332V308Z" fill="#171717"/>
<path d="M353.625 317.42C353.564 316.883 353.314 316.466 352.875 316.17C352.436 315.871 351.883 315.722 351.216 315.722C350.739 315.722 350.326 315.797 349.977 315.949C349.629 316.097 349.358 316.301 349.165 316.562C348.975 316.82 348.881 317.114 348.881 317.443C348.881 317.72 348.945 317.958 349.074 318.159C349.206 318.36 349.379 318.528 349.591 318.665C349.807 318.797 350.038 318.909 350.284 319C350.53 319.087 350.767 319.159 350.994 319.216L352.131 319.511C352.502 319.602 352.883 319.725 353.273 319.881C353.663 320.036 354.025 320.241 354.358 320.494C354.691 320.748 354.96 321.062 355.165 321.438C355.373 321.812 355.477 322.261 355.477 322.784C355.477 323.443 355.307 324.028 354.966 324.54C354.629 325.051 354.138 325.455 353.494 325.75C352.854 326.045 352.08 326.193 351.17 326.193C350.299 326.193 349.545 326.055 348.909 325.778C348.273 325.502 347.775 325.11 347.415 324.602C347.055 324.091 346.856 323.485 346.818 322.784H348.58C348.614 323.205 348.75 323.555 348.989 323.835C349.231 324.112 349.54 324.318 349.915 324.455C350.294 324.587 350.708 324.653 351.159 324.653C351.655 324.653 352.097 324.576 352.483 324.42C352.873 324.261 353.18 324.042 353.403 323.761C353.627 323.477 353.739 323.146 353.739 322.767C353.739 322.422 353.64 322.14 353.443 321.92C353.25 321.701 352.987 321.519 352.653 321.375C352.324 321.231 351.951 321.104 351.534 320.994L350.159 320.619C349.227 320.366 348.489 319.992 347.943 319.5C347.402 319.008 347.131 318.356 347.131 317.545C347.131 316.875 347.313 316.29 347.676 315.79C348.04 315.29 348.532 314.902 349.153 314.625C349.775 314.345 350.475 314.205 351.256 314.205C352.044 314.205 352.739 314.343 353.341 314.619C353.947 314.896 354.424 315.277 354.773 315.761C355.121 316.242 355.303 316.795 355.318 317.42H353.625ZM362.967 322.381V317.273H364.672V326H363.001V324.489H362.911C362.71 324.955 362.388 325.343 361.945 325.653C361.505 325.96 360.958 326.114 360.303 326.114C359.742 326.114 359.246 325.991 358.814 325.744C358.386 325.494 358.049 325.125 357.803 324.636C357.56 324.148 357.439 323.544 357.439 322.824V317.273H359.138V322.619C359.138 323.214 359.303 323.687 359.632 324.04C359.962 324.392 360.39 324.568 360.916 324.568C361.234 324.568 361.551 324.489 361.865 324.33C362.183 324.17 362.446 323.93 362.655 323.608C362.867 323.286 362.971 322.877 362.967 322.381ZM367.091 326V314.364H368.79V318.688H368.892C368.991 318.506 369.133 318.295 369.318 318.057C369.504 317.818 369.761 317.61 370.091 317.432C370.42 317.25 370.856 317.159 371.398 317.159C372.102 317.159 372.731 317.337 373.284 317.693C373.837 318.049 374.271 318.562 374.585 319.233C374.903 319.903 375.062 320.71 375.062 321.653C375.062 322.597 374.905 323.405 374.591 324.08C374.277 324.75 373.845 325.267 373.295 325.631C372.746 325.991 372.119 326.17 371.415 326.17C370.884 326.17 370.451 326.081 370.114 325.903C369.78 325.725 369.519 325.517 369.33 325.278C369.14 325.04 368.994 324.828 368.892 324.642H368.75V326H367.091ZM368.756 321.636C368.756 322.25 368.845 322.788 369.023 323.25C369.201 323.712 369.458 324.074 369.795 324.335C370.133 324.593 370.545 324.722 371.034 324.722C371.542 324.722 371.966 324.587 372.307 324.318C372.648 324.045 372.905 323.676 373.08 323.21C373.258 322.744 373.347 322.22 373.347 321.636C373.347 321.061 373.259 320.544 373.085 320.085C372.915 319.627 372.657 319.265 372.312 319C371.972 318.735 371.545 318.602 371.034 318.602C370.542 318.602 370.125 318.729 369.784 318.983C369.447 319.237 369.191 319.591 369.017 320.045C368.843 320.5 368.756 321.03 368.756 321.636ZM376.97 326V317.273H378.601V318.693H378.709C378.891 318.212 379.188 317.837 379.601 317.568C380.014 317.295 380.508 317.159 381.084 317.159C381.667 317.159 382.156 317.295 382.55 317.568C382.947 317.841 383.241 318.216 383.43 318.693H383.521C383.73 318.227 384.061 317.856 384.516 317.58C384.97 317.299 385.512 317.159 386.141 317.159C386.932 317.159 387.578 317.407 388.078 317.903C388.582 318.4 388.834 319.148 388.834 320.148V326H387.135V320.307C387.135 319.716 386.974 319.288 386.652 319.023C386.33 318.758 385.946 318.625 385.499 318.625C384.946 318.625 384.516 318.795 384.209 319.136C383.902 319.473 383.749 319.907 383.749 320.438V326H382.055V320.199C382.055 319.725 381.908 319.345 381.612 319.057C381.317 318.769 380.932 318.625 380.459 318.625C380.137 318.625 379.839 318.71 379.567 318.881C379.298 319.047 379.08 319.28 378.913 319.58C378.75 319.879 378.669 320.225 378.669 320.619V326H376.97ZM391.111 326V317.273H392.81V326H391.111ZM391.969 315.926C391.673 315.926 391.42 315.828 391.207 315.631C390.999 315.43 390.895 315.191 390.895 314.915C390.895 314.634 390.999 314.396 391.207 314.199C391.42 313.998 391.673 313.898 391.969 313.898C392.264 313.898 392.516 313.998 392.724 314.199C392.937 314.396 393.043 314.634 393.043 314.915C393.043 315.191 392.937 315.43 392.724 315.631C392.516 315.828 392.264 315.926 391.969 315.926ZM399.169 317.273V318.636H394.402V317.273H399.169ZM395.68 315.182H397.379V323.438C397.379 323.767 397.429 324.015 397.527 324.182C397.625 324.345 397.752 324.456 397.908 324.517C398.067 324.574 398.239 324.602 398.425 324.602C398.561 324.602 398.68 324.593 398.783 324.574C398.885 324.555 398.964 324.54 399.021 324.528L399.328 325.932C399.23 325.97 399.089 326.008 398.908 326.045C398.726 326.087 398.499 326.11 398.226 326.114C397.779 326.121 397.362 326.042 396.976 325.875C396.589 325.708 396.277 325.451 396.038 325.102C395.8 324.754 395.68 324.316 395.68 323.79V315.182Z" fill="#F5F5F5"/>
</svg>
