<svg width="1000" height="375" viewBox="0 0 1000 375" fill="none" xmlns="http://www.w3.org/2000/svg">
<rect x="275.5" y="164.5" width="449" height="47" rx="15.5" fill="#15803D" fill-opacity="0.1"/>
<rect x="275.5" y="164.5" width="449" height="47" rx="15.5" stroke="#15803D"/>
<rect x="283.5" y="172.5" width="82" height="31" rx="7.5" fill="#0F0F0F"/>
<rect x="283.5" y="172.5" width="82" height="31" rx="7.5" stroke="#404040"/>
<path d="M300.409 194V182.364H304.477C305.288 182.364 305.956 182.504 306.483 182.784C307.009 183.061 307.402 183.434 307.659 183.903C307.917 184.369 308.045 184.886 308.045 185.455C308.045 185.955 307.956 186.367 307.778 186.693C307.604 187.019 307.373 187.277 307.085 187.466C306.801 187.655 306.492 187.795 306.159 187.886V188C306.515 188.023 306.873 188.148 307.233 188.375C307.593 188.602 307.894 188.928 308.136 189.352C308.379 189.777 308.5 190.295 308.5 190.909C308.5 191.492 308.367 192.017 308.102 192.483C307.837 192.949 307.419 193.318 306.847 193.591C306.275 193.864 305.53 194 304.614 194H300.409ZM301.818 192.75H304.614C305.534 192.75 306.188 192.572 306.574 192.216C306.964 191.856 307.159 191.42 307.159 190.909C307.159 190.515 307.059 190.152 306.858 189.818C306.657 189.481 306.371 189.212 306 189.011C305.629 188.807 305.189 188.705 304.682 188.705H301.818V192.75ZM301.818 187.477H304.432C304.856 187.477 305.239 187.394 305.58 187.227C305.924 187.061 306.197 186.826 306.398 186.523C306.602 186.22 306.705 185.864 306.705 185.455C306.705 184.943 306.527 184.509 306.17 184.153C305.814 183.794 305.25 183.614 304.477 183.614H301.818V187.477ZM316.134 190.432V185.273H317.474V194H316.134V192.523H316.043C315.838 192.966 315.52 193.343 315.088 193.653C314.656 193.96 314.111 194.114 313.452 194.114C312.906 194.114 312.421 193.994 311.997 193.756C311.573 193.513 311.24 193.15 310.997 192.665C310.755 192.176 310.634 191.561 310.634 190.818V185.273H311.974V190.727C311.974 191.364 312.152 191.871 312.509 192.25C312.868 192.629 313.327 192.818 313.884 192.818C314.217 192.818 314.556 192.733 314.901 192.562C315.249 192.392 315.541 192.131 315.776 191.778C316.014 191.426 316.134 190.977 316.134 190.432ZM323.726 185.273V186.409H319.203V185.273H323.726ZM320.521 183.182H321.862V191.5C321.862 191.879 321.917 192.163 322.027 192.352C322.141 192.538 322.285 192.663 322.459 192.727C322.637 192.788 322.824 192.818 323.021 192.818C323.169 192.818 323.29 192.811 323.385 192.795C323.48 192.777 323.555 192.761 323.612 192.75L323.885 193.955C323.794 193.989 323.667 194.023 323.504 194.057C323.341 194.095 323.135 194.114 322.885 194.114C322.506 194.114 322.135 194.032 321.771 193.869C321.411 193.706 321.112 193.458 320.874 193.125C320.639 192.792 320.521 192.371 320.521 191.864V183.182ZM329.538 185.273V186.409H325.016V185.273H329.538ZM326.334 183.182H327.675V191.5C327.675 191.879 327.73 192.163 327.839 192.352C327.953 192.538 328.097 192.663 328.271 192.727C328.449 192.788 328.637 192.818 328.834 192.818C328.982 192.818 329.103 192.811 329.197 192.795C329.292 192.777 329.368 192.761 329.425 192.75L329.697 193.955C329.607 193.989 329.48 194.023 329.317 194.057C329.154 194.095 328.947 194.114 328.697 194.114C328.319 194.114 327.947 194.032 327.584 193.869C327.224 193.706 326.925 193.458 326.686 193.125C326.451 192.792 326.334 192.371 326.334 191.864V183.182ZM335.007 194.182C334.219 194.182 333.528 193.994 332.933 193.619C332.342 193.244 331.88 192.72 331.547 192.045C331.217 191.371 331.053 190.583 331.053 189.682C331.053 188.773 331.217 187.979 331.547 187.301C331.88 186.623 332.342 186.097 332.933 185.722C333.528 185.347 334.219 185.159 335.007 185.159C335.795 185.159 336.484 185.347 337.075 185.722C337.67 186.097 338.132 186.623 338.462 187.301C338.795 187.979 338.962 188.773 338.962 189.682C338.962 190.583 338.795 191.371 338.462 192.045C338.132 192.72 337.67 193.244 337.075 193.619C336.484 193.994 335.795 194.182 335.007 194.182ZM335.007 192.977C335.606 192.977 336.098 192.824 336.484 192.517C336.871 192.21 337.157 191.807 337.342 191.307C337.528 190.807 337.621 190.265 337.621 189.682C337.621 189.098 337.528 188.555 337.342 188.051C337.157 187.547 336.871 187.14 336.484 186.83C336.098 186.519 335.606 186.364 335.007 186.364C334.409 186.364 333.916 186.519 333.53 186.83C333.143 187.14 332.857 187.547 332.672 188.051C332.486 188.555 332.393 189.098 332.393 189.682C332.393 190.265 332.486 190.807 332.672 191.307C332.857 191.807 333.143 192.21 333.53 192.517C333.916 192.824 334.409 192.977 335.007 192.977ZM342.349 188.75V194H341.009V185.273H342.304V186.636H342.418C342.622 186.193 342.933 185.837 343.349 185.568C343.766 185.295 344.304 185.159 344.963 185.159C345.554 185.159 346.071 185.28 346.514 185.523C346.957 185.761 347.302 186.125 347.548 186.614C347.795 187.098 347.918 187.712 347.918 188.455V194H346.577V188.545C346.577 187.86 346.399 187.326 346.043 186.943C345.687 186.557 345.198 186.364 344.577 186.364C344.149 186.364 343.766 186.456 343.429 186.642C343.096 186.828 342.832 187.098 342.639 187.455C342.446 187.811 342.349 188.242 342.349 188.75Z" fill="white"/>
</svg>
