<svg width="1000" height="750" viewBox="0 0 1000 750" fill="none" xmlns="http://www.w3.org/2000/svg">
<rect x="275.5" y="123.5" width="449" height="503" rx="15.5" fill="#15803D" fill-opacity="0.1"/>
<rect x="275.5" y="123.5" width="449" height="503" rx="15.5" stroke="#15803D"/>
<rect x="283.5" y="131.5" width="68" height="31" rx="7.5" fill="#0F0F0F"/>
<rect x="283.5" y="131.5" width="68" height="31" rx="7.5" stroke="#404040"/>
<path d="M309.773 145H308.364C308.28 144.595 308.134 144.239 307.926 143.932C307.722 143.625 307.472 143.367 307.176 143.159C306.884 142.947 306.561 142.788 306.205 142.682C305.848 142.576 305.477 142.523 305.091 142.523C304.386 142.523 303.748 142.701 303.176 143.057C302.608 143.413 302.155 143.938 301.818 144.631C301.485 145.324 301.318 146.174 301.318 147.182C301.318 148.189 301.485 149.04 301.818 149.733C302.155 150.426 302.608 150.951 303.176 151.307C303.748 151.663 304.386 151.841 305.091 151.841C305.477 151.841 305.848 151.788 306.205 151.682C306.561 151.576 306.884 151.419 307.176 151.21C307.472 150.998 307.722 150.739 307.926 150.432C308.134 150.121 308.28 149.765 308.364 149.364H309.773C309.667 149.958 309.473 150.491 309.193 150.96C308.913 151.43 308.564 151.83 308.148 152.159C307.731 152.485 307.263 152.733 306.744 152.903C306.229 153.074 305.678 153.159 305.091 153.159C304.098 153.159 303.216 152.917 302.443 152.432C301.67 151.947 301.063 151.258 300.619 150.364C300.176 149.47 299.955 148.409 299.955 147.182C299.955 145.955 300.176 144.894 300.619 144C301.063 143.106 301.67 142.417 302.443 141.932C303.216 141.447 304.098 141.205 305.091 141.205C305.678 141.205 306.229 141.29 306.744 141.46C307.263 141.631 307.731 141.881 308.148 142.21C308.564 142.536 308.913 142.934 309.193 143.403C309.473 143.869 309.667 144.402 309.773 145ZM314.436 153.205C313.883 153.205 313.381 153.1 312.93 152.892C312.48 152.68 312.122 152.375 311.857 151.977C311.591 151.576 311.459 151.091 311.459 150.523C311.459 150.023 311.557 149.617 311.754 149.307C311.951 148.992 312.214 148.746 312.544 148.568C312.874 148.39 313.237 148.258 313.635 148.17C314.036 148.08 314.44 148.008 314.845 147.955C315.375 147.886 315.805 147.835 316.135 147.801C316.468 147.763 316.711 147.701 316.862 147.614C317.018 147.527 317.095 147.375 317.095 147.159V147.114C317.095 146.553 316.942 146.117 316.635 145.807C316.332 145.496 315.872 145.341 315.254 145.341C314.614 145.341 314.112 145.481 313.749 145.761C313.385 146.042 313.129 146.341 312.982 146.659L311.709 146.205C311.936 145.674 312.239 145.261 312.618 144.966C313 144.667 313.417 144.458 313.868 144.341C314.322 144.22 314.769 144.159 315.209 144.159C315.489 144.159 315.811 144.193 316.175 144.261C316.542 144.326 316.896 144.46 317.237 144.665C317.582 144.869 317.868 145.178 318.095 145.591C318.322 146.004 318.436 146.557 318.436 147.25V153H317.095V151.818H317.027C316.936 152.008 316.785 152.21 316.572 152.426C316.36 152.642 316.078 152.826 315.726 152.977C315.374 153.129 314.944 153.205 314.436 153.205ZM314.641 152C315.171 152 315.618 151.896 315.982 151.688C316.349 151.479 316.625 151.21 316.811 150.881C317 150.551 317.095 150.205 317.095 149.841V148.614C317.038 148.682 316.913 148.744 316.72 148.801C316.531 148.854 316.311 148.902 316.061 148.943C315.815 148.981 315.574 149.015 315.339 149.045C315.108 149.072 314.921 149.095 314.777 149.114C314.429 149.159 314.103 149.233 313.8 149.335C313.5 149.434 313.258 149.583 313.072 149.784C312.891 149.981 312.8 150.25 312.8 150.591C312.8 151.057 312.972 151.409 313.317 151.648C313.665 151.883 314.107 152 314.641 152ZM320.884 153V144.273H322.179V145.591H322.27C322.429 145.159 322.717 144.809 323.134 144.54C323.55 144.271 324.02 144.136 324.543 144.136C324.641 144.136 324.764 144.138 324.912 144.142C325.06 144.146 325.171 144.152 325.247 144.159V145.523C325.202 145.511 325.098 145.494 324.935 145.472C324.776 145.445 324.607 145.432 324.429 145.432C324.005 145.432 323.626 145.521 323.293 145.699C322.963 145.873 322.702 146.116 322.509 146.426C322.319 146.733 322.224 147.083 322.224 147.477V153H320.884ZM329.866 153.182C329.139 153.182 328.497 152.998 327.94 152.631C327.384 152.259 326.948 151.737 326.634 151.062C326.319 150.384 326.162 149.583 326.162 148.659C326.162 147.742 326.319 146.947 326.634 146.273C326.948 145.598 327.385 145.078 327.946 144.71C328.507 144.343 329.154 144.159 329.889 144.159C330.457 144.159 330.906 144.254 331.236 144.443C331.569 144.629 331.823 144.841 331.997 145.08C332.175 145.314 332.313 145.508 332.412 145.659H332.526V141.364H333.866V153H332.571V151.659H332.412C332.313 151.818 332.173 152.019 331.991 152.261C331.81 152.5 331.55 152.714 331.213 152.903C330.876 153.089 330.427 153.182 329.866 153.182ZM330.048 151.977C330.586 151.977 331.041 151.837 331.412 151.557C331.783 151.273 332.065 150.881 332.259 150.381C332.452 149.877 332.548 149.295 332.548 148.636C332.548 147.985 332.454 147.415 332.264 146.926C332.075 146.434 331.795 146.051 331.423 145.778C331.052 145.502 330.594 145.364 330.048 145.364C329.48 145.364 329.007 145.509 328.628 145.801C328.253 146.089 327.971 146.481 327.781 146.977C327.596 147.47 327.503 148.023 327.503 148.636C327.503 149.258 327.598 149.822 327.787 150.33C327.98 150.833 328.264 151.235 328.639 151.534C329.018 151.83 329.488 151.977 330.048 151.977Z" fill="white"/>
<rect x="283.5" y="171.5" width="433" height="143" rx="15.5" fill="#2563EB" fill-opacity="0.1"/>
<rect x="283.5" y="171.5" width="433" height="143" rx="15.5" stroke="#2563EB"/>
<rect x="291.5" y="179.5" width="128" height="31" rx="7.5" fill="#0F0F0F"/>
<rect x="291.5" y="179.5" width="128" height="31" rx="7.5" stroke="#404040"/>
<path d="M317.773 193H316.364C316.28 192.595 316.134 192.239 315.926 191.932C315.722 191.625 315.472 191.367 315.176 191.159C314.884 190.947 314.561 190.788 314.205 190.682C313.848 190.576 313.477 190.523 313.091 190.523C312.386 190.523 311.748 190.701 311.176 191.057C310.608 191.413 310.155 191.938 309.818 192.631C309.485 193.324 309.318 194.174 309.318 195.182C309.318 196.189 309.485 197.04 309.818 197.733C310.155 198.426 310.608 198.951 311.176 199.307C311.748 199.663 312.386 199.841 313.091 199.841C313.477 199.841 313.848 199.788 314.205 199.682C314.561 199.576 314.884 199.419 315.176 199.21C315.472 198.998 315.722 198.739 315.926 198.432C316.134 198.121 316.28 197.765 316.364 197.364H317.773C317.667 197.958 317.473 198.491 317.193 198.96C316.913 199.43 316.564 199.83 316.148 200.159C315.731 200.485 315.263 200.733 314.744 200.903C314.229 201.074 313.678 201.159 313.091 201.159C312.098 201.159 311.216 200.917 310.443 200.432C309.67 199.947 309.063 199.258 308.619 198.364C308.176 197.47 307.955 196.409 307.955 195.182C307.955 193.955 308.176 192.894 308.619 192C309.063 191.106 309.67 190.417 310.443 189.932C311.216 189.447 312.098 189.205 313.091 189.205C313.678 189.205 314.229 189.29 314.744 189.46C315.263 189.631 315.731 189.881 316.148 190.21C316.564 190.536 316.913 190.934 317.193 191.403C317.473 191.869 317.667 192.402 317.773 193ZM322.436 201.205C321.883 201.205 321.381 201.1 320.93 200.892C320.48 200.68 320.122 200.375 319.857 199.977C319.591 199.576 319.459 199.091 319.459 198.523C319.459 198.023 319.557 197.617 319.754 197.307C319.951 196.992 320.214 196.746 320.544 196.568C320.874 196.39 321.237 196.258 321.635 196.17C322.036 196.08 322.44 196.008 322.845 195.955C323.375 195.886 323.805 195.835 324.135 195.801C324.468 195.763 324.711 195.701 324.862 195.614C325.018 195.527 325.095 195.375 325.095 195.159V195.114C325.095 194.553 324.942 194.117 324.635 193.807C324.332 193.496 323.872 193.341 323.254 193.341C322.614 193.341 322.112 193.481 321.749 193.761C321.385 194.042 321.129 194.341 320.982 194.659L319.709 194.205C319.936 193.674 320.239 193.261 320.618 192.966C321 192.667 321.417 192.458 321.868 192.341C322.322 192.22 322.769 192.159 323.209 192.159C323.489 192.159 323.811 192.193 324.175 192.261C324.542 192.326 324.896 192.46 325.237 192.665C325.582 192.869 325.868 193.178 326.095 193.591C326.322 194.004 326.436 194.557 326.436 195.25V201H325.095V199.818H325.027C324.936 200.008 324.785 200.21 324.572 200.426C324.36 200.642 324.078 200.826 323.726 200.977C323.374 201.129 322.944 201.205 322.436 201.205ZM322.641 200C323.171 200 323.618 199.896 323.982 199.688C324.349 199.479 324.625 199.21 324.811 198.881C325 198.551 325.095 198.205 325.095 197.841V196.614C325.038 196.682 324.913 196.744 324.72 196.801C324.531 196.854 324.311 196.902 324.061 196.943C323.815 196.981 323.574 197.015 323.339 197.045C323.108 197.072 322.921 197.095 322.777 197.114C322.429 197.159 322.103 197.233 321.8 197.335C321.5 197.434 321.258 197.583 321.072 197.784C320.891 197.981 320.8 198.25 320.8 198.591C320.8 199.057 320.972 199.409 321.317 199.648C321.665 199.883 322.107 200 322.641 200ZM328.884 201V192.273H330.179V193.591H330.27C330.429 193.159 330.717 192.809 331.134 192.54C331.55 192.271 332.02 192.136 332.543 192.136C332.641 192.136 332.764 192.138 332.912 192.142C333.06 192.146 333.171 192.152 333.247 192.159V193.523C333.202 193.511 333.098 193.494 332.935 193.472C332.776 193.445 332.607 193.432 332.429 193.432C332.005 193.432 331.626 193.521 331.293 193.699C330.963 193.873 330.702 194.116 330.509 194.426C330.319 194.733 330.224 195.083 330.224 195.477V201H328.884ZM337.866 201.182C337.139 201.182 336.497 200.998 335.94 200.631C335.384 200.259 334.948 199.737 334.634 199.062C334.319 198.384 334.162 197.583 334.162 196.659C334.162 195.742 334.319 194.947 334.634 194.273C334.948 193.598 335.385 193.078 335.946 192.71C336.507 192.343 337.154 192.159 337.889 192.159C338.457 192.159 338.906 192.254 339.236 192.443C339.569 192.629 339.823 192.841 339.997 193.08C340.175 193.314 340.313 193.508 340.412 193.659H340.526V189.364H341.866V201H340.571V199.659H340.412C340.313 199.818 340.173 200.019 339.991 200.261C339.81 200.5 339.55 200.714 339.213 200.903C338.876 201.089 338.427 201.182 337.866 201.182ZM338.048 199.977C338.586 199.977 339.041 199.837 339.412 199.557C339.783 199.273 340.065 198.881 340.259 198.381C340.452 197.877 340.548 197.295 340.548 196.636C340.548 195.985 340.454 195.415 340.264 194.926C340.075 194.434 339.795 194.051 339.423 193.778C339.052 193.502 338.594 193.364 338.048 193.364C337.48 193.364 337.007 193.509 336.628 193.801C336.253 194.089 335.971 194.481 335.781 194.977C335.596 195.47 335.503 196.023 335.503 196.636C335.503 197.258 335.598 197.822 335.787 198.33C335.98 198.833 336.264 199.235 336.639 199.534C337.018 199.83 337.488 199.977 338.048 199.977ZM349.19 201V189.364H350.599V194.545H356.804V189.364H358.213V201H356.804V195.795H350.599V201H349.19ZM364.511 201.182C363.67 201.182 362.945 200.996 362.335 200.625C361.729 200.25 361.261 199.727 360.932 199.057C360.606 198.383 360.443 197.598 360.443 196.705C360.443 195.811 360.606 195.023 360.932 194.341C361.261 193.655 361.72 193.121 362.307 192.739C362.898 192.352 363.587 192.159 364.375 192.159C364.83 192.159 365.278 192.235 365.722 192.386C366.165 192.538 366.568 192.784 366.932 193.125C367.295 193.462 367.585 193.909 367.801 194.466C368.017 195.023 368.125 195.708 368.125 196.523V197.091H361.398V195.932H366.761C366.761 195.439 366.663 195 366.466 194.614C366.273 194.227 365.996 193.922 365.636 193.699C365.28 193.475 364.86 193.364 364.375 193.364C363.841 193.364 363.379 193.496 362.989 193.761C362.602 194.023 362.305 194.364 362.097 194.784C361.888 195.205 361.784 195.655 361.784 196.136V196.909C361.784 197.568 361.898 198.127 362.125 198.585C362.356 199.04 362.676 199.386 363.085 199.625C363.494 199.86 363.97 199.977 364.511 199.977C364.864 199.977 365.182 199.928 365.466 199.83C365.754 199.727 366.002 199.576 366.21 199.375C366.419 199.17 366.58 198.917 366.693 198.614L367.989 198.977C367.852 199.417 367.623 199.803 367.301 200.136C366.979 200.466 366.581 200.723 366.108 200.909C365.634 201.091 365.102 201.182 364.511 201.182ZM372.733 201.205C372.18 201.205 371.678 201.1 371.227 200.892C370.777 200.68 370.419 200.375 370.153 199.977C369.888 199.576 369.756 199.091 369.756 198.523C369.756 198.023 369.854 197.617 370.051 197.307C370.248 196.992 370.511 196.746 370.841 196.568C371.17 196.39 371.534 196.258 371.932 196.17C372.333 196.08 372.737 196.008 373.142 195.955C373.672 195.886 374.102 195.835 374.432 195.801C374.765 195.763 375.008 195.701 375.159 195.614C375.314 195.527 375.392 195.375 375.392 195.159V195.114C375.392 194.553 375.239 194.117 374.932 193.807C374.629 193.496 374.169 193.341 373.551 193.341C372.911 193.341 372.409 193.481 372.045 193.761C371.682 194.042 371.426 194.341 371.278 194.659L370.006 194.205C370.233 193.674 370.536 193.261 370.915 192.966C371.297 192.667 371.714 192.458 372.165 192.341C372.619 192.22 373.066 192.159 373.506 192.159C373.786 192.159 374.108 192.193 374.472 192.261C374.839 192.326 375.193 192.46 375.534 192.665C375.879 192.869 376.165 193.178 376.392 193.591C376.619 194.004 376.733 194.557 376.733 195.25V201H375.392V199.818H375.324C375.233 200.008 375.081 200.21 374.869 200.426C374.657 200.642 374.375 200.826 374.023 200.977C373.67 201.129 373.241 201.205 372.733 201.205ZM372.938 200C373.468 200 373.915 199.896 374.278 199.688C374.646 199.479 374.922 199.21 375.108 198.881C375.297 198.551 375.392 198.205 375.392 197.841V196.614C375.335 196.682 375.21 196.744 375.017 196.801C374.828 196.854 374.608 196.902 374.358 196.943C374.112 196.981 373.871 197.015 373.636 197.045C373.405 197.072 373.218 197.095 373.074 197.114C372.725 197.159 372.4 197.233 372.097 197.335C371.797 197.434 371.555 197.583 371.369 197.784C371.188 197.981 371.097 198.25 371.097 198.591C371.097 199.057 371.269 199.409 371.614 199.648C371.962 199.883 372.403 200 372.938 200ZM382.476 201.182C381.749 201.182 381.107 200.998 380.55 200.631C379.993 200.259 379.557 199.737 379.243 199.062C378.929 198.384 378.771 197.583 378.771 196.659C378.771 195.742 378.929 194.947 379.243 194.273C379.557 193.598 379.995 193.078 380.555 192.71C381.116 192.343 381.764 192.159 382.499 192.159C383.067 192.159 383.516 192.254 383.845 192.443C384.179 192.629 384.432 192.841 384.607 193.08C384.785 193.314 384.923 193.508 385.021 193.659H385.135V189.364H386.476V201H385.18V199.659H385.021C384.923 199.818 384.783 200.019 384.601 200.261C384.419 200.5 384.16 200.714 383.822 200.903C383.485 201.089 383.036 201.182 382.476 201.182ZM382.658 199.977C383.196 199.977 383.65 199.837 384.021 199.557C384.393 199.273 384.675 198.881 384.868 198.381C385.061 197.877 385.158 197.295 385.158 196.636C385.158 195.985 385.063 195.415 384.874 194.926C384.684 194.434 384.404 194.051 384.033 193.778C383.661 193.502 383.203 193.364 382.658 193.364C382.089 193.364 381.616 193.509 381.237 193.801C380.862 194.089 380.58 194.481 380.391 194.977C380.205 195.47 380.112 196.023 380.112 196.636C380.112 197.258 380.207 197.822 380.396 198.33C380.589 198.833 380.874 199.235 381.249 199.534C381.627 199.83 382.097 199.977 382.658 199.977ZM392.777 201.182C391.936 201.182 391.211 200.996 390.601 200.625C389.995 200.25 389.527 199.727 389.197 199.057C388.872 198.383 388.709 197.598 388.709 196.705C388.709 195.811 388.872 195.023 389.197 194.341C389.527 193.655 389.985 193.121 390.572 192.739C391.163 192.352 391.853 192.159 392.641 192.159C393.095 192.159 393.544 192.235 393.987 192.386C394.43 192.538 394.834 192.784 395.197 193.125C395.561 193.462 395.851 193.909 396.067 194.466C396.283 195.023 396.391 195.708 396.391 196.523V197.091H389.663V195.932H395.027C395.027 195.439 394.929 195 394.732 194.614C394.538 194.227 394.262 193.922 393.902 193.699C393.546 193.475 393.125 193.364 392.641 193.364C392.107 193.364 391.644 193.496 391.254 193.761C390.868 194.023 390.571 194.364 390.362 194.784C390.154 195.205 390.05 195.655 390.05 196.136V196.909C390.05 197.568 390.163 198.127 390.391 198.585C390.622 199.04 390.942 199.386 391.351 199.625C391.76 199.86 392.235 199.977 392.777 199.977C393.129 199.977 393.447 199.928 393.732 199.83C394.019 199.727 394.268 199.576 394.476 199.375C394.684 199.17 394.845 198.917 394.959 198.614L396.254 198.977C396.118 199.417 395.889 199.803 395.567 200.136C395.245 200.466 394.847 200.723 394.374 200.909C393.9 201.091 393.368 201.182 392.777 201.182ZM398.43 201V192.273H399.726V193.591H399.817C399.976 193.159 400.264 192.809 400.68 192.54C401.097 192.271 401.567 192.136 402.089 192.136C402.188 192.136 402.311 192.138 402.459 192.142C402.607 192.146 402.718 192.152 402.794 192.159V193.523C402.749 193.511 402.644 193.494 402.482 193.472C402.322 193.445 402.154 193.432 401.976 193.432C401.552 193.432 401.173 193.521 400.839 193.699C400.51 193.873 400.249 194.116 400.055 194.426C399.866 194.733 399.771 195.083 399.771 195.477V201H398.43Z" fill="white"/>
<rect x="291.5" y="219.5" width="417" height="87" rx="11.5" fill="#9333EA" fill-opacity="0.1"/>
<rect x="291.5" y="219.5" width="417" height="87" rx="11.5" stroke="#9333EA"/>
<rect x="299.5" y="227.5" width="105" height="31" rx="7.5" fill="#0F0F0F"/>
<rect x="299.5" y="227.5" width="105" height="31" rx="7.5" stroke="#404040"/>
<path d="M325.773 241H324.364C324.28 240.595 324.134 240.239 323.926 239.932C323.722 239.625 323.472 239.367 323.176 239.159C322.884 238.947 322.561 238.788 322.205 238.682C321.848 238.576 321.477 238.523 321.091 238.523C320.386 238.523 319.748 238.701 319.176 239.057C318.608 239.413 318.155 239.938 317.818 240.631C317.485 241.324 317.318 242.174 317.318 243.182C317.318 244.189 317.485 245.04 317.818 245.733C318.155 246.426 318.608 246.951 319.176 247.307C319.748 247.663 320.386 247.841 321.091 247.841C321.477 247.841 321.848 247.788 322.205 247.682C322.561 247.576 322.884 247.419 323.176 247.21C323.472 246.998 323.722 246.739 323.926 246.432C324.134 246.121 324.28 245.765 324.364 245.364H325.773C325.667 245.958 325.473 246.491 325.193 246.96C324.913 247.43 324.564 247.83 324.148 248.159C323.731 248.485 323.263 248.733 322.744 248.903C322.229 249.074 321.678 249.159 321.091 249.159C320.098 249.159 319.216 248.917 318.443 248.432C317.67 247.947 317.063 247.258 316.619 246.364C316.176 245.47 315.955 244.409 315.955 243.182C315.955 241.955 316.176 240.894 316.619 240C317.063 239.106 317.67 238.417 318.443 237.932C319.216 237.447 320.098 237.205 321.091 237.205C321.678 237.205 322.229 237.29 322.744 237.46C323.263 237.631 323.731 237.881 324.148 238.21C324.564 238.536 324.913 238.934 325.193 239.403C325.473 239.869 325.667 240.402 325.773 241ZM330.436 249.205C329.883 249.205 329.381 249.1 328.93 248.892C328.48 248.68 328.122 248.375 327.857 247.977C327.591 247.576 327.459 247.091 327.459 246.523C327.459 246.023 327.557 245.617 327.754 245.307C327.951 244.992 328.214 244.746 328.544 244.568C328.874 244.39 329.237 244.258 329.635 244.17C330.036 244.08 330.44 244.008 330.845 243.955C331.375 243.886 331.805 243.835 332.135 243.801C332.468 243.763 332.711 243.701 332.862 243.614C333.018 243.527 333.095 243.375 333.095 243.159V243.114C333.095 242.553 332.942 242.117 332.635 241.807C332.332 241.496 331.872 241.341 331.254 241.341C330.614 241.341 330.112 241.481 329.749 241.761C329.385 242.042 329.129 242.341 328.982 242.659L327.709 242.205C327.936 241.674 328.239 241.261 328.618 240.966C329 240.667 329.417 240.458 329.868 240.341C330.322 240.22 330.769 240.159 331.209 240.159C331.489 240.159 331.811 240.193 332.175 240.261C332.542 240.326 332.896 240.46 333.237 240.665C333.582 240.869 333.868 241.178 334.095 241.591C334.322 242.004 334.436 242.557 334.436 243.25V249H333.095V247.818H333.027C332.936 248.008 332.785 248.21 332.572 248.426C332.36 248.642 332.078 248.826 331.726 248.977C331.374 249.129 330.944 249.205 330.436 249.205ZM330.641 248C331.171 248 331.618 247.896 331.982 247.688C332.349 247.479 332.625 247.21 332.811 246.881C333 246.551 333.095 246.205 333.095 245.841V244.614C333.038 244.682 332.913 244.744 332.72 244.801C332.531 244.854 332.311 244.902 332.061 244.943C331.815 244.981 331.574 245.015 331.339 245.045C331.108 245.072 330.921 245.095 330.777 245.114C330.429 245.159 330.103 245.233 329.8 245.335C329.5 245.434 329.258 245.583 329.072 245.784C328.891 245.981 328.8 246.25 328.8 246.591C328.8 247.057 328.972 247.409 329.317 247.648C329.665 247.883 330.107 248 330.641 248ZM336.884 249V240.273H338.179V241.591H338.27C338.429 241.159 338.717 240.809 339.134 240.54C339.55 240.271 340.02 240.136 340.543 240.136C340.641 240.136 340.764 240.138 340.912 240.142C341.06 240.146 341.171 240.152 341.247 240.159V241.523C341.202 241.511 341.098 241.494 340.935 241.472C340.776 241.445 340.607 241.432 340.429 241.432C340.005 241.432 339.626 241.521 339.293 241.699C338.963 241.873 338.702 242.116 338.509 242.426C338.319 242.733 338.224 243.083 338.224 243.477V249H336.884ZM345.866 249.182C345.139 249.182 344.497 248.998 343.94 248.631C343.384 248.259 342.948 247.737 342.634 247.062C342.319 246.384 342.162 245.583 342.162 244.659C342.162 243.742 342.319 242.947 342.634 242.273C342.948 241.598 343.385 241.078 343.946 240.71C344.507 240.343 345.154 240.159 345.889 240.159C346.457 240.159 346.906 240.254 347.236 240.443C347.569 240.629 347.823 240.841 347.997 241.08C348.175 241.314 348.313 241.508 348.412 241.659H348.526V237.364H349.866V249H348.571V247.659H348.412C348.313 247.818 348.173 248.019 347.991 248.261C347.81 248.5 347.55 248.714 347.213 248.903C346.876 249.089 346.427 249.182 345.866 249.182ZM346.048 247.977C346.586 247.977 347.041 247.837 347.412 247.557C347.783 247.273 348.065 246.881 348.259 246.381C348.452 245.877 348.548 245.295 348.548 244.636C348.548 243.985 348.454 243.415 348.264 242.926C348.075 242.434 347.795 242.051 347.423 241.778C347.052 241.502 346.594 241.364 346.048 241.364C345.48 241.364 345.007 241.509 344.628 241.801C344.253 242.089 343.971 242.481 343.781 242.977C343.596 243.47 343.503 244.023 343.503 244.636C343.503 245.258 343.598 245.822 343.787 246.33C343.98 246.833 344.264 247.235 344.639 247.534C345.018 247.83 345.488 247.977 346.048 247.977ZM356.554 238.614V237.364H365.281V238.614H361.622V249H360.213V238.614H356.554ZM367.274 249V240.273H368.615V249H367.274ZM367.956 238.818C367.695 238.818 367.469 238.729 367.28 238.551C367.094 238.373 367.001 238.159 367.001 237.909C367.001 237.659 367.094 237.445 367.28 237.267C367.469 237.089 367.695 237 367.956 237C368.217 237 368.441 237.089 368.626 237.267C368.816 237.445 368.911 237.659 368.911 237.909C368.911 238.159 368.816 238.373 368.626 238.551C368.441 238.729 368.217 238.818 367.956 238.818ZM374.866 240.273V241.409H370.344V240.273H374.866ZM371.662 238.182H373.003V246.5C373.003 246.879 373.058 247.163 373.168 247.352C373.281 247.538 373.425 247.663 373.599 247.727C373.777 247.788 373.965 247.818 374.162 247.818C374.31 247.818 374.431 247.811 374.526 247.795C374.62 247.777 374.696 247.761 374.753 247.75L375.026 248.955C374.935 248.989 374.808 249.023 374.645 249.057C374.482 249.095 374.276 249.114 374.026 249.114C373.647 249.114 373.276 249.032 372.912 248.869C372.552 248.706 372.253 248.458 372.014 248.125C371.779 247.792 371.662 247.371 371.662 246.864V238.182ZM378.412 237.364V249H377.071V237.364H378.412ZM384.527 249.182C383.686 249.182 382.961 248.996 382.351 248.625C381.745 248.25 381.277 247.727 380.947 247.057C380.622 246.383 380.459 245.598 380.459 244.705C380.459 243.811 380.622 243.023 380.947 242.341C381.277 241.655 381.735 241.121 382.322 240.739C382.913 240.352 383.603 240.159 384.391 240.159C384.845 240.159 385.294 240.235 385.737 240.386C386.18 240.538 386.584 240.784 386.947 241.125C387.311 241.462 387.601 241.909 387.817 242.466C388.033 243.023 388.141 243.708 388.141 244.523V245.091H381.413V243.932H386.777C386.777 243.439 386.679 243 386.482 242.614C386.288 242.227 386.012 241.922 385.652 241.699C385.296 241.475 384.875 241.364 384.391 241.364C383.857 241.364 383.394 241.496 383.004 241.761C382.618 242.023 382.321 242.364 382.112 242.784C381.904 243.205 381.8 243.655 381.8 244.136V244.909C381.8 245.568 381.913 246.127 382.141 246.585C382.372 247.04 382.692 247.386 383.101 247.625C383.51 247.86 383.985 247.977 384.527 247.977C384.879 247.977 385.197 247.928 385.482 247.83C385.769 247.727 386.018 247.576 386.226 247.375C386.434 247.17 386.595 246.917 386.709 246.614L388.004 246.977C387.868 247.417 387.639 247.803 387.317 248.136C386.995 248.466 386.597 248.723 386.124 248.909C385.65 249.091 385.118 249.182 384.527 249.182Z" fill="white"/>
<rect x="299.5" y="267.5" width="158" height="31" rx="7.5" fill="#0F0F0F"/>
<rect x="299.5" y="267.5" width="158" height="31" rx="7.5" stroke="#404040"/>
<path d="M325.773 281H324.364C324.28 280.595 324.134 280.239 323.926 279.932C323.722 279.625 323.472 279.367 323.176 279.159C322.884 278.947 322.561 278.788 322.205 278.682C321.848 278.576 321.477 278.523 321.091 278.523C320.386 278.523 319.748 278.701 319.176 279.057C318.608 279.413 318.155 279.938 317.818 280.631C317.485 281.324 317.318 282.174 317.318 283.182C317.318 284.189 317.485 285.04 317.818 285.733C318.155 286.426 318.608 286.951 319.176 287.307C319.748 287.663 320.386 287.841 321.091 287.841C321.477 287.841 321.848 287.788 322.205 287.682C322.561 287.576 322.884 287.419 323.176 287.21C323.472 286.998 323.722 286.739 323.926 286.432C324.134 286.121 324.28 285.765 324.364 285.364H325.773C325.667 285.958 325.473 286.491 325.193 286.96C324.913 287.43 324.564 287.83 324.148 288.159C323.731 288.485 323.263 288.733 322.744 288.903C322.229 289.074 321.678 289.159 321.091 289.159C320.098 289.159 319.216 288.917 318.443 288.432C317.67 287.947 317.063 287.258 316.619 286.364C316.176 285.47 315.955 284.409 315.955 283.182C315.955 281.955 316.176 280.894 316.619 280C317.063 279.106 317.67 278.417 318.443 277.932C319.216 277.447 320.098 277.205 321.091 277.205C321.678 277.205 322.229 277.29 322.744 277.46C323.263 277.631 323.731 277.881 324.148 278.21C324.564 278.536 324.913 278.934 325.193 279.403C325.473 279.869 325.667 280.402 325.773 281ZM330.436 289.205C329.883 289.205 329.381 289.1 328.93 288.892C328.48 288.68 328.122 288.375 327.857 287.977C327.591 287.576 327.459 287.091 327.459 286.523C327.459 286.023 327.557 285.617 327.754 285.307C327.951 284.992 328.214 284.746 328.544 284.568C328.874 284.39 329.237 284.258 329.635 284.17C330.036 284.08 330.44 284.008 330.845 283.955C331.375 283.886 331.805 283.835 332.135 283.801C332.468 283.763 332.711 283.701 332.862 283.614C333.018 283.527 333.095 283.375 333.095 283.159V283.114C333.095 282.553 332.942 282.117 332.635 281.807C332.332 281.496 331.872 281.341 331.254 281.341C330.614 281.341 330.112 281.481 329.749 281.761C329.385 282.042 329.129 282.341 328.982 282.659L327.709 282.205C327.936 281.674 328.239 281.261 328.618 280.966C329 280.667 329.417 280.458 329.868 280.341C330.322 280.22 330.769 280.159 331.209 280.159C331.489 280.159 331.811 280.193 332.175 280.261C332.542 280.326 332.896 280.46 333.237 280.665C333.582 280.869 333.868 281.178 334.095 281.591C334.322 282.004 334.436 282.557 334.436 283.25V289H333.095V287.818H333.027C332.936 288.008 332.785 288.21 332.572 288.426C332.36 288.642 332.078 288.826 331.726 288.977C331.374 289.129 330.944 289.205 330.436 289.205ZM330.641 288C331.171 288 331.618 287.896 331.982 287.688C332.349 287.479 332.625 287.21 332.811 286.881C333 286.551 333.095 286.205 333.095 285.841V284.614C333.038 284.682 332.913 284.744 332.72 284.801C332.531 284.854 332.311 284.902 332.061 284.943C331.815 284.981 331.574 285.015 331.339 285.045C331.108 285.072 330.921 285.095 330.777 285.114C330.429 285.159 330.103 285.233 329.8 285.335C329.5 285.434 329.258 285.583 329.072 285.784C328.891 285.981 328.8 286.25 328.8 286.591C328.8 287.057 328.972 287.409 329.317 287.648C329.665 287.883 330.107 288 330.641 288ZM336.884 289V280.273H338.179V281.591H338.27C338.429 281.159 338.717 280.809 339.134 280.54C339.55 280.271 340.02 280.136 340.543 280.136C340.641 280.136 340.764 280.138 340.912 280.142C341.06 280.146 341.171 280.152 341.247 280.159V281.523C341.202 281.511 341.098 281.494 340.935 281.472C340.776 281.445 340.607 281.432 340.429 281.432C340.005 281.432 339.626 281.521 339.293 281.699C338.963 281.873 338.702 282.116 338.509 282.426C338.319 282.733 338.224 283.083 338.224 283.477V289H336.884ZM345.866 289.182C345.139 289.182 344.497 288.998 343.94 288.631C343.384 288.259 342.948 287.737 342.634 287.062C342.319 286.384 342.162 285.583 342.162 284.659C342.162 283.742 342.319 282.947 342.634 282.273C342.948 281.598 343.385 281.078 343.946 280.71C344.507 280.343 345.154 280.159 345.889 280.159C346.457 280.159 346.906 280.254 347.236 280.443C347.569 280.629 347.823 280.841 347.997 281.08C348.175 281.314 348.313 281.508 348.412 281.659H348.526V277.364H349.866V289H348.571V287.659H348.412C348.313 287.818 348.173 288.019 347.991 288.261C347.81 288.5 347.55 288.714 347.213 288.903C346.876 289.089 346.427 289.182 345.866 289.182ZM346.048 287.977C346.586 287.977 347.041 287.837 347.412 287.557C347.783 287.273 348.065 286.881 348.259 286.381C348.452 285.877 348.548 285.295 348.548 284.636C348.548 283.985 348.454 283.415 348.264 282.926C348.075 282.434 347.795 282.051 347.423 281.778C347.052 281.502 346.594 281.364 346.048 281.364C345.48 281.364 345.007 281.509 344.628 281.801C344.253 282.089 343.971 282.481 343.781 282.977C343.596 283.47 343.503 284.023 343.503 284.636C343.503 285.258 343.598 285.822 343.787 286.33C343.98 286.833 344.264 287.235 344.639 287.534C345.018 287.83 345.488 287.977 346.048 287.977ZM360.781 289H357.19V277.364H360.94C362.069 277.364 363.035 277.597 363.838 278.062C364.641 278.525 365.257 279.189 365.685 280.057C366.113 280.92 366.327 281.955 366.327 283.159C366.327 284.371 366.111 285.415 365.679 286.29C365.247 287.161 364.618 287.831 363.793 288.301C362.967 288.767 361.963 289 360.781 289ZM358.599 287.75H360.69C361.652 287.75 362.45 287.564 363.082 287.193C363.715 286.822 364.187 286.294 364.497 285.608C364.808 284.922 364.963 284.106 364.963 283.159C364.963 282.22 364.81 281.411 364.503 280.733C364.196 280.051 363.738 279.528 363.128 279.165C362.518 278.797 361.759 278.614 360.849 278.614H358.599V287.75ZM372.168 289.182C371.327 289.182 370.601 288.996 369.991 288.625C369.385 288.25 368.918 287.727 368.588 287.057C368.262 286.383 368.099 285.598 368.099 284.705C368.099 283.811 368.262 283.023 368.588 282.341C368.918 281.655 369.376 281.121 369.963 280.739C370.554 280.352 371.243 280.159 372.031 280.159C372.486 280.159 372.935 280.235 373.378 280.386C373.821 280.538 374.224 280.784 374.588 281.125C374.952 281.462 375.241 281.909 375.457 282.466C375.673 283.023 375.781 283.708 375.781 284.523V285.091H369.054V283.932H374.418C374.418 283.439 374.319 283 374.122 282.614C373.929 282.227 373.652 281.922 373.293 281.699C372.937 281.475 372.516 281.364 372.031 281.364C371.497 281.364 371.035 281.496 370.645 281.761C370.259 282.023 369.961 282.364 369.753 282.784C369.545 283.205 369.44 283.655 369.44 284.136V284.909C369.44 285.568 369.554 286.127 369.781 286.585C370.012 287.04 370.332 287.386 370.741 287.625C371.151 287.86 371.626 287.977 372.168 287.977C372.52 287.977 372.838 287.928 373.122 287.83C373.41 287.727 373.658 287.576 373.866 287.375C374.075 287.17 374.236 286.917 374.349 286.614L375.645 286.977C375.509 287.417 375.279 287.803 374.957 288.136C374.635 288.466 374.238 288.723 373.764 288.909C373.291 289.091 372.759 289.182 372.168 289.182ZM384.003 282.227L382.798 282.568C382.723 282.367 382.611 282.172 382.463 281.983C382.319 281.79 382.122 281.631 381.872 281.506C381.622 281.381 381.302 281.318 380.912 281.318C380.378 281.318 379.933 281.441 379.577 281.688C379.224 281.93 379.048 282.239 379.048 282.614C379.048 282.947 379.17 283.21 379.412 283.403C379.654 283.597 380.033 283.758 380.548 283.886L381.844 284.205C382.624 284.394 383.205 284.684 383.588 285.074C383.971 285.46 384.162 285.958 384.162 286.568C384.162 287.068 384.018 287.515 383.73 287.909C383.446 288.303 383.048 288.614 382.537 288.841C382.026 289.068 381.431 289.182 380.753 289.182C379.863 289.182 379.126 288.989 378.543 288.602C377.959 288.216 377.59 287.652 377.435 286.909L378.707 286.591C378.829 287.061 379.058 287.413 379.395 287.648C379.736 287.883 380.181 288 380.73 288C381.355 288 381.851 287.867 382.219 287.602C382.59 287.333 382.776 287.011 382.776 286.636C382.776 286.333 382.67 286.08 382.457 285.875C382.245 285.667 381.92 285.511 381.48 285.409L380.026 285.068C379.226 284.879 378.639 284.585 378.264 284.188C377.893 283.786 377.707 283.284 377.707 282.682C377.707 282.189 377.846 281.754 378.122 281.375C378.402 280.996 378.783 280.699 379.264 280.483C379.749 280.267 380.298 280.159 380.912 280.159C381.776 280.159 382.454 280.348 382.946 280.727C383.442 281.106 383.795 281.606 384.003 282.227ZM389.726 289.182C388.908 289.182 388.203 288.989 387.612 288.602C387.021 288.216 386.567 287.684 386.249 287.006C385.93 286.328 385.771 285.553 385.771 284.682C385.771 283.795 385.934 283.013 386.26 282.335C386.589 281.653 387.048 281.121 387.635 280.739C388.226 280.352 388.915 280.159 389.703 280.159C390.317 280.159 390.87 280.273 391.362 280.5C391.855 280.727 392.258 281.045 392.572 281.455C392.887 281.864 393.082 282.341 393.158 282.886H391.817C391.714 282.489 391.487 282.136 391.135 281.83C390.786 281.519 390.317 281.364 389.726 281.364C389.203 281.364 388.745 281.5 388.351 281.773C387.961 282.042 387.656 282.422 387.436 282.915C387.22 283.403 387.112 283.977 387.112 284.636C387.112 285.311 387.218 285.898 387.43 286.398C387.646 286.898 387.949 287.286 388.339 287.562C388.733 287.839 389.196 287.977 389.726 287.977C390.074 287.977 390.391 287.917 390.675 287.795C390.959 287.674 391.199 287.5 391.396 287.273C391.593 287.045 391.733 286.773 391.817 286.455H393.158C393.082 286.97 392.894 287.434 392.595 287.847C392.3 288.256 391.908 288.581 391.419 288.824C390.934 289.062 390.37 289.182 389.726 289.182ZM395.118 289V280.273H396.413V281.591H396.504C396.663 281.159 396.951 280.809 397.368 280.54C397.785 280.271 398.254 280.136 398.777 280.136C398.875 280.136 398.999 280.138 399.146 280.142C399.294 280.146 399.406 280.152 399.482 280.159V281.523C399.436 281.511 399.332 281.494 399.169 281.472C399.01 281.445 398.841 281.432 398.663 281.432C398.239 281.432 397.86 281.521 397.527 281.699C397.197 281.873 396.936 282.116 396.743 282.426C396.554 282.733 396.459 283.083 396.459 283.477V289H395.118ZM401.071 289V280.273H402.412V289H401.071ZM401.753 278.818C401.491 278.818 401.266 278.729 401.077 278.551C400.891 278.373 400.798 278.159 400.798 277.909C400.798 277.659 400.891 277.445 401.077 277.267C401.266 277.089 401.491 277 401.753 277C402.014 277 402.238 277.089 402.423 277.267C402.613 277.445 402.707 277.659 402.707 277.909C402.707 278.159 402.613 278.373 402.423 278.551C402.238 278.729 402.014 278.818 401.753 278.818ZM404.868 292.273V280.273H406.163V281.659H406.322C406.421 281.508 406.557 281.314 406.732 281.08C406.91 280.841 407.163 280.629 407.493 280.443C407.826 280.254 408.277 280.159 408.845 280.159C409.58 280.159 410.228 280.343 410.788 280.71C411.349 281.078 411.786 281.598 412.101 282.273C412.415 282.947 412.572 283.742 412.572 284.659C412.572 285.583 412.415 286.384 412.101 287.062C411.786 287.737 411.351 288.259 410.794 288.631C410.237 288.998 409.595 289.182 408.868 289.182C408.307 289.182 407.858 289.089 407.521 288.903C407.184 288.714 406.925 288.5 406.743 288.261C406.561 288.019 406.421 287.818 406.322 287.659H406.209V292.273H404.868ZM406.186 284.636C406.186 285.295 406.283 285.877 406.476 286.381C406.669 286.881 406.951 287.273 407.322 287.557C407.694 287.837 408.148 287.977 408.686 287.977C409.247 287.977 409.714 287.83 410.089 287.534C410.468 287.235 410.752 286.833 410.942 286.33C411.135 285.822 411.232 285.258 411.232 284.636C411.232 284.023 411.137 283.47 410.947 282.977C410.762 282.481 410.48 282.089 410.101 281.801C409.726 281.509 409.254 281.364 408.686 281.364C408.141 281.364 407.682 281.502 407.311 281.778C406.94 282.051 406.66 282.434 406.47 282.926C406.281 283.415 406.186 283.985 406.186 284.636ZM418.413 280.273V281.409H413.891V280.273H418.413ZM415.209 278.182H416.55V286.5C416.55 286.879 416.605 287.163 416.714 287.352C416.828 287.538 416.972 287.663 417.146 287.727C417.324 287.788 417.512 287.818 417.709 287.818C417.857 287.818 417.978 287.811 418.072 287.795C418.167 287.777 418.243 287.761 418.3 287.75L418.572 288.955C418.482 288.989 418.355 289.023 418.192 289.057C418.029 289.095 417.822 289.114 417.572 289.114C417.194 289.114 416.822 289.032 416.459 288.869C416.099 288.706 415.8 288.458 415.561 288.125C415.326 287.792 415.209 287.371 415.209 286.864V278.182ZM420.43 289V280.273H421.771V289H420.43ZM421.112 278.818C420.851 278.818 420.625 278.729 420.436 278.551C420.25 278.373 420.158 278.159 420.158 277.909C420.158 277.659 420.25 277.445 420.436 277.267C420.625 277.089 420.851 277 421.112 277C421.374 277 421.597 277.089 421.783 277.267C421.972 277.445 422.067 277.659 422.067 277.909C422.067 278.159 421.972 278.373 421.783 278.551C421.597 278.729 421.374 278.818 421.112 278.818ZM427.773 289.182C426.985 289.182 426.294 288.994 425.699 288.619C425.108 288.244 424.646 287.72 424.312 287.045C423.983 286.371 423.818 285.583 423.818 284.682C423.818 283.773 423.983 282.979 424.312 282.301C424.646 281.623 425.108 281.097 425.699 280.722C426.294 280.347 426.985 280.159 427.773 280.159C428.561 280.159 429.25 280.347 429.841 280.722C430.436 281.097 430.898 281.623 431.227 282.301C431.561 282.979 431.727 283.773 431.727 284.682C431.727 285.583 431.561 286.371 431.227 287.045C430.898 287.72 430.436 288.244 429.841 288.619C429.25 288.994 428.561 289.182 427.773 289.182ZM427.773 287.977C428.371 287.977 428.864 287.824 429.25 287.517C429.636 287.21 429.922 286.807 430.108 286.307C430.294 285.807 430.386 285.265 430.386 284.682C430.386 284.098 430.294 283.555 430.108 283.051C429.922 282.547 429.636 282.14 429.25 281.83C428.864 281.519 428.371 281.364 427.773 281.364C427.174 281.364 426.682 281.519 426.295 281.83C425.909 282.14 425.623 282.547 425.438 283.051C425.252 283.555 425.159 284.098 425.159 284.682C425.159 285.265 425.252 285.807 425.438 286.307C425.623 286.807 425.909 287.21 426.295 287.517C426.682 287.824 427.174 287.977 427.773 287.977ZM435.115 283.75V289H433.774V280.273H435.07V281.636H435.183C435.388 281.193 435.698 280.837 436.115 280.568C436.532 280.295 437.07 280.159 437.729 280.159C438.32 280.159 438.837 280.28 439.28 280.523C439.723 280.761 440.068 281.125 440.314 281.614C440.56 282.098 440.683 282.712 440.683 283.455V289H439.342V283.545C439.342 282.86 439.164 282.326 438.808 281.943C438.452 281.557 437.964 281.364 437.342 281.364C436.914 281.364 436.532 281.456 436.195 281.642C435.861 281.828 435.598 282.098 435.405 282.455C435.212 282.811 435.115 283.242 435.115 283.75Z" fill="white"/>
<rect x="283.5" y="323.5" width="433" height="239" rx="15.5" fill="#2563EB" fill-opacity="0.1"/>
<rect x="283.5" y="323.5" width="433" height="239" rx="15.5" stroke="#2563EB"/>
<rect x="291.5" y="331.5" width="111" height="31" rx="7.5" fill="#0F0F0F"/>
<rect x="291.5" y="331.5" width="111" height="31" rx="7.5" stroke="#404040"/>
<path d="M317.773 345H316.364C316.28 344.595 316.134 344.239 315.926 343.932C315.722 343.625 315.472 343.367 315.176 343.159C314.884 342.947 314.561 342.788 314.205 342.682C313.848 342.576 313.477 342.523 313.091 342.523C312.386 342.523 311.748 342.701 311.176 343.057C310.608 343.413 310.155 343.938 309.818 344.631C309.485 345.324 309.318 346.174 309.318 347.182C309.318 348.189 309.485 349.04 309.818 349.733C310.155 350.426 310.608 350.951 311.176 351.307C311.748 351.663 312.386 351.841 313.091 351.841C313.477 351.841 313.848 351.788 314.205 351.682C314.561 351.576 314.884 351.419 315.176 351.21C315.472 350.998 315.722 350.739 315.926 350.432C316.134 350.121 316.28 349.765 316.364 349.364H317.773C317.667 349.958 317.473 350.491 317.193 350.96C316.913 351.43 316.564 351.83 316.148 352.159C315.731 352.485 315.263 352.733 314.744 352.903C314.229 353.074 313.678 353.159 313.091 353.159C312.098 353.159 311.216 352.917 310.443 352.432C309.67 351.947 309.063 351.258 308.619 350.364C308.176 349.47 307.955 348.409 307.955 347.182C307.955 345.955 308.176 344.894 308.619 344C309.063 343.106 309.67 342.417 310.443 341.932C311.216 341.447 312.098 341.205 313.091 341.205C313.678 341.205 314.229 341.29 314.744 341.46C315.263 341.631 315.731 341.881 316.148 342.21C316.564 342.536 316.913 342.934 317.193 343.403C317.473 343.869 317.667 344.402 317.773 345ZM322.436 353.205C321.883 353.205 321.381 353.1 320.93 352.892C320.48 352.68 320.122 352.375 319.857 351.977C319.591 351.576 319.459 351.091 319.459 350.523C319.459 350.023 319.557 349.617 319.754 349.307C319.951 348.992 320.214 348.746 320.544 348.568C320.874 348.39 321.237 348.258 321.635 348.17C322.036 348.08 322.44 348.008 322.845 347.955C323.375 347.886 323.805 347.835 324.135 347.801C324.468 347.763 324.711 347.701 324.862 347.614C325.018 347.527 325.095 347.375 325.095 347.159V347.114C325.095 346.553 324.942 346.117 324.635 345.807C324.332 345.496 323.872 345.341 323.254 345.341C322.614 345.341 322.112 345.481 321.749 345.761C321.385 346.042 321.129 346.341 320.982 346.659L319.709 346.205C319.936 345.674 320.239 345.261 320.618 344.966C321 344.667 321.417 344.458 321.868 344.341C322.322 344.22 322.769 344.159 323.209 344.159C323.489 344.159 323.811 344.193 324.175 344.261C324.542 344.326 324.896 344.46 325.237 344.665C325.582 344.869 325.868 345.178 326.095 345.591C326.322 346.004 326.436 346.557 326.436 347.25V353H325.095V351.818H325.027C324.936 352.008 324.785 352.21 324.572 352.426C324.36 352.642 324.078 352.826 323.726 352.977C323.374 353.129 322.944 353.205 322.436 353.205ZM322.641 352C323.171 352 323.618 351.896 323.982 351.688C324.349 351.479 324.625 351.21 324.811 350.881C325 350.551 325.095 350.205 325.095 349.841V348.614C325.038 348.682 324.913 348.744 324.72 348.801C324.531 348.854 324.311 348.902 324.061 348.943C323.815 348.981 323.574 349.015 323.339 349.045C323.108 349.072 322.921 349.095 322.777 349.114C322.429 349.159 322.103 349.233 321.8 349.335C321.5 349.434 321.258 349.583 321.072 349.784C320.891 349.981 320.8 350.25 320.8 350.591C320.8 351.057 320.972 351.409 321.317 351.648C321.665 351.883 322.107 352 322.641 352ZM328.884 353V344.273H330.179V345.591H330.27C330.429 345.159 330.717 344.809 331.134 344.54C331.55 344.271 332.02 344.136 332.543 344.136C332.641 344.136 332.764 344.138 332.912 344.142C333.06 344.146 333.171 344.152 333.247 344.159V345.523C333.202 345.511 333.098 345.494 332.935 345.472C332.776 345.445 332.607 345.432 332.429 345.432C332.005 345.432 331.626 345.521 331.293 345.699C330.963 345.873 330.702 346.116 330.509 346.426C330.319 346.733 330.224 347.083 330.224 347.477V353H328.884ZM337.866 353.182C337.139 353.182 336.497 352.998 335.94 352.631C335.384 352.259 334.948 351.737 334.634 351.062C334.319 350.384 334.162 349.583 334.162 348.659C334.162 347.742 334.319 346.947 334.634 346.273C334.948 345.598 335.385 345.078 335.946 344.71C336.507 344.343 337.154 344.159 337.889 344.159C338.457 344.159 338.906 344.254 339.236 344.443C339.569 344.629 339.823 344.841 339.997 345.08C340.175 345.314 340.313 345.508 340.412 345.659H340.526V341.364H341.866V353H340.571V351.659H340.412C340.313 351.818 340.173 352.019 339.991 352.261C339.81 352.5 339.55 352.714 339.213 352.903C338.876 353.089 338.427 353.182 337.866 353.182ZM338.048 351.977C338.586 351.977 339.041 351.837 339.412 351.557C339.783 351.273 340.065 350.881 340.259 350.381C340.452 349.877 340.548 349.295 340.548 348.636C340.548 347.985 340.454 347.415 340.264 346.926C340.075 346.434 339.795 346.051 339.423 345.778C339.052 345.502 338.594 345.364 338.048 345.364C337.48 345.364 337.007 345.509 336.628 345.801C336.253 346.089 335.971 346.481 335.781 346.977C335.596 347.47 335.503 348.023 335.503 348.636C335.503 349.258 335.598 349.822 335.787 350.33C335.98 350.833 336.264 351.235 336.639 351.534C337.018 351.83 337.488 351.977 338.048 351.977ZM349.19 353V341.364H353.259C354.069 341.364 354.738 341.504 355.264 341.784C355.791 342.061 356.183 342.434 356.44 342.903C356.698 343.369 356.827 343.886 356.827 344.455C356.827 344.955 356.738 345.367 356.56 345.693C356.385 346.019 356.154 346.277 355.866 346.466C355.582 346.655 355.274 346.795 354.94 346.886V347C355.296 347.023 355.654 347.148 356.014 347.375C356.374 347.602 356.675 347.928 356.918 348.352C357.16 348.777 357.281 349.295 357.281 349.909C357.281 350.492 357.149 351.017 356.884 351.483C356.618 351.949 356.2 352.318 355.628 352.591C355.056 352.864 354.312 353 353.395 353H349.19ZM350.599 351.75H353.395C354.315 351.75 354.969 351.572 355.355 351.216C355.745 350.856 355.94 350.42 355.94 349.909C355.94 349.515 355.84 349.152 355.639 348.818C355.438 348.481 355.152 348.212 354.781 348.011C354.41 347.807 353.971 347.705 353.463 347.705H350.599V351.75ZM350.599 346.477H353.213C353.637 346.477 354.02 346.394 354.361 346.227C354.705 346.061 354.978 345.826 355.179 345.523C355.384 345.22 355.486 344.864 355.486 344.455C355.486 343.943 355.308 343.509 354.952 343.153C354.596 342.794 354.031 342.614 353.259 342.614H350.599V346.477ZM362.96 353.182C362.172 353.182 361.481 352.994 360.886 352.619C360.295 352.244 359.833 351.72 359.5 351.045C359.17 350.371 359.006 349.583 359.006 348.682C359.006 347.773 359.17 346.979 359.5 346.301C359.833 345.623 360.295 345.097 360.886 344.722C361.481 344.347 362.172 344.159 362.96 344.159C363.748 344.159 364.438 344.347 365.028 344.722C365.623 345.097 366.085 345.623 366.415 346.301C366.748 346.979 366.915 347.773 366.915 348.682C366.915 349.583 366.748 350.371 366.415 351.045C366.085 351.72 365.623 352.244 365.028 352.619C364.438 352.994 363.748 353.182 362.96 353.182ZM362.96 351.977C363.559 351.977 364.051 351.824 364.438 351.517C364.824 351.21 365.11 350.807 365.295 350.307C365.481 349.807 365.574 349.265 365.574 348.682C365.574 348.098 365.481 347.555 365.295 347.051C365.11 346.547 364.824 346.14 364.438 345.83C364.051 345.519 363.559 345.364 362.96 345.364C362.362 345.364 361.869 345.519 361.483 345.83C361.097 346.14 360.811 346.547 360.625 347.051C360.439 347.555 360.347 348.098 360.347 348.682C360.347 349.265 360.439 349.807 360.625 350.307C360.811 350.807 361.097 351.21 361.483 351.517C361.869 351.824 362.362 351.977 362.96 351.977ZM372.257 353.182C371.53 353.182 370.888 352.998 370.331 352.631C369.774 352.259 369.339 351.737 369.024 351.062C368.71 350.384 368.553 349.583 368.553 348.659C368.553 347.742 368.71 346.947 369.024 346.273C369.339 345.598 369.776 345.078 370.337 344.71C370.897 344.343 371.545 344.159 372.28 344.159C372.848 344.159 373.297 344.254 373.626 344.443C373.96 344.629 374.214 344.841 374.388 345.08C374.566 345.314 374.704 345.508 374.803 345.659H374.916V341.364H376.257V353H374.962V351.659H374.803C374.704 351.818 374.564 352.019 374.382 352.261C374.2 352.5 373.941 352.714 373.604 352.903C373.267 353.089 372.818 353.182 372.257 353.182ZM372.439 351.977C372.977 351.977 373.431 351.837 373.803 351.557C374.174 351.273 374.456 350.881 374.649 350.381C374.842 349.877 374.939 349.295 374.939 348.636C374.939 347.985 374.844 347.415 374.655 346.926C374.465 346.434 374.185 346.051 373.814 345.778C373.443 345.502 372.984 345.364 372.439 345.364C371.871 345.364 371.397 345.509 371.018 345.801C370.643 346.089 370.361 346.481 370.172 346.977C369.986 347.47 369.893 348.023 369.893 348.636C369.893 349.258 369.988 349.822 370.178 350.33C370.371 350.833 370.655 351.235 371.03 351.534C371.409 351.83 371.878 351.977 372.439 351.977ZM379.763 356.273C379.536 356.273 379.333 356.254 379.155 356.216C378.977 356.182 378.854 356.148 378.786 356.114L379.126 354.932C379.452 355.015 379.74 355.045 379.99 355.023C380.24 355 380.462 354.888 380.655 354.688C380.852 354.491 381.032 354.17 381.195 353.727L381.445 353.045L378.217 344.273H379.672L382.081 351.227H382.172L384.581 344.273H386.036L382.331 354.273C382.164 354.723 381.958 355.097 381.712 355.392C381.465 355.691 381.179 355.913 380.854 356.057C380.532 356.201 380.168 356.273 379.763 356.273Z" fill="white"/>
<rect x="283.5" y="571.5" width="433" height="47" rx="15.5" fill="#2563EB" fill-opacity="0.1"/>
<rect x="283.5" y="571.5" width="433" height="47" rx="15.5" stroke="#2563EB"/>
<rect x="291.5" y="579.5" width="121" height="31" rx="7.5" fill="#0F0F0F"/>
<rect x="291.5" y="579.5" width="121" height="31" rx="7.5" stroke="#404040"/>
<path d="M317.773 593H316.364C316.28 592.595 316.134 592.239 315.926 591.932C315.722 591.625 315.472 591.367 315.176 591.159C314.884 590.947 314.561 590.788 314.205 590.682C313.848 590.576 313.477 590.523 313.091 590.523C312.386 590.523 311.748 590.701 311.176 591.057C310.608 591.413 310.155 591.938 309.818 592.631C309.485 593.324 309.318 594.174 309.318 595.182C309.318 596.189 309.485 597.04 309.818 597.733C310.155 598.426 310.608 598.951 311.176 599.307C311.748 599.663 312.386 599.841 313.091 599.841C313.477 599.841 313.848 599.788 314.205 599.682C314.561 599.576 314.884 599.419 315.176 599.21C315.472 598.998 315.722 598.739 315.926 598.432C316.134 598.121 316.28 597.765 316.364 597.364H317.773C317.667 597.958 317.473 598.491 317.193 598.96C316.913 599.43 316.564 599.83 316.148 600.159C315.731 600.485 315.263 600.733 314.744 600.903C314.229 601.074 313.678 601.159 313.091 601.159C312.098 601.159 311.216 600.917 310.443 600.432C309.67 599.947 309.063 599.258 308.619 598.364C308.176 597.47 307.955 596.409 307.955 595.182C307.955 593.955 308.176 592.894 308.619 592C309.063 591.106 309.67 590.417 310.443 589.932C311.216 589.447 312.098 589.205 313.091 589.205C313.678 589.205 314.229 589.29 314.744 589.46C315.263 589.631 315.731 589.881 316.148 590.21C316.564 590.536 316.913 590.934 317.193 591.403C317.473 591.869 317.667 592.402 317.773 593ZM322.436 601.205C321.883 601.205 321.381 601.1 320.93 600.892C320.48 600.68 320.122 600.375 319.857 599.977C319.591 599.576 319.459 599.091 319.459 598.523C319.459 598.023 319.557 597.617 319.754 597.307C319.951 596.992 320.214 596.746 320.544 596.568C320.874 596.39 321.237 596.258 321.635 596.17C322.036 596.08 322.44 596.008 322.845 595.955C323.375 595.886 323.805 595.835 324.135 595.801C324.468 595.763 324.711 595.701 324.862 595.614C325.018 595.527 325.095 595.375 325.095 595.159V595.114C325.095 594.553 324.942 594.117 324.635 593.807C324.332 593.496 323.872 593.341 323.254 593.341C322.614 593.341 322.112 593.481 321.749 593.761C321.385 594.042 321.129 594.341 320.982 594.659L319.709 594.205C319.936 593.674 320.239 593.261 320.618 592.966C321 592.667 321.417 592.458 321.868 592.341C322.322 592.22 322.769 592.159 323.209 592.159C323.489 592.159 323.811 592.193 324.175 592.261C324.542 592.326 324.896 592.46 325.237 592.665C325.582 592.869 325.868 593.178 326.095 593.591C326.322 594.004 326.436 594.557 326.436 595.25V601H325.095V599.818H325.027C324.936 600.008 324.785 600.21 324.572 600.426C324.36 600.642 324.078 600.826 323.726 600.977C323.374 601.129 322.944 601.205 322.436 601.205ZM322.641 600C323.171 600 323.618 599.896 323.982 599.688C324.349 599.479 324.625 599.21 324.811 598.881C325 598.551 325.095 598.205 325.095 597.841V596.614C325.038 596.682 324.913 596.744 324.72 596.801C324.531 596.854 324.311 596.902 324.061 596.943C323.815 596.981 323.574 597.015 323.339 597.045C323.108 597.072 322.921 597.095 322.777 597.114C322.429 597.159 322.103 597.233 321.8 597.335C321.5 597.434 321.258 597.583 321.072 597.784C320.891 597.981 320.8 598.25 320.8 598.591C320.8 599.057 320.972 599.409 321.317 599.648C321.665 599.883 322.107 600 322.641 600ZM328.884 601V592.273H330.179V593.591H330.27C330.429 593.159 330.717 592.809 331.134 592.54C331.55 592.271 332.02 592.136 332.543 592.136C332.641 592.136 332.764 592.138 332.912 592.142C333.06 592.146 333.171 592.152 333.247 592.159V593.523C333.202 593.511 333.098 593.494 332.935 593.472C332.776 593.445 332.607 593.432 332.429 593.432C332.005 593.432 331.626 593.521 331.293 593.699C330.963 593.873 330.702 594.116 330.509 594.426C330.319 594.733 330.224 595.083 330.224 595.477V601H328.884ZM337.866 601.182C337.139 601.182 336.497 600.998 335.94 600.631C335.384 600.259 334.948 599.737 334.634 599.062C334.319 598.384 334.162 597.583 334.162 596.659C334.162 595.742 334.319 594.947 334.634 594.273C334.948 593.598 335.385 593.078 335.946 592.71C336.507 592.343 337.154 592.159 337.889 592.159C338.457 592.159 338.906 592.254 339.236 592.443C339.569 592.629 339.823 592.841 339.997 593.08C340.175 593.314 340.313 593.508 340.412 593.659H340.526V589.364H341.866V601H340.571V599.659H340.412C340.313 599.818 340.173 600.019 339.991 600.261C339.81 600.5 339.55 600.714 339.213 600.903C338.876 601.089 338.427 601.182 337.866 601.182ZM338.048 599.977C338.586 599.977 339.041 599.837 339.412 599.557C339.783 599.273 340.065 598.881 340.259 598.381C340.452 597.877 340.548 597.295 340.548 596.636C340.548 595.985 340.454 595.415 340.264 594.926C340.075 594.434 339.795 594.051 339.423 593.778C339.052 593.502 338.594 593.364 338.048 593.364C337.48 593.364 337.007 593.509 336.628 593.801C336.253 594.089 335.971 594.481 335.781 594.977C335.596 595.47 335.503 596.023 335.503 596.636C335.503 597.258 335.598 597.822 335.787 598.33C335.98 598.833 336.264 599.235 336.639 599.534C337.018 599.83 337.488 599.977 338.048 599.977ZM349.19 601V589.364H356.168V590.614H350.599V594.545H355.645V595.795H350.599V601H349.19ZM361.304 601.182C360.516 601.182 359.825 600.994 359.23 600.619C358.639 600.244 358.177 599.72 357.844 599.045C357.514 598.371 357.349 597.583 357.349 596.682C357.349 595.773 357.514 594.979 357.844 594.301C358.177 593.623 358.639 593.097 359.23 592.722C359.825 592.347 360.516 592.159 361.304 592.159C362.092 592.159 362.781 592.347 363.372 592.722C363.967 593.097 364.429 593.623 364.759 594.301C365.092 594.979 365.259 595.773 365.259 596.682C365.259 597.583 365.092 598.371 364.759 599.045C364.429 599.72 363.967 600.244 363.372 600.619C362.781 600.994 362.092 601.182 361.304 601.182ZM361.304 599.977C361.902 599.977 362.395 599.824 362.781 599.517C363.168 599.21 363.454 598.807 363.639 598.307C363.825 597.807 363.918 597.265 363.918 596.682C363.918 596.098 363.825 595.555 363.639 595.051C363.454 594.547 363.168 594.14 362.781 593.83C362.395 593.519 361.902 593.364 361.304 593.364C360.705 593.364 360.213 593.519 359.827 593.83C359.44 594.14 359.154 594.547 358.969 595.051C358.783 595.555 358.69 596.098 358.69 596.682C358.69 597.265 358.783 597.807 358.969 598.307C359.154 598.807 359.44 599.21 359.827 599.517C360.213 599.824 360.705 599.977 361.304 599.977ZM370.851 601.182C370.063 601.182 369.372 600.994 368.777 600.619C368.186 600.244 367.724 599.72 367.391 599.045C367.061 598.371 366.896 597.583 366.896 596.682C366.896 595.773 367.061 594.979 367.391 594.301C367.724 593.623 368.186 593.097 368.777 592.722C369.372 592.347 370.063 592.159 370.851 592.159C371.639 592.159 372.328 592.347 372.919 592.722C373.514 593.097 373.976 593.623 374.305 594.301C374.639 594.979 374.805 595.773 374.805 596.682C374.805 597.583 374.639 598.371 374.305 599.045C373.976 599.72 373.514 600.244 372.919 600.619C372.328 600.994 371.639 601.182 370.851 601.182ZM370.851 599.977C371.449 599.977 371.942 599.824 372.328 599.517C372.714 599.21 373 598.807 373.186 598.307C373.372 597.807 373.464 597.265 373.464 596.682C373.464 596.098 373.372 595.555 373.186 595.051C373 594.547 372.714 594.14 372.328 593.83C371.942 593.519 371.449 593.364 370.851 593.364C370.252 593.364 369.76 593.519 369.374 593.83C368.987 594.14 368.701 594.547 368.516 595.051C368.33 595.555 368.237 596.098 368.237 596.682C368.237 597.265 368.33 597.807 368.516 598.307C368.701 598.807 368.987 599.21 369.374 599.517C369.76 599.824 370.252 599.977 370.851 599.977ZM380.648 592.273V593.409H376.125V592.273H380.648ZM377.443 590.182H378.784V598.5C378.784 598.879 378.839 599.163 378.949 599.352C379.063 599.538 379.206 599.663 379.381 599.727C379.559 599.788 379.746 599.818 379.943 599.818C380.091 599.818 380.212 599.811 380.307 599.795C380.402 599.777 380.477 599.761 380.534 599.75L380.807 600.955C380.716 600.989 380.589 601.023 380.426 601.057C380.263 601.095 380.057 601.114 379.807 601.114C379.428 601.114 379.057 601.032 378.693 600.869C378.333 600.706 378.034 600.458 377.795 600.125C377.561 599.792 377.443 599.371 377.443 598.864V590.182ZM386.23 601.182C385.389 601.182 384.664 600.996 384.054 600.625C383.448 600.25 382.98 599.727 382.651 599.057C382.325 598.383 382.162 597.598 382.162 596.705C382.162 595.811 382.325 595.023 382.651 594.341C382.98 593.655 383.438 593.121 384.026 592.739C384.616 592.352 385.306 592.159 386.094 592.159C386.548 592.159 386.997 592.235 387.44 592.386C387.884 592.538 388.287 592.784 388.651 593.125C389.014 593.462 389.304 593.909 389.52 594.466C389.736 595.023 389.844 595.708 389.844 596.523V597.091H383.116V595.932H388.48C388.48 595.439 388.382 595 388.185 594.614C387.991 594.227 387.715 593.922 387.355 593.699C386.999 593.475 386.579 593.364 386.094 593.364C385.56 593.364 385.098 593.496 384.707 593.761C384.321 594.023 384.024 594.364 383.815 594.784C383.607 595.205 383.503 595.655 383.503 596.136V596.909C383.503 597.568 383.616 598.127 383.844 598.585C384.075 599.04 384.395 599.386 384.804 599.625C385.213 599.86 385.688 599.977 386.23 599.977C386.582 599.977 386.901 599.928 387.185 599.83C387.473 599.727 387.721 599.576 387.929 599.375C388.137 599.17 388.298 598.917 388.412 598.614L389.707 598.977C389.571 599.417 389.342 599.803 389.02 600.136C388.698 600.466 388.3 600.723 387.827 600.909C387.353 601.091 386.821 601.182 386.23 601.182ZM391.884 601V592.273H393.179V593.591H393.27C393.429 593.159 393.717 592.809 394.134 592.54C394.55 592.271 395.02 592.136 395.543 592.136C395.641 592.136 395.764 592.138 395.912 592.142C396.06 592.146 396.171 592.152 396.247 592.159V593.523C396.202 593.511 396.098 593.494 395.935 593.472C395.776 593.445 395.607 593.432 395.429 593.432C395.005 593.432 394.626 593.521 394.293 593.699C393.963 593.873 393.702 594.116 393.509 594.426C393.319 594.733 393.224 595.083 393.224 595.477V601H391.884Z" fill="white"/>
</svg>
