<svg width="1000" height="750" viewBox="0 0 1000 750" fill="none" xmlns="http://www.w3.org/2000/svg">
<rect x="275.5" y="111.5" width="449" height="527" rx="15.5" fill="#15803D" fill-opacity="0.1"/>
<rect x="275.5" y="111.5" width="449" height="527" rx="15.5" stroke="#15803D"/>
<rect x="283.5" y="119.5" width="79" height="31" rx="7.5" fill="#0F0F0F"/>
<rect x="283.5" y="119.5" width="79" height="31" rx="7.5" stroke="#404040"/>
<path d="M304 141H300.409V129.364H304.159C305.288 129.364 306.254 129.597 307.057 130.062C307.86 130.525 308.475 131.189 308.903 132.057C309.331 132.92 309.545 133.955 309.545 135.159C309.545 136.371 309.33 137.415 308.898 138.29C308.466 139.161 307.837 139.831 307.011 140.301C306.186 140.767 305.182 141 304 141ZM301.818 139.75H303.909C304.871 139.75 305.669 139.564 306.301 139.193C306.934 138.822 307.405 138.294 307.716 137.608C308.027 136.922 308.182 136.106 308.182 135.159C308.182 134.22 308.028 133.411 307.722 132.733C307.415 132.051 306.956 131.528 306.347 131.165C305.737 130.797 304.977 130.614 304.068 130.614H301.818V139.75ZM311.727 141V132.273H313.068V141H311.727ZM312.409 130.818C312.148 130.818 311.922 130.729 311.733 130.551C311.547 130.373 311.455 130.159 311.455 129.909C311.455 129.659 311.547 129.445 311.733 129.267C311.922 129.089 312.148 129 312.409 129C312.67 129 312.894 129.089 313.08 129.267C313.269 129.445 313.364 129.659 313.364 129.909C313.364 130.159 313.269 130.373 313.08 130.551C312.894 130.729 312.67 130.818 312.409 130.818ZM318.092 141.205C317.539 141.205 317.037 141.1 316.587 140.892C316.136 140.68 315.778 140.375 315.513 139.977C315.248 139.576 315.115 139.091 315.115 138.523C315.115 138.023 315.214 137.617 315.411 137.307C315.607 136.992 315.871 136.746 316.2 136.568C316.53 136.39 316.893 136.258 317.291 136.17C317.693 136.08 318.096 136.008 318.501 135.955C319.032 135.886 319.462 135.835 319.791 135.801C320.125 135.763 320.367 135.701 320.518 135.614C320.674 135.527 320.751 135.375 320.751 135.159V135.114C320.751 134.553 320.598 134.117 320.291 133.807C319.988 133.496 319.528 133.341 318.911 133.341C318.27 133.341 317.768 133.481 317.405 133.761C317.041 134.042 316.786 134.341 316.638 134.659L315.365 134.205C315.592 133.674 315.895 133.261 316.274 132.966C316.657 132.667 317.073 132.458 317.524 132.341C317.979 132.22 318.426 132.159 318.865 132.159C319.145 132.159 319.467 132.193 319.831 132.261C320.198 132.326 320.553 132.46 320.893 132.665C321.238 132.869 321.524 133.178 321.751 133.591C321.979 134.004 322.092 134.557 322.092 135.25V141H320.751V139.818H320.683C320.592 140.008 320.441 140.21 320.229 140.426C320.017 140.642 319.734 140.826 319.382 140.977C319.03 141.129 318.6 141.205 318.092 141.205ZM318.297 140C318.827 140 319.274 139.896 319.638 139.688C320.005 139.479 320.282 139.21 320.467 138.881C320.657 138.551 320.751 138.205 320.751 137.841V136.614C320.695 136.682 320.57 136.744 320.376 136.801C320.187 136.854 319.967 136.902 319.717 136.943C319.471 136.981 319.231 137.015 318.996 137.045C318.765 137.072 318.577 137.095 318.433 137.114C318.085 137.159 317.759 137.233 317.456 137.335C317.157 137.434 316.914 137.583 316.729 137.784C316.547 137.981 316.456 138.25 316.456 138.591C316.456 139.057 316.628 139.409 316.973 139.648C317.321 139.883 317.763 140 318.297 140ZM325.881 129.364V141H324.54V129.364H325.881ZM331.882 141.182C331.094 141.182 330.403 140.994 329.808 140.619C329.217 140.244 328.755 139.72 328.422 139.045C328.092 138.371 327.928 137.583 327.928 136.682C327.928 135.773 328.092 134.979 328.422 134.301C328.755 133.623 329.217 133.097 329.808 132.722C330.403 132.347 331.094 132.159 331.882 132.159C332.67 132.159 333.359 132.347 333.95 132.722C334.545 133.097 335.007 133.623 335.337 134.301C335.67 134.979 335.837 135.773 335.837 136.682C335.837 137.583 335.67 138.371 335.337 139.045C335.007 139.72 334.545 140.244 333.95 140.619C333.359 140.994 332.67 141.182 331.882 141.182ZM331.882 139.977C332.481 139.977 332.973 139.824 333.359 139.517C333.746 139.21 334.032 138.807 334.217 138.307C334.403 137.807 334.496 137.265 334.496 136.682C334.496 136.098 334.403 135.555 334.217 135.051C334.032 134.547 333.746 134.14 333.359 133.83C332.973 133.519 332.481 133.364 331.882 133.364C331.284 133.364 330.791 133.519 330.405 133.83C330.018 134.14 329.732 134.547 329.547 135.051C329.361 135.555 329.268 136.098 329.268 136.682C329.268 137.265 329.361 137.807 329.547 138.307C329.732 138.807 330.018 139.21 330.405 139.517C330.791 139.824 331.284 139.977 331.882 139.977ZM341.406 144.455C340.759 144.455 340.202 144.371 339.736 144.205C339.27 144.042 338.882 143.826 338.571 143.557C338.264 143.292 338.02 143.008 337.838 142.705L338.906 141.955C339.027 142.114 339.181 142.295 339.366 142.5C339.552 142.708 339.806 142.888 340.128 143.04C340.454 143.195 340.88 143.273 341.406 143.273C342.111 143.273 342.692 143.102 343.151 142.761C343.609 142.42 343.838 141.886 343.838 141.159V139.386H343.724C343.626 139.545 343.486 139.742 343.304 139.977C343.126 140.208 342.868 140.415 342.531 140.597C342.198 140.775 341.747 140.864 341.179 140.864C340.474 140.864 339.842 140.697 339.281 140.364C338.724 140.03 338.283 139.545 337.957 138.909C337.635 138.273 337.474 137.5 337.474 136.591C337.474 135.697 337.632 134.919 337.946 134.256C338.26 133.589 338.698 133.074 339.259 132.71C339.819 132.343 340.467 132.159 341.202 132.159C341.77 132.159 342.221 132.254 342.554 132.443C342.891 132.629 343.149 132.841 343.327 133.08C343.509 133.314 343.649 133.508 343.747 133.659H343.884V132.273H345.179V141.25C345.179 142 345.009 142.61 344.668 143.08C344.33 143.553 343.876 143.9 343.304 144.119C342.736 144.343 342.103 144.455 341.406 144.455ZM341.361 139.659C341.899 139.659 342.353 139.536 342.724 139.29C343.096 139.044 343.378 138.689 343.571 138.227C343.764 137.765 343.861 137.212 343.861 136.568C343.861 135.939 343.766 135.384 343.577 134.903C343.387 134.422 343.107 134.045 342.736 133.773C342.365 133.5 341.906 133.364 341.361 133.364C340.793 133.364 340.319 133.508 339.94 133.795C339.565 134.083 339.283 134.47 339.094 134.955C338.908 135.439 338.815 135.977 338.815 136.568C338.815 137.174 338.91 137.71 339.099 138.176C339.293 138.638 339.577 139.002 339.952 139.267C340.33 139.528 340.8 139.659 341.361 139.659Z" fill="white"/>
<rect x="283.5" y="159.5" width="433" height="47" rx="15.5" fill="#2563EB" fill-opacity="0.1"/>
<rect x="283.5" y="159.5" width="433" height="47" rx="15.5" stroke="#2563EB"/>
<rect x="291.5" y="167.5" width="137" height="31" rx="7.5" fill="#0F0F0F"/>
<rect x="291.5" y="167.5" width="137" height="31" rx="7.5" stroke="#404040"/>
<path d="M312 189H308.409V177.364H312.159C313.288 177.364 314.254 177.597 315.057 178.062C315.86 178.525 316.475 179.189 316.903 180.057C317.331 180.92 317.545 181.955 317.545 183.159C317.545 184.371 317.33 185.415 316.898 186.29C316.466 187.161 315.837 187.831 315.011 188.301C314.186 188.767 313.182 189 312 189ZM309.818 187.75H311.909C312.871 187.75 313.669 187.564 314.301 187.193C314.934 186.822 315.405 186.294 315.716 185.608C316.027 184.922 316.182 184.106 316.182 183.159C316.182 182.22 316.028 181.411 315.722 180.733C315.415 180.051 314.956 179.528 314.347 179.165C313.737 178.797 312.977 178.614 312.068 178.614H309.818V187.75ZM319.727 189V180.273H321.068V189H319.727ZM320.409 178.818C320.148 178.818 319.922 178.729 319.733 178.551C319.547 178.373 319.455 178.159 319.455 177.909C319.455 177.659 319.547 177.445 319.733 177.267C319.922 177.089 320.148 177 320.409 177C320.67 177 320.894 177.089 321.08 177.267C321.269 177.445 321.364 177.659 321.364 177.909C321.364 178.159 321.269 178.373 321.08 178.551C320.894 178.729 320.67 178.818 320.409 178.818ZM326.092 189.205C325.539 189.205 325.037 189.1 324.587 188.892C324.136 188.68 323.778 188.375 323.513 187.977C323.248 187.576 323.115 187.091 323.115 186.523C323.115 186.023 323.214 185.617 323.411 185.307C323.607 184.992 323.871 184.746 324.2 184.568C324.53 184.39 324.893 184.258 325.291 184.17C325.693 184.08 326.096 184.008 326.501 183.955C327.032 183.886 327.462 183.835 327.791 183.801C328.125 183.763 328.367 183.701 328.518 183.614C328.674 183.527 328.751 183.375 328.751 183.159V183.114C328.751 182.553 328.598 182.117 328.291 181.807C327.988 181.496 327.528 181.341 326.911 181.341C326.27 181.341 325.768 181.481 325.405 181.761C325.041 182.042 324.786 182.341 324.638 182.659L323.365 182.205C323.592 181.674 323.895 181.261 324.274 180.966C324.657 180.667 325.073 180.458 325.524 180.341C325.979 180.22 326.426 180.159 326.865 180.159C327.145 180.159 327.467 180.193 327.831 180.261C328.198 180.326 328.553 180.46 328.893 180.665C329.238 180.869 329.524 181.178 329.751 181.591C329.979 182.004 330.092 182.557 330.092 183.25V189H328.751V187.818H328.683C328.592 188.008 328.441 188.21 328.229 188.426C328.017 188.642 327.734 188.826 327.382 188.977C327.03 189.129 326.6 189.205 326.092 189.205ZM326.297 188C326.827 188 327.274 187.896 327.638 187.688C328.005 187.479 328.282 187.21 328.467 186.881C328.657 186.551 328.751 186.205 328.751 185.841V184.614C328.695 184.682 328.57 184.744 328.376 184.801C328.187 184.854 327.967 184.902 327.717 184.943C327.471 184.981 327.231 185.015 326.996 185.045C326.765 185.072 326.577 185.095 326.433 185.114C326.085 185.159 325.759 185.233 325.456 185.335C325.157 185.434 324.914 185.583 324.729 185.784C324.547 185.981 324.456 186.25 324.456 186.591C324.456 187.057 324.628 187.409 324.973 187.648C325.321 187.883 325.763 188 326.297 188ZM333.881 177.364V189H332.54V177.364H333.881ZM339.882 189.182C339.094 189.182 338.403 188.994 337.808 188.619C337.217 188.244 336.755 187.72 336.422 187.045C336.092 186.371 335.928 185.583 335.928 184.682C335.928 183.773 336.092 182.979 336.422 182.301C336.755 181.623 337.217 181.097 337.808 180.722C338.403 180.347 339.094 180.159 339.882 180.159C340.67 180.159 341.359 180.347 341.95 180.722C342.545 181.097 343.007 181.623 343.337 182.301C343.67 182.979 343.837 183.773 343.837 184.682C343.837 185.583 343.67 186.371 343.337 187.045C343.007 187.72 342.545 188.244 341.95 188.619C341.359 188.994 340.67 189.182 339.882 189.182ZM339.882 187.977C340.481 187.977 340.973 187.824 341.359 187.517C341.746 187.21 342.032 186.807 342.217 186.307C342.403 185.807 342.496 185.265 342.496 184.682C342.496 184.098 342.403 183.555 342.217 183.051C342.032 182.547 341.746 182.14 341.359 181.83C340.973 181.519 340.481 181.364 339.882 181.364C339.284 181.364 338.791 181.519 338.405 181.83C338.018 182.14 337.732 182.547 337.547 183.051C337.361 183.555 337.268 184.098 337.268 184.682C337.268 185.265 337.361 185.807 337.547 186.307C337.732 186.807 338.018 187.21 338.405 187.517C338.791 187.824 339.284 187.977 339.882 187.977ZM349.406 192.455C348.759 192.455 348.202 192.371 347.736 192.205C347.27 192.042 346.882 191.826 346.571 191.557C346.264 191.292 346.02 191.008 345.838 190.705L346.906 189.955C347.027 190.114 347.181 190.295 347.366 190.5C347.552 190.708 347.806 190.888 348.128 191.04C348.454 191.195 348.88 191.273 349.406 191.273C350.111 191.273 350.692 191.102 351.151 190.761C351.609 190.42 351.838 189.886 351.838 189.159V187.386H351.724C351.626 187.545 351.486 187.742 351.304 187.977C351.126 188.208 350.868 188.415 350.531 188.597C350.198 188.775 349.747 188.864 349.179 188.864C348.474 188.864 347.842 188.697 347.281 188.364C346.724 188.03 346.283 187.545 345.957 186.909C345.635 186.273 345.474 185.5 345.474 184.591C345.474 183.697 345.632 182.919 345.946 182.256C346.26 181.589 346.698 181.074 347.259 180.71C347.819 180.343 348.467 180.159 349.202 180.159C349.77 180.159 350.221 180.254 350.554 180.443C350.891 180.629 351.149 180.841 351.327 181.08C351.509 181.314 351.649 181.508 351.747 181.659H351.884V180.273H353.179V189.25C353.179 190 353.009 190.61 352.668 191.08C352.33 191.553 351.876 191.9 351.304 192.119C350.736 192.343 350.103 192.455 349.406 192.455ZM349.361 187.659C349.899 187.659 350.353 187.536 350.724 187.29C351.096 187.044 351.378 186.689 351.571 186.227C351.764 185.765 351.861 185.212 351.861 184.568C351.861 183.939 351.766 183.384 351.577 182.903C351.387 182.422 351.107 182.045 350.736 181.773C350.365 181.5 349.906 181.364 349.361 181.364C348.793 181.364 348.319 181.508 347.94 181.795C347.565 182.083 347.283 182.47 347.094 182.955C346.908 183.439 346.815 183.977 346.815 184.568C346.815 185.174 346.91 185.71 347.099 186.176C347.293 186.638 347.577 187.002 347.952 187.267C348.33 187.528 348.8 187.659 349.361 187.659ZM359.679 178.614V177.364H368.406V178.614H364.747V189H363.338V178.614H359.679ZM369.493 189V180.273H370.788V181.591H370.879C371.038 181.159 371.326 180.809 371.743 180.54C372.16 180.271 372.629 180.136 373.152 180.136C373.25 180.136 373.374 180.138 373.521 180.142C373.669 180.146 373.781 180.152 373.857 180.159V181.523C373.811 181.511 373.707 181.494 373.544 181.472C373.385 181.445 373.216 181.432 373.038 181.432C372.614 181.432 372.235 181.521 371.902 181.699C371.572 181.873 371.311 182.116 371.118 182.426C370.929 182.733 370.834 183.083 370.834 183.477V189H369.493ZM375.446 189V180.273H376.787V189H375.446ZM376.128 178.818C375.866 178.818 375.641 178.729 375.452 178.551C375.266 178.373 375.173 178.159 375.173 177.909C375.173 177.659 375.266 177.445 375.452 177.267C375.641 177.089 375.866 177 376.128 177C376.389 177 376.613 177.089 376.798 177.267C376.988 177.445 377.082 177.659 377.082 177.909C377.082 178.159 376.988 178.373 376.798 178.551C376.613 178.729 376.389 178.818 376.128 178.818ZM382.766 192.455C382.118 192.455 381.561 192.371 381.095 192.205C380.629 192.042 380.241 191.826 379.93 191.557C379.624 191.292 379.379 191.008 379.197 190.705L380.266 189.955C380.387 190.114 380.54 190.295 380.726 190.5C380.911 190.708 381.165 190.888 381.487 191.04C381.813 191.195 382.239 191.273 382.766 191.273C383.47 191.273 384.052 191.102 384.51 190.761C384.968 190.42 385.197 189.886 385.197 189.159V187.386H385.084C384.985 187.545 384.845 187.742 384.663 187.977C384.485 188.208 384.228 188.415 383.891 188.597C383.557 188.775 383.107 188.864 382.538 188.864C381.834 188.864 381.201 188.697 380.641 188.364C380.084 188.03 379.643 187.545 379.317 186.909C378.995 186.273 378.834 185.5 378.834 184.591C378.834 183.697 378.991 182.919 379.305 182.256C379.62 181.589 380.057 181.074 380.618 180.71C381.179 180.343 381.826 180.159 382.561 180.159C383.129 180.159 383.58 180.254 383.913 180.443C384.25 180.629 384.508 180.841 384.686 181.08C384.868 181.314 385.008 181.508 385.107 181.659H385.243V180.273H386.538V189.25C386.538 190 386.368 190.61 386.027 191.08C385.69 191.553 385.235 191.9 384.663 192.119C384.095 192.343 383.463 192.455 382.766 192.455ZM382.72 187.659C383.258 187.659 383.713 187.536 384.084 187.29C384.455 187.044 384.737 186.689 384.93 186.227C385.124 185.765 385.22 185.212 385.22 184.568C385.22 183.939 385.125 183.384 384.936 182.903C384.747 182.422 384.466 182.045 384.095 181.773C383.724 181.5 383.266 181.364 382.72 181.364C382.152 181.364 381.679 181.508 381.3 181.795C380.925 182.083 380.643 182.47 380.453 182.955C380.268 183.439 380.175 183.977 380.175 184.568C380.175 185.174 380.269 185.71 380.459 186.176C380.652 186.638 380.936 187.002 381.311 187.267C381.69 187.528 382.16 187.659 382.72 187.659ZM392.516 192.455C391.868 192.455 391.311 192.371 390.845 192.205C390.379 192.042 389.991 191.826 389.68 191.557C389.374 191.292 389.129 191.008 388.947 190.705L390.016 189.955C390.137 190.114 390.29 190.295 390.476 190.5C390.661 190.708 390.915 190.888 391.237 191.04C391.563 191.195 391.989 191.273 392.516 191.273C393.22 191.273 393.802 191.102 394.26 190.761C394.718 190.42 394.947 189.886 394.947 189.159V187.386H394.834C394.735 187.545 394.595 187.742 394.413 187.977C394.235 188.208 393.978 188.415 393.641 188.597C393.307 188.775 392.857 188.864 392.288 188.864C391.584 188.864 390.951 188.697 390.391 188.364C389.834 188.03 389.393 187.545 389.067 186.909C388.745 186.273 388.584 185.5 388.584 184.591C388.584 183.697 388.741 182.919 389.055 182.256C389.37 181.589 389.807 181.074 390.368 180.71C390.929 180.343 391.576 180.159 392.311 180.159C392.879 180.159 393.33 180.254 393.663 180.443C394 180.629 394.258 180.841 394.436 181.08C394.618 181.314 394.758 181.508 394.857 181.659H394.993V180.273H396.288V189.25C396.288 190 396.118 190.61 395.777 191.08C395.44 191.553 394.985 191.9 394.413 192.119C393.845 192.343 393.213 192.455 392.516 192.455ZM392.47 187.659C393.008 187.659 393.463 187.536 393.834 187.29C394.205 187.044 394.487 186.689 394.68 186.227C394.874 185.765 394.97 185.212 394.97 184.568C394.97 183.939 394.875 183.384 394.686 182.903C394.497 182.422 394.216 182.045 393.845 181.773C393.474 181.5 393.016 181.364 392.47 181.364C391.902 181.364 391.429 181.508 391.05 181.795C390.675 182.083 390.393 182.47 390.203 182.955C390.018 183.439 389.925 183.977 389.925 184.568C389.925 185.174 390.019 185.71 390.209 186.176C390.402 186.638 390.686 187.002 391.061 187.267C391.44 187.528 391.91 187.659 392.47 187.659ZM402.402 189.182C401.561 189.182 400.836 188.996 400.226 188.625C399.62 188.25 399.152 187.727 398.822 187.057C398.497 186.383 398.334 185.598 398.334 184.705C398.334 183.811 398.497 183.023 398.822 182.341C399.152 181.655 399.61 181.121 400.197 180.739C400.788 180.352 401.478 180.159 402.266 180.159C402.72 180.159 403.169 180.235 403.612 180.386C404.055 180.538 404.459 180.784 404.822 181.125C405.186 181.462 405.476 181.909 405.692 182.466C405.908 183.023 406.016 183.708 406.016 184.523V185.091H399.288V183.932H404.652C404.652 183.439 404.554 183 404.357 182.614C404.163 182.227 403.887 181.922 403.527 181.699C403.171 181.475 402.75 181.364 402.266 181.364C401.732 181.364 401.269 181.496 400.879 181.761C400.493 182.023 400.196 182.364 399.987 182.784C399.779 183.205 399.675 183.655 399.675 184.136V184.909C399.675 185.568 399.788 186.127 400.016 186.585C400.247 187.04 400.567 187.386 400.976 187.625C401.385 187.86 401.86 187.977 402.402 187.977C402.754 187.977 403.072 187.928 403.357 187.83C403.644 187.727 403.893 187.576 404.101 187.375C404.309 187.17 404.47 186.917 404.584 186.614L405.879 186.977C405.743 187.417 405.514 187.803 405.192 188.136C404.87 188.466 404.472 188.723 403.999 188.909C403.525 189.091 402.993 189.182 402.402 189.182ZM408.055 189V180.273H409.351V181.591H409.442C409.601 181.159 409.889 180.809 410.305 180.54C410.722 180.271 411.192 180.136 411.714 180.136C411.813 180.136 411.936 180.138 412.084 180.142C412.232 180.146 412.343 180.152 412.419 180.159V181.523C412.374 181.511 412.269 181.494 412.107 181.472C411.947 181.445 411.779 181.432 411.601 181.432C411.177 181.432 410.798 181.521 410.464 181.699C410.135 181.873 409.874 182.116 409.68 182.426C409.491 182.733 409.396 183.083 409.396 183.477V189H408.055Z" fill="white"/>
<rect x="283.5" y="215.5" width="433" height="415" rx="15.5" fill="#2563EB" fill-opacity="0.1"/>
<rect x="283.5" y="215.5" width="433" height="415" rx="15.5" stroke="#2563EB"/>
<rect x="291.5" y="223.5" width="122" height="31" rx="7.5" fill="#0F0F0F"/>
<rect x="291.5" y="223.5" width="122" height="31" rx="7.5" stroke="#404040"/>
<path d="M312 245H308.409V233.364H312.159C313.288 233.364 314.254 233.597 315.057 234.062C315.86 234.525 316.475 235.189 316.903 236.057C317.331 236.92 317.545 237.955 317.545 239.159C317.545 240.371 317.33 241.415 316.898 242.29C316.466 243.161 315.837 243.831 315.011 244.301C314.186 244.767 313.182 245 312 245ZM309.818 243.75H311.909C312.871 243.75 313.669 243.564 314.301 243.193C314.934 242.822 315.405 242.294 315.716 241.608C316.027 240.922 316.182 240.106 316.182 239.159C316.182 238.22 316.028 237.411 315.722 236.733C315.415 236.051 314.956 235.528 314.347 235.165C313.737 234.797 312.977 234.614 312.068 234.614H309.818V243.75ZM319.727 245V236.273H321.068V245H319.727ZM320.409 234.818C320.148 234.818 319.922 234.729 319.733 234.551C319.547 234.373 319.455 234.159 319.455 233.909C319.455 233.659 319.547 233.445 319.733 233.267C319.922 233.089 320.148 233 320.409 233C320.67 233 320.894 233.089 321.08 233.267C321.269 233.445 321.364 233.659 321.364 233.909C321.364 234.159 321.269 234.373 321.08 234.551C320.894 234.729 320.67 234.818 320.409 234.818ZM326.092 245.205C325.539 245.205 325.037 245.1 324.587 244.892C324.136 244.68 323.778 244.375 323.513 243.977C323.248 243.576 323.115 243.091 323.115 242.523C323.115 242.023 323.214 241.617 323.411 241.307C323.607 240.992 323.871 240.746 324.2 240.568C324.53 240.39 324.893 240.258 325.291 240.17C325.693 240.08 326.096 240.008 326.501 239.955C327.032 239.886 327.462 239.835 327.791 239.801C328.125 239.763 328.367 239.701 328.518 239.614C328.674 239.527 328.751 239.375 328.751 239.159V239.114C328.751 238.553 328.598 238.117 328.291 237.807C327.988 237.496 327.528 237.341 326.911 237.341C326.27 237.341 325.768 237.481 325.405 237.761C325.041 238.042 324.786 238.341 324.638 238.659L323.365 238.205C323.592 237.674 323.895 237.261 324.274 236.966C324.657 236.667 325.073 236.458 325.524 236.341C325.979 236.22 326.426 236.159 326.865 236.159C327.145 236.159 327.467 236.193 327.831 236.261C328.198 236.326 328.553 236.46 328.893 236.665C329.238 236.869 329.524 237.178 329.751 237.591C329.979 238.004 330.092 238.557 330.092 239.25V245H328.751V243.818H328.683C328.592 244.008 328.441 244.21 328.229 244.426C328.017 244.642 327.734 244.826 327.382 244.977C327.03 245.129 326.6 245.205 326.092 245.205ZM326.297 244C326.827 244 327.274 243.896 327.638 243.688C328.005 243.479 328.282 243.21 328.467 242.881C328.657 242.551 328.751 242.205 328.751 241.841V240.614C328.695 240.682 328.57 240.744 328.376 240.801C328.187 240.854 327.967 240.902 327.717 240.943C327.471 240.981 327.231 241.015 326.996 241.045C326.765 241.072 326.577 241.095 326.433 241.114C326.085 241.159 325.759 241.233 325.456 241.335C325.157 241.434 324.914 241.583 324.729 241.784C324.547 241.981 324.456 242.25 324.456 242.591C324.456 243.057 324.628 243.409 324.973 243.648C325.321 243.883 325.763 244 326.297 244ZM333.881 233.364V245H332.54V233.364H333.881ZM339.882 245.182C339.094 245.182 338.403 244.994 337.808 244.619C337.217 244.244 336.755 243.72 336.422 243.045C336.092 242.371 335.928 241.583 335.928 240.682C335.928 239.773 336.092 238.979 336.422 238.301C336.755 237.623 337.217 237.097 337.808 236.722C338.403 236.347 339.094 236.159 339.882 236.159C340.67 236.159 341.359 236.347 341.95 236.722C342.545 237.097 343.007 237.623 343.337 238.301C343.67 238.979 343.837 239.773 343.837 240.682C343.837 241.583 343.67 242.371 343.337 243.045C343.007 243.72 342.545 244.244 341.95 244.619C341.359 244.994 340.67 245.182 339.882 245.182ZM339.882 243.977C340.481 243.977 340.973 243.824 341.359 243.517C341.746 243.21 342.032 242.807 342.217 242.307C342.403 241.807 342.496 241.265 342.496 240.682C342.496 240.098 342.403 239.555 342.217 239.051C342.032 238.547 341.746 238.14 341.359 237.83C340.973 237.519 340.481 237.364 339.882 237.364C339.284 237.364 338.791 237.519 338.405 237.83C338.018 238.14 337.732 238.547 337.547 239.051C337.361 239.555 337.268 240.098 337.268 240.682C337.268 241.265 337.361 241.807 337.547 242.307C337.732 242.807 338.018 243.21 338.405 243.517C338.791 243.824 339.284 243.977 339.882 243.977ZM349.406 248.455C348.759 248.455 348.202 248.371 347.736 248.205C347.27 248.042 346.882 247.826 346.571 247.557C346.264 247.292 346.02 247.008 345.838 246.705L346.906 245.955C347.027 246.114 347.181 246.295 347.366 246.5C347.552 246.708 347.806 246.888 348.128 247.04C348.454 247.195 348.88 247.273 349.406 247.273C350.111 247.273 350.692 247.102 351.151 246.761C351.609 246.42 351.838 245.886 351.838 245.159V243.386H351.724C351.626 243.545 351.486 243.742 351.304 243.977C351.126 244.208 350.868 244.415 350.531 244.597C350.198 244.775 349.747 244.864 349.179 244.864C348.474 244.864 347.842 244.697 347.281 244.364C346.724 244.03 346.283 243.545 345.957 242.909C345.635 242.273 345.474 241.5 345.474 240.591C345.474 239.697 345.632 238.919 345.946 238.256C346.26 237.589 346.698 237.074 347.259 236.71C347.819 236.343 348.467 236.159 349.202 236.159C349.77 236.159 350.221 236.254 350.554 236.443C350.891 236.629 351.149 236.841 351.327 237.08C351.509 237.314 351.649 237.508 351.747 237.659H351.884V236.273H353.179V245.25C353.179 246 353.009 246.61 352.668 247.08C352.33 247.553 351.876 247.9 351.304 248.119C350.736 248.343 350.103 248.455 349.406 248.455ZM349.361 243.659C349.899 243.659 350.353 243.536 350.724 243.29C351.096 243.044 351.378 242.689 351.571 242.227C351.764 241.765 351.861 241.212 351.861 240.568C351.861 239.939 351.766 239.384 351.577 238.903C351.387 238.422 351.107 238.045 350.736 237.773C350.365 237.5 349.906 237.364 349.361 237.364C348.793 237.364 348.319 237.508 347.94 237.795C347.565 238.083 347.283 238.47 347.094 238.955C346.908 239.439 346.815 239.977 346.815 240.568C346.815 241.174 346.91 241.71 347.099 242.176C347.293 242.638 347.577 243.002 347.952 243.267C348.33 243.528 348.8 243.659 349.361 243.659ZM360.315 245V233.364H364.384C365.194 233.364 365.863 233.504 366.389 233.784C366.916 234.061 367.308 234.434 367.565 234.903C367.823 235.369 367.952 235.886 367.952 236.455C367.952 236.955 367.863 237.367 367.685 237.693C367.51 238.019 367.279 238.277 366.991 238.466C366.707 238.655 366.399 238.795 366.065 238.886V239C366.421 239.023 366.779 239.148 367.139 239.375C367.499 239.602 367.8 239.928 368.043 240.352C368.285 240.777 368.406 241.295 368.406 241.909C368.406 242.492 368.274 243.017 368.009 243.483C367.743 243.949 367.325 244.318 366.753 244.591C366.181 244.864 365.437 245 364.52 245H360.315ZM361.724 243.75H364.52C365.44 243.75 366.094 243.572 366.48 243.216C366.87 242.856 367.065 242.42 367.065 241.909C367.065 241.515 366.965 241.152 366.764 240.818C366.563 240.481 366.277 240.212 365.906 240.011C365.535 239.807 365.096 239.705 364.588 239.705H361.724V243.75ZM361.724 238.477H364.338C364.762 238.477 365.145 238.394 365.486 238.227C365.83 238.061 366.103 237.826 366.304 237.523C366.509 237.22 366.611 236.864 366.611 236.455C366.611 235.943 366.433 235.509 366.077 235.153C365.721 234.794 365.156 234.614 364.384 234.614H361.724V238.477ZM374.085 245.182C373.297 245.182 372.606 244.994 372.011 244.619C371.42 244.244 370.958 243.72 370.625 243.045C370.295 242.371 370.131 241.583 370.131 240.682C370.131 239.773 370.295 238.979 370.625 238.301C370.958 237.623 371.42 237.097 372.011 236.722C372.606 236.347 373.297 236.159 374.085 236.159C374.873 236.159 375.563 236.347 376.153 236.722C376.748 237.097 377.21 237.623 377.54 238.301C377.873 238.979 378.04 239.773 378.04 240.682C378.04 241.583 377.873 242.371 377.54 243.045C377.21 243.72 376.748 244.244 376.153 244.619C375.563 244.994 374.873 245.182 374.085 245.182ZM374.085 243.977C374.684 243.977 375.176 243.824 375.562 243.517C375.949 243.21 376.235 242.807 376.42 242.307C376.606 241.807 376.699 241.265 376.699 240.682C376.699 240.098 376.606 239.555 376.42 239.051C376.235 238.547 375.949 238.14 375.562 237.83C375.176 237.519 374.684 237.364 374.085 237.364C373.487 237.364 372.994 237.519 372.608 237.83C372.222 238.14 371.936 238.547 371.75 239.051C371.564 239.555 371.472 240.098 371.472 240.682C371.472 241.265 371.564 241.807 371.75 242.307C371.936 242.807 372.222 243.21 372.608 243.517C372.994 243.824 373.487 243.977 374.085 243.977ZM383.382 245.182C382.655 245.182 382.013 244.998 381.456 244.631C380.899 244.259 380.464 243.737 380.149 243.062C379.835 242.384 379.678 241.583 379.678 240.659C379.678 239.742 379.835 238.947 380.149 238.273C380.464 237.598 380.901 237.078 381.462 236.71C382.022 236.343 382.67 236.159 383.405 236.159C383.973 236.159 384.422 236.254 384.751 236.443C385.085 236.629 385.339 236.841 385.513 237.08C385.691 237.314 385.829 237.508 385.928 237.659H386.041V233.364H387.382V245H386.087V243.659H385.928C385.829 243.818 385.689 244.019 385.507 244.261C385.325 244.5 385.066 244.714 384.729 244.903C384.392 245.089 383.943 245.182 383.382 245.182ZM383.564 243.977C384.102 243.977 384.556 243.837 384.928 243.557C385.299 243.273 385.581 242.881 385.774 242.381C385.967 241.877 386.064 241.295 386.064 240.636C386.064 239.985 385.969 239.415 385.78 238.926C385.59 238.434 385.31 238.051 384.939 237.778C384.568 237.502 384.109 237.364 383.564 237.364C382.996 237.364 382.522 237.509 382.143 237.801C381.768 238.089 381.486 238.481 381.297 238.977C381.111 239.47 381.018 240.023 381.018 240.636C381.018 241.258 381.113 241.822 381.303 242.33C381.496 242.833 381.78 243.235 382.155 243.534C382.534 243.83 383.003 243.977 383.564 243.977ZM390.888 248.273C390.661 248.273 390.458 248.254 390.28 248.216C390.102 248.182 389.979 248.148 389.911 248.114L390.251 246.932C390.577 247.015 390.865 247.045 391.115 247.023C391.365 247 391.587 246.888 391.78 246.688C391.977 246.491 392.157 246.17 392.32 245.727L392.57 245.045L389.342 236.273H390.797L393.206 243.227H393.297L395.706 236.273H397.161L393.456 246.273C393.289 246.723 393.083 247.097 392.837 247.392C392.59 247.691 392.304 247.913 391.979 248.057C391.657 248.201 391.293 248.273 390.888 248.273Z" fill="white"/>
<rect x="291.5" y="263.5" width="417" height="359" rx="11.5" fill="#9333EA" fill-opacity="0.1"/>
<rect x="291.5" y="263.5" width="417" height="359" rx="11.5" stroke="#9333EA"/>
<rect x="299.5" y="271.5" width="144" height="31" rx="7.5" fill="#0F0F0F"/>
<rect x="299.5" y="271.5" width="144" height="31" rx="7.5" stroke="#404040"/>
<path d="M320 293H316.409V281.364H320.159C321.288 281.364 322.254 281.597 323.057 282.062C323.86 282.525 324.475 283.189 324.903 284.057C325.331 284.92 325.545 285.955 325.545 287.159C325.545 288.371 325.33 289.415 324.898 290.29C324.466 291.161 323.837 291.831 323.011 292.301C322.186 292.767 321.182 293 320 293ZM317.818 291.75H319.909C320.871 291.75 321.669 291.564 322.301 291.193C322.934 290.822 323.405 290.294 323.716 289.608C324.027 288.922 324.182 288.106 324.182 287.159C324.182 286.22 324.028 285.411 323.722 284.733C323.415 284.051 322.956 283.528 322.347 283.165C321.737 282.797 320.977 282.614 320.068 282.614H317.818V291.75ZM327.727 293V284.273H329.068V293H327.727ZM328.409 282.818C328.148 282.818 327.922 282.729 327.733 282.551C327.547 282.373 327.455 282.159 327.455 281.909C327.455 281.659 327.547 281.445 327.733 281.267C327.922 281.089 328.148 281 328.409 281C328.67 281 328.894 281.089 329.08 281.267C329.269 281.445 329.364 281.659 329.364 281.909C329.364 282.159 329.269 282.373 329.08 282.551C328.894 282.729 328.67 282.818 328.409 282.818ZM334.092 293.205C333.539 293.205 333.037 293.1 332.587 292.892C332.136 292.68 331.778 292.375 331.513 291.977C331.248 291.576 331.115 291.091 331.115 290.523C331.115 290.023 331.214 289.617 331.411 289.307C331.607 288.992 331.871 288.746 332.2 288.568C332.53 288.39 332.893 288.258 333.291 288.17C333.693 288.08 334.096 288.008 334.501 287.955C335.032 287.886 335.462 287.835 335.791 287.801C336.125 287.763 336.367 287.701 336.518 287.614C336.674 287.527 336.751 287.375 336.751 287.159V287.114C336.751 286.553 336.598 286.117 336.291 285.807C335.988 285.496 335.528 285.341 334.911 285.341C334.27 285.341 333.768 285.481 333.405 285.761C333.041 286.042 332.786 286.341 332.638 286.659L331.365 286.205C331.592 285.674 331.895 285.261 332.274 284.966C332.657 284.667 333.073 284.458 333.524 284.341C333.979 284.22 334.426 284.159 334.865 284.159C335.145 284.159 335.467 284.193 335.831 284.261C336.198 284.326 336.553 284.46 336.893 284.665C337.238 284.869 337.524 285.178 337.751 285.591C337.979 286.004 338.092 286.557 338.092 287.25V293H336.751V291.818H336.683C336.592 292.008 336.441 292.21 336.229 292.426C336.017 292.642 335.734 292.826 335.382 292.977C335.03 293.129 334.6 293.205 334.092 293.205ZM334.297 292C334.827 292 335.274 291.896 335.638 291.688C336.005 291.479 336.282 291.21 336.467 290.881C336.657 290.551 336.751 290.205 336.751 289.841V288.614C336.695 288.682 336.57 288.744 336.376 288.801C336.187 288.854 335.967 288.902 335.717 288.943C335.471 288.981 335.231 289.015 334.996 289.045C334.765 289.072 334.577 289.095 334.433 289.114C334.085 289.159 333.759 289.233 333.456 289.335C333.157 289.434 332.914 289.583 332.729 289.784C332.547 289.981 332.456 290.25 332.456 290.591C332.456 291.057 332.628 291.409 332.973 291.648C333.321 291.883 333.763 292 334.297 292ZM341.881 281.364V293H340.54V281.364H341.881ZM347.882 293.182C347.094 293.182 346.403 292.994 345.808 292.619C345.217 292.244 344.755 291.72 344.422 291.045C344.092 290.371 343.928 289.583 343.928 288.682C343.928 287.773 344.092 286.979 344.422 286.301C344.755 285.623 345.217 285.097 345.808 284.722C346.403 284.347 347.094 284.159 347.882 284.159C348.67 284.159 349.359 284.347 349.95 284.722C350.545 285.097 351.007 285.623 351.337 286.301C351.67 286.979 351.837 287.773 351.837 288.682C351.837 289.583 351.67 290.371 351.337 291.045C351.007 291.72 350.545 292.244 349.95 292.619C349.359 292.994 348.67 293.182 347.882 293.182ZM347.882 291.977C348.481 291.977 348.973 291.824 349.359 291.517C349.746 291.21 350.032 290.807 350.217 290.307C350.403 289.807 350.496 289.265 350.496 288.682C350.496 288.098 350.403 287.555 350.217 287.051C350.032 286.547 349.746 286.14 349.359 285.83C348.973 285.519 348.481 285.364 347.882 285.364C347.284 285.364 346.791 285.519 346.405 285.83C346.018 286.14 345.732 286.547 345.547 287.051C345.361 287.555 345.268 288.098 345.268 288.682C345.268 289.265 345.361 289.807 345.547 290.307C345.732 290.807 346.018 291.21 346.405 291.517C346.791 291.824 347.284 291.977 347.882 291.977ZM357.406 296.455C356.759 296.455 356.202 296.371 355.736 296.205C355.27 296.042 354.882 295.826 354.571 295.557C354.264 295.292 354.02 295.008 353.838 294.705L354.906 293.955C355.027 294.114 355.181 294.295 355.366 294.5C355.552 294.708 355.806 294.888 356.128 295.04C356.454 295.195 356.88 295.273 357.406 295.273C358.111 295.273 358.692 295.102 359.151 294.761C359.609 294.42 359.838 293.886 359.838 293.159V291.386H359.724C359.626 291.545 359.486 291.742 359.304 291.977C359.126 292.208 358.868 292.415 358.531 292.597C358.198 292.775 357.747 292.864 357.179 292.864C356.474 292.864 355.842 292.697 355.281 292.364C354.724 292.03 354.283 291.545 353.957 290.909C353.635 290.273 353.474 289.5 353.474 288.591C353.474 287.697 353.632 286.919 353.946 286.256C354.26 285.589 354.698 285.074 355.259 284.71C355.819 284.343 356.467 284.159 357.202 284.159C357.77 284.159 358.221 284.254 358.554 284.443C358.891 284.629 359.149 284.841 359.327 285.08C359.509 285.314 359.649 285.508 359.747 285.659H359.884V284.273H361.179V293.25C361.179 294 361.009 294.61 360.668 295.08C360.33 295.553 359.876 295.9 359.304 296.119C358.736 296.343 358.103 296.455 357.406 296.455ZM357.361 291.659C357.899 291.659 358.353 291.536 358.724 291.29C359.096 291.044 359.378 290.689 359.571 290.227C359.764 289.765 359.861 289.212 359.861 288.568C359.861 287.939 359.766 287.384 359.577 286.903C359.387 286.422 359.107 286.045 358.736 285.773C358.365 285.5 357.906 285.364 357.361 285.364C356.793 285.364 356.319 285.508 355.94 285.795C355.565 286.083 355.283 286.47 355.094 286.955C354.908 287.439 354.815 287.977 354.815 288.568C354.815 289.174 354.91 289.71 355.099 290.176C355.293 290.638 355.577 291.002 355.952 291.267C356.33 291.528 356.8 291.659 357.361 291.659ZM377.679 285H376.27C376.187 284.595 376.041 284.239 375.832 283.932C375.628 283.625 375.378 283.367 375.082 283.159C374.791 282.947 374.467 282.788 374.111 282.682C373.755 282.576 373.384 282.523 372.997 282.523C372.293 282.523 371.654 282.701 371.082 283.057C370.514 283.413 370.062 283.938 369.724 284.631C369.391 285.324 369.224 286.174 369.224 287.182C369.224 288.189 369.391 289.04 369.724 289.733C370.062 290.426 370.514 290.951 371.082 291.307C371.654 291.663 372.293 291.841 372.997 291.841C373.384 291.841 373.755 291.788 374.111 291.682C374.467 291.576 374.791 291.419 375.082 291.21C375.378 290.998 375.628 290.739 375.832 290.432C376.041 290.121 376.187 289.765 376.27 289.364H377.679C377.573 289.958 377.38 290.491 377.099 290.96C376.819 291.43 376.471 291.83 376.054 292.159C375.637 292.485 375.17 292.733 374.651 292.903C374.135 293.074 373.584 293.159 372.997 293.159C372.005 293.159 371.122 292.917 370.349 292.432C369.577 291.947 368.969 291.258 368.526 290.364C368.082 289.47 367.861 288.409 367.861 287.182C367.861 285.955 368.082 284.894 368.526 284C368.969 283.106 369.577 282.417 370.349 281.932C371.122 281.447 372.005 281.205 372.997 281.205C373.584 281.205 374.135 281.29 374.651 281.46C375.17 281.631 375.637 281.881 376.054 282.21C376.471 282.536 376.819 282.934 377.099 283.403C377.38 283.869 377.573 284.402 377.679 285ZM383.32 293.182C382.532 293.182 381.84 292.994 381.246 292.619C380.655 292.244 380.193 291.72 379.859 291.045C379.53 290.371 379.365 289.583 379.365 288.682C379.365 287.773 379.53 286.979 379.859 286.301C380.193 285.623 380.655 285.097 381.246 284.722C381.84 284.347 382.532 284.159 383.32 284.159C384.107 284.159 384.797 284.347 385.388 284.722C385.982 285.097 386.445 285.623 386.774 286.301C387.107 286.979 387.274 287.773 387.274 288.682C387.274 289.583 387.107 290.371 386.774 291.045C386.445 291.72 385.982 292.244 385.388 292.619C384.797 292.994 384.107 293.182 383.32 293.182ZM383.32 291.977C383.918 291.977 384.411 291.824 384.797 291.517C385.183 291.21 385.469 290.807 385.655 290.307C385.84 289.807 385.933 289.265 385.933 288.682C385.933 288.098 385.84 287.555 385.655 287.051C385.469 286.547 385.183 286.14 384.797 285.83C384.411 285.519 383.918 285.364 383.32 285.364C382.721 285.364 382.229 285.519 381.842 285.83C381.456 286.14 381.17 286.547 380.984 287.051C380.799 287.555 380.706 288.098 380.706 288.682C380.706 289.265 380.799 289.807 380.984 290.307C381.17 290.807 381.456 291.21 381.842 291.517C382.229 291.824 382.721 291.977 383.32 291.977ZM390.662 287.75V293H389.321V284.273H390.616V285.636H390.73C390.935 285.193 391.245 284.837 391.662 284.568C392.079 284.295 392.616 284.159 393.276 284.159C393.866 284.159 394.384 284.28 394.827 284.523C395.27 284.761 395.615 285.125 395.861 285.614C396.107 286.098 396.23 286.712 396.23 287.455V293H394.889V287.545C394.889 286.86 394.711 286.326 394.355 285.943C393.999 285.557 393.51 285.364 392.889 285.364C392.461 285.364 392.079 285.456 391.741 285.642C391.408 285.828 391.145 286.098 390.952 286.455C390.759 286.811 390.662 287.242 390.662 287.75ZM402.476 284.273V285.409H397.953V284.273H402.476ZM399.271 282.182H400.612V290.5C400.612 290.879 400.667 291.163 400.777 291.352C400.891 291.538 401.035 291.663 401.209 291.727C401.387 291.788 401.574 291.818 401.771 291.818C401.919 291.818 402.04 291.811 402.135 291.795C402.23 291.777 402.305 291.761 402.362 291.75L402.635 292.955C402.544 292.989 402.417 293.023 402.254 293.057C402.091 293.095 401.885 293.114 401.635 293.114C401.256 293.114 400.885 293.032 400.521 292.869C400.161 292.706 399.862 292.458 399.624 292.125C399.389 291.792 399.271 291.371 399.271 290.864V282.182ZM408.058 293.182C407.217 293.182 406.492 292.996 405.882 292.625C405.276 292.25 404.808 291.727 404.479 291.057C404.153 290.383 403.99 289.598 403.99 288.705C403.99 287.811 404.153 287.023 404.479 286.341C404.808 285.655 405.267 285.121 405.854 284.739C406.445 284.352 407.134 284.159 407.922 284.159C408.376 284.159 408.825 284.235 409.268 284.386C409.712 284.538 410.115 284.784 410.479 285.125C410.842 285.462 411.132 285.909 411.348 286.466C411.564 287.023 411.672 287.708 411.672 288.523V289.091H404.945V287.932H410.308C410.308 287.439 410.21 287 410.013 286.614C409.82 286.227 409.543 285.922 409.183 285.699C408.827 285.475 408.407 285.364 407.922 285.364C407.388 285.364 406.926 285.496 406.536 285.761C406.149 286.023 405.852 286.364 405.643 286.784C405.435 287.205 405.331 287.655 405.331 288.136V288.909C405.331 289.568 405.445 290.127 405.672 290.585C405.903 291.04 406.223 291.386 406.632 291.625C407.041 291.86 407.517 291.977 408.058 291.977C408.411 291.977 408.729 291.928 409.013 291.83C409.301 291.727 409.549 291.576 409.757 291.375C409.965 291.17 410.126 290.917 410.24 290.614L411.536 290.977C411.399 291.417 411.17 291.803 410.848 292.136C410.526 292.466 410.128 292.723 409.655 292.909C409.181 293.091 408.649 293.182 408.058 293.182ZM415.053 287.75V293H413.712V284.273H415.007V285.636H415.121C415.325 285.193 415.636 284.837 416.053 284.568C416.469 284.295 417.007 284.159 417.666 284.159C418.257 284.159 418.774 284.28 419.217 284.523C419.661 284.761 420.005 285.125 420.251 285.614C420.498 286.098 420.621 286.712 420.621 287.455V293H419.28V287.545C419.28 286.86 419.102 286.326 418.746 285.943C418.39 285.557 417.901 285.364 417.28 285.364C416.852 285.364 416.469 285.456 416.132 285.642C415.799 285.828 415.536 286.098 415.342 286.455C415.149 286.811 415.053 287.242 415.053 287.75ZM426.866 284.273V285.409H422.344V284.273H426.866ZM423.662 282.182H425.003V290.5C425.003 290.879 425.058 291.163 425.168 291.352C425.281 291.538 425.425 291.663 425.599 291.727C425.777 291.788 425.965 291.818 426.162 291.818C426.31 291.818 426.431 291.811 426.526 291.795C426.62 291.777 426.696 291.761 426.753 291.75L427.026 292.955C426.935 292.989 426.808 293.023 426.645 293.057C426.482 293.095 426.276 293.114 426.026 293.114C425.647 293.114 425.276 293.032 424.912 292.869C424.552 292.706 424.253 292.458 424.014 292.125C423.779 291.792 423.662 291.371 423.662 290.864V282.182Z" fill="white"/>
<rect x="299.5" y="311.5" width="401" height="47" rx="11.5" fill="#FF2D55" fill-opacity="0.1"/>
<rect x="299.5" y="311.5" width="401" height="47" rx="11.5" stroke="#FF2D55"/>
<rect x="307.5" y="319.5" width="132" height="31" rx="7.5" fill="#0F0F0F"/>
<rect x="307.5" y="319.5" width="132" height="31" rx="7.5" stroke="#404040"/>
<path d="M328 341H324.409V329.364H328.159C329.288 329.364 330.254 329.597 331.057 330.062C331.86 330.525 332.475 331.189 332.903 332.057C333.331 332.92 333.545 333.955 333.545 335.159C333.545 336.371 333.33 337.415 332.898 338.29C332.466 339.161 331.837 339.831 331.011 340.301C330.186 340.767 329.182 341 328 341ZM325.818 339.75H327.909C328.871 339.75 329.669 339.564 330.301 339.193C330.934 338.822 331.405 338.294 331.716 337.608C332.027 336.922 332.182 336.106 332.182 335.159C332.182 334.22 332.028 333.411 331.722 332.733C331.415 332.051 330.956 331.528 330.347 331.165C329.737 330.797 328.977 330.614 328.068 330.614H325.818V339.75ZM335.727 341V332.273H337.068V341H335.727ZM336.409 330.818C336.148 330.818 335.922 330.729 335.733 330.551C335.547 330.373 335.455 330.159 335.455 329.909C335.455 329.659 335.547 329.445 335.733 329.267C335.922 329.089 336.148 329 336.409 329C336.67 329 336.894 329.089 337.08 329.267C337.269 329.445 337.364 329.659 337.364 329.909C337.364 330.159 337.269 330.373 337.08 330.551C336.894 330.729 336.67 330.818 336.409 330.818ZM342.092 341.205C341.539 341.205 341.037 341.1 340.587 340.892C340.136 340.68 339.778 340.375 339.513 339.977C339.248 339.576 339.115 339.091 339.115 338.523C339.115 338.023 339.214 337.617 339.411 337.307C339.607 336.992 339.871 336.746 340.2 336.568C340.53 336.39 340.893 336.258 341.291 336.17C341.693 336.08 342.096 336.008 342.501 335.955C343.032 335.886 343.462 335.835 343.791 335.801C344.125 335.763 344.367 335.701 344.518 335.614C344.674 335.527 344.751 335.375 344.751 335.159V335.114C344.751 334.553 344.598 334.117 344.291 333.807C343.988 333.496 343.528 333.341 342.911 333.341C342.27 333.341 341.768 333.481 341.405 333.761C341.041 334.042 340.786 334.341 340.638 334.659L339.365 334.205C339.592 333.674 339.895 333.261 340.274 332.966C340.657 332.667 341.073 332.458 341.524 332.341C341.979 332.22 342.426 332.159 342.865 332.159C343.145 332.159 343.467 332.193 343.831 332.261C344.198 332.326 344.553 332.46 344.893 332.665C345.238 332.869 345.524 333.178 345.751 333.591C345.979 334.004 346.092 334.557 346.092 335.25V341H344.751V339.818H344.683C344.592 340.008 344.441 340.21 344.229 340.426C344.017 340.642 343.734 340.826 343.382 340.977C343.03 341.129 342.6 341.205 342.092 341.205ZM342.297 340C342.827 340 343.274 339.896 343.638 339.688C344.005 339.479 344.282 339.21 344.467 338.881C344.657 338.551 344.751 338.205 344.751 337.841V336.614C344.695 336.682 344.57 336.744 344.376 336.801C344.187 336.854 343.967 336.902 343.717 336.943C343.471 336.981 343.231 337.015 342.996 337.045C342.765 337.072 342.577 337.095 342.433 337.114C342.085 337.159 341.759 337.233 341.456 337.335C341.157 337.434 340.914 337.583 340.729 337.784C340.547 337.981 340.456 338.25 340.456 338.591C340.456 339.057 340.628 339.409 340.973 339.648C341.321 339.883 341.763 340 342.297 340ZM349.881 329.364V341H348.54V329.364H349.881ZM355.882 341.182C355.094 341.182 354.403 340.994 353.808 340.619C353.217 340.244 352.755 339.72 352.422 339.045C352.092 338.371 351.928 337.583 351.928 336.682C351.928 335.773 352.092 334.979 352.422 334.301C352.755 333.623 353.217 333.097 353.808 332.722C354.403 332.347 355.094 332.159 355.882 332.159C356.67 332.159 357.359 332.347 357.95 332.722C358.545 333.097 359.007 333.623 359.337 334.301C359.67 334.979 359.837 335.773 359.837 336.682C359.837 337.583 359.67 338.371 359.337 339.045C359.007 339.72 358.545 340.244 357.95 340.619C357.359 340.994 356.67 341.182 355.882 341.182ZM355.882 339.977C356.481 339.977 356.973 339.824 357.359 339.517C357.746 339.21 358.032 338.807 358.217 338.307C358.403 337.807 358.496 337.265 358.496 336.682C358.496 336.098 358.403 335.555 358.217 335.051C358.032 334.547 357.746 334.14 357.359 333.83C356.973 333.519 356.481 333.364 355.882 333.364C355.284 333.364 354.791 333.519 354.405 333.83C354.018 334.14 353.732 334.547 353.547 335.051C353.361 335.555 353.268 336.098 353.268 336.682C353.268 337.265 353.361 337.807 353.547 338.307C353.732 338.807 354.018 339.21 354.405 339.517C354.791 339.824 355.284 339.977 355.882 339.977ZM365.406 344.455C364.759 344.455 364.202 344.371 363.736 344.205C363.27 344.042 362.882 343.826 362.571 343.557C362.264 343.292 362.02 343.008 361.838 342.705L362.906 341.955C363.027 342.114 363.181 342.295 363.366 342.5C363.552 342.708 363.806 342.888 364.128 343.04C364.454 343.195 364.88 343.273 365.406 343.273C366.111 343.273 366.692 343.102 367.151 342.761C367.609 342.42 367.838 341.886 367.838 341.159V339.386H367.724C367.626 339.545 367.486 339.742 367.304 339.977C367.126 340.208 366.868 340.415 366.531 340.597C366.198 340.775 365.747 340.864 365.179 340.864C364.474 340.864 363.842 340.697 363.281 340.364C362.724 340.03 362.283 339.545 361.957 338.909C361.635 338.273 361.474 337.5 361.474 336.591C361.474 335.697 361.632 334.919 361.946 334.256C362.26 333.589 362.698 333.074 363.259 332.71C363.819 332.343 364.467 332.159 365.202 332.159C365.77 332.159 366.221 332.254 366.554 332.443C366.891 332.629 367.149 332.841 367.327 333.08C367.509 333.314 367.649 333.508 367.747 333.659H367.884V332.273H369.179V341.25C369.179 342 369.009 342.61 368.668 343.08C368.33 343.553 367.876 343.9 367.304 344.119C366.736 344.343 366.103 344.455 365.406 344.455ZM365.361 339.659C365.899 339.659 366.353 339.536 366.724 339.29C367.096 339.044 367.378 338.689 367.571 338.227C367.764 337.765 367.861 337.212 367.861 336.568C367.861 335.939 367.766 335.384 367.577 334.903C367.387 334.422 367.107 334.045 366.736 333.773C366.365 333.5 365.906 333.364 365.361 333.364C364.793 333.364 364.319 333.508 363.94 333.795C363.565 334.083 363.283 334.47 363.094 334.955C362.908 335.439 362.815 335.977 362.815 336.568C362.815 337.174 362.91 337.71 363.099 338.176C363.293 338.638 363.577 339.002 363.952 339.267C364.33 339.528 364.8 339.659 365.361 339.659ZM385.679 333H384.27C384.187 332.595 384.041 332.239 383.832 331.932C383.628 331.625 383.378 331.367 383.082 331.159C382.791 330.947 382.467 330.788 382.111 330.682C381.755 330.576 381.384 330.523 380.997 330.523C380.293 330.523 379.654 330.701 379.082 331.057C378.514 331.413 378.062 331.938 377.724 332.631C377.391 333.324 377.224 334.174 377.224 335.182C377.224 336.189 377.391 337.04 377.724 337.733C378.062 338.426 378.514 338.951 379.082 339.307C379.654 339.663 380.293 339.841 380.997 339.841C381.384 339.841 381.755 339.788 382.111 339.682C382.467 339.576 382.791 339.419 383.082 339.21C383.378 338.998 383.628 338.739 383.832 338.432C384.041 338.121 384.187 337.765 384.27 337.364H385.679C385.573 337.958 385.38 338.491 385.099 338.96C384.819 339.43 384.471 339.83 384.054 340.159C383.637 340.485 383.17 340.733 382.651 340.903C382.135 341.074 381.584 341.159 380.997 341.159C380.005 341.159 379.122 340.917 378.349 340.432C377.577 339.947 376.969 339.258 376.526 338.364C376.082 337.47 375.861 336.409 375.861 335.182C375.861 333.955 376.082 332.894 376.526 332C376.969 331.106 377.577 330.417 378.349 329.932C379.122 329.447 380.005 329.205 380.997 329.205C381.584 329.205 382.135 329.29 382.651 329.46C383.17 329.631 383.637 329.881 384.054 330.21C384.471 330.536 384.819 330.934 385.099 331.403C385.38 331.869 385.573 332.402 385.679 333ZM389.115 329.364V341H387.774V329.364H389.115ZM395.116 341.182C394.329 341.182 393.637 340.994 393.043 340.619C392.452 340.244 391.99 339.72 391.656 339.045C391.327 338.371 391.162 337.583 391.162 336.682C391.162 335.773 391.327 334.979 391.656 334.301C391.99 333.623 392.452 333.097 393.043 332.722C393.637 332.347 394.329 332.159 395.116 332.159C395.904 332.159 396.594 332.347 397.185 332.722C397.779 333.097 398.241 333.623 398.571 334.301C398.904 334.979 399.071 335.773 399.071 336.682C399.071 337.583 398.904 338.371 398.571 339.045C398.241 339.72 397.779 340.244 397.185 340.619C396.594 340.994 395.904 341.182 395.116 341.182ZM395.116 339.977C395.715 339.977 396.207 339.824 396.594 339.517C396.98 339.21 397.266 338.807 397.452 338.307C397.637 337.807 397.73 337.265 397.73 336.682C397.73 336.098 397.637 335.555 397.452 335.051C397.266 334.547 396.98 334.14 396.594 333.83C396.207 333.519 395.715 333.364 395.116 333.364C394.518 333.364 394.026 333.519 393.639 333.83C393.253 334.14 392.967 334.547 392.781 335.051C392.596 335.555 392.503 336.098 392.503 336.682C392.503 337.265 392.596 337.807 392.781 338.307C392.967 338.807 393.253 339.21 393.639 339.517C394.026 339.824 394.518 339.977 395.116 339.977ZM407.3 334.227L406.095 334.568C406.019 334.367 405.908 334.172 405.76 333.983C405.616 333.79 405.419 333.631 405.169 333.506C404.919 333.381 404.599 333.318 404.209 333.318C403.675 333.318 403.23 333.441 402.874 333.688C402.521 333.93 402.345 334.239 402.345 334.614C402.345 334.947 402.466 335.21 402.709 335.403C402.951 335.597 403.33 335.758 403.845 335.886L405.141 336.205C405.921 336.394 406.502 336.684 406.885 337.074C407.268 337.46 407.459 337.958 407.459 338.568C407.459 339.068 407.315 339.515 407.027 339.909C406.743 340.303 406.345 340.614 405.834 340.841C405.322 341.068 404.728 341.182 404.05 341.182C403.16 341.182 402.423 340.989 401.839 340.602C401.256 340.216 400.887 339.652 400.732 338.909L402.004 338.591C402.125 339.061 402.355 339.413 402.692 339.648C403.033 339.883 403.478 340 404.027 340C404.652 340 405.148 339.867 405.516 339.602C405.887 339.333 406.072 339.011 406.072 338.636C406.072 338.333 405.966 338.08 405.754 337.875C405.542 337.667 405.216 337.511 404.777 337.409L403.322 337.068C402.523 336.879 401.936 336.585 401.561 336.188C401.19 335.786 401.004 335.284 401.004 334.682C401.004 334.189 401.143 333.754 401.419 333.375C401.699 332.996 402.08 332.699 402.561 332.483C403.046 332.267 403.595 332.159 404.209 332.159C405.072 332.159 405.75 332.348 406.243 332.727C406.739 333.106 407.091 333.606 407.3 334.227ZM413.136 341.182C412.295 341.182 411.57 340.996 410.96 340.625C410.354 340.25 409.886 339.727 409.557 339.057C409.231 338.383 409.068 337.598 409.068 336.705C409.068 335.811 409.231 335.023 409.557 334.341C409.886 333.655 410.345 333.121 410.932 332.739C411.523 332.352 412.212 332.159 413 332.159C413.455 332.159 413.903 332.235 414.347 332.386C414.79 332.538 415.193 332.784 415.557 333.125C415.92 333.462 416.21 333.909 416.426 334.466C416.642 335.023 416.75 335.708 416.75 336.523V337.091H410.023V335.932H415.386C415.386 335.439 415.288 335 415.091 334.614C414.898 334.227 414.621 333.922 414.261 333.699C413.905 333.475 413.485 333.364 413 333.364C412.466 333.364 412.004 333.496 411.614 333.761C411.227 334.023 410.93 334.364 410.722 334.784C410.513 335.205 410.409 335.655 410.409 336.136V336.909C410.409 337.568 410.523 338.127 410.75 338.585C410.981 339.04 411.301 339.386 411.71 339.625C412.119 339.86 412.595 339.977 413.136 339.977C413.489 339.977 413.807 339.928 414.091 339.83C414.379 339.727 414.627 339.576 414.835 339.375C415.044 339.17 415.205 338.917 415.318 338.614L416.614 338.977C416.477 339.417 416.248 339.803 415.926 340.136C415.604 340.466 415.206 340.723 414.733 340.909C414.259 341.091 413.727 341.182 413.136 341.182ZM418.79 341V332.273H420.085V333.591H420.176C420.335 333.159 420.623 332.809 421.04 332.54C421.456 332.271 421.926 332.136 422.449 332.136C422.547 332.136 422.67 332.138 422.818 332.142C422.966 332.146 423.078 332.152 423.153 332.159V333.523C423.108 333.511 423.004 333.494 422.841 333.472C422.682 333.445 422.513 333.432 422.335 333.432C421.911 333.432 421.532 333.521 421.199 333.699C420.869 333.873 420.608 334.116 420.415 334.426C420.225 334.733 420.131 335.083 420.131 335.477V341H418.79Z" fill="white"/>
<rect x="299.5" y="367.5" width="401" height="159" rx="11.5" fill="#FF2D55" fill-opacity="0.1"/>
<rect x="299.5" y="367.5" width="401" height="159" rx="11.5" stroke="#FF2D55"/>
<rect x="307.5" y="375.5" width="139" height="31" rx="7.5" fill="#0F0F0F"/>
<rect x="307.5" y="375.5" width="139" height="31" rx="7.5" stroke="#404040"/>
<path d="M328 397H324.409V385.364H328.159C329.288 385.364 330.254 385.597 331.057 386.062C331.86 386.525 332.475 387.189 332.903 388.057C333.331 388.92 333.545 389.955 333.545 391.159C333.545 392.371 333.33 393.415 332.898 394.29C332.466 395.161 331.837 395.831 331.011 396.301C330.186 396.767 329.182 397 328 397ZM325.818 395.75H327.909C328.871 395.75 329.669 395.564 330.301 395.193C330.934 394.822 331.405 394.294 331.716 393.608C332.027 392.922 332.182 392.106 332.182 391.159C332.182 390.22 332.028 389.411 331.722 388.733C331.415 388.051 330.956 387.528 330.347 387.165C329.737 386.797 328.977 386.614 328.068 386.614H325.818V395.75ZM335.727 397V388.273H337.068V397H335.727ZM336.409 386.818C336.148 386.818 335.922 386.729 335.733 386.551C335.547 386.373 335.455 386.159 335.455 385.909C335.455 385.659 335.547 385.445 335.733 385.267C335.922 385.089 336.148 385 336.409 385C336.67 385 336.894 385.089 337.08 385.267C337.269 385.445 337.364 385.659 337.364 385.909C337.364 386.159 337.269 386.373 337.08 386.551C336.894 386.729 336.67 386.818 336.409 386.818ZM342.092 397.205C341.539 397.205 341.037 397.1 340.587 396.892C340.136 396.68 339.778 396.375 339.513 395.977C339.248 395.576 339.115 395.091 339.115 394.523C339.115 394.023 339.214 393.617 339.411 393.307C339.607 392.992 339.871 392.746 340.2 392.568C340.53 392.39 340.893 392.258 341.291 392.17C341.693 392.08 342.096 392.008 342.501 391.955C343.032 391.886 343.462 391.835 343.791 391.801C344.125 391.763 344.367 391.701 344.518 391.614C344.674 391.527 344.751 391.375 344.751 391.159V391.114C344.751 390.553 344.598 390.117 344.291 389.807C343.988 389.496 343.528 389.341 342.911 389.341C342.27 389.341 341.768 389.481 341.405 389.761C341.041 390.042 340.786 390.341 340.638 390.659L339.365 390.205C339.592 389.674 339.895 389.261 340.274 388.966C340.657 388.667 341.073 388.458 341.524 388.341C341.979 388.22 342.426 388.159 342.865 388.159C343.145 388.159 343.467 388.193 343.831 388.261C344.198 388.326 344.553 388.46 344.893 388.665C345.238 388.869 345.524 389.178 345.751 389.591C345.979 390.004 346.092 390.557 346.092 391.25V397H344.751V395.818H344.683C344.592 396.008 344.441 396.21 344.229 396.426C344.017 396.642 343.734 396.826 343.382 396.977C343.03 397.129 342.6 397.205 342.092 397.205ZM342.297 396C342.827 396 343.274 395.896 343.638 395.688C344.005 395.479 344.282 395.21 344.467 394.881C344.657 394.551 344.751 394.205 344.751 393.841V392.614C344.695 392.682 344.57 392.744 344.376 392.801C344.187 392.854 343.967 392.902 343.717 392.943C343.471 392.981 343.231 393.015 342.996 393.045C342.765 393.072 342.577 393.095 342.433 393.114C342.085 393.159 341.759 393.233 341.456 393.335C341.157 393.434 340.914 393.583 340.729 393.784C340.547 393.981 340.456 394.25 340.456 394.591C340.456 395.057 340.628 395.409 340.973 395.648C341.321 395.883 341.763 396 342.297 396ZM349.881 385.364V397H348.54V385.364H349.881ZM355.882 397.182C355.094 397.182 354.403 396.994 353.808 396.619C353.217 396.244 352.755 395.72 352.422 395.045C352.092 394.371 351.928 393.583 351.928 392.682C351.928 391.773 352.092 390.979 352.422 390.301C352.755 389.623 353.217 389.097 353.808 388.722C354.403 388.347 355.094 388.159 355.882 388.159C356.67 388.159 357.359 388.347 357.95 388.722C358.545 389.097 359.007 389.623 359.337 390.301C359.67 390.979 359.837 391.773 359.837 392.682C359.837 393.583 359.67 394.371 359.337 395.045C359.007 395.72 358.545 396.244 357.95 396.619C357.359 396.994 356.67 397.182 355.882 397.182ZM355.882 395.977C356.481 395.977 356.973 395.824 357.359 395.517C357.746 395.21 358.032 394.807 358.217 394.307C358.403 393.807 358.496 393.265 358.496 392.682C358.496 392.098 358.403 391.555 358.217 391.051C358.032 390.547 357.746 390.14 357.359 389.83C356.973 389.519 356.481 389.364 355.882 389.364C355.284 389.364 354.791 389.519 354.405 389.83C354.018 390.14 353.732 390.547 353.547 391.051C353.361 391.555 353.268 392.098 353.268 392.682C353.268 393.265 353.361 393.807 353.547 394.307C353.732 394.807 354.018 395.21 354.405 395.517C354.791 395.824 355.284 395.977 355.882 395.977ZM365.406 400.455C364.759 400.455 364.202 400.371 363.736 400.205C363.27 400.042 362.882 399.826 362.571 399.557C362.264 399.292 362.02 399.008 361.838 398.705L362.906 397.955C363.027 398.114 363.181 398.295 363.366 398.5C363.552 398.708 363.806 398.888 364.128 399.04C364.454 399.195 364.88 399.273 365.406 399.273C366.111 399.273 366.692 399.102 367.151 398.761C367.609 398.42 367.838 397.886 367.838 397.159V395.386H367.724C367.626 395.545 367.486 395.742 367.304 395.977C367.126 396.208 366.868 396.415 366.531 396.597C366.198 396.775 365.747 396.864 365.179 396.864C364.474 396.864 363.842 396.697 363.281 396.364C362.724 396.03 362.283 395.545 361.957 394.909C361.635 394.273 361.474 393.5 361.474 392.591C361.474 391.697 361.632 390.919 361.946 390.256C362.26 389.589 362.698 389.074 363.259 388.71C363.819 388.343 364.467 388.159 365.202 388.159C365.77 388.159 366.221 388.254 366.554 388.443C366.891 388.629 367.149 388.841 367.327 389.08C367.509 389.314 367.649 389.508 367.747 389.659H367.884V388.273H369.179V397.25C369.179 398 369.009 398.61 368.668 399.08C368.33 399.553 367.876 399.9 367.304 400.119C366.736 400.343 366.103 400.455 365.406 400.455ZM365.361 395.659C365.899 395.659 366.353 395.536 366.724 395.29C367.096 395.044 367.378 394.689 367.571 394.227C367.764 393.765 367.861 393.212 367.861 392.568C367.861 391.939 367.766 391.384 367.577 390.903C367.387 390.422 367.107 390.045 366.736 389.773C366.365 389.5 365.906 389.364 365.361 389.364C364.793 389.364 364.319 389.508 363.94 389.795C363.565 390.083 363.283 390.47 363.094 390.955C362.908 391.439 362.815 391.977 362.815 392.568C362.815 393.174 362.91 393.71 363.099 394.176C363.293 394.638 363.577 395.002 363.952 395.267C364.33 395.528 364.8 395.659 365.361 395.659ZM376.315 397V385.364H377.724V390.545H383.929V385.364H385.338V397H383.929V391.795H377.724V397H376.315ZM391.636 397.182C390.795 397.182 390.07 396.996 389.46 396.625C388.854 396.25 388.386 395.727 388.057 395.057C387.731 394.383 387.568 393.598 387.568 392.705C387.568 391.811 387.731 391.023 388.057 390.341C388.386 389.655 388.845 389.121 389.432 388.739C390.023 388.352 390.712 388.159 391.5 388.159C391.955 388.159 392.403 388.235 392.847 388.386C393.29 388.538 393.693 388.784 394.057 389.125C394.42 389.462 394.71 389.909 394.926 390.466C395.142 391.023 395.25 391.708 395.25 392.523V393.091H388.523V391.932H393.886C393.886 391.439 393.788 391 393.591 390.614C393.398 390.227 393.121 389.922 392.761 389.699C392.405 389.475 391.985 389.364 391.5 389.364C390.966 389.364 390.504 389.496 390.114 389.761C389.727 390.023 389.43 390.364 389.222 390.784C389.013 391.205 388.909 391.655 388.909 392.136V392.909C388.909 393.568 389.023 394.127 389.25 394.585C389.481 395.04 389.801 395.386 390.21 395.625C390.619 395.86 391.095 395.977 391.636 395.977C391.989 395.977 392.307 395.928 392.591 395.83C392.879 395.727 393.127 395.576 393.335 395.375C393.544 395.17 393.705 394.917 393.818 394.614L395.114 394.977C394.977 395.417 394.748 395.803 394.426 396.136C394.104 396.466 393.706 396.723 393.233 396.909C392.759 397.091 392.227 397.182 391.636 397.182ZM399.858 397.205C399.305 397.205 398.803 397.1 398.352 396.892C397.902 396.68 397.544 396.375 397.278 395.977C397.013 395.576 396.881 395.091 396.881 394.523C396.881 394.023 396.979 393.617 397.176 393.307C397.373 392.992 397.636 392.746 397.966 392.568C398.295 392.39 398.659 392.258 399.057 392.17C399.458 392.08 399.862 392.008 400.267 391.955C400.797 391.886 401.227 391.835 401.557 391.801C401.89 391.763 402.133 391.701 402.284 391.614C402.439 391.527 402.517 391.375 402.517 391.159V391.114C402.517 390.553 402.364 390.117 402.057 389.807C401.754 389.496 401.294 389.341 400.676 389.341C400.036 389.341 399.534 389.481 399.17 389.761C398.807 390.042 398.551 390.341 398.403 390.659L397.131 390.205C397.358 389.674 397.661 389.261 398.04 388.966C398.422 388.667 398.839 388.458 399.29 388.341C399.744 388.22 400.191 388.159 400.631 388.159C400.911 388.159 401.233 388.193 401.597 388.261C401.964 388.326 402.318 388.46 402.659 388.665C403.004 388.869 403.29 389.178 403.517 389.591C403.744 390.004 403.858 390.557 403.858 391.25V397H402.517V395.818H402.449C402.358 396.008 402.206 396.21 401.994 396.426C401.782 396.642 401.5 396.826 401.148 396.977C400.795 397.129 400.366 397.205 399.858 397.205ZM400.062 396C400.593 396 401.04 395.896 401.403 395.688C401.771 395.479 402.047 395.21 402.233 394.881C402.422 394.551 402.517 394.205 402.517 393.841V392.614C402.46 392.682 402.335 392.744 402.142 392.801C401.953 392.854 401.733 392.902 401.483 392.943C401.237 392.981 400.996 393.015 400.761 393.045C400.53 393.072 400.343 393.095 400.199 393.114C399.85 393.159 399.525 393.233 399.222 393.335C398.922 393.434 398.68 393.583 398.494 393.784C398.313 393.981 398.222 394.25 398.222 394.591C398.222 395.057 398.394 395.409 398.739 395.648C399.087 395.883 399.528 396 400.062 396ZM409.601 397.182C408.874 397.182 408.232 396.998 407.675 396.631C407.118 396.259 406.682 395.737 406.368 395.062C406.054 394.384 405.896 393.583 405.896 392.659C405.896 391.742 406.054 390.947 406.368 390.273C406.682 389.598 407.12 389.078 407.68 388.71C408.241 388.343 408.889 388.159 409.624 388.159C410.192 388.159 410.641 388.254 410.97 388.443C411.304 388.629 411.557 388.841 411.732 389.08C411.91 389.314 412.048 389.508 412.146 389.659H412.26V385.364H413.601V397H412.305V395.659H412.146C412.048 395.818 411.908 396.019 411.726 396.261C411.544 396.5 411.285 396.714 410.947 396.903C410.61 397.089 410.161 397.182 409.601 397.182ZM409.783 395.977C410.321 395.977 410.775 395.837 411.146 395.557C411.518 395.273 411.8 394.881 411.993 394.381C412.186 393.877 412.283 393.295 412.283 392.636C412.283 391.985 412.188 391.415 411.999 390.926C411.809 390.434 411.529 390.051 411.158 389.778C410.786 389.502 410.328 389.364 409.783 389.364C409.214 389.364 408.741 389.509 408.362 389.801C407.987 390.089 407.705 390.481 407.516 390.977C407.33 391.47 407.237 392.023 407.237 392.636C407.237 393.258 407.332 393.822 407.521 394.33C407.714 394.833 407.999 395.235 408.374 395.534C408.752 395.83 409.222 395.977 409.783 395.977ZM419.902 397.182C419.061 397.182 418.336 396.996 417.726 396.625C417.12 396.25 416.652 395.727 416.322 395.057C415.997 394.383 415.834 393.598 415.834 392.705C415.834 391.811 415.997 391.023 416.322 390.341C416.652 389.655 417.11 389.121 417.697 388.739C418.288 388.352 418.978 388.159 419.766 388.159C420.22 388.159 420.669 388.235 421.112 388.386C421.555 388.538 421.959 388.784 422.322 389.125C422.686 389.462 422.976 389.909 423.192 390.466C423.408 391.023 423.516 391.708 423.516 392.523V393.091H416.788V391.932H422.152C422.152 391.439 422.054 391 421.857 390.614C421.663 390.227 421.387 389.922 421.027 389.699C420.671 389.475 420.25 389.364 419.766 389.364C419.232 389.364 418.769 389.496 418.379 389.761C417.993 390.023 417.696 390.364 417.487 390.784C417.279 391.205 417.175 391.655 417.175 392.136V392.909C417.175 393.568 417.288 394.127 417.516 394.585C417.747 395.04 418.067 395.386 418.476 395.625C418.885 395.86 419.36 395.977 419.902 395.977C420.254 395.977 420.572 395.928 420.857 395.83C421.144 395.727 421.393 395.576 421.601 395.375C421.809 395.17 421.97 394.917 422.084 394.614L423.379 394.977C423.243 395.417 423.014 395.803 422.692 396.136C422.37 396.466 421.972 396.723 421.499 396.909C421.025 397.091 420.493 397.182 419.902 397.182ZM425.555 397V388.273H426.851V389.591H426.942C427.101 389.159 427.389 388.809 427.805 388.54C428.222 388.271 428.692 388.136 429.214 388.136C429.313 388.136 429.436 388.138 429.584 388.142C429.732 388.146 429.843 388.152 429.919 388.159V389.523C429.874 389.511 429.769 389.494 429.607 389.472C429.447 389.445 429.279 389.432 429.101 389.432C428.677 389.432 428.298 389.521 427.964 389.699C427.635 389.873 427.374 390.116 427.18 390.426C426.991 390.733 426.896 391.083 426.896 391.477V397H425.555Z" fill="white"/>
<rect x="307.5" y="415.5" width="385" height="47" rx="11.5" fill="#2563EB" fill-opacity="0.1"/>
<rect x="307.5" y="415.5" width="385" height="47" rx="11.5" stroke="#007AFF"/>
<rect x="315.5" y="423.5" width="117" height="31" rx="7.5" fill="#0F0F0F"/>
<rect x="315.5" y="423.5" width="117" height="31" rx="7.5" stroke="#404040"/>
<path d="M336 445H332.409V433.364H336.159C337.288 433.364 338.254 433.597 339.057 434.062C339.86 434.525 340.475 435.189 340.903 436.057C341.331 436.92 341.545 437.955 341.545 439.159C341.545 440.371 341.33 441.415 340.898 442.29C340.466 443.161 339.837 443.831 339.011 444.301C338.186 444.767 337.182 445 336 445ZM333.818 443.75H335.909C336.871 443.75 337.669 443.564 338.301 443.193C338.934 442.822 339.405 442.294 339.716 441.608C340.027 440.922 340.182 440.106 340.182 439.159C340.182 438.22 340.028 437.411 339.722 436.733C339.415 436.051 338.956 435.528 338.347 435.165C337.737 434.797 336.977 434.614 336.068 434.614H333.818V443.75ZM343.727 445V436.273H345.068V445H343.727ZM344.409 434.818C344.148 434.818 343.922 434.729 343.733 434.551C343.547 434.373 343.455 434.159 343.455 433.909C343.455 433.659 343.547 433.445 343.733 433.267C343.922 433.089 344.148 433 344.409 433C344.67 433 344.894 433.089 345.08 433.267C345.269 433.445 345.364 433.659 345.364 433.909C345.364 434.159 345.269 434.373 345.08 434.551C344.894 434.729 344.67 434.818 344.409 434.818ZM350.092 445.205C349.539 445.205 349.037 445.1 348.587 444.892C348.136 444.68 347.778 444.375 347.513 443.977C347.248 443.576 347.115 443.091 347.115 442.523C347.115 442.023 347.214 441.617 347.411 441.307C347.607 440.992 347.871 440.746 348.2 440.568C348.53 440.39 348.893 440.258 349.291 440.17C349.693 440.08 350.096 440.008 350.501 439.955C351.032 439.886 351.462 439.835 351.791 439.801C352.125 439.763 352.367 439.701 352.518 439.614C352.674 439.527 352.751 439.375 352.751 439.159V439.114C352.751 438.553 352.598 438.117 352.291 437.807C351.988 437.496 351.528 437.341 350.911 437.341C350.27 437.341 349.768 437.481 349.405 437.761C349.041 438.042 348.786 438.341 348.638 438.659L347.365 438.205C347.592 437.674 347.895 437.261 348.274 436.966C348.657 436.667 349.073 436.458 349.524 436.341C349.979 436.22 350.426 436.159 350.865 436.159C351.145 436.159 351.467 436.193 351.831 436.261C352.198 436.326 352.553 436.46 352.893 436.665C353.238 436.869 353.524 437.178 353.751 437.591C353.979 438.004 354.092 438.557 354.092 439.25V445H352.751V443.818H352.683C352.592 444.008 352.441 444.21 352.229 444.426C352.017 444.642 351.734 444.826 351.382 444.977C351.03 445.129 350.6 445.205 350.092 445.205ZM350.297 444C350.827 444 351.274 443.896 351.638 443.688C352.005 443.479 352.282 443.21 352.467 442.881C352.657 442.551 352.751 442.205 352.751 441.841V440.614C352.695 440.682 352.57 440.744 352.376 440.801C352.187 440.854 351.967 440.902 351.717 440.943C351.471 440.981 351.231 441.015 350.996 441.045C350.765 441.072 350.577 441.095 350.433 441.114C350.085 441.159 349.759 441.233 349.456 441.335C349.157 441.434 348.914 441.583 348.729 441.784C348.547 441.981 348.456 442.25 348.456 442.591C348.456 443.057 348.628 443.409 348.973 443.648C349.321 443.883 349.763 444 350.297 444ZM357.881 433.364V445H356.54V433.364H357.881ZM363.882 445.182C363.094 445.182 362.403 444.994 361.808 444.619C361.217 444.244 360.755 443.72 360.422 443.045C360.092 442.371 359.928 441.583 359.928 440.682C359.928 439.773 360.092 438.979 360.422 438.301C360.755 437.623 361.217 437.097 361.808 436.722C362.403 436.347 363.094 436.159 363.882 436.159C364.67 436.159 365.359 436.347 365.95 436.722C366.545 437.097 367.007 437.623 367.337 438.301C367.67 438.979 367.837 439.773 367.837 440.682C367.837 441.583 367.67 442.371 367.337 443.045C367.007 443.72 366.545 444.244 365.95 444.619C365.359 444.994 364.67 445.182 363.882 445.182ZM363.882 443.977C364.481 443.977 364.973 443.824 365.359 443.517C365.746 443.21 366.032 442.807 366.217 442.307C366.403 441.807 366.496 441.265 366.496 440.682C366.496 440.098 366.403 439.555 366.217 439.051C366.032 438.547 365.746 438.14 365.359 437.83C364.973 437.519 364.481 437.364 363.882 437.364C363.284 437.364 362.791 437.519 362.405 437.83C362.018 438.14 361.732 438.547 361.547 439.051C361.361 439.555 361.268 440.098 361.268 440.682C361.268 441.265 361.361 441.807 361.547 442.307C361.732 442.807 362.018 443.21 362.405 443.517C362.791 443.824 363.284 443.977 363.882 443.977ZM373.406 448.455C372.759 448.455 372.202 448.371 371.736 448.205C371.27 448.042 370.882 447.826 370.571 447.557C370.264 447.292 370.02 447.008 369.838 446.705L370.906 445.955C371.027 446.114 371.181 446.295 371.366 446.5C371.552 446.708 371.806 446.888 372.128 447.04C372.454 447.195 372.88 447.273 373.406 447.273C374.111 447.273 374.692 447.102 375.151 446.761C375.609 446.42 375.838 445.886 375.838 445.159V443.386H375.724C375.626 443.545 375.486 443.742 375.304 443.977C375.126 444.208 374.868 444.415 374.531 444.597C374.198 444.775 373.747 444.864 373.179 444.864C372.474 444.864 371.842 444.697 371.281 444.364C370.724 444.03 370.283 443.545 369.957 442.909C369.635 442.273 369.474 441.5 369.474 440.591C369.474 439.697 369.632 438.919 369.946 438.256C370.26 437.589 370.698 437.074 371.259 436.71C371.819 436.343 372.467 436.159 373.202 436.159C373.77 436.159 374.221 436.254 374.554 436.443C374.891 436.629 375.149 436.841 375.327 437.08C375.509 437.314 375.649 437.508 375.747 437.659H375.884V436.273H377.179V445.25C377.179 446 377.009 446.61 376.668 447.08C376.33 447.553 375.876 447.9 375.304 448.119C374.736 448.343 374.103 448.455 373.406 448.455ZM373.361 443.659C373.899 443.659 374.353 443.536 374.724 443.29C375.096 443.044 375.378 442.689 375.571 442.227C375.764 441.765 375.861 441.212 375.861 440.568C375.861 439.939 375.766 439.384 375.577 438.903C375.387 438.422 375.107 438.045 374.736 437.773C374.365 437.5 373.906 437.364 373.361 437.364C372.793 437.364 372.319 437.508 371.94 437.795C371.565 438.083 371.283 438.47 371.094 438.955C370.908 439.439 370.815 439.977 370.815 440.568C370.815 441.174 370.91 441.71 371.099 442.176C371.293 442.638 371.577 443.002 371.952 443.267C372.33 443.528 372.8 443.659 373.361 443.659ZM383.679 434.614V433.364H392.406V434.614H388.747V445H387.338V434.614H383.679ZM394.399 445V436.273H395.74V445H394.399ZM395.081 434.818C394.82 434.818 394.594 434.729 394.405 434.551C394.219 434.373 394.126 434.159 394.126 433.909C394.126 433.659 394.219 433.445 394.405 433.267C394.594 433.089 394.82 433 395.081 433C395.342 433 395.566 433.089 395.751 433.267C395.941 433.445 396.036 433.659 396.036 433.909C396.036 434.159 395.941 434.373 395.751 434.551C395.566 434.729 395.342 434.818 395.081 434.818ZM401.991 436.273V437.409H397.469V436.273H401.991ZM398.787 434.182H400.128V442.5C400.128 442.879 400.183 443.163 400.293 443.352C400.406 443.538 400.55 443.663 400.724 443.727C400.902 443.788 401.09 443.818 401.287 443.818C401.435 443.818 401.556 443.811 401.651 443.795C401.745 443.777 401.821 443.761 401.878 443.75L402.151 444.955C402.06 444.989 401.933 445.023 401.77 445.057C401.607 445.095 401.401 445.114 401.151 445.114C400.772 445.114 400.401 445.032 400.037 444.869C399.677 444.706 399.378 444.458 399.139 444.125C398.904 443.792 398.787 443.371 398.787 442.864V434.182ZM405.537 433.364V445H404.196V433.364H405.537ZM411.652 445.182C410.811 445.182 410.086 444.996 409.476 444.625C408.87 444.25 408.402 443.727 408.072 443.057C407.747 442.383 407.584 441.598 407.584 440.705C407.584 439.811 407.747 439.023 408.072 438.341C408.402 437.655 408.86 437.121 409.447 436.739C410.038 436.352 410.728 436.159 411.516 436.159C411.97 436.159 412.419 436.235 412.862 436.386C413.305 436.538 413.709 436.784 414.072 437.125C414.436 437.462 414.726 437.909 414.942 438.466C415.158 439.023 415.266 439.708 415.266 440.523V441.091H408.538V439.932H413.902C413.902 439.439 413.804 439 413.607 438.614C413.413 438.227 413.137 437.922 412.777 437.699C412.421 437.475 412 437.364 411.516 437.364C410.982 437.364 410.519 437.496 410.129 437.761C409.743 438.023 409.446 438.364 409.237 438.784C409.029 439.205 408.925 439.655 408.925 440.136V440.909C408.925 441.568 409.038 442.127 409.266 442.585C409.497 443.04 409.817 443.386 410.226 443.625C410.635 443.86 411.11 443.977 411.652 443.977C412.004 443.977 412.322 443.928 412.607 443.83C412.894 443.727 413.143 443.576 413.351 443.375C413.559 443.17 413.72 442.917 413.834 442.614L415.129 442.977C414.993 443.417 414.764 443.803 414.442 444.136C414.12 444.466 413.722 444.723 413.249 444.909C412.775 445.091 412.243 445.182 411.652 445.182Z" fill="white"/>
<rect x="307.5" y="471.5" width="385" height="47" rx="11.5" fill="#2563EB" fill-opacity="0.1"/>
<rect x="307.5" y="471.5" width="385" height="47" rx="11.5" stroke="#007AFF"/>
<rect x="315.5" y="479.5" width="170" height="31" rx="7.5" fill="#0F0F0F"/>
<rect x="315.5" y="479.5" width="170" height="31" rx="7.5" stroke="#404040"/>
<path d="M336 501H332.409V489.364H336.159C337.288 489.364 338.254 489.597 339.057 490.062C339.86 490.525 340.475 491.189 340.903 492.057C341.331 492.92 341.545 493.955 341.545 495.159C341.545 496.371 341.33 497.415 340.898 498.29C340.466 499.161 339.837 499.831 339.011 500.301C338.186 500.767 337.182 501 336 501ZM333.818 499.75H335.909C336.871 499.75 337.669 499.564 338.301 499.193C338.934 498.822 339.405 498.294 339.716 497.608C340.027 496.922 340.182 496.106 340.182 495.159C340.182 494.22 340.028 493.411 339.722 492.733C339.415 492.051 338.956 491.528 338.347 491.165C337.737 490.797 336.977 490.614 336.068 490.614H333.818V499.75ZM343.727 501V492.273H345.068V501H343.727ZM344.409 490.818C344.148 490.818 343.922 490.729 343.733 490.551C343.547 490.373 343.455 490.159 343.455 489.909C343.455 489.659 343.547 489.445 343.733 489.267C343.922 489.089 344.148 489 344.409 489C344.67 489 344.894 489.089 345.08 489.267C345.269 489.445 345.364 489.659 345.364 489.909C345.364 490.159 345.269 490.373 345.08 490.551C344.894 490.729 344.67 490.818 344.409 490.818ZM350.092 501.205C349.539 501.205 349.037 501.1 348.587 500.892C348.136 500.68 347.778 500.375 347.513 499.977C347.248 499.576 347.115 499.091 347.115 498.523C347.115 498.023 347.214 497.617 347.411 497.307C347.607 496.992 347.871 496.746 348.2 496.568C348.53 496.39 348.893 496.258 349.291 496.17C349.693 496.08 350.096 496.008 350.501 495.955C351.032 495.886 351.462 495.835 351.791 495.801C352.125 495.763 352.367 495.701 352.518 495.614C352.674 495.527 352.751 495.375 352.751 495.159V495.114C352.751 494.553 352.598 494.117 352.291 493.807C351.988 493.496 351.528 493.341 350.911 493.341C350.27 493.341 349.768 493.481 349.405 493.761C349.041 494.042 348.786 494.341 348.638 494.659L347.365 494.205C347.592 493.674 347.895 493.261 348.274 492.966C348.657 492.667 349.073 492.458 349.524 492.341C349.979 492.22 350.426 492.159 350.865 492.159C351.145 492.159 351.467 492.193 351.831 492.261C352.198 492.326 352.553 492.46 352.893 492.665C353.238 492.869 353.524 493.178 353.751 493.591C353.979 494.004 354.092 494.557 354.092 495.25V501H352.751V499.818H352.683C352.592 500.008 352.441 500.21 352.229 500.426C352.017 500.642 351.734 500.826 351.382 500.977C351.03 501.129 350.6 501.205 350.092 501.205ZM350.297 500C350.827 500 351.274 499.896 351.638 499.688C352.005 499.479 352.282 499.21 352.467 498.881C352.657 498.551 352.751 498.205 352.751 497.841V496.614C352.695 496.682 352.57 496.744 352.376 496.801C352.187 496.854 351.967 496.902 351.717 496.943C351.471 496.981 351.231 497.015 350.996 497.045C350.765 497.072 350.577 497.095 350.433 497.114C350.085 497.159 349.759 497.233 349.456 497.335C349.157 497.434 348.914 497.583 348.729 497.784C348.547 497.981 348.456 498.25 348.456 498.591C348.456 499.057 348.628 499.409 348.973 499.648C349.321 499.883 349.763 500 350.297 500ZM357.881 489.364V501H356.54V489.364H357.881ZM363.882 501.182C363.094 501.182 362.403 500.994 361.808 500.619C361.217 500.244 360.755 499.72 360.422 499.045C360.092 498.371 359.928 497.583 359.928 496.682C359.928 495.773 360.092 494.979 360.422 494.301C360.755 493.623 361.217 493.097 361.808 492.722C362.403 492.347 363.094 492.159 363.882 492.159C364.67 492.159 365.359 492.347 365.95 492.722C366.545 493.097 367.007 493.623 367.337 494.301C367.67 494.979 367.837 495.773 367.837 496.682C367.837 497.583 367.67 498.371 367.337 499.045C367.007 499.72 366.545 500.244 365.95 500.619C365.359 500.994 364.67 501.182 363.882 501.182ZM363.882 499.977C364.481 499.977 364.973 499.824 365.359 499.517C365.746 499.21 366.032 498.807 366.217 498.307C366.403 497.807 366.496 497.265 366.496 496.682C366.496 496.098 366.403 495.555 366.217 495.051C366.032 494.547 365.746 494.14 365.359 493.83C364.973 493.519 364.481 493.364 363.882 493.364C363.284 493.364 362.791 493.519 362.405 493.83C362.018 494.14 361.732 494.547 361.547 495.051C361.361 495.555 361.268 496.098 361.268 496.682C361.268 497.265 361.361 497.807 361.547 498.307C361.732 498.807 362.018 499.21 362.405 499.517C362.791 499.824 363.284 499.977 363.882 499.977ZM373.406 504.455C372.759 504.455 372.202 504.371 371.736 504.205C371.27 504.042 370.882 503.826 370.571 503.557C370.264 503.292 370.02 503.008 369.838 502.705L370.906 501.955C371.027 502.114 371.181 502.295 371.366 502.5C371.552 502.708 371.806 502.888 372.128 503.04C372.454 503.195 372.88 503.273 373.406 503.273C374.111 503.273 374.692 503.102 375.151 502.761C375.609 502.42 375.838 501.886 375.838 501.159V499.386H375.724C375.626 499.545 375.486 499.742 375.304 499.977C375.126 500.208 374.868 500.415 374.531 500.597C374.198 500.775 373.747 500.864 373.179 500.864C372.474 500.864 371.842 500.697 371.281 500.364C370.724 500.03 370.283 499.545 369.957 498.909C369.635 498.273 369.474 497.5 369.474 496.591C369.474 495.697 369.632 494.919 369.946 494.256C370.26 493.589 370.698 493.074 371.259 492.71C371.819 492.343 372.467 492.159 373.202 492.159C373.77 492.159 374.221 492.254 374.554 492.443C374.891 492.629 375.149 492.841 375.327 493.08C375.509 493.314 375.649 493.508 375.747 493.659H375.884V492.273H377.179V501.25C377.179 502 377.009 502.61 376.668 503.08C376.33 503.553 375.876 503.9 375.304 504.119C374.736 504.343 374.103 504.455 373.406 504.455ZM373.361 499.659C373.899 499.659 374.353 499.536 374.724 499.29C375.096 499.044 375.378 498.689 375.571 498.227C375.764 497.765 375.861 497.212 375.861 496.568C375.861 495.939 375.766 495.384 375.577 494.903C375.387 494.422 375.107 494.045 374.736 493.773C374.365 493.5 373.906 493.364 373.361 493.364C372.793 493.364 372.319 493.508 371.94 493.795C371.565 494.083 371.283 494.47 371.094 494.955C370.908 495.439 370.815 495.977 370.815 496.568C370.815 497.174 370.91 497.71 371.099 498.176C371.293 498.638 371.577 499.002 371.952 499.267C372.33 499.528 372.8 499.659 373.361 499.659ZM387.906 501H384.315V489.364H388.065C389.194 489.364 390.16 489.597 390.963 490.062C391.766 490.525 392.382 491.189 392.81 492.057C393.238 492.92 393.452 493.955 393.452 495.159C393.452 496.371 393.236 497.415 392.804 498.29C392.372 499.161 391.743 499.831 390.918 500.301C390.092 500.767 389.088 501 387.906 501ZM385.724 499.75H387.815C388.777 499.75 389.575 499.564 390.207 499.193C390.84 498.822 391.312 498.294 391.622 497.608C391.933 496.922 392.088 496.106 392.088 495.159C392.088 494.22 391.935 493.411 391.628 492.733C391.321 492.051 390.863 491.528 390.253 491.165C389.643 490.797 388.884 490.614 387.974 490.614H385.724V499.75ZM399.293 501.182C398.452 501.182 397.726 500.996 397.116 500.625C396.51 500.25 396.043 499.727 395.713 499.057C395.387 498.383 395.224 497.598 395.224 496.705C395.224 495.811 395.387 495.023 395.713 494.341C396.043 493.655 396.501 493.121 397.088 492.739C397.679 492.352 398.368 492.159 399.156 492.159C399.611 492.159 400.06 492.235 400.503 492.386C400.946 492.538 401.349 492.784 401.713 493.125C402.077 493.462 402.366 493.909 402.582 494.466C402.798 495.023 402.906 495.708 402.906 496.523V497.091H396.179V495.932H401.543C401.543 495.439 401.444 495 401.247 494.614C401.054 494.227 400.777 493.922 400.418 493.699C400.062 493.475 399.641 493.364 399.156 493.364C398.622 493.364 398.16 493.496 397.77 493.761C397.384 494.023 397.086 494.364 396.878 494.784C396.67 495.205 396.565 495.655 396.565 496.136V496.909C396.565 497.568 396.679 498.127 396.906 498.585C397.137 499.04 397.457 499.386 397.866 499.625C398.276 499.86 398.751 499.977 399.293 499.977C399.645 499.977 399.963 499.928 400.247 499.83C400.535 499.727 400.783 499.576 400.991 499.375C401.2 499.17 401.361 498.917 401.474 498.614L402.77 498.977C402.634 499.417 402.404 499.803 402.082 500.136C401.76 500.466 401.363 500.723 400.889 500.909C400.416 501.091 399.884 501.182 399.293 501.182ZM411.128 494.227L409.923 494.568C409.848 494.367 409.736 494.172 409.588 493.983C409.444 493.79 409.247 493.631 408.997 493.506C408.747 493.381 408.427 493.318 408.037 493.318C407.503 493.318 407.058 493.441 406.702 493.688C406.349 493.93 406.173 494.239 406.173 494.614C406.173 494.947 406.295 495.21 406.537 495.403C406.779 495.597 407.158 495.758 407.673 495.886L408.969 496.205C409.749 496.394 410.33 496.684 410.713 497.074C411.096 497.46 411.287 497.958 411.287 498.568C411.287 499.068 411.143 499.515 410.855 499.909C410.571 500.303 410.173 500.614 409.662 500.841C409.151 501.068 408.556 501.182 407.878 501.182C406.988 501.182 406.251 500.989 405.668 500.602C405.084 500.216 404.715 499.652 404.56 498.909L405.832 498.591C405.954 499.061 406.183 499.413 406.52 499.648C406.861 499.883 407.306 500 407.855 500C408.48 500 408.976 499.867 409.344 499.602C409.715 499.333 409.901 499.011 409.901 498.636C409.901 498.333 409.795 498.08 409.582 497.875C409.37 497.667 409.045 497.511 408.605 497.409L407.151 497.068C406.351 496.879 405.764 496.585 405.389 496.188C405.018 495.786 404.832 495.284 404.832 494.682C404.832 494.189 404.971 493.754 405.247 493.375C405.527 492.996 405.908 492.699 406.389 492.483C406.874 492.267 407.423 492.159 408.037 492.159C408.901 492.159 409.579 492.348 410.071 492.727C410.567 493.106 410.92 493.606 411.128 494.227ZM416.851 501.182C416.033 501.182 415.328 500.989 414.737 500.602C414.146 500.216 413.692 499.684 413.374 499.006C413.055 498.328 412.896 497.553 412.896 496.682C412.896 495.795 413.059 495.013 413.385 494.335C413.714 493.653 414.173 493.121 414.76 492.739C415.351 492.352 416.04 492.159 416.828 492.159C417.442 492.159 417.995 492.273 418.487 492.5C418.98 492.727 419.383 493.045 419.697 493.455C420.012 493.864 420.207 494.341 420.283 494.886H418.942C418.839 494.489 418.612 494.136 418.26 493.83C417.911 493.519 417.442 493.364 416.851 493.364C416.328 493.364 415.87 493.5 415.476 493.773C415.086 494.042 414.781 494.422 414.561 494.915C414.345 495.403 414.237 495.977 414.237 496.636C414.237 497.311 414.343 497.898 414.555 498.398C414.771 498.898 415.074 499.286 415.464 499.562C415.858 499.839 416.321 499.977 416.851 499.977C417.199 499.977 417.516 499.917 417.8 499.795C418.084 499.674 418.324 499.5 418.521 499.273C418.718 499.045 418.858 498.773 418.942 498.455H420.283C420.207 498.97 420.019 499.434 419.72 499.847C419.425 500.256 419.033 500.581 418.544 500.824C418.059 501.062 417.495 501.182 416.851 501.182ZM422.243 501V492.273H423.538V493.591H423.629C423.788 493.159 424.076 492.809 424.493 492.54C424.91 492.271 425.379 492.136 425.902 492.136C426 492.136 426.124 492.138 426.271 492.142C426.419 492.146 426.531 492.152 426.607 492.159V493.523C426.561 493.511 426.457 493.494 426.294 493.472C426.135 493.445 425.966 493.432 425.788 493.432C425.364 493.432 424.985 493.521 424.652 493.699C424.322 493.873 424.061 494.116 423.868 494.426C423.679 494.733 423.584 495.083 423.584 495.477V501H422.243ZM428.196 501V492.273H429.537V501H428.196ZM428.878 490.818C428.616 490.818 428.391 490.729 428.202 490.551C428.016 490.373 427.923 490.159 427.923 489.909C427.923 489.659 428.016 489.445 428.202 489.267C428.391 489.089 428.616 489 428.878 489C429.139 489 429.363 489.089 429.548 489.267C429.738 489.445 429.832 489.659 429.832 489.909C429.832 490.159 429.738 490.373 429.548 490.551C429.363 490.729 429.139 490.818 428.878 490.818ZM431.993 504.273V492.273H433.288V493.659H433.447C433.546 493.508 433.682 493.314 433.857 493.08C434.035 492.841 434.288 492.629 434.618 492.443C434.951 492.254 435.402 492.159 435.97 492.159C436.705 492.159 437.353 492.343 437.913 492.71C438.474 493.078 438.911 493.598 439.226 494.273C439.54 494.947 439.697 495.742 439.697 496.659C439.697 497.583 439.54 498.384 439.226 499.062C438.911 499.737 438.476 500.259 437.919 500.631C437.362 500.998 436.72 501.182 435.993 501.182C435.432 501.182 434.983 501.089 434.646 500.903C434.309 500.714 434.05 500.5 433.868 500.261C433.686 500.019 433.546 499.818 433.447 499.659H433.334V504.273H431.993ZM433.311 496.636C433.311 497.295 433.408 497.877 433.601 498.381C433.794 498.881 434.076 499.273 434.447 499.557C434.819 499.837 435.273 499.977 435.811 499.977C436.372 499.977 436.839 499.83 437.214 499.534C437.593 499.235 437.877 498.833 438.067 498.33C438.26 497.822 438.357 497.258 438.357 496.636C438.357 496.023 438.262 495.47 438.072 494.977C437.887 494.481 437.605 494.089 437.226 493.801C436.851 493.509 436.379 493.364 435.811 493.364C435.266 493.364 434.807 493.502 434.436 493.778C434.065 494.051 433.785 494.434 433.595 494.926C433.406 495.415 433.311 495.985 433.311 496.636ZM445.538 492.273V493.409H441.016V492.273H445.538ZM442.334 490.182H443.675V498.5C443.675 498.879 443.73 499.163 443.839 499.352C443.953 499.538 444.097 499.663 444.271 499.727C444.449 499.788 444.637 499.818 444.834 499.818C444.982 499.818 445.103 499.811 445.197 499.795C445.292 499.777 445.368 499.761 445.425 499.75L445.697 500.955C445.607 500.989 445.48 501.023 445.317 501.057C445.154 501.095 444.947 501.114 444.697 501.114C444.319 501.114 443.947 501.032 443.584 500.869C443.224 500.706 442.925 500.458 442.686 500.125C442.451 499.792 442.334 499.371 442.334 498.864V490.182ZM447.555 501V492.273H448.896V501H447.555ZM448.237 490.818C447.976 490.818 447.75 490.729 447.561 490.551C447.375 490.373 447.283 490.159 447.283 489.909C447.283 489.659 447.375 489.445 447.561 489.267C447.75 489.089 447.976 489 448.237 489C448.499 489 448.722 489.089 448.908 489.267C449.097 489.445 449.192 489.659 449.192 489.909C449.192 490.159 449.097 490.373 448.908 490.551C448.722 490.729 448.499 490.818 448.237 490.818ZM454.898 501.182C454.11 501.182 453.419 500.994 452.824 500.619C452.233 500.244 451.771 499.72 451.438 499.045C451.108 498.371 450.943 497.583 450.943 496.682C450.943 495.773 451.108 494.979 451.438 494.301C451.771 493.623 452.233 493.097 452.824 492.722C453.419 492.347 454.11 492.159 454.898 492.159C455.686 492.159 456.375 492.347 456.966 492.722C457.561 493.097 458.023 493.623 458.352 494.301C458.686 494.979 458.852 495.773 458.852 496.682C458.852 497.583 458.686 498.371 458.352 499.045C458.023 499.72 457.561 500.244 456.966 500.619C456.375 500.994 455.686 501.182 454.898 501.182ZM454.898 499.977C455.496 499.977 455.989 499.824 456.375 499.517C456.761 499.21 457.047 498.807 457.233 498.307C457.419 497.807 457.511 497.265 457.511 496.682C457.511 496.098 457.419 495.555 457.233 495.051C457.047 494.547 456.761 494.14 456.375 493.83C455.989 493.519 455.496 493.364 454.898 493.364C454.299 493.364 453.807 493.519 453.42 493.83C453.034 494.14 452.748 494.547 452.562 495.051C452.377 495.555 452.284 496.098 452.284 496.682C452.284 497.265 452.377 497.807 452.562 498.307C452.748 498.807 453.034 499.21 453.42 499.517C453.807 499.824 454.299 499.977 454.898 499.977ZM462.24 495.75V501H460.899V492.273H462.195V493.636H462.308C462.513 493.193 462.823 492.837 463.24 492.568C463.657 492.295 464.195 492.159 464.854 492.159C465.445 492.159 465.962 492.28 466.405 492.523C466.848 492.761 467.193 493.125 467.439 493.614C467.685 494.098 467.808 494.712 467.808 495.455V501H466.467V495.545C466.467 494.86 466.289 494.326 465.933 493.943C465.577 493.557 465.089 493.364 464.467 493.364C464.039 493.364 463.657 493.456 463.32 493.642C462.986 493.828 462.723 494.098 462.53 494.455C462.337 494.811 462.24 495.242 462.24 495.75Z" fill="white"/>
</svg>
