<svg width="1000" height="375" viewBox="0 0 1000 375" fill="none" xmlns="http://www.w3.org/2000/svg">
<rect x="275.5" y="164.5" width="449" height="47" rx="15.5" fill="#15803D" fill-opacity="0.1"/>
<rect x="275.5" y="164.5" width="449" height="47" rx="15.5" stroke="#15803D"/>
<rect x="283.5" y="172.5" width="70" height="31" rx="7.5" fill="#0F0F0F"/>
<rect x="283.5" y="172.5" width="70" height="31" rx="7.5" stroke="#404040"/>
<path d="M301.818 182.364V194H300.409V182.364H301.818ZM305.803 188.75V194H304.462V185.273H305.757V186.636H305.871C306.075 186.193 306.386 185.837 306.803 185.568C307.219 185.295 307.757 185.159 308.416 185.159C309.007 185.159 309.524 185.28 309.967 185.523C310.411 185.761 310.755 186.125 311.001 186.614C311.248 187.098 311.371 187.712 311.371 188.455V194H310.03V188.545C310.03 187.86 309.852 187.326 309.496 186.943C309.14 186.557 308.651 186.364 308.03 186.364C307.602 186.364 307.219 186.456 306.882 186.642C306.549 186.828 306.286 187.098 306.092 187.455C305.899 187.811 305.803 188.242 305.803 188.75ZM313.821 197.273V185.273H315.116V186.659H315.276C315.374 186.508 315.51 186.314 315.685 186.08C315.863 185.841 316.116 185.629 316.446 185.443C316.779 185.254 317.23 185.159 317.798 185.159C318.533 185.159 319.181 185.343 319.741 185.71C320.302 186.078 320.74 186.598 321.054 187.273C321.368 187.947 321.526 188.742 321.526 189.659C321.526 190.583 321.368 191.384 321.054 192.062C320.74 192.737 320.304 193.259 319.747 193.631C319.19 193.998 318.548 194.182 317.821 194.182C317.26 194.182 316.812 194.089 316.474 193.903C316.137 193.714 315.878 193.5 315.696 193.261C315.514 193.019 315.374 192.818 315.276 192.659H315.162V197.273H313.821ZM315.139 189.636C315.139 190.295 315.236 190.877 315.429 191.381C315.622 191.881 315.904 192.273 316.276 192.557C316.647 192.837 317.101 192.977 317.639 192.977C318.2 192.977 318.668 192.83 319.043 192.534C319.421 192.235 319.705 191.833 319.895 191.33C320.088 190.822 320.185 190.258 320.185 189.636C320.185 189.023 320.09 188.47 319.901 187.977C319.715 187.481 319.433 187.089 319.054 186.801C318.679 186.509 318.207 186.364 317.639 186.364C317.094 186.364 316.635 186.502 316.264 186.778C315.893 187.051 315.613 187.434 315.423 187.926C315.234 188.415 315.139 188.985 315.139 189.636ZM329.071 190.432V185.273H330.412V194H329.071V192.523H328.98C328.776 192.966 328.457 193.343 328.026 193.653C327.594 193.96 327.048 194.114 326.389 194.114C325.844 194.114 325.359 193.994 324.935 193.756C324.51 193.513 324.177 193.15 323.935 192.665C323.692 192.176 323.571 191.561 323.571 190.818V185.273H324.912V190.727C324.912 191.364 325.09 191.871 325.446 192.25C325.806 192.629 326.264 192.818 326.821 192.818C327.154 192.818 327.493 192.733 327.838 192.562C328.187 192.392 328.478 192.131 328.713 191.778C328.952 191.426 329.071 190.977 329.071 190.432ZM336.663 185.273V186.409H332.141V185.273H336.663ZM333.459 183.182H334.8V191.5C334.8 191.879 334.855 192.163 334.964 192.352C335.078 192.538 335.222 192.663 335.396 192.727C335.574 192.788 335.762 192.818 335.959 192.818C336.107 192.818 336.228 192.811 336.322 192.795C336.417 192.777 336.493 192.761 336.55 192.75L336.822 193.955C336.732 193.989 336.605 194.023 336.442 194.057C336.279 194.095 336.072 194.114 335.822 194.114C335.444 194.114 335.072 194.032 334.709 193.869C334.349 193.706 334.05 193.458 333.811 193.125C333.576 192.792 333.459 192.371 333.459 191.864V183.182Z" fill="white"/>
</svg>
