<svg width="1000" height="375" viewBox="0 0 1000 375" fill="none" xmlns="http://www.w3.org/2000/svg">
<rect x="275.5" y="116.5" width="449" height="143" rx="15.5" fill="#15803D" fill-opacity="0.1"/>
<rect x="275.5" y="116.5" width="449" height="143" rx="15.5" stroke="#15803D"/>
<rect x="283.5" y="124.5" width="97" height="31" rx="7.5" fill="#0F0F0F"/>
<rect x="283.5" y="124.5" width="97" height="31" rx="7.5" stroke="#404040"/>
<path d="M299.773 135.614V134.364H308.5V135.614H304.841V146H303.432V135.614H299.773ZM312.886 146.182C312.045 146.182 311.32 145.996 310.71 145.625C310.104 145.25 309.636 144.727 309.307 144.057C308.981 143.383 308.818 142.598 308.818 141.705C308.818 140.811 308.981 140.023 309.307 139.341C309.636 138.655 310.095 138.121 310.682 137.739C311.273 137.352 311.962 137.159 312.75 137.159C313.205 137.159 313.653 137.235 314.097 137.386C314.54 137.538 314.943 137.784 315.307 138.125C315.67 138.462 315.96 138.909 316.176 139.466C316.392 140.023 316.5 140.708 316.5 141.523V142.091H309.773V140.932H315.136C315.136 140.439 315.038 140 314.841 139.614C314.648 139.227 314.371 138.922 314.011 138.699C313.655 138.475 313.235 138.364 312.75 138.364C312.216 138.364 311.754 138.496 311.364 138.761C310.977 139.023 310.68 139.364 310.472 139.784C310.263 140.205 310.159 140.655 310.159 141.136V141.909C310.159 142.568 310.273 143.127 310.5 143.585C310.731 144.04 311.051 144.386 311.46 144.625C311.869 144.86 312.345 144.977 312.886 144.977C313.239 144.977 313.557 144.928 313.841 144.83C314.129 144.727 314.377 144.576 314.585 144.375C314.794 144.17 314.955 143.917 315.068 143.614L316.364 143.977C316.227 144.417 315.998 144.803 315.676 145.136C315.354 145.466 314.956 145.723 314.483 145.909C314.009 146.091 313.477 146.182 312.886 146.182ZM319.305 137.273L321.396 140.841L323.487 137.273H325.033L322.214 141.636L325.033 146H323.487L321.396 142.614L319.305 146H317.76L320.533 141.636L317.76 137.273H319.305ZM330.741 137.273V138.409H326.219V137.273H330.741ZM327.537 135.182H328.878V143.5C328.878 143.879 328.933 144.163 329.043 144.352C329.156 144.538 329.3 144.663 329.474 144.727C329.652 144.788 329.84 144.818 330.037 144.818C330.185 144.818 330.306 144.811 330.401 144.795C330.495 144.777 330.571 144.761 330.628 144.75L330.901 145.955C330.81 145.989 330.683 146.023 330.52 146.057C330.357 146.095 330.151 146.114 329.901 146.114C329.522 146.114 329.151 146.032 328.787 145.869C328.427 145.706 328.128 145.458 327.889 145.125C327.654 144.792 327.537 144.371 327.537 143.864V135.182ZM335.327 146.205C334.774 146.205 334.272 146.1 333.821 145.892C333.37 145.68 333.012 145.375 332.747 144.977C332.482 144.576 332.349 144.091 332.349 143.523C332.349 143.023 332.448 142.617 332.645 142.307C332.842 141.992 333.105 141.746 333.435 141.568C333.764 141.39 334.128 141.258 334.526 141.17C334.927 141.08 335.33 141.008 335.736 140.955C336.266 140.886 336.696 140.835 337.026 140.801C337.359 140.763 337.601 140.701 337.753 140.614C337.908 140.527 337.986 140.375 337.986 140.159V140.114C337.986 139.553 337.832 139.117 337.526 138.807C337.223 138.496 336.762 138.341 336.145 138.341C335.505 138.341 335.003 138.481 334.639 138.761C334.276 139.042 334.02 139.341 333.872 139.659L332.599 139.205C332.827 138.674 333.13 138.261 333.509 137.966C333.891 137.667 334.308 137.458 334.759 137.341C335.213 137.22 335.66 137.159 336.099 137.159C336.38 137.159 336.702 137.193 337.065 137.261C337.433 137.326 337.787 137.46 338.128 137.665C338.473 137.869 338.759 138.178 338.986 138.591C339.213 139.004 339.327 139.557 339.327 140.25V146H337.986V144.818H337.918C337.827 145.008 337.675 145.21 337.463 145.426C337.251 145.642 336.969 145.826 336.616 145.977C336.264 146.129 335.834 146.205 335.327 146.205ZM335.531 145C336.062 145 336.509 144.896 336.872 144.688C337.24 144.479 337.516 144.21 337.702 143.881C337.891 143.551 337.986 143.205 337.986 142.841V141.614C337.929 141.682 337.804 141.744 337.611 141.801C337.421 141.854 337.202 141.902 336.952 141.943C336.705 141.981 336.465 142.015 336.23 142.045C335.999 142.072 335.812 142.095 335.668 142.114C335.319 142.159 334.993 142.233 334.69 142.335C334.391 142.434 334.149 142.583 333.963 142.784C333.781 142.981 333.69 143.25 333.69 143.591C333.69 144.057 333.863 144.409 334.207 144.648C334.556 144.883 334.997 145 335.531 145ZM341.774 146V137.273H343.07V138.591H343.161C343.32 138.159 343.607 137.809 344.024 137.54C344.441 137.271 344.911 137.136 345.433 137.136C345.532 137.136 345.655 137.138 345.803 137.142C345.95 137.146 346.062 137.152 346.138 137.159V138.523C346.092 138.511 345.988 138.494 345.825 138.472C345.666 138.445 345.498 138.432 345.32 138.432C344.895 138.432 344.517 138.521 344.183 138.699C343.854 138.873 343.592 139.116 343.399 139.426C343.21 139.733 343.115 140.083 343.115 140.477V146H341.774ZM351.121 146.182C350.28 146.182 349.554 145.996 348.945 145.625C348.339 145.25 347.871 144.727 347.541 144.057C347.215 143.383 347.053 142.598 347.053 141.705C347.053 140.811 347.215 140.023 347.541 139.341C347.871 138.655 348.329 138.121 348.916 137.739C349.507 137.352 350.196 137.159 350.984 137.159C351.439 137.159 351.888 137.235 352.331 137.386C352.774 137.538 353.178 137.784 353.541 138.125C353.905 138.462 354.195 138.909 354.411 139.466C354.626 140.023 354.734 140.708 354.734 141.523V142.091H348.007V140.932H353.371C353.371 140.439 353.272 140 353.075 139.614C352.882 139.227 352.606 138.922 352.246 138.699C351.89 138.475 351.469 138.364 350.984 138.364C350.45 138.364 349.988 138.496 349.598 138.761C349.212 139.023 348.914 139.364 348.706 139.784C348.498 140.205 348.393 140.655 348.393 141.136V141.909C348.393 142.568 348.507 143.127 348.734 143.585C348.965 144.04 349.286 144.386 349.695 144.625C350.104 144.86 350.579 144.977 351.121 144.977C351.473 144.977 351.791 144.928 352.075 144.83C352.363 144.727 352.611 144.576 352.82 144.375C353.028 144.17 353.189 143.917 353.303 143.614L354.598 143.977C354.462 144.417 354.232 144.803 353.911 145.136C353.589 145.466 353.191 145.723 352.717 145.909C352.244 146.091 351.712 146.182 351.121 146.182ZM359.342 146.205C358.789 146.205 358.287 146.1 357.837 145.892C357.386 145.68 357.028 145.375 356.763 144.977C356.498 144.576 356.365 144.091 356.365 143.523C356.365 143.023 356.464 142.617 356.661 142.307C356.857 141.992 357.121 141.746 357.45 141.568C357.78 141.39 358.143 141.258 358.541 141.17C358.943 141.08 359.346 141.008 359.751 140.955C360.282 140.886 360.712 140.835 361.041 140.801C361.375 140.763 361.617 140.701 361.768 140.614C361.924 140.527 362.001 140.375 362.001 140.159V140.114C362.001 139.553 361.848 139.117 361.541 138.807C361.238 138.496 360.778 138.341 360.161 138.341C359.52 138.341 359.018 138.481 358.655 138.761C358.291 139.042 358.036 139.341 357.888 139.659L356.615 139.205C356.842 138.674 357.145 138.261 357.524 137.966C357.907 137.667 358.323 137.458 358.774 137.341C359.229 137.22 359.676 137.159 360.115 137.159C360.395 137.159 360.717 137.193 361.081 137.261C361.448 137.326 361.803 137.46 362.143 137.665C362.488 137.869 362.774 138.178 363.001 138.591C363.229 139.004 363.342 139.557 363.342 140.25V146H362.001V144.818H361.933C361.842 145.008 361.691 145.21 361.479 145.426C361.267 145.642 360.984 145.826 360.632 145.977C360.28 146.129 359.85 146.205 359.342 146.205ZM359.547 145C360.077 145 360.524 144.896 360.888 144.688C361.255 144.479 361.532 144.21 361.717 143.881C361.907 143.551 362.001 143.205 362.001 142.841V141.614C361.945 141.682 361.82 141.744 361.626 141.801C361.437 141.854 361.217 141.902 360.967 141.943C360.721 141.981 360.481 142.015 360.246 142.045C360.015 142.072 359.827 142.095 359.683 142.114C359.335 142.159 359.009 142.233 358.706 142.335C358.407 142.434 358.164 142.583 357.979 142.784C357.797 142.981 357.706 143.25 357.706 143.591C357.706 144.057 357.878 144.409 358.223 144.648C358.571 144.883 359.013 145 359.547 145Z" fill="white"/>
</svg>
